<svg width="218" height="244" viewBox="0 0 218 244" fill="none" xmlns="http://www.w3.org/2000/svg">
<g opacity="0.12" filter="url(#filter0_i)">
<path d="M8 35C3.58172 35 0 38.5817 0 43V187.25C0 187.25 0 187.25 0 187.25C0 187.25 0 209 21.75 209H209.5C213.918 209 217.5 205.421 217.5 201.003C217.5 197.837 217.5 193.418 217.5 187.25V35H8ZM76.125 124.875C76.125 129.293 72.5433 132.875 68.125 132.875H40.625C36.2067 132.875 32.625 129.293 32.625 124.875V75.625C32.625 71.2067 36.2067 67.625 40.625 67.625H68.125C72.5433 67.625 76.125 71.2067 76.125 75.625V124.875ZM184.875 124.875C184.875 129.293 181.293 132.875 176.875 132.875H105.875C101.457 132.875 97.875 129.293 97.875 124.875V119.125C97.875 114.707 101.457 111.125 105.875 111.125H176.875C181.293 111.125 184.875 114.707 184.875 119.125V124.875ZM184.875 81.375C184.875 85.7933 181.293 89.375 176.875 89.375H105.875C101.457 89.375 97.875 85.7933 97.875 81.375V75.625C97.875 71.2067 101.457 67.625 105.875 67.625H176.875C181.293 67.625 184.875 71.2067 184.875 75.625V81.375Z" fill="#7D0529"/>
</g>
<defs>
<filter id="filter0_i" x="0" y="35" width="217.5" height="175" filterUnits="userSpaceOnUse" color-interpolation-filters="sRGB">
<feFlood flood-opacity="0" result="BackgroundImageFix"/>
<feBlend mode="normal" in="SourceGraphic" in2="BackgroundImageFix" result="shape"/>
<feColorMatrix in="SourceAlpha" type="matrix" values="0 0 0 0 0 0 0 0 0 0 0 0 0 0 0 0 0 0 127 0" result="hardAlpha"/>
<feOffset dy="1"/>
<feGaussianBlur stdDeviation="0.5"/>
<feComposite in2="hardAlpha" operator="arithmetic" k2="-1" k3="1"/>
<feColorMatrix type="matrix" values="0 0 0 0 0.0666667 0 0 0 0 0 0 0 0 0 0 0 0 0 1 0"/>
<feBlend mode="normal" in2="shape" result="effect1_innerShadow"/>
</filter>
</defs>
</svg>
