<svg width="218" height="244" viewBox="0 0 218 244" fill="none" xmlns="http://www.w3.org/2000/svg">
<g clip-path="url(#clip0)">
<g opacity="0.1" filter="url(#filter0_i)">
<path d="M151.2 86.56C143.04 109.6 131.76 129.04 117.6 145.36C101.52 128.32 88.8 108.64 79.44 86.56H151.2ZM226.8 86.56V52.48H126L145.44 46.48C143.04 36.4 136.32 21.28 130.32 10L92.88 21.04C97.44 30.64 101.76 42.88 104.16 52.48H5.28V86.56H43.2C55.68 118.96 71.04 146.56 90.96 169.6C66.72 187.36 36.72 199.84 0 208C6.72 216.16 17.28 232.48 21.12 240.88C59.04 230.32 90.72 215.2 116.88 194.56C141.6 214.48 171.6 229.36 208.56 238.96C213.84 229.36 224.16 214 232.08 206.32C197.28 198.64 168.24 185.92 144.24 168.64C163.92 146.32 179.28 119.2 190.56 86.56H226.8Z" fill="#272574"/>
</g>
</g>
<defs>
<filter id="filter0_i" x="0" y="10" width="232.08" height="231.88" filterUnits="userSpaceOnUse" color-interpolation-filters="sRGB">
<feFlood flood-opacity="0" result="BackgroundImageFix"/>
<feBlend mode="normal" in="SourceGraphic" in2="BackgroundImageFix" result="shape"/>
<feColorMatrix in="SourceAlpha" type="matrix" values="0 0 0 0 0 0 0 0 0 0 0 0 0 0 0 0 0 0 127 0" result="hardAlpha"/>
<feOffset dy="1"/>
<feGaussianBlur stdDeviation="0.5"/>
<feComposite in2="hardAlpha" operator="arithmetic" k2="-1" k3="1"/>
<feColorMatrix type="matrix" values="0 0 0 0 0.0666667 0 0 0 0 0 0 0 0 0 0 0 0 0 1 0"/>
<feBlend mode="normal" in2="shape" result="effect1_innerShadow"/>
</filter>
<clipPath id="clip0">
<rect width="218" height="244" fill="white"/>
</clipPath>
</defs>
</svg>
