<svg width="40" height="40" viewBox="0 0 40 40" fill="none" xmlns="http://www.w3.org/2000/svg">
<rect width="40" height="40" rx="8" fill="#2C2D34"/>
<mask id="mask0" mask-type="alpha" maskUnits="userSpaceOnUse" x="0" y="0" width="40" height="40">
<rect width="40" height="40" rx="8" fill="#2C2D34"/>
</mask>
<g mask="url(#mask0)">
<path d="M3.78223 20.0007C3.78223 13.5344 9.02423 8.29236 15.4906 8.29236H40V20.0007V31.709H15.4906C9.02423 31.709 3.78223 26.467 3.78223 20.0007Z" fill="#9862F6"/>
<path d="M3.78223 20.0007C3.78223 13.5344 9.02417 8.29236 15.4904 8.29236V8.29236C21.9567 8.29236 27.1986 13.5344 27.1986 20.0007V20.0007C27.1986 26.467 21.9567 31.709 15.4904 31.709V31.709C9.02417 31.709 3.78223 26.467 3.78223 20.0007V20.0007Z" fill="#E05A32"/>
<path d="M16.4427 20.6022V17.1904H20.0291V20.6022H16.4427ZM10.8728 20.6022V17.1904H14.4432V20.6022H10.8728ZM16.4427 15.3338V12.5885H14.4432V15.3338H8.96851L8.96851 22.5492H10.8728H14.4432V27.4099H16.4427V22.5492H20.0291H22.0126V15.3338H16.4427Z" fill="white"/>
</g>
</svg>
