<svg width="122" height="40" viewBox="0 0 122 40" fill="none" xmlns="http://www.w3.org/2000/svg">
<path d="M99.1665 7.53968C99.1665 6.13705 100.304 5 101.706 5H119.127C120.529 5 121.666 6.13705 121.666 7.53968V15.7936C121.666 17.1963 120.529 18.3333 119.127 18.3333H101.706C100.304 18.3333 99.1665 17.1963 99.1665 15.7936V7.53968Z" fill="#FEEFF3"/>
<path d="M106.349 12.6479C106.349 13.3562 106.189 13.9261 105.87 14.3574C105.551 14.7858 105.122 15 104.584 15C104.01 15 103.566 14.793 103.252 14.3788L103.214 14.9143H102.5V8.33337H103.277V10.7884C103.591 10.3914 104.024 10.1928 104.576 10.1928C105.128 10.1928 105.56 10.4056 105.874 10.8312C106.191 11.2568 106.349 11.8395 106.349 12.5793V12.6479ZM105.572 12.5579C105.572 12.018 105.469 11.601 105.265 11.3068C105.06 11.0126 104.766 10.8655 104.383 10.8655C103.87 10.8655 103.501 11.1083 103.277 11.5939V13.599C103.515 14.0846 103.887 14.3274 104.391 14.3274C104.764 14.3274 105.053 14.1803 105.261 13.8861C105.468 13.5919 105.572 13.1491 105.572 12.5579Z" fill="#F65C8A"/>
<path d="M109.219 15C108.603 15 108.101 14.7944 107.715 14.3831C107.328 13.9689 107.135 13.4162 107.135 12.725V12.5793C107.135 12.1194 107.22 11.7096 107.391 11.3497C107.565 10.9869 107.806 10.7041 108.114 10.5013C108.425 10.2957 108.761 10.1928 109.122 10.1928C109.714 10.1928 110.173 10.3914 110.501 10.7884C110.828 11.1854 110.992 11.7538 110.992 12.4936V12.8235H107.912C107.923 13.2805 108.054 13.6504 108.303 13.9332C108.555 14.2131 108.875 14.3531 109.261 14.3531C109.536 14.3531 109.768 14.296 109.959 14.1817C110.149 14.0674 110.316 13.9161 110.459 13.7275L110.934 14.1046C110.553 14.7016 109.981 15 109.219 15ZM109.122 10.8441C108.809 10.8441 108.545 10.9612 108.332 11.1954C108.12 11.4268 107.988 11.7524 107.937 12.1723H110.215V12.1123C110.193 11.7096 110.086 11.3982 109.896 11.1783C109.705 10.9555 109.447 10.8441 109.122 10.8441Z" fill="#F65C8A"/>
<path d="M112.951 9.156V10.2785H113.799V10.8912H112.951V13.7661C112.951 13.9518 112.988 14.0917 113.064 14.186C113.14 14.2774 113.268 14.3231 113.451 14.3231C113.54 14.3231 113.663 14.306 113.82 14.2717V14.9143C113.616 14.9715 113.417 15 113.224 15C112.876 15 112.614 14.8929 112.438 14.6787C112.261 14.4645 112.173 14.1603 112.173 13.7661V10.8912H111.345V10.2785H112.173V9.156H112.951Z" fill="#F65C8A"/>
<path d="M117.518 14.9143C117.473 14.8229 117.437 14.6601 117.409 14.4259C117.048 14.8087 116.616 15 116.115 15C115.666 15 115.298 14.8715 115.01 14.6144C114.724 14.3545 114.581 14.026 114.581 13.629C114.581 13.1463 114.76 12.7721 115.119 12.5065C115.48 12.238 115.987 12.1037 116.64 12.1037H117.396V11.7395C117.396 11.4625 117.315 11.2425 117.153 11.0797C116.99 10.9141 116.751 10.8312 116.434 10.8312C116.157 10.8312 115.924 10.9026 115.736 11.0455C115.549 11.1883 115.455 11.3611 115.455 11.5639H114.673C114.673 11.3325 114.753 11.1097 114.913 10.8955C115.075 10.6784 115.294 10.507 115.568 10.3814C115.846 10.2557 116.15 10.1928 116.48 10.1928C117.004 10.1928 117.414 10.3271 117.711 10.5956C118.008 10.8612 118.162 11.2283 118.174 11.6967V13.8304C118.174 14.256 118.227 14.5944 118.333 14.8458V14.9143H117.518ZM116.228 14.3102C116.472 14.3102 116.703 14.246 116.921 14.1174C117.14 13.9889 117.298 13.8218 117.396 13.6161V12.665H116.787C115.835 12.665 115.358 12.9492 115.358 13.5176C115.358 13.7661 115.44 13.9603 115.602 14.1003C115.764 14.2403 115.973 14.3102 116.228 14.3102Z" fill="#F65C8A"/>
<path fill-rule="evenodd" clip-rule="evenodd" d="M96.6668 16.4515V30.2995H94.8025V16.4515H96.6668ZM74.0047 26.2492C74.0047 25.0959 74.4218 24.1148 75.2559 23.3058C76.09 22.4969 77.1064 22.0924 78.3051 22.0924C79.5094 22.0924 80.5313 22.4996 81.3709 23.314C82.1995 24.1284 82.6138 25.1287 82.6138 26.3148C82.6138 27.5118 82.1968 28.5148 81.3626 29.3238C80.523 30.1273 79.4928 30.529 78.272 30.529C77.0622 30.529 76.0486 30.1191 75.231 29.2992C74.4135 28.4902 74.0047 27.4736 74.0047 26.2492ZM75.9105 26.282C75.9105 27.08 76.1259 27.7114 76.5568 28.176C76.9987 28.646 77.5815 28.8811 78.3051 28.8811C79.0343 28.8811 79.6171 28.6488 80.0535 28.1842C80.4899 27.7196 80.7081 27.0992 80.7081 26.323C80.7081 25.5468 80.4899 24.9265 80.0535 24.4619C79.6115 23.9918 79.0288 23.7568 78.3051 23.7568C77.5925 23.7568 77.0153 23.9918 76.5734 24.4619C76.1314 24.9319 75.9105 25.5386 75.9105 26.282ZM85.4642 23.3058C84.6301 24.1148 84.213 25.0959 84.213 26.2492C84.213 27.4736 84.6218 28.4902 85.4393 29.2992C86.2569 30.1191 87.2705 30.529 88.4803 30.529C89.7011 30.529 90.7313 30.1273 91.571 29.3238C92.4051 28.5148 92.8221 27.5118 92.8221 26.3148C92.8221 25.1287 92.4078 24.1284 91.5792 23.314C90.7396 22.4996 89.7177 22.0924 88.5134 22.0924C87.3147 22.0924 86.2983 22.4969 85.4642 23.3058ZM86.7651 28.176C86.3342 27.7114 86.1188 27.08 86.1188 26.282C86.1188 25.5386 86.3397 24.9319 86.7817 24.4619C87.2236 23.9918 87.8008 23.7568 88.5134 23.7568C89.2371 23.7568 89.8199 23.9918 90.2618 24.4619C90.6982 24.9265 90.9164 25.5468 90.9164 26.323C90.9164 27.0992 90.6982 27.7196 90.2618 28.1842C89.8254 28.6488 89.2426 28.8811 88.5134 28.8811C87.7898 28.8811 87.207 28.646 86.7651 28.176ZM68.2673 19.4425C67.3654 19.3234 66.4481 19.4716 65.6313 19.8684C64.8145 20.2652 64.135 20.8927 63.6786 21.6716C63.2223 22.4505 63.0096 23.3458 63.0675 24.2443C63.1254 25.1428 63.4513 26.0042 64.0039 26.7194C64.5566 27.4347 65.3111 27.9717 66.1722 28.2626C67.0333 28.5536 67.9622 28.5853 68.8415 28.3538C69.7208 28.1223 70.511 27.638 71.1122 26.9622L72.714 28.3571C71.834 29.3464 70.6773 30.0554 69.3902 30.3942C68.103 30.733 66.7432 30.6866 65.4827 30.2608C64.2223 29.8349 63.1177 29.0488 62.3088 28.0018C61.4998 26.9548 61.0228 25.6939 60.9381 24.3787C60.8533 23.0634 61.1646 21.7528 61.8326 20.6127C62.5006 19.4725 63.4953 18.5539 64.6909 17.9731C65.8865 17.3923 67.2293 17.1753 68.5496 17.3497C69.8698 17.524 71.1081 18.0818 72.1079 18.9525L70.6982 20.5375C70.0151 19.9427 69.1692 19.5616 68.2673 19.4425ZM58.6032 27.3659H55.8335V30.1065H58.6032V27.3659Z" fill="#FEEFF3"/>
<path fill-rule="evenodd" clip-rule="evenodd" d="M12.0439 20.9564V29.7461H8.98156V20.9564H12.0439ZM8.77853 17.581C8.77853 17.3412 8.82365 17.1184 8.91388 16.9128C9.00412 16.6958 9.12819 16.5073 9.2861 16.3474C9.44402 16.1875 9.62449 16.0618 9.82752 15.9704C10.0418 15.8791 10.2674 15.8334 10.5043 15.8334C10.7411 15.8334 10.9611 15.8791 11.1641 15.9704C11.3784 16.0618 11.5645 16.1875 11.7225 16.3474C11.8804 16.5073 12.0044 16.6958 12.0947 16.9128C12.1849 17.1184 12.23 17.3412 12.23 17.581C12.23 17.8209 12.1849 18.0494 12.0947 18.2664C12.0044 18.472 11.8804 18.6548 11.7225 18.8147C11.5645 18.9746 11.3784 19.1002 11.1641 19.1916C10.9611 19.283 10.7411 19.3287 10.5043 19.3287C10.2674 19.3287 10.0418 19.283 9.82752 19.1916C9.62449 19.1002 9.44402 18.9746 9.2861 18.8147C9.12819 18.6548 9.00412 18.472 8.91388 18.2664C8.82365 18.0494 8.77853 17.8209 8.77853 17.581ZM7.30907 19.6714H3.31615V21.8303H6.95377V24.6745H3.31615V29.7461H0V16.8271H7.30907V19.6714ZM17.1313 26.1137C17.0298 25.8625 16.979 25.594 16.979 25.3085C16.979 25.0343 17.0298 24.7773 17.1313 24.5374C17.2441 24.2976 17.3907 24.0919 17.5712 23.9206C17.7517 23.7378 17.9603 23.5951 18.1972 23.4923C18.4341 23.378 18.6879 23.3209 18.9586 23.3209C19.218 23.3209 19.4661 23.3723 19.703 23.4751C19.9512 23.5779 20.1655 23.7207 20.3459 23.9035C20.5264 24.0862 20.6674 24.2976 20.7689 24.5374C20.8817 24.7773 20.9381 25.04 20.9381 25.3256C20.9381 25.5997 20.8817 25.8625 20.7689 26.1137C20.6674 26.3536 20.5264 26.5649 20.3459 26.7477C20.1767 26.9305 19.9681 27.0733 19.7199 27.1761C19.4831 27.2789 19.2293 27.3303 18.9586 27.3303C18.6766 27.3303 18.4115 27.2789 18.1634 27.1761C17.9265 27.0733 17.7178 26.9305 17.5374 26.7477C17.3682 26.5649 17.2328 26.3536 17.1313 26.1137ZM23.8482 29.1465V20.9564H20.7858V21.8817C20.0865 21.1049 19.2236 20.7166 18.1972 20.7166C17.5656 20.7166 16.979 20.8422 16.4376 21.0935C15.9075 21.3334 15.445 21.6703 15.0502 22.1044C14.6667 22.527 14.3622 23.0296 14.1366 23.6122C13.911 24.1833 13.7982 24.8059 13.7982 25.4798C13.7982 26.1423 13.8997 26.7477 14.1028 27.296C14.3171 27.8329 14.6103 28.2955 14.9826 28.6838C15.3661 29.0722 15.8172 29.3749 16.3361 29.5919C16.855 29.809 17.4246 29.9175 18.0449 29.9175C18.3269 29.9175 18.5863 29.8946 18.8232 29.849C19.0601 29.8147 19.2857 29.7519 19.5 29.6605C19.7143 29.5691 19.923 29.4549 20.126 29.3178C20.3403 29.1693 20.5603 28.9865 20.7858 28.7695V29.6091C20.7858 30.2602 20.611 30.7685 20.2613 31.134C19.923 31.4995 19.4323 31.6823 18.7894 31.6823C18.0337 31.6823 17.5486 31.391 17.3343 30.8085H13.8828C13.9731 31.2882 14.1535 31.728 14.4242 32.1278C14.6949 32.539 15.039 32.8931 15.4563 33.1901C15.8849 33.4985 16.3812 33.7384 16.9452 33.9097C17.5092 34.081 18.1295 34.1667 18.8063 34.1667C19.4041 34.1667 19.9568 34.0982 20.4644 33.9611C20.9832 33.824 21.4457 33.6356 21.8517 33.3957C22.2578 33.1558 22.6018 32.8702 22.8838 32.539C23.1771 32.2192 23.3914 31.8708 23.5267 31.4938C23.6283 31.1968 23.7072 30.8541 23.7636 30.4658C23.82 30.0774 23.8482 29.6376 23.8482 29.1465ZM25.9338 20.9564H28.9961V22.0359C29.8308 21.2249 30.767 20.8194 31.8047 20.8194C33.0906 20.8194 34.0719 21.3676 34.7486 22.4642C35.4367 21.3562 36.418 20.8022 37.6926 20.8022C38.0986 20.8022 38.4821 20.865 38.8431 20.9907C39.204 21.1049 39.5142 21.2934 39.7736 21.5561C40.033 21.8074 40.2361 22.1387 40.3827 22.5499C40.5406 22.9611 40.6196 23.458 40.6196 24.0405V29.7461H37.5572V25.4113C37.5572 24.9658 37.5234 24.6003 37.4557 24.3147C37.3993 24.0291 37.3091 23.8064 37.185 23.6465C37.0722 23.4865 36.9368 23.378 36.7789 23.3209C36.621 23.2638 36.4518 23.2352 36.2714 23.2352C35.29 23.2352 34.7994 23.9606 34.7994 25.4113V29.7461H31.737V25.4113C31.737 24.9658 31.7088 24.6003 31.6524 24.3147C31.596 24.0177 31.5114 23.7835 31.3986 23.6122C31.2971 23.4409 31.1618 23.3266 30.9926 23.2695C30.8234 23.201 30.626 23.1667 30.4004 23.1667C30.2087 23.1667 30.0282 23.1953 29.859 23.2524C29.6898 23.3095 29.5375 23.4237 29.4022 23.5951C29.2781 23.755 29.1766 23.9834 29.0976 24.2804C29.03 24.566 28.9961 24.9429 28.9961 25.4113V29.7461H25.9338V20.9564ZM45.7154 26.1309C45.6139 25.8796 45.5631 25.6112 45.5631 25.3256C45.5631 25.0514 45.6139 24.8001 45.7154 24.5717C45.8169 24.3318 45.9523 24.1205 46.1215 23.9377C46.3019 23.755 46.5106 23.6122 46.7475 23.5094C46.9956 23.4066 47.2607 23.3552 47.5427 23.3552C47.8134 23.3552 48.0672 23.4066 48.304 23.5094C48.5522 23.6122 48.7609 23.755 48.9301 23.9377C49.1105 24.1205 49.2515 24.3375 49.353 24.5888C49.4658 24.8287 49.5222 25.0857 49.5222 25.3599C49.5222 25.634 49.4658 25.891 49.353 26.1309C49.2515 26.3708 49.1105 26.5821 48.9301 26.7648C48.7609 26.9476 48.5522 27.0904 48.304 27.1932C48.0672 27.296 47.8134 27.3474 47.5427 27.3474C47.2607 27.3474 46.9956 27.296 46.7475 27.1932C46.5106 27.0904 46.3019 26.9476 46.1215 26.7648C45.9523 26.5821 45.8169 26.3708 45.7154 26.1309ZM52.5 20.9564H49.4207V21.8303C48.7101 21.0649 47.8134 20.6823 46.7306 20.6823C46.0876 20.6823 45.5011 20.8079 44.971 21.0592C44.4408 21.2991 43.984 21.6304 43.6005 22.053C43.217 22.4756 42.9181 22.9725 42.7038 23.5437C42.4895 24.1034 42.3823 24.6973 42.3823 25.3256C42.3823 25.9995 42.4895 26.6221 42.7038 27.1932C42.9294 27.7643 43.2396 28.2612 43.6344 28.6838C44.0291 29.1065 44.4916 29.4377 45.0217 29.6776C45.5519 29.9061 46.1328 30.0203 46.7644 30.0203C47.8811 30.0203 48.7665 29.6034 49.4207 28.7695V29.7461H52.5V20.9564Z" fill="#FEEFF3"/>
</svg>
