<svg width="269" height="164" viewBox="0 0 269 164" fill="none" xmlns="http://www.w3.org/2000/svg">
<g opacity="0.3">
<path d="M116.475 5.53792C117.865 5.53792 118.992 4.41463 118.992 3.02897C118.992 1.64332 117.865 0.52002 116.475 0.52002C115.085 0.52002 113.958 1.64332 113.958 3.02897C113.958 4.41463 115.085 5.53792 116.475 5.53792Z" fill="#484C6C"/>
<path d="M116.475 18.5083C118.08 18.5083 119.382 17.2108 119.382 15.6101C119.382 14.0095 118.08 12.7119 116.475 12.7119C114.869 12.7119 113.568 14.0095 113.568 15.6101C113.568 17.2108 114.869 18.5083 116.475 18.5083Z" fill="#484C6C"/>
<path d="M116.475 31.4712C118.294 31.4712 119.769 30.0009 119.769 28.187C119.769 26.3732 118.294 24.9028 116.475 24.9028C114.656 24.9028 113.181 26.3732 113.181 28.187C113.181 30.0009 114.656 31.4712 116.475 31.4712Z" fill="#484C6C"/>
<path d="M116.478 44.4318C118.507 44.4318 120.153 42.7915 120.153 40.7682C120.153 38.7448 118.507 37.1045 116.478 37.1045C114.448 37.1045 112.803 38.7448 112.803 40.7682C112.803 42.7915 114.448 44.4318 116.478 44.4318Z" fill="#484C6C"/>
<path d="M116.475 57.2808C118.722 57.2808 120.543 55.4648 120.543 53.2246C120.543 50.9845 118.722 49.1685 116.475 49.1685C114.228 49.1685 112.406 50.9845 112.406 53.2246C112.406 55.4648 114.228 57.2808 116.475 57.2808Z" fill="#484C6C"/>
<path d="M116.478 70.3654C118.935 70.3654 120.927 68.3795 120.927 65.9298C120.927 63.4801 118.935 61.4941 116.478 61.4941C114.021 61.4941 112.029 63.4801 112.029 65.9298C112.029 68.3795 114.021 70.3654 116.478 70.3654Z" fill="#484C6C"/>
<path d="M116.478 83.3385C119.153 83.3385 121.321 81.1768 121.321 78.5103C121.321 75.8438 119.153 73.6821 116.478 73.6821C113.803 73.6821 111.635 75.8438 111.635 78.5103C111.635 81.1768 113.803 83.3385 116.478 83.3385Z" fill="#484C6C"/>
<path d="M104.033 5.53792C105.423 5.53792 106.55 4.41463 106.55 3.02897C106.55 1.64332 105.423 0.52002 104.033 0.52002C102.643 0.52002 101.517 1.64332 101.517 3.02897C101.517 4.41463 102.643 5.53792 104.033 5.53792Z" fill="#484C6C"/>
<path d="M104.033 18.5083C105.639 18.5083 106.94 17.2108 106.94 15.6101C106.94 14.0095 105.639 12.7119 104.033 12.7119C102.428 12.7119 101.126 14.0095 101.126 15.6101C101.126 17.2108 102.428 18.5083 104.033 18.5083Z" fill="#484C6C"/>
<path d="M104.033 31.4712C105.853 31.4712 107.328 30.0009 107.328 28.187C107.328 26.3732 105.853 24.9028 104.033 24.9028C102.214 24.9028 100.739 26.3732 100.739 28.187C100.739 30.0009 102.214 31.4712 104.033 31.4712Z" fill="#484C6C"/>
<path d="M104.033 44.4318C106.063 44.4318 107.708 42.7915 107.708 40.7682C107.708 38.7448 106.063 37.1045 104.033 37.1045C102.004 37.1045 100.358 38.7448 100.358 40.7682C100.358 42.7915 102.004 44.4318 104.033 44.4318Z" fill="#484C6C"/>
<path d="M104.033 57.2808C106.28 57.2808 108.102 55.4648 108.102 53.2246C108.102 50.9845 106.28 49.1685 104.033 49.1685C101.786 49.1685 99.9648 50.9845 99.9648 53.2246C99.9648 55.4648 101.786 57.2808 104.033 57.2808Z" fill="#484C6C"/>
<path d="M104.034 70.3654C106.491 70.3654 108.483 68.3795 108.483 65.9298C108.483 63.4801 106.491 61.4941 104.034 61.4941C101.576 61.4941 99.5845 63.4801 99.5845 65.9298C99.5845 68.3795 101.576 70.3654 104.034 70.3654Z" fill="#484C6C"/>
<path d="M104.033 157.632C106.065 157.632 107.711 155.99 107.711 153.965C107.711 151.94 106.065 150.298 104.033 150.298C102.002 150.298 100.355 151.94 100.355 153.965C100.355 155.99 102.002 157.632 104.033 157.632Z" fill="#484C6C"/>
<path d="M104.033 145.441C106.278 145.441 108.098 143.627 108.098 141.388C108.098 139.15 106.278 137.335 104.033 137.335C101.788 137.335 99.9678 139.15 99.9678 141.388C99.9678 143.627 101.788 145.441 104.033 145.441Z" fill="#484C6C"/>
<path d="M104.034 133.246C106.491 133.246 108.483 131.26 108.483 128.81C108.483 126.36 106.491 124.375 104.034 124.375C101.576 124.375 99.5845 126.36 99.5845 128.81C99.5845 131.26 101.576 133.246 104.034 133.246Z" fill="#484C6C"/>
<path d="M116.478 157.632C118.51 157.632 120.156 155.99 120.156 153.965C120.156 151.94 118.51 150.298 116.478 150.298C114.447 150.298 112.8 151.94 112.8 153.965C112.8 155.99 114.447 157.632 116.478 157.632Z" fill="#484C6C"/>
<path d="M116.475 145.441C118.72 145.441 120.54 143.627 120.54 141.388C120.54 139.15 118.72 137.335 116.475 137.335C114.23 137.335 112.41 139.15 112.41 141.388C112.41 143.627 114.23 145.441 116.475 145.441Z" fill="#484C6C"/>
<path d="M116.478 133.246C118.935 133.246 120.927 131.26 120.927 128.81C120.927 126.36 118.935 124.375 116.478 124.375C114.021 124.375 112.029 126.36 112.029 128.81C112.029 131.26 114.021 133.246 116.478 133.246Z" fill="#484C6C"/>
<path d="M104.033 83.3385C106.708 83.3385 108.876 81.1768 108.876 78.5103C108.876 75.8438 106.708 73.6821 104.033 73.6821C101.359 73.6821 99.1904 75.8438 99.1904 78.5103C99.1904 81.1768 101.359 83.3385 104.033 83.3385Z" fill="#484C6C"/>
<path d="M116.478 95.2389C119.153 95.2389 121.321 93.0772 121.321 90.4107C121.321 87.7442 119.153 85.5825 116.478 85.5825C113.803 85.5825 111.635 87.7442 111.635 90.4107C111.635 93.0772 113.803 95.2389 116.478 95.2389Z" fill="#484C6C"/>
<path d="M104.033 95.2389C106.708 95.2389 108.876 93.0772 108.876 90.4107C108.876 87.7442 106.708 85.5825 104.033 85.5825C101.359 85.5825 99.1904 87.7442 99.1904 90.4107C99.1904 93.0772 101.359 95.2389 104.033 95.2389Z" fill="#484C6C"/>
<path d="M116.478 107.129C119.151 107.129 121.318 104.969 121.318 102.304C121.318 99.6397 119.151 97.4795 116.478 97.4795C113.805 97.4795 111.639 99.6397 111.639 102.304C111.639 104.969 113.805 107.129 116.478 107.129Z" fill="#484C6C"/>
<path d="M104.033 107.129C106.706 107.129 108.873 104.969 108.873 102.304C108.873 99.6397 106.706 97.4795 104.033 97.4795C101.361 97.4795 99.1938 99.6397 99.1938 102.304C99.1938 104.969 101.361 107.129 104.033 107.129Z" fill="#484C6C"/>
<path d="M116.478 120.02C119.151 120.02 121.318 117.86 121.318 115.196C121.318 112.531 119.151 110.371 116.478 110.371C113.805 110.371 111.639 112.531 111.639 115.196C111.639 117.86 113.805 120.02 116.478 120.02Z" fill="#484C6C"/>
<path d="M128.936 5.53792C130.326 5.53792 131.452 4.41463 131.452 3.02897C131.452 1.64332 130.326 0.52002 128.936 0.52002C127.546 0.52002 126.419 1.64332 126.419 3.02897C126.419 4.41463 127.546 5.53792 128.936 5.53792Z" fill="#484C6C"/>
<path d="M128.926 18.5083C130.532 18.5083 131.833 17.2108 131.833 15.6101C131.833 14.0095 130.532 12.7119 128.926 12.7119C127.321 12.7119 126.02 14.0095 126.02 15.6101C126.02 17.2108 127.321 18.5083 128.926 18.5083Z" fill="#484C6C"/>
<path d="M128.91 31.4712C130.729 31.4712 132.204 30.0009 132.204 28.187C132.204 26.3732 130.729 24.9028 128.91 24.9028C127.091 24.9028 125.616 26.3732 125.616 28.187C125.616 30.0009 127.091 31.4712 128.91 31.4712Z" fill="#484C6C"/>
<path d="M128.897 44.4318C130.926 44.4318 132.572 42.7915 132.572 40.7682C132.572 38.7448 130.926 37.1045 128.897 37.1045C126.867 37.1045 125.222 38.7448 125.222 40.7682C125.222 42.7915 126.867 44.4318 128.897 44.4318Z" fill="#484C6C"/>
<path d="M128.883 57.2808C131.13 57.2808 132.952 55.4648 132.952 53.2246C132.952 50.9845 131.13 49.1685 128.883 49.1685C126.636 49.1685 124.815 50.9845 124.815 53.2246C124.815 55.4648 126.636 57.2808 128.883 57.2808Z" fill="#484C6C"/>
<path d="M128.867 70.3654C131.324 70.3654 133.316 68.3795 133.316 65.9298C133.316 63.4801 131.324 61.4941 128.867 61.4941C126.41 61.4941 124.418 63.4801 124.418 65.9298C124.418 68.3795 126.41 70.3654 128.867 70.3654Z" fill="#484C6C"/>
<path d="M128.857 83.3385C131.532 83.3385 133.7 81.1768 133.7 78.5103C133.7 75.8438 131.532 73.6821 128.857 73.6821C126.183 73.6821 124.015 75.8438 124.015 78.5103C124.015 81.1768 126.183 83.3385 128.857 83.3385Z" fill="#484C6C"/>
<path d="M128.897 157.632C130.928 157.632 132.575 155.99 132.575 153.965C132.575 151.94 130.928 150.298 128.897 150.298C126.865 150.298 125.219 151.94 125.219 153.965C125.219 155.99 126.865 157.632 128.897 157.632Z" fill="#484C6C"/>
<path d="M128.884 145.441C131.129 145.441 132.949 143.627 132.949 141.388C132.949 139.15 131.129 137.335 128.884 137.335C126.639 137.335 124.819 139.15 124.819 141.388C124.819 143.627 126.639 145.441 128.884 145.441Z" fill="#484C6C"/>
<path d="M128.867 133.246C131.324 133.246 133.316 131.26 133.316 128.81C133.316 126.36 131.324 124.375 128.867 124.375C126.41 124.375 124.418 126.36 124.418 128.81C124.418 131.26 126.41 133.246 128.867 133.246Z" fill="#484C6C"/>
<path d="M128.857 95.2389C131.532 95.2389 133.7 93.0772 133.7 90.4107C133.7 87.7442 131.532 85.5825 128.857 85.5825C126.183 85.5825 124.015 87.7442 124.015 90.4107C124.015 93.0772 126.183 95.2389 128.857 95.2389Z" fill="#484C6C"/>
<path d="M128.858 107.129C131.53 107.129 133.697 104.969 133.697 102.304C133.697 99.6397 131.53 97.4795 128.858 97.4795C126.185 97.4795 124.018 99.6397 124.018 102.304C124.018 104.969 126.185 107.129 128.858 107.129Z" fill="#484C6C"/>
<path d="M128.858 120.02C131.53 120.02 133.697 117.86 133.697 115.196C133.697 112.531 131.53 110.371 128.858 110.371C126.185 110.371 124.018 112.531 124.018 115.196C124.018 117.86 126.185 120.02 128.858 120.02Z" fill="#484C6C"/>
<path d="M141.824 157.632C143.855 157.632 145.502 155.99 145.502 153.965C145.502 151.94 143.855 150.298 141.824 150.298C139.793 150.298 138.146 151.94 138.146 153.965C138.146 155.99 139.793 157.632 141.824 157.632Z" fill="#484C6C"/>
<path d="M141.817 145.441C144.062 145.441 145.882 143.627 145.882 141.388C145.882 139.15 144.062 137.335 141.817 137.335C139.572 137.335 137.752 139.15 137.752 141.388C137.752 143.627 139.572 145.441 141.817 145.441Z" fill="#484C6C"/>
<path d="M154.249 94.8721C156.496 94.8721 158.318 93.0561 158.318 90.8159C158.318 88.5758 156.496 86.7598 154.249 86.7598C152.002 86.7598 150.181 88.5758 150.181 90.8159C150.181 93.0561 152.002 94.8721 154.249 94.8721Z" fill="#484C6C"/>
<path d="M166.835 94.5586C168.908 94.5586 170.589 92.8831 170.589 90.8164C170.589 88.7497 168.908 87.0742 166.835 87.0742C164.762 87.0742 163.082 88.7497 163.082 90.8164C163.082 92.8831 164.762 94.5586 166.835 94.5586Z" fill="#484C6C"/>
<path d="M179.428 94.2481C181.328 94.2481 182.869 92.7118 182.869 90.8167C182.869 88.9215 181.328 87.3853 179.428 87.3853C177.527 87.3853 175.986 88.9215 175.986 90.8167C175.986 92.7118 177.527 94.2481 179.428 94.2481Z" fill="#484C6C"/>
<path d="M192.02 93.9366C193.749 93.9366 195.15 92.5394 195.15 90.816C195.15 89.0925 193.749 87.6953 192.02 87.6953C190.292 87.6953 188.89 89.0925 188.89 90.816C188.89 92.5394 190.292 93.9366 192.02 93.9366Z" fill="#484C6C"/>
<path d="M204.613 93.6262C206.169 93.6262 207.431 92.3681 207.431 90.8162C207.431 89.2644 206.169 88.0063 204.613 88.0063C203.056 88.0063 201.794 89.2644 201.794 90.8162C201.794 92.3681 203.056 93.6262 204.613 93.6262Z" fill="#484C6C"/>
<path d="M217.205 93.3116C218.588 93.3116 219.708 92.1941 219.708 90.8157C219.708 89.4373 218.588 88.3198 217.205 88.3198C215.822 88.3198 214.702 89.4373 214.702 90.8157C214.702 92.1941 215.822 93.3116 217.205 93.3116Z" fill="#484C6C"/>
<path d="M229.794 93.0011C231.005 93.0011 231.986 92.0228 231.986 90.816C231.986 89.6092 231.005 88.6309 229.794 88.6309C228.584 88.6309 227.603 89.6092 227.603 90.816C227.603 92.0228 228.584 93.0011 229.794 93.0011Z" fill="#484C6C"/>
<path d="M242.387 92.6901C243.425 92.6901 244.267 91.8509 244.267 90.8158C244.267 89.7806 243.425 88.9414 242.387 88.9414C241.349 88.9414 240.507 89.7806 240.507 90.8158C240.507 91.8509 241.349 92.6901 242.387 92.6901Z" fill="#484C6C"/>
<path d="M254.979 92.3833C255.847 92.3833 256.551 91.6817 256.551 90.8164C256.551 89.951 255.847 89.2495 254.979 89.2495C254.111 89.2495 253.408 89.951 253.408 90.8164C253.408 91.6817 254.111 92.3833 254.979 92.3833Z" fill="#484C6C"/>
<path d="M267.572 92.0692C268.266 92.0692 268.829 91.5082 268.829 90.8163C268.829 90.1244 268.266 89.5635 267.572 89.5635C266.878 89.5635 266.315 90.1244 266.315 90.8163C266.315 91.5082 266.878 92.0692 267.572 92.0692Z" fill="#484C6C"/>
<path d="M79.5272 99.3018C81.7714 99.3018 83.5924 101.111 83.5924 103.351C83.5924 105.592 81.7681 107.408 79.5272 107.408C77.2863 107.408 75.4653 105.592 75.4653 103.351C75.4653 101.124 77.2863 99.3018 79.5272 99.3018Z" fill="#484C6C"/>
<path d="M66.938 107.093C69.011 107.093 70.6915 105.418 70.6915 103.351C70.6915 101.284 69.011 99.6089 66.938 99.6089C64.8651 99.6089 63.1846 101.284 63.1846 103.351C63.1846 105.418 64.8651 107.093 66.938 107.093Z" fill="#484C6C"/>
<path d="M53.8636 105.85C55.248 105.85 56.3703 104.731 56.3703 103.351C56.3703 101.97 55.248 100.852 53.8636 100.852C52.4792 100.852 51.3569 101.97 51.3569 103.351C51.3569 104.731 52.4792 105.85 53.8636 105.85Z" fill="#484C6C"/>
<path d="M41.2742 105.537C42.4847 105.537 43.466 104.558 43.466 103.352C43.466 102.145 42.4847 101.167 41.2742 101.167C40.0638 101.167 39.0825 102.145 39.0825 103.352C39.0825 104.558 40.0638 105.537 41.2742 105.537Z" fill="#484C6C"/>
<path d="M28.6818 105.225C29.7201 105.225 30.5618 104.386 30.5618 103.351C30.5618 102.316 29.7201 101.477 28.6818 101.477C27.6435 101.477 26.8018 102.316 26.8018 103.351C26.8018 104.386 27.6435 105.225 28.6818 105.225Z" fill="#484C6C"/>
<path d="M16.0892 104.918C16.9572 104.918 17.6608 104.216 17.6608 103.351C17.6608 102.486 16.9572 101.784 16.0892 101.784C15.2212 101.784 14.5176 102.486 14.5176 103.351C14.5176 104.216 15.2212 104.918 16.0892 104.918Z" fill="#484C6C"/>
<path d="M3.4998 104.604C4.19381 104.604 4.75643 104.043 4.75643 103.351C4.75643 102.66 4.19381 102.099 3.4998 102.099C2.80578 102.099 2.24316 102.66 2.24316 103.351C2.24316 104.043 2.80578 104.604 3.4998 104.604Z" fill="#484C6C"/>
<path d="M154.403 119.347C156.476 119.347 158.157 117.672 158.157 115.605C158.157 113.538 156.476 111.863 154.403 111.863C152.33 111.863 150.65 113.538 150.65 115.605C150.65 117.672 152.33 119.347 154.403 119.347Z" fill="#484C6C"/>
<path d="M166.996 119.036C168.897 119.036 170.438 117.499 170.438 115.604C170.438 113.709 168.897 112.173 166.996 112.173C165.095 112.173 163.554 113.709 163.554 115.604C163.554 117.499 165.095 119.036 166.996 119.036Z" fill="#484C6C"/>
<path d="M179.589 118.722C181.316 118.722 182.715 117.326 182.715 115.605C182.715 113.883 181.316 112.487 179.589 112.487C177.862 112.487 176.462 113.883 176.462 115.605C176.462 117.326 177.862 118.722 179.589 118.722Z" fill="#484C6C"/>
<path d="M192.181 118.412C193.736 118.412 194.996 117.156 194.996 115.605C194.996 114.055 193.736 112.799 192.181 112.799C190.626 112.799 189.366 114.055 189.366 115.605C189.366 117.156 190.626 118.412 192.181 118.412Z" fill="#484C6C"/>
<path d="M204.77 118.101C206.153 118.101 207.273 116.983 207.273 115.605C207.273 114.226 206.153 113.109 204.77 113.109C203.387 113.109 202.267 114.226 202.267 115.605C202.267 116.983 203.387 118.101 204.77 118.101Z" fill="#484C6C"/>
<path d="M217.363 117.793C218.575 117.793 219.558 116.813 219.558 115.605C219.558 114.396 218.575 113.417 217.363 113.417C216.151 113.417 215.168 114.396 215.168 115.605C215.168 116.813 216.151 117.793 217.363 117.793Z" fill="#484C6C"/>
<path d="M229.955 117.476C230.992 117.476 231.832 116.638 231.832 115.604C231.832 114.571 230.992 113.733 229.955 113.733C228.919 113.733 228.079 114.571 228.079 115.604C228.079 116.638 228.919 117.476 229.955 117.476Z" fill="#484C6C"/>
<path d="M242.548 117.172C243.416 117.172 244.119 116.47 244.119 115.605C244.119 114.74 243.416 114.038 242.548 114.038C241.68 114.038 240.976 114.74 240.976 115.605C240.976 116.47 241.68 117.172 242.548 117.172Z" fill="#484C6C"/>
<path d="M255.137 116.857C255.831 116.857 256.394 116.296 256.394 115.604C256.394 114.912 255.831 114.352 255.137 114.352C254.443 114.352 253.88 114.912 253.88 115.604C253.88 116.296 254.443 116.857 255.137 116.857Z" fill="#484C6C"/>
<path d="M154.403 131.25C156.476 131.25 158.157 129.575 158.157 127.508C158.157 125.441 156.476 123.766 154.403 123.766C152.33 123.766 150.65 125.441 150.65 127.508C150.65 129.575 152.33 131.25 154.403 131.25Z" fill="#484C6C"/>
<path d="M166.996 130.94C168.897 130.94 170.438 129.404 170.438 127.509C170.438 125.613 168.897 124.077 166.996 124.077C165.095 124.077 163.554 125.613 163.554 127.509C163.554 129.404 165.095 130.94 166.996 130.94Z" fill="#484C6C"/>
<path d="M179.589 130.626C181.316 130.626 182.715 129.23 182.715 127.508C182.715 125.787 181.316 124.391 179.589 124.391C177.862 124.391 176.462 125.787 176.462 127.508C176.462 129.23 177.862 130.626 179.589 130.626Z" fill="#484C6C"/>
<path d="M194.999 127.508C194.999 129.055 193.739 130.311 192.181 130.311C190.626 130.311 189.369 129.052 189.369 127.508C189.369 125.948 190.629 124.698 192.181 124.698C193.739 124.698 194.999 125.951 194.999 127.508Z" fill="#484C6C"/>
<path d="M204.77 130.004C206.153 130.004 207.273 128.887 207.273 127.509C207.273 126.13 206.153 125.013 204.77 125.013C203.387 125.013 202.267 126.13 202.267 127.509C202.267 128.887 203.387 130.004 204.77 130.004Z" fill="#484C6C"/>
<path d="M217.363 129.697C218.575 129.697 219.558 128.717 219.558 127.508C219.558 126.3 218.575 125.32 217.363 125.32C216.151 125.32 215.168 126.3 215.168 127.508C215.168 128.717 216.151 129.697 217.363 129.697Z" fill="#484C6C"/>
<path d="M229.955 129.38C230.992 129.38 231.832 128.542 231.832 127.509C231.832 126.475 230.992 125.638 229.955 125.638C228.919 125.638 228.079 126.475 228.079 127.509C228.079 128.542 228.919 129.38 229.955 129.38Z" fill="#484C6C"/>
<path d="M242.548 129.075C243.416 129.075 244.119 128.374 244.119 127.508C244.119 126.643 243.416 125.941 242.548 125.941C241.68 125.941 240.976 126.643 240.976 127.508C240.976 128.374 241.68 129.075 242.548 129.075Z" fill="#484C6C"/>
<path d="M255.137 128.761C255.831 128.761 256.394 128.2 256.394 127.508C256.394 126.816 255.831 126.255 255.137 126.255C254.443 126.255 253.88 126.816 253.88 127.508C253.88 128.2 254.443 128.761 255.137 128.761Z" fill="#484C6C"/>
<path d="M154.708 143.576C155.919 143.576 156.9 142.597 156.9 141.391C156.9 140.184 155.919 139.206 154.708 139.206C153.498 139.206 152.517 140.184 152.517 141.391C152.517 142.597 153.498 143.576 154.708 143.576Z" fill="#484C6C"/>
<path d="M167.298 143.266C168.336 143.266 169.178 142.427 169.178 141.391C169.178 140.356 168.336 139.517 167.298 139.517C166.259 139.517 165.417 140.356 165.417 141.391C165.417 142.427 166.259 143.266 167.298 143.266Z" fill="#484C6C"/>
<path d="M179.89 142.951C180.755 142.951 181.455 142.253 181.455 141.391C181.455 140.529 180.755 139.831 179.89 139.831C179.026 139.831 178.325 140.529 178.325 141.391C178.325 142.253 179.026 142.951 179.89 142.951Z" fill="#484C6C"/>
<path d="M192.486 142.645C193.182 142.645 193.746 142.082 193.746 141.388C193.746 140.695 193.182 140.132 192.486 140.132C191.79 140.132 191.226 140.695 191.226 141.388C191.226 142.082 191.79 142.645 192.486 142.645Z" fill="#484C6C"/>
<path d="M154.708 156.464C155.919 156.464 156.9 155.486 156.9 154.279C156.9 153.073 155.919 152.094 154.708 152.094C153.498 152.094 152.517 153.073 152.517 154.279C152.517 155.486 153.498 156.464 154.708 156.464Z" fill="#484C6C"/>
<path d="M167.298 156.154C168.336 156.154 169.178 155.315 169.178 154.28C169.178 153.244 168.336 152.405 167.298 152.405C166.259 152.405 165.417 153.244 165.417 154.28C165.417 155.315 166.259 156.154 167.298 156.154Z" fill="#484C6C"/>
<path d="M179.89 155.839C180.755 155.839 181.455 155.141 181.455 154.279C181.455 153.417 180.755 152.719 179.89 152.719C179.026 152.719 178.325 153.417 178.325 154.279C178.325 155.141 179.026 155.839 179.89 155.839Z" fill="#484C6C"/>
<path d="M192.486 155.532C193.178 155.532 193.74 154.973 193.74 154.283C193.74 153.593 193.178 153.033 192.486 153.033C191.794 153.033 191.233 153.593 191.233 154.283C191.233 154.973 191.794 155.532 192.486 155.532Z" fill="#484C6C"/>
<path d="M154.249 106.769C156.494 106.769 158.314 104.955 158.314 102.716C158.314 100.478 156.494 98.6636 154.249 98.6636C152.004 98.6636 150.184 100.478 150.184 102.716C150.184 104.955 152.004 106.769 154.249 106.769Z" fill="#484C6C"/>
<path d="M166.835 106.462C168.908 106.462 170.589 104.787 170.589 102.72C170.589 100.653 168.908 98.978 166.835 98.978C164.762 98.978 163.082 100.653 163.082 102.72C163.082 104.787 164.762 106.462 166.835 106.462Z" fill="#484C6C"/>
<path d="M179.428 106.151C181.328 106.151 182.869 104.615 182.869 102.719C182.869 100.824 181.328 99.2881 179.428 99.2881C177.527 99.2881 175.986 100.824 175.986 102.719C175.986 104.615 177.527 106.151 179.428 106.151Z" fill="#484C6C"/>
<path d="M192.02 105.84C193.749 105.84 195.15 104.443 195.15 102.72C195.15 100.996 193.749 99.5991 192.02 99.5991C190.292 99.5991 188.89 100.996 188.89 102.72C188.89 104.443 190.292 105.84 192.02 105.84Z" fill="#484C6C"/>
<path d="M204.613 105.529C206.169 105.529 207.431 104.271 207.431 102.719C207.431 101.167 206.169 99.9092 204.613 99.9092C203.056 99.9092 201.794 101.167 201.794 102.719C201.794 104.271 203.056 105.529 204.613 105.529Z" fill="#484C6C"/>
<path d="M217.205 105.216C218.588 105.216 219.708 104.098 219.708 102.72C219.708 101.342 218.588 100.224 217.205 100.224C215.822 100.224 214.702 101.342 214.702 102.72C214.702 104.098 215.822 105.216 217.205 105.216Z" fill="#484C6C"/>
<path d="M229.794 104.905C231.005 104.905 231.986 103.927 231.986 102.72C231.986 101.513 231.005 100.535 229.794 100.535C228.584 100.535 227.603 101.513 227.603 102.72C227.603 103.927 228.584 104.905 229.794 104.905Z" fill="#484C6C"/>
<path d="M242.387 104.593C243.425 104.593 244.267 103.754 244.267 102.719C244.267 101.684 243.425 100.845 242.387 100.845C241.349 100.845 240.507 101.684 240.507 102.719C240.507 103.754 241.349 104.593 242.387 104.593Z" fill="#484C6C"/>
<path d="M254.979 104.287C255.847 104.287 256.551 103.586 256.551 102.72C256.551 101.855 255.847 101.153 254.979 101.153C254.111 101.153 253.408 101.855 253.408 102.72C253.408 103.586 254.111 104.287 254.979 104.287Z" fill="#484C6C"/>
<path d="M141.798 133.246C144.255 133.246 146.247 131.26 146.247 128.81C146.247 126.36 144.255 124.375 141.798 124.375C139.341 124.375 137.349 126.36 137.349 128.81C137.349 131.26 139.341 133.246 141.798 133.246Z" fill="#484C6C"/>
<path d="M141.788 95.2389C144.462 95.2389 146.63 93.0772 146.63 90.4107C146.63 87.7442 144.462 85.5825 141.788 85.5825C139.113 85.5825 136.945 87.7442 136.945 90.4107C136.945 93.0772 139.113 95.2389 141.788 95.2389Z" fill="#484C6C"/>
<path d="M154.249 82.4784C156.494 82.4784 158.314 80.6639 158.314 78.4255C158.314 76.1871 156.494 74.3726 154.249 74.3726C152.004 74.3726 150.184 76.1871 150.184 78.4255C150.184 80.6639 152.004 82.4784 154.249 82.4784Z" fill="#484C6C"/>
<path d="M166.835 82.1635C168.908 82.1635 170.589 80.4881 170.589 78.4214C170.589 76.3546 168.908 74.6792 166.835 74.6792C164.762 74.6792 163.082 76.3546 163.082 78.4214C163.082 80.4881 164.762 82.1635 166.835 82.1635Z" fill="#484C6C"/>
<path d="M179.428 81.8536C181.328 81.8536 182.869 80.3173 182.869 78.4221C182.869 76.527 181.328 74.9907 179.428 74.9907C177.527 74.9907 175.986 76.527 175.986 78.4221C175.986 80.3173 177.527 81.8536 179.428 81.8536Z" fill="#484C6C"/>
<path d="M192.02 81.5426C193.749 81.5426 195.15 80.1454 195.15 78.4219C195.15 76.6984 193.749 75.3013 192.02 75.3013C190.292 75.3013 188.89 76.6984 188.89 78.4219C188.89 80.1454 190.292 81.5426 192.02 81.5426Z" fill="#484C6C"/>
<path d="M204.613 81.2321C206.169 81.2321 207.431 79.9741 207.431 78.4222C207.431 76.8703 206.169 75.6123 204.613 75.6123C203.056 75.6123 201.794 76.8703 201.794 78.4222C201.794 79.9741 203.056 81.2321 204.613 81.2321Z" fill="#484C6C"/>
<path d="M217.205 80.917C218.588 80.917 219.708 79.7996 219.708 78.4212C219.708 77.0427 218.588 75.9253 217.205 75.9253C215.822 75.9253 214.702 77.0427 214.702 78.4212C214.702 79.7996 215.822 80.917 217.205 80.917Z" fill="#484C6C"/>
<path d="M231.986 78.4219C231.986 79.629 231.005 80.6136 229.798 80.6136C228.587 80.6136 227.603 79.629 227.603 78.4219C227.603 77.2214 228.587 76.2368 229.798 76.2368C231.005 76.2368 231.986 77.2214 231.986 78.4219Z" fill="#484C6C"/>
<path d="M242.387 80.2966C243.425 80.2966 244.267 79.4574 244.267 78.4222C244.267 77.387 243.425 76.5479 242.387 76.5479C241.349 76.5479 240.507 77.387 240.507 78.4222C240.507 79.4574 241.349 80.2966 242.387 80.2966Z" fill="#484C6C"/>
<path d="M254.979 79.9887C255.847 79.9887 256.551 79.2872 256.551 78.4218C256.551 77.5565 255.847 76.855 254.979 76.855C254.111 76.855 253.408 77.5565 253.408 78.4218C253.408 79.2872 254.111 79.9887 254.979 79.9887Z" fill="#484C6C"/>
<path d="M267.572 79.6751C268.266 79.6751 268.829 79.1142 268.829 78.4223C268.829 77.7304 268.266 77.1694 267.572 77.1694C266.878 77.1694 266.315 77.7304 266.315 78.4223C266.315 79.1142 266.878 79.6751 267.572 79.6751Z" fill="#484C6C"/>
<path d="M79.219 81.0519C80.9477 81.0519 82.349 79.6547 82.349 77.9312C82.349 76.2077 80.9477 74.8105 79.219 74.8105C77.4903 74.8105 76.0889 76.2077 76.0889 77.9312C76.0889 79.6547 77.4903 81.0519 79.219 81.0519Z" fill="#484C6C"/>
<path d="M66.63 80.7378C68.1848 80.7378 69.4452 79.4812 69.4452 77.9311C69.4452 76.3811 68.1848 75.1245 66.63 75.1245C65.0753 75.1245 63.8149 76.3811 63.8149 77.9311C63.8149 79.4812 65.0753 80.7378 66.63 80.7378Z" fill="#484C6C"/>
<path d="M54.0374 80.4304C55.4218 80.4304 56.5441 79.3115 56.5441 77.9313C56.5441 76.551 55.4218 75.4321 54.0374 75.4321C52.653 75.4321 51.5308 76.551 51.5308 77.9313C51.5308 79.3115 52.653 80.4304 54.0374 80.4304Z" fill="#484C6C"/>
<path d="M41.4446 80.1168C42.6551 80.1168 43.6364 79.1385 43.6364 77.9317C43.6364 76.7249 42.6551 75.7466 41.4446 75.7466C40.2342 75.7466 39.2529 76.7249 39.2529 77.9317C39.2529 79.1385 40.2342 80.1168 41.4446 80.1168Z" fill="#484C6C"/>
<path d="M28.8522 79.8054C29.8905 79.8054 30.7322 78.9662 30.7322 77.931C30.7322 76.8958 29.8905 76.0566 28.8522 76.0566C27.8139 76.0566 26.9722 76.8958 26.9722 77.931C26.9722 78.9662 27.8139 79.8054 28.8522 79.8054Z" fill="#484C6C"/>
<path d="M16.2597 79.4949C17.1259 79.4949 17.8281 78.7948 17.8281 77.9313C17.8281 77.0677 17.1259 76.3677 16.2597 76.3677C15.3936 76.3677 14.6914 77.0677 14.6914 77.9313C14.6914 78.7948 15.3936 79.4949 16.2597 79.4949Z" fill="#484C6C"/>
<path d="M3.66741 79.1779C4.35961 79.1779 4.92075 78.6184 4.92075 77.9283C4.92075 77.2382 4.35961 76.6787 3.66741 76.6787C2.9752 76.6787 2.41406 77.2382 2.41406 77.9283C2.41406 78.6184 2.9752 79.1779 3.66741 79.1779Z" fill="#484C6C"/>
<path d="M78.9795 29.7318C80.0196 29.7318 80.8628 28.8912 80.8628 27.8542C80.8628 26.8172 80.0196 25.9766 78.9795 25.9766C77.9394 25.9766 77.0962 26.8172 77.0962 27.8542C77.0962 28.8912 77.9394 29.7318 78.9795 29.7318Z" fill="#484C6C"/>
<path d="M66.3836 29.4204C67.2516 29.4204 67.9552 28.7188 67.9552 27.8535C67.9552 26.9881 67.2516 26.2866 66.3836 26.2866C65.5156 26.2866 64.812 26.9881 64.812 27.8535C64.812 28.7188 65.5156 29.4204 66.3836 29.4204Z" fill="#484C6C"/>
<path d="M53.7947 29.1067C54.4887 29.1067 55.0513 28.5458 55.0513 27.8539C55.0513 27.162 54.4887 26.6011 53.7947 26.6011C53.1007 26.6011 52.5381 27.162 52.5381 27.8539C52.5381 28.5458 53.1007 29.1067 53.7947 29.1067Z" fill="#484C6C"/>
<path d="M78.9794 43.0018C80.2279 43.0018 81.24 41.9927 81.24 40.7479C81.24 39.5032 80.2279 38.4941 78.9794 38.4941C77.7309 38.4941 76.7188 39.5032 76.7188 40.7479C76.7188 41.9927 77.7309 43.0018 78.9794 43.0018Z" fill="#484C6C"/>
<path d="M66.3836 42.3149C67.2516 42.3149 67.9552 41.6134 67.9552 40.748C67.9552 39.8827 67.2516 39.1812 66.3836 39.1812C65.5156 39.1812 64.812 39.8827 64.812 40.748C64.812 41.6134 65.5156 42.3149 66.3836 42.3149Z" fill="#484C6C"/>
<path d="M53.7947 42.0013C54.4887 42.0013 55.0513 41.4404 55.0513 40.7484C55.0513 40.0565 54.4887 39.4956 53.7947 39.4956C53.1007 39.4956 52.5381 40.0565 52.5381 40.7484C52.5381 41.4404 53.1007 42.0013 53.7947 42.0013Z" fill="#484C6C"/>
<path d="M79.291 17.5232C80.1571 17.5232 80.8593 16.8232 80.8593 15.9596C80.8593 15.096 80.1571 14.396 79.291 14.396C78.4248 14.396 77.7227 15.096 77.7227 15.9596C77.7227 16.8232 78.4248 17.5232 79.291 17.5232Z" fill="#484C6C"/>
<path d="M141.817 70.0839C139.567 70.0839 137.749 68.2684 137.749 66.0277C137.749 63.7968 139.57 61.978 141.817 61.978C144.058 61.978 145.876 63.8 145.876 66.0277C145.876 68.2717 144.055 70.0839 141.817 70.0839Z" fill="#484C6C"/>
<path d="M154.403 69.7695C156.476 69.7695 158.157 68.0941 158.157 66.0273C158.157 63.9606 156.476 62.2852 154.403 62.2852C152.33 62.2852 150.65 63.9606 150.65 66.0273C150.65 68.0941 152.33 69.7695 154.403 69.7695Z" fill="#484C6C"/>
<path d="M166.996 69.459C168.897 69.459 170.438 67.9227 170.438 66.0276C170.438 64.1325 168.897 62.5962 166.996 62.5962C165.095 62.5962 163.554 64.1325 163.554 66.0276C163.554 67.9227 165.095 69.459 166.996 69.459Z" fill="#484C6C"/>
<path d="M141.817 57.2808C144.064 57.2808 145.886 55.4648 145.886 53.2246C145.886 50.9845 144.064 49.1685 141.817 49.1685C139.571 49.1685 137.749 50.9845 137.749 53.2246C137.749 55.4648 139.571 57.2808 141.817 57.2808Z" fill="#484C6C"/>
<path d="M154.403 56.9663C156.476 56.9663 158.157 55.2908 158.157 53.2241C158.157 51.1574 156.476 49.4819 154.403 49.4819C152.33 49.4819 150.65 51.1574 150.65 53.2241C150.65 55.2908 152.33 56.9663 154.403 56.9663Z" fill="#484C6C"/>
<path d="M166.996 56.6558C168.897 56.6558 170.438 55.1195 170.438 53.2244C170.438 51.3293 168.897 49.793 166.996 49.793C165.095 49.793 163.554 51.3293 163.554 53.2244C163.554 55.1195 165.095 56.6558 166.996 56.6558Z" fill="#484C6C"/>
<path d="M179.589 69.1454C181.316 69.1454 182.715 67.7497 182.715 66.028C182.715 64.3063 181.316 62.9106 179.589 62.9106C177.862 62.9106 176.462 64.3063 176.462 66.028C176.462 67.7497 177.862 69.1454 179.589 69.1454Z" fill="#484C6C"/>
<path d="M194.999 66.0272C194.999 67.5744 193.739 68.8436 192.181 68.8436C190.626 68.8436 189.369 67.5712 189.369 66.0272C189.369 64.4832 190.629 63.2173 192.181 63.2173C193.739 63.2173 194.999 64.4832 194.999 66.0272Z" fill="#484C6C"/>
<path d="M141.634 44.1797C143.535 44.1797 145.075 42.6434 145.075 40.7483C145.075 38.8532 143.535 37.3169 141.634 37.3169C139.733 37.3169 138.192 38.8532 138.192 40.7483C138.192 42.6434 139.733 44.1797 141.634 44.1797Z" fill="#484C6C"/>
<path d="M154.226 43.8692C155.955 43.8692 157.356 42.4721 157.356 40.7486C157.356 39.0251 155.955 37.6279 154.226 37.6279C152.498 37.6279 151.096 39.0251 151.096 40.7486C151.096 42.4721 152.498 43.8692 154.226 43.8692Z" fill="#484C6C"/>
<path d="M166.818 43.5583C168.375 43.5583 169.637 42.3002 169.637 40.7484C169.637 39.1965 168.375 37.9385 166.818 37.9385C165.262 37.9385 164 39.1965 164 40.7484C164 42.3002 165.262 43.5583 166.818 43.5583Z" fill="#484C6C"/>
<path d="M204.77 68.524C206.153 68.524 207.273 67.4065 207.273 66.0281C207.273 64.6497 206.153 63.5322 204.77 63.5322C203.387 63.5322 202.267 64.6497 202.267 66.0281C202.267 67.4065 203.387 68.524 204.77 68.524Z" fill="#484C6C"/>
<path d="M217.363 68.2161C218.575 68.2161 219.558 67.2363 219.558 66.0277C219.558 64.8191 218.575 63.8394 217.363 63.8394C216.151 63.8394 215.168 64.8191 215.168 66.0277C215.168 67.2363 216.151 68.2161 217.363 68.2161Z" fill="#484C6C"/>
<path d="M179.572 55.4062C180.781 55.4062 181.761 54.4293 181.761 53.2243C181.761 52.0193 180.781 51.0425 179.572 51.0425C178.364 51.0425 177.384 52.0193 177.384 53.2243C177.384 54.4293 178.364 55.4062 179.572 55.4062Z" fill="#484C6C"/>
<path d="M229.955 67.8989C230.992 67.8989 231.832 67.0612 231.832 66.0278C231.832 64.9944 230.992 64.1567 229.955 64.1567C228.919 64.1567 228.079 64.9944 228.079 66.0278C228.079 67.0612 228.919 67.8989 229.955 67.8989Z" fill="#484C6C"/>
<path d="M192.161 55.0988C193.2 55.0988 194.041 54.2596 194.041 53.2245C194.041 52.1893 193.2 51.3501 192.161 51.3501C191.123 51.3501 190.281 52.1893 190.281 53.2245C190.281 54.2596 191.123 55.0988 192.161 55.0988Z" fill="#484C6C"/>
<path d="M242.548 67.5942C243.416 67.5942 244.119 66.8927 244.119 66.0273C244.119 65.162 243.416 64.4604 242.548 64.4604C241.68 64.4604 240.976 65.162 240.976 66.0273C240.976 66.8927 241.68 67.5942 242.548 67.5942Z" fill="#484C6C"/>
<path d="M255.137 67.2874C255.831 67.2874 256.394 66.7265 256.394 66.0346C256.394 65.3427 255.831 64.7817 255.137 64.7817C254.443 64.7817 253.88 65.3427 253.88 66.0346C253.88 66.7265 254.443 67.2874 255.137 67.2874Z" fill="#484C6C"/>
<path d="M204.419 54.4774C205.113 54.4774 205.676 53.9165 205.676 53.2245C205.676 52.5326 205.113 51.9717 204.419 51.9717C203.725 51.9717 203.163 52.5326 203.163 53.2245C203.163 53.9165 203.725 54.4774 204.419 54.4774Z" fill="#484C6C"/>
<path d="M78.5958 56.9663C80.6687 56.9663 82.3492 55.2908 82.3492 53.2241C82.3492 51.1574 80.6687 49.4819 78.5958 49.4819C76.5228 49.4819 74.8423 51.1574 74.8423 53.2241C74.8423 55.2908 76.5228 56.9663 78.5958 56.9663Z" fill="#484C6C"/>
<path d="M66.0028 56.6558C67.9036 56.6558 69.4446 55.1195 69.4446 53.2244C69.4446 51.3293 67.9036 49.793 66.0028 49.793C64.102 49.793 62.561 51.3293 62.561 53.2244C62.561 55.1195 64.102 56.6558 66.0028 56.6558Z" fill="#484C6C"/>
<path d="M53.4271 55.4093C54.6375 55.4093 55.6188 54.431 55.6188 53.2242C55.6188 52.0174 54.6375 51.0391 53.4271 51.0391C52.2166 51.0391 51.2354 52.0174 51.2354 53.2242C51.2354 54.431 52.2166 55.4093 53.4271 55.4093Z" fill="#484C6C"/>
<path d="M40.8375 55.0988C41.8758 55.0988 42.7176 54.2596 42.7176 53.2245C42.7176 52.1893 41.8758 51.3501 40.8375 51.3501C39.7992 51.3501 38.9575 52.1893 38.9575 53.2245C38.9575 54.2596 39.7992 55.0988 40.8375 55.0988Z" fill="#484C6C"/>
<path d="M28.5833 54.4774C29.2773 54.4774 29.8399 53.9165 29.8399 53.2245C29.8399 52.5326 29.2773 51.9717 28.5833 51.9717C27.8893 51.9717 27.3267 52.5326 27.3267 53.2245C27.3267 53.9165 27.8893 54.4774 28.5833 54.4774Z" fill="#484C6C"/>
<path d="M78.5958 69.8554C80.6687 69.8554 82.3492 68.18 82.3492 66.1133C82.3492 64.0465 80.6687 62.3711 78.5958 62.3711C76.5228 62.3711 74.8423 64.0465 74.8423 66.1133C74.8423 68.18 76.5228 69.8554 78.5958 69.8554Z" fill="#484C6C"/>
<path d="M66.0028 69.544C67.9036 69.544 69.4446 68.0077 69.4446 66.1126C69.4446 64.2174 67.9036 62.6812 66.0028 62.6812C64.102 62.6812 62.561 64.2174 62.561 66.1126C62.561 68.0077 64.102 69.544 66.0028 69.544Z" fill="#484C6C"/>
<path d="M53.4271 68.2975C54.6375 68.2975 55.6188 67.3192 55.6188 66.1124C55.6188 64.9056 54.6375 63.9272 53.4271 63.9272C52.2166 63.9272 51.2354 64.9056 51.2354 66.1124C51.2354 67.3192 52.2166 68.2975 53.4271 68.2975Z" fill="#484C6C"/>
<path d="M40.8375 67.987C41.8758 67.987 42.7176 67.1478 42.7176 66.1126C42.7176 65.0775 41.8758 64.2383 40.8375 64.2383C39.7992 64.2383 38.9575 65.0775 38.9575 66.1126C38.9575 67.1478 39.7992 67.987 40.8375 67.987Z" fill="#484C6C"/>
<path d="M28.5833 67.3719C29.2773 67.3719 29.8399 66.811 29.8399 66.1191C29.8399 65.4271 29.2773 64.8662 28.5833 64.8662C27.8893 64.8662 27.3267 65.4271 27.3267 66.1191C27.3267 66.811 27.8893 67.3719 28.5833 67.3719Z" fill="#484C6C"/>
<path d="M142.132 31.3665C144.031 31.3665 145.571 29.8317 145.571 27.9384C145.571 26.0451 144.031 24.5103 142.132 24.5103C140.233 24.5103 138.694 26.0451 138.694 27.9384C138.694 29.8317 140.233 31.3665 142.132 31.3665Z" fill="#484C6C"/>
<path d="M156.9 27.9385C156.9 29.1456 155.916 30.1302 154.705 30.1302C153.494 30.1302 152.513 29.1456 152.513 27.9385C152.513 26.738 153.494 25.7534 154.705 25.7534C155.916 25.7534 156.9 26.7348 156.9 27.9385Z" fill="#484C6C"/>
<path d="M167.298 29.8132C168.336 29.8132 169.178 28.974 169.178 27.9388C169.178 26.9036 168.336 26.0645 167.298 26.0645C166.259 26.0645 165.417 26.9036 165.417 27.9388C165.417 28.974 166.259 29.8132 167.298 29.8132Z" fill="#484C6C"/>
<path d="M179.552 29.1978C180.248 29.1978 180.812 28.6354 180.812 27.9417C180.812 27.2479 180.248 26.6855 179.552 26.6855C178.857 26.6855 178.292 27.2479 178.292 27.9417C178.292 28.6354 178.857 29.1978 179.552 29.1978Z" fill="#484C6C"/>
<path d="M141.44 17.9157C142.478 17.9157 143.32 17.0765 143.32 16.0413C143.32 15.0062 142.478 14.167 141.44 14.167C140.402 14.167 139.56 15.0062 139.56 16.0413C139.56 17.0765 140.402 17.9157 141.44 17.9157Z" fill="#484C6C"/>
<path d="M153.698 17.2942C154.392 17.2942 154.955 16.7333 154.955 16.0414C154.955 15.3495 154.392 14.7886 153.698 14.7886C153.004 14.7886 152.441 15.3495 152.441 16.0414C152.441 16.7333 153.004 17.2942 153.698 17.2942Z" fill="#484C6C"/>
<path d="M141.788 82.8444C144.462 82.8444 146.63 80.6827 146.63 78.0162C146.63 75.3496 144.462 73.188 141.788 73.188C139.113 73.188 136.945 75.3496 136.945 78.0162C136.945 80.6827 139.113 82.8444 141.788 82.8444Z" fill="#484C6C"/>
<path d="M141.788 107.129C144.461 107.129 146.627 104.969 146.627 102.304C146.627 99.6397 144.461 97.4795 141.788 97.4795C139.115 97.4795 136.948 99.6397 136.948 102.304C136.948 104.969 139.115 107.129 141.788 107.129Z" fill="#484C6C"/>
<path d="M141.788 120.02C144.461 120.02 146.627 117.86 146.627 115.196C146.627 112.531 144.461 110.371 141.788 110.371C139.115 110.371 136.948 112.531 136.948 115.196C136.948 117.86 139.115 120.02 141.788 120.02Z" fill="#484C6C"/>
<path d="M104.033 120.02C106.706 120.02 108.873 117.86 108.873 115.196C108.873 112.531 106.706 110.371 104.033 110.371C101.361 110.371 99.1938 112.531 99.1938 115.196C99.1938 117.86 101.361 120.02 104.033 120.02Z" fill="#484C6C"/>
<path d="M91.6736 18.5083C93.279 18.5083 94.5805 17.2108 94.5805 15.6101C94.5805 14.0095 93.279 12.7119 91.6736 12.7119C90.0681 12.7119 88.7666 14.0095 88.7666 15.6101C88.7666 17.2108 90.0681 18.5083 91.6736 18.5083Z" fill="#484C6C"/>
<path d="M91.6735 31.4712C93.4928 31.4712 94.9677 30.0009 94.9677 28.187C94.9677 26.3732 93.4928 24.9028 91.6735 24.9028C89.8542 24.9028 88.3794 26.3732 88.3794 28.187C88.3794 30.0009 89.8542 31.4712 91.6735 31.4712Z" fill="#484C6C"/>
<path d="M91.6738 44.4318C93.7033 44.4318 95.3485 42.7915 95.3485 40.7682C95.3485 38.7448 93.7033 37.1045 91.6738 37.1045C89.6443 37.1045 87.999 38.7448 87.999 40.7682C87.999 42.7915 89.6443 44.4318 91.6738 44.4318Z" fill="#484C6C"/>
<path d="M91.6734 57.2808C93.9204 57.2808 95.7419 55.4648 95.7419 53.2246C95.7419 50.9845 93.9204 49.1685 91.6734 49.1685C89.4265 49.1685 87.605 50.9845 87.605 53.2246C87.605 55.4648 89.4265 57.2808 91.6734 57.2808Z" fill="#484C6C"/>
<path d="M91.6736 70.3654C94.1308 70.3654 96.1227 68.3795 96.1227 65.9298C96.1227 63.4801 94.1308 61.4941 91.6736 61.4941C89.2165 61.4941 87.2246 63.4801 87.2246 65.9298C87.2246 68.3795 89.2165 70.3654 91.6736 70.3654Z" fill="#484C6C"/>
<path d="M78.5958 94.1494C80.6687 94.1494 82.3492 92.474 82.3492 90.4072C82.3492 88.3405 80.6687 86.665 78.5958 86.665C76.5228 86.665 74.8423 88.3405 74.8423 90.4072C74.8423 92.474 76.5228 94.1494 78.5958 94.1494Z" fill="#484C6C"/>
<path d="M66.0028 93.8389C67.9036 93.8389 69.4446 92.3026 69.4446 90.4075C69.4446 88.5124 67.9036 86.9761 66.0028 86.9761C64.102 86.9761 62.561 88.5124 62.561 90.4075C62.561 92.3026 64.102 93.8389 66.0028 93.8389Z" fill="#484C6C"/>
<path d="M53.4271 92.5924C54.6375 92.5924 55.6188 91.6141 55.6188 90.4073C55.6188 89.2005 54.6375 88.2222 53.4271 88.2222C52.2166 88.2222 51.2354 89.2005 51.2354 90.4073C51.2354 91.6141 52.2166 92.5924 53.4271 92.5924Z" fill="#484C6C"/>
<path d="M40.8375 92.2809C41.8758 92.2809 42.7176 91.4418 42.7176 90.4066C42.7176 89.3714 41.8758 88.5322 40.8375 88.5322C39.7992 88.5322 38.9575 89.3714 38.9575 90.4066C38.9575 91.4418 39.7992 92.2809 40.8375 92.2809Z" fill="#484C6C"/>
<path d="M28.5833 91.6605C29.2773 91.6605 29.8399 91.0995 29.8399 90.4076C29.8399 89.7157 29.2773 89.1548 28.5833 89.1548C27.8893 89.1548 27.3267 89.7157 27.3267 90.4076C27.3267 91.0995 27.8893 91.6605 28.5833 91.6605Z" fill="#484C6C"/>
<path d="M91.6735 85.7817C89.2095 85.7817 87.2212 87.7738 87.2212 90.2272C87.2212 92.6674 89.2095 94.6596 91.6735 94.6596C94.1277 94.6596 96.1226 92.6674 96.1226 90.2272C96.1259 87.7771 94.1277 85.7817 91.6735 85.7817Z" fill="#484C6C"/>
<path d="M91.6738 83.3385C94.3484 83.3385 96.5166 81.1768 96.5166 78.5103C96.5166 75.8438 94.3484 73.6821 91.6738 73.6821C88.9992 73.6821 86.8311 75.8438 86.8311 78.5103C86.8311 81.1768 88.9992 83.3385 91.6738 83.3385Z" fill="#484C6C"/>
<path d="M91.6736 108.176C94.3446 108.176 96.5098 106.017 96.5098 103.354C96.5098 100.691 94.3446 98.5322 91.6736 98.5322C89.0026 98.5322 86.8374 100.691 86.8374 103.354C86.8374 106.017 89.0026 108.176 91.6736 108.176Z" fill="#484C6C"/>
<path d="M79.5271 119.801C81.7722 119.801 83.5922 117.987 83.5922 115.748C83.5922 113.51 81.7722 111.695 79.5271 111.695C77.2819 111.695 75.4619 113.51 75.4619 115.748C75.4619 117.987 77.2819 119.801 79.5271 119.801Z" fill="#484C6C"/>
<path d="M66.938 119.488C69.011 119.488 70.6915 117.812 70.6915 115.746C70.6915 113.679 69.011 112.003 66.938 112.003C64.8651 112.003 63.1846 113.679 63.1846 115.746C63.1846 117.812 64.8651 119.488 66.938 119.488Z" fill="#484C6C"/>
<path d="M53.8636 118.244C55.248 118.244 56.3703 117.125 56.3703 115.745C56.3703 114.365 55.248 113.246 53.8636 113.246C52.4792 113.246 51.3569 114.365 51.3569 115.745C51.3569 117.125 52.4792 118.244 53.8636 118.244Z" fill="#484C6C"/>
<path d="M41.2742 117.931C42.4847 117.931 43.466 116.952 43.466 115.746C43.466 114.539 42.4847 113.561 41.2742 113.561C40.0638 113.561 39.0825 114.539 39.0825 115.746C39.0825 116.952 40.0638 117.931 41.2742 117.931Z" fill="#484C6C"/>
<path d="M28.6818 117.62C29.7201 117.62 30.5618 116.781 30.5618 115.745C30.5618 114.71 29.7201 113.871 28.6818 113.871C27.6435 113.871 26.8018 114.71 26.8018 115.745C26.8018 116.781 27.6435 117.62 28.6818 117.62Z" fill="#484C6C"/>
<path d="M16.0892 117.312C16.9572 117.312 17.6608 116.611 17.6608 115.746C17.6608 114.88 16.9572 114.179 16.0892 114.179C15.2212 114.179 14.5176 114.88 14.5176 115.746C14.5176 116.611 15.2212 117.312 16.0892 117.312Z" fill="#484C6C"/>
<path d="M3.49993 116.999C4.19213 116.999 4.75327 116.439 4.75327 115.749C4.75327 115.059 4.19213 114.5 3.49993 114.5C2.80772 114.5 2.24658 115.059 2.24658 115.749C2.24658 116.439 2.80772 116.999 3.49993 116.999Z" fill="#484C6C"/>
<path d="M91.674 120.57C94.3467 120.57 96.5135 118.41 96.5135 115.745C96.5135 113.081 94.3467 110.92 91.674 110.92C89.0012 110.92 86.8345 113.081 86.8345 115.745C86.8345 118.41 89.0012 120.57 91.674 120.57Z" fill="#484C6C"/>
<path d="M79.5272 132.189C81.7705 132.189 83.5891 130.376 83.5891 128.139C83.5891 125.903 81.7705 124.09 79.5272 124.09C77.2839 124.09 75.4653 125.903 75.4653 128.139C75.4653 130.376 77.2839 132.189 79.5272 132.189Z" fill="#484C6C"/>
<path d="M66.938 131.882C69.011 131.882 70.6915 130.206 70.6915 128.14C70.6915 126.073 69.011 124.397 66.938 124.397C64.8651 124.397 63.1846 126.073 63.1846 128.14C63.1846 130.206 64.8651 131.882 66.938 131.882Z" fill="#484C6C"/>
<path d="M51.3569 128.14C51.3569 126.759 52.4823 125.647 53.8702 125.647C55.2482 125.647 56.3703 126.759 56.3703 128.14C56.3703 129.527 55.2482 130.639 53.8702 130.639C52.4823 130.639 51.3569 129.527 51.3569 128.14Z" fill="#484C6C"/>
<path d="M39.0825 128.146C39.0825 126.939 40.0635 125.955 41.2742 125.955C42.4849 125.955 43.4692 126.933 43.4692 128.146C43.4659 129.347 42.4849 130.325 41.2742 130.325C40.0635 130.325 39.0825 129.35 39.0825 128.146Z" fill="#484C6C"/>
<path d="M28.6818 130.02C29.7201 130.02 30.5618 129.181 30.5618 128.146C30.5618 127.111 29.7201 126.271 28.6818 126.271C27.6435 126.271 26.8018 127.111 26.8018 128.146C26.8018 129.181 27.6435 130.02 28.6818 130.02Z" fill="#484C6C"/>
<path d="M16.0892 129.707C16.9572 129.707 17.6608 129.005 17.6608 128.14C17.6608 127.275 16.9572 126.573 16.0892 126.573C15.2212 126.573 14.5176 127.275 14.5176 128.14C14.5176 129.005 15.2212 129.707 16.0892 129.707Z" fill="#484C6C"/>
<path d="M3.49993 129.392C4.19213 129.392 4.75327 128.833 4.75327 128.143C4.75327 127.453 4.19213 126.893 3.49993 126.893C2.80772 126.893 2.24658 127.453 2.24658 128.143C2.24658 128.833 2.80772 129.392 3.49993 129.392Z" fill="#484C6C"/>
<path d="M205.062 142.445C205.57 142.445 205.981 142.035 205.981 141.529C205.981 141.023 205.57 140.613 205.062 140.613C204.555 140.613 204.144 141.023 204.144 141.529C204.144 142.035 204.555 142.445 205.062 142.445Z" fill="#484C6C"/>
<path d="M205.062 154.833C205.568 154.833 205.978 154.424 205.978 153.92C205.978 153.416 205.568 153.007 205.062 153.007C204.557 153.007 204.147 153.416 204.147 153.92C204.147 154.424 204.557 154.833 205.062 154.833Z" fill="#484C6C"/>
<path d="M91.6703 145.084C93.9136 145.084 95.7322 143.271 95.7322 141.034C95.7322 138.797 93.9136 136.984 91.6703 136.984C89.427 136.984 87.6084 138.797 87.6084 141.034C87.6084 143.271 89.427 145.084 91.6703 145.084Z" fill="#484C6C"/>
<path d="M79.3697 144.777C81.4427 144.777 83.1232 143.101 83.1232 141.035C83.1232 138.968 81.4427 137.292 79.3697 137.292C77.2967 137.292 75.6162 138.968 75.6162 141.035C75.6162 143.101 77.2967 144.777 79.3697 144.777Z" fill="#484C6C"/>
<path d="M66.2982 143.533C67.6826 143.533 68.8049 142.415 68.8049 141.034C68.8049 139.654 67.6826 138.535 66.2982 138.535C64.9138 138.535 63.7915 139.654 63.7915 141.034C63.7915 142.415 64.9138 143.533 66.2982 143.533Z" fill="#484C6C"/>
<path d="M53.7057 143.223C54.918 143.223 55.9007 142.243 55.9007 141.035C55.9007 139.826 54.918 138.846 53.7057 138.846C52.4935 138.846 51.5107 139.826 51.5107 141.035C51.5107 142.243 52.4935 143.223 53.7057 143.223Z" fill="#484C6C"/>
<path d="M41.1167 142.912C42.1568 142.912 43 142.071 43 141.034C43 139.997 42.1568 139.156 41.1167 139.156C40.0766 139.156 39.2334 139.997 39.2334 141.034C39.2334 142.071 40.0766 142.912 41.1167 142.912Z" fill="#484C6C"/>
<path d="M28.521 142.598C29.3871 142.598 30.0893 141.898 30.0893 141.035C30.0893 140.171 29.3871 139.471 28.521 139.471C27.6548 139.471 26.9526 140.171 26.9526 141.035C26.9526 141.898 27.6548 142.598 28.521 142.598Z" fill="#484C6C"/>
<path d="M15.9285 142.287C16.6225 142.287 17.1851 141.726 17.1851 141.035C17.1851 140.343 16.6225 139.782 15.9285 139.782C15.2345 139.782 14.6719 140.343 14.6719 141.035C14.6719 141.726 15.2345 142.287 15.9285 142.287Z" fill="#484C6C"/>
<path d="M3.00408 142.068C3.57669 142.068 4.04088 141.606 4.04088 141.035C4.04088 140.464 3.57669 140.001 3.00408 140.001C2.43148 140.001 1.96729 140.464 1.96729 141.035C1.96729 141.606 2.43148 142.068 3.00408 142.068Z" fill="#484C6C"/>
<path d="M91.6701 157.478C93.9153 157.478 95.7353 155.663 95.7353 153.425C95.7353 151.187 93.9153 149.372 91.6701 149.372C89.425 149.372 87.605 151.187 87.605 153.425C87.605 155.663 89.425 157.478 91.6701 157.478Z" fill="#484C6C"/>
<path d="M79.3697 157.171C81.4427 157.171 83.1232 155.495 83.1232 153.429C83.1232 151.362 81.4427 149.687 79.3697 149.687C77.2967 149.687 75.6162 151.362 75.6162 153.429C75.6162 155.495 77.2967 157.171 79.3697 157.171Z" fill="#484C6C"/>
<path d="M66.2982 155.928C67.6826 155.928 68.8049 154.809 68.8049 153.429C68.8049 152.049 67.6826 150.93 66.2982 150.93C64.9138 150.93 63.7915 152.049 63.7915 153.429C63.7915 154.809 64.9138 155.928 66.2982 155.928Z" fill="#484C6C"/>
<path d="M53.7057 155.617C54.918 155.617 55.9007 154.638 55.9007 153.429C55.9007 152.22 54.918 151.241 53.7057 151.241C52.4935 151.241 51.5107 152.22 51.5107 153.429C51.5107 154.638 52.4935 155.617 53.7057 155.617Z" fill="#484C6C"/>
<path d="M41.1167 155.307C42.1568 155.307 43 154.466 43 153.429C43 152.392 42.1568 151.551 41.1167 151.551C40.0766 151.551 39.2334 152.392 39.2334 153.429C39.2334 154.466 40.0766 155.307 41.1167 155.307Z" fill="#484C6C"/>
<path d="M28.521 154.992C29.3871 154.992 30.0893 154.292 30.0893 153.429C30.0893 152.565 29.3871 151.865 28.521 151.865C27.6548 151.865 26.9526 152.565 26.9526 153.429C26.9526 154.292 27.6548 154.992 28.521 154.992Z" fill="#484C6C"/>
<path d="M15.9285 154.681C16.6225 154.681 17.1851 154.121 17.1851 153.429C17.1851 152.737 16.6225 152.176 15.9285 152.176C15.2345 152.176 14.6719 152.737 14.6719 153.429C14.6719 154.121 15.2345 154.681 15.9285 154.681Z" fill="#484C6C"/>
<path d="M3.00443 154.469C3.57886 154.469 4.04452 154.005 4.04452 153.432C4.04452 152.86 3.57886 152.396 3.00443 152.396C2.43001 152.396 1.96436 152.86 1.96436 153.432C1.96436 154.005 2.43001 154.469 3.00443 154.469Z" fill="#484C6C"/>
<path d="M91.6738 132.971C94.3484 132.971 96.5166 130.81 96.5166 128.143C96.5166 125.477 94.3484 123.315 91.6738 123.315C88.9992 123.315 86.8311 125.477 86.8311 128.143C86.8311 130.81 88.9992 132.971 91.6738 132.971Z" fill="#484C6C"/>
</g>
</svg>
