<svg width="56" height="57" viewBox="0 0 56 57" fill="none" xmlns="http://www.w3.org/2000/svg">
<g filter="url(#filter0_d)">
<path d="M8 13.5C8 9.08172 11.5817 5.5 16 5.5H40C44.4183 5.5 48 9.08172 48 13.5V37.5C48 41.9183 44.4183 45.5 40 45.5H16C11.5817 45.5 8 41.9183 8 37.5V13.5Z" fill="#F65C8A"/>
<path opacity="0.7" d="M21.6443 12.5229H38.8492C39.4196 12.5229 39.9666 12.7495 40.3699 13.1529C40.7732 13.5562 40.9998 14.1032 40.9998 14.6736V31.8785C40.9998 32.4489 40.7732 32.9959 40.3699 33.3992C39.9666 33.8025 39.4196 34.0291 38.8492 34.0291H21.6443C21.0739 34.0291 20.5269 33.8025 20.1236 33.3992C19.7202 32.9959 19.4937 32.4489 19.4937 31.8785V14.6736C19.4937 14.1032 19.7202 13.5562 20.1236 13.1529C20.5269 12.7495 21.0739 12.5229 21.6443 12.5229Z" fill="#F9C7D6"/>
<path d="M17.2102 16.3748H34.8921C35.4783 16.3748 36.0404 16.6076 36.4549 17.0221C36.8694 17.4366 37.1023 17.9988 37.1023 18.585V36.2668C37.1023 36.853 36.8694 37.4152 36.4549 37.8297C36.0404 38.2442 35.4783 38.4771 34.8921 38.4771H17.2102C16.624 38.4771 16.0619 38.2442 15.6474 37.8297C15.2329 37.4152 15 36.853 15 36.2668V18.585C15 17.9988 15.2329 17.4366 15.6474 17.0221C16.0619 16.6076 16.624 16.3748 17.2102 16.3748Z" fill="white"/>
<g clip-path="url(#clip0)">
<path d="M29.7809 22.8188C31.2089 22.8188 32.371 23.9809 32.371 25.409V27.9991H30.6442V25.409C30.6442 24.9332 30.2566 24.5456 29.7809 24.5456H28.0541C27.5784 24.5456 27.1907 24.9332 27.1907 25.409V27.9991H27.4066C27.7623 27.9991 28.0541 28.2909 28.0541 28.6466V35.1219C28.0541 35.4776 27.7623 35.7694 27.4066 35.7694H20.0679C19.8964 35.7687 19.7321 35.7003 19.6108 35.579C19.4895 35.4577 19.4211 35.2934 19.4204 35.1219V28.6466C19.4204 28.2909 19.7122 27.9991 20.0679 27.9991H25.464V25.409C25.464 23.9809 26.6261 22.8188 28.0541 22.8188H29.7809Z" fill="#F65C8A"/>
</g>
<path fill-rule="evenodd" clip-rule="evenodd" d="M31.5754 19.6475C31.2714 19.4651 30.8771 19.5637 30.6946 19.8677L30.2305 20.6413C30.0481 20.9453 30.1467 21.3396 30.4507 21.522C30.7547 21.7045 31.1491 21.6059 31.3315 21.3019L31.7956 20.5283C31.978 20.2242 31.8795 19.8299 31.5754 19.6475Z" fill="#F65C8A"/>
<path fill-rule="evenodd" clip-rule="evenodd" d="M26.6599 19.6475C26.964 19.4651 27.3583 19.5637 27.5407 19.8677L28.0049 20.6413C28.1873 20.9453 28.0887 21.3396 27.7847 21.522C27.4806 21.7045 27.0863 21.6059 26.9039 21.3019L26.4397 20.5283C26.2573 20.2242 26.3559 19.8299 26.6599 19.6475Z" fill="#F65C8A"/>
</g>
<defs>
<filter id="filter0_d" x="0" y="0.5" width="56" height="56" filterUnits="userSpaceOnUse" color-interpolation-filters="sRGB">
<feFlood flood-opacity="0" result="BackgroundImageFix"/>
<feColorMatrix in="SourceAlpha" type="matrix" values="0 0 0 0 0 0 0 0 0 0 0 0 0 0 0 0 0 0 127 0"/>
<feOffset dy="3"/>
<feGaussianBlur stdDeviation="4"/>
<feColorMatrix type="matrix" values="0 0 0 0 0.105085 0 0 0 0 0.113559 0 0 0 0 0.194915 0 0 0 0.2 0"/>
<feBlend mode="normal" in2="BackgroundImageFix" result="effect1_dropShadow"/>
<feBlend mode="normal" in="SourceGraphic" in2="effect1_dropShadow" result="shape"/>
</filter>
<clipPath id="clip0">
<rect width="13.8139" height="13.8139" fill="white" transform="translate(19.4204 21.9556)"/>
</clipPath>
</defs>
</svg>
