<svg width="57" height="56" viewBox="0 0 57 56" fill="none" xmlns="http://www.w3.org/2000/svg">
<g filter="url(#filter0_d)">
<path d="M8.104 13C8.104 8.58172 11.6857 5 16.104 5H40.104C44.5223 5 48.104 8.58172 48.104 13V37C48.104 41.4183 44.5223 45 40.104 45H16.104C11.6857 45 8.104 41.4183 8.104 37V13Z" fill="#00B5FF"/>
<path d="M25.7643 12.2827C29.0131 12.9946 30.6376 13.8981 30.6376 14.9932C30.6376 15.4495 30.4806 15.8784 30.1668 16.28C29.853 16.6633 29.5484 16.855 29.2531 16.855C28.9577 16.855 28.7455 16.7089 28.6163 16.4169C28.0809 15.2487 27.5825 14.4182 27.121 13.9254C26.678 13.4144 26.1427 12.9763 25.5151 12.6113L25.7643 12.2827ZM29.3639 20.688V33.7202C29.3639 34.5233 29.2716 35.153 29.087 35.6093C28.9024 36.0839 28.5147 36.5493 27.924 37.0056C27.3333 37.4802 26.9549 37.7175 26.7888 37.7175C26.6226 37.7175 26.5303 37.5897 26.5119 37.3342C26.475 36.8231 26.1888 36.3942 25.6535 36.0474C25.1182 35.7006 24.1122 35.3355 22.6354 34.9522L22.7462 34.6237C24.0752 34.7697 25.0813 34.8427 25.7643 34.8427C26.4657 34.8427 26.918 34.7789 27.121 34.6511C27.3241 34.5233 27.4256 34.3134 27.4256 34.0214V19.3738H23.2169C22.4047 19.3738 21.7586 19.4742 21.2787 19.675L20.2542 18.4977C20.9556 18.5889 21.7217 18.6346 22.5524 18.6346H27.2318L28.5332 17.293L30.1115 18.7715C30.2222 18.8627 30.2776 18.9631 30.2776 19.0726C30.2776 19.1639 30.0745 19.2643 29.6684 19.3738C30.2591 21.6371 30.9237 23.5536 31.662 25.1233C33.8402 23.006 35.4462 21.053 36.4799 19.2643L38.5566 21.126C38.7227 21.2903 38.8058 21.4181 38.8058 21.5093C38.8058 21.6918 38.6581 21.7831 38.3628 21.7831C38.0859 21.7831 37.5321 22.0386 36.7014 22.5497C35.8892 23.0425 34.2925 24.0829 31.9112 25.6709C33.9972 29.8142 37.0614 32.3421 41.104 33.2548L41.0763 33.7476C40.3749 33.8389 39.7934 34.0305 39.3319 34.3225C38.8704 34.6328 38.612 34.9157 38.5566 35.1713C38.5197 35.4451 38.4182 35.582 38.252 35.582C37.9382 35.582 36.9599 34.8154 35.317 33.2822C33.6926 31.7489 32.4281 30.0423 31.5236 28.1623C30.6191 26.2823 29.8992 23.7909 29.3639 20.688ZM25.8473 23.6449C26.0319 23.7909 26.1242 23.9095 26.1242 24.0008C26.1242 24.092 25.9581 24.1559 25.6258 24.1924C25.312 24.2289 25.0259 24.6122 24.7675 25.3423C23.7707 28.1167 22.5062 30.3435 20.9741 32.0227C19.4604 33.702 17.5591 35.1439 15.2701 36.3486L15.104 35.9926C19.2389 32.835 21.897 28.9016 23.0784 24.1924H19.0358C18.279 24.1924 17.6514 24.2837 17.153 24.4662L16.1285 23.3163C16.8853 23.3893 17.6514 23.4258 18.4267 23.4258H22.94L24.2137 22.1938L25.8473 23.6449Z" fill="white"/>
</g>
<defs>
<filter id="filter0_d" x="0.104004" y="0" width="56" height="56" filterUnits="userSpaceOnUse" color-interpolation-filters="sRGB">
<feFlood flood-opacity="0" result="BackgroundImageFix"/>
<feColorMatrix in="SourceAlpha" type="matrix" values="0 0 0 0 0 0 0 0 0 0 0 0 0 0 0 0 0 0 127 0"/>
<feOffset dy="3"/>
<feGaussianBlur stdDeviation="4"/>
<feColorMatrix type="matrix" values="0 0 0 0 0.105085 0 0 0 0 0.113559 0 0 0 0 0.194915 0 0 0 0.2 0"/>
<feBlend mode="normal" in2="BackgroundImageFix" result="effect1_dropShadow"/>
<feBlend mode="normal" in="SourceGraphic" in2="effect1_dropShadow" result="shape"/>
</filter>
</defs>
</svg>
