<svg width="56" height="56" viewBox="0 0 56 56" fill="none" xmlns="http://www.w3.org/2000/svg">
<g filter="url(#filter0_d)">
<rect x="8" y="5" width="40" height="40" rx="8" fill="#EBA800"/>
<path d="M28.0002 36.9791C21.3841 36.9791 16.021 31.616 16.021 24.9999C16.021 18.3838 21.3841 13.0208 28.0002 13.0208C34.6163 13.0208 39.9793 18.3838 39.9793 24.9999C39.9793 31.616 34.6163 36.9791 28.0002 36.9791ZM25.2569 34.1843C24.0751 31.6775 23.3904 28.9653 23.2408 26.1978H18.4911C18.7242 28.0413 19.4877 29.7774 20.6888 31.1952C21.8898 32.613 23.4768 33.6514 25.2569 34.1843ZM25.6403 26.1978C25.8212 29.1196 26.6561 31.864 28.0002 34.2862C29.3805 31.8 30.1869 29.0363 30.3601 26.1978H25.6403ZM37.5092 26.1978H32.7595C32.6099 28.9653 31.9252 31.6775 30.7434 34.1843C32.5235 33.6514 34.1105 32.613 35.3116 31.1952C36.5127 29.7774 37.2761 28.0413 37.5092 26.1978ZM18.4911 23.802H23.2408C23.3904 21.0346 24.0751 18.3224 25.2569 15.8155C23.4768 16.3484 21.8898 17.3869 20.6888 18.8046C19.4877 20.2224 18.7242 21.9585 18.4911 23.802ZM25.6415 23.802H30.3589C30.1861 20.9637 29.3801 18.2 28.0002 15.7137C26.6198 18.1999 25.8134 20.9636 25.6403 23.802H25.6415ZM30.7434 15.8155C31.9252 18.3224 32.6099 21.0346 32.7595 23.802H37.5092C37.2761 21.9585 36.5127 20.2224 35.3116 18.8046C34.1105 17.3869 32.5235 16.3484 30.7434 15.8155Z" fill="white"/>
</g>
<defs>
<filter id="filter0_d" x="0" y="0" width="56" height="56" filterUnits="userSpaceOnUse" color-interpolation-filters="sRGB">
<feFlood flood-opacity="0" result="BackgroundImageFix"/>
<feColorMatrix in="SourceAlpha" type="matrix" values="0 0 0 0 0 0 0 0 0 0 0 0 0 0 0 0 0 0 127 0"/>
<feOffset dy="3"/>
<feGaussianBlur stdDeviation="4"/>
<feColorMatrix type="matrix" values="0 0 0 0 0.105085 0 0 0 0 0.113559 0 0 0 0 0.194915 0 0 0 0.2 0"/>
<feBlend mode="normal" in2="BackgroundImageFix" result="effect1_dropShadow"/>
<feBlend mode="normal" in="SourceGraphic" in2="effect1_dropShadow" result="shape"/>
</filter>
</defs>
</svg>
