<svg width="56" height="56" viewBox="0 0 56 56" fill="none" xmlns="http://www.w3.org/2000/svg">
<g filter="url(#filter0_d)">
<rect x="8" y="5" width="40" height="40" rx="8" fill="#5F5CF6"/>
<path d="M32.354 17.104L27.818 21.64L25.2 19.022L29.736 14.486C30.226 14.01 31.206 14.206 31.92 14.934C32.648 15.648 32.844 16.628 32.354 17.104ZM21.154 19.582L22.428 18.014L35.042 30.628L33.376 31.804C32.382 32.798 29.694 33.428 28.028 33.428H22.596L20.86 35.164C20.034 35.99 18.704 35.99 17.892 35.164C17.6956 34.97 17.5396 34.7389 17.4332 34.4842C17.3268 34.2294 17.272 33.9561 17.272 33.68C17.272 33.4039 17.3268 33.1306 17.4332 32.8759C17.5396 32.6211 17.6956 32.3901 17.892 32.196L19.628 30.46V25.028C19.628 23.446 20.188 20.562 21.154 19.582ZM31.318 25.14L35.854 20.604C36.33 20.114 37.31 20.31 38.024 21.038C38.752 21.752 38.948 22.732 38.458 23.208L33.922 27.758L31.318 25.14Z" fill="white"/>
</g>
<defs>
<filter id="filter0_d" x="0" y="0" width="56" height="56" filterUnits="userSpaceOnUse" color-interpolation-filters="sRGB">
<feFlood flood-opacity="0" result="BackgroundImageFix"/>
<feColorMatrix in="SourceAlpha" type="matrix" values="0 0 0 0 0 0 0 0 0 0 0 0 0 0 0 0 0 0 127 0"/>
<feOffset dy="3"/>
<feGaussianBlur stdDeviation="4"/>
<feColorMatrix type="matrix" values="0 0 0 0 0.105085 0 0 0 0 0.113559 0 0 0 0 0.194915 0 0 0 0.2 0"/>
<feBlend mode="normal" in2="BackgroundImageFix" result="effect1_dropShadow"/>
<feBlend mode="normal" in="SourceGraphic" in2="effect1_dropShadow" result="shape"/>
</filter>
</defs>
</svg>
