<svg width="32" height="32" viewBox="0 0 32 32" fill="none" xmlns="http://www.w3.org/2000/svg">
<path d="M10.2697 29.4639C9.71796 29.0968 9.22892 28.6432 8.82143 28.1205C8.37319 27.581 7.95788 27.015 7.57776 26.4256C6.68575 25.1188 5.98621 23.6905 5.50061 22.1847C4.91726 20.4355 4.63477 18.7589 4.63477 17.119C4.63477 15.2876 5.03096 13.6889 5.80584 12.3455C6.38025 11.2955 7.22479 10.4181 8.25207 9.80397C9.24762 9.18561 10.3915 8.84721 11.5633 8.82443C11.9735 8.82443 12.4151 8.8839 12.8839 8.9976C13.2206 9.09293 13.6308 9.24335 14.1319 9.43052C14.7695 9.67628 15.1202 9.82671 15.2392 9.86344C15.6126 9.99988 15.9266 10.0593 16.1732 10.0593C16.3604 10.0593 16.6245 9.99988 16.9245 9.90892C17.0933 9.84945 17.4117 9.74449 17.8673 9.54946C18.3186 9.38504 18.6737 9.24423 18.9562 9.13928C19.3891 9.01159 19.808 8.89352 20.1815 8.83405C20.6242 8.76425 21.0735 8.74576 21.5205 8.77895C22.295 8.82957 23.0579 8.99371 23.7848 9.26609C24.9734 9.7445 25.9345 10.4914 26.6499 11.5531C26.3476 11.7395 26.0638 11.9545 25.8025 12.1951C25.2336 12.6994 24.7491 13.2914 24.3673 13.9486C23.8681 14.8469 23.6094 15.8588 23.616 16.8864C23.6344 18.1484 23.958 19.26 24.5955 20.2212C25.0643 20.9336 25.6735 21.5428 26.3858 22.0115C26.7505 22.2573 27.0645 22.426 27.3654 22.5397C27.2246 22.977 27.0741 23.4003 26.8966 23.8201C26.4939 24.7616 26.0059 25.6641 25.4386 26.5165C24.9331 27.2503 24.5369 27.7969 24.2361 28.1607C23.7673 28.7161 23.316 29.1403 22.8603 29.4359C22.3592 29.7682 21.7671 29.9458 21.1654 29.9458C20.7579 29.9614 20.3505 29.9121 19.9585 29.7997C19.6217 29.686 19.2885 29.5627 18.9606 29.4219C18.6196 29.2653 18.268 29.1329 17.9084 29.0257C17.0196 28.7974 16.0876 28.7959 15.1981 29.0213C14.8334 29.1263 14.4826 29.2487 14.1363 29.3992C13.6492 29.6038 13.3256 29.7411 13.1384 29.7997C12.765 29.909 12.3775 29.9773 11.9857 30C11.3796 30 10.8146 29.8268 10.2549 29.4761L10.2697 29.4639ZM18.2635 7.93584C17.4711 8.33203 16.7146 8.50083 15.9633 8.44573C15.8453 7.68921 15.9633 6.9152 16.2773 6.06772C16.5446 5.34974 16.9396 4.68603 17.4431 4.10864C17.9749 3.50082 18.6202 3.00261 19.3427 2.64195C20.1124 2.24576 20.8462 2.03149 21.5476 2C21.6385 2.79238 21.5476 3.57164 21.2564 4.41387C20.9868 5.15839 20.5926 5.85163 20.0905 6.46391C19.5781 7.07256 18.9492 7.5727 18.2408 7.93497L18.2635 7.93584Z" fill="#B2B4C7"/>
</svg>
