<svg width="224" height="49" viewBox="0 0 224 49" fill="none" xmlns="http://www.w3.org/2000/svg">
<path d="M0 0H56.3904V40.6957C56.3904 45.1139 52.8086 48.6956 48.3904 48.6956H8C3.58172 48.6956 0 45.1139 0 40.6956V0Z" fill="#EEEEEE"/>
<mask id="mask0wds222" mask-type="alpha" maskUnits="userSpaceOnUse" x="0" y="0" width="57" height="49">
<path d="M0 0H56.3904V40.6957C56.3904 45.1139 52.8086 48.6956 48.3904 48.6956H8C3.58172 48.6956 0 45.1139 0 40.6956V0Z" fill="#EEEEEE"/>
</mask>
<g mask="url(#mask0wds222)">
<path d="M34.6004 5.12622H21.81C21.1316 5.12622 20.4809 5.39573 20.0012 5.87547C19.5215 6.3552 19.252 7.00586 19.252 7.6843C19.252 8.36275 19.5215 9.01341 20.0012 9.49314C20.4809 9.97287 21.1316 10.2424 21.81 10.2424H34.6004C35.2789 10.2424 35.9295 9.97287 36.4093 9.49314C36.889 9.01341 37.1585 8.36275 37.1585 7.6843C37.1585 7.00586 36.889 6.3552 36.4093 5.87547C35.9295 5.39573 35.2789 5.12622 34.6004 5.12622Z" fill="#212121"/>
<mask id="mask1sdsgadasd" mask-type="alpha" maskUnits="userSpaceOnUse" x="4" y="20" width="49" height="50">
<path d="M28.4406 69.4059C41.8875 69.4059 52.7884 58.505 52.7884 45.058C52.7884 31.6111 41.8875 20.7102 28.4406 20.7102C14.9937 20.7102 4.09277 31.6111 4.09277 45.058C4.09277 58.505 14.9937 69.4059 28.4406 69.4059Z" fill="#C4C4C4"/>
</mask>
<g mask="url(#mask1sdsgadasd)">
<path d="M7.73047 20.5056V50.384H18.6074L28.1951 33.7821H52.5429V20.5056H7.73047ZM7.73047 20.5056V50.384H18.6074L28.1951 33.7821H52.5429V20.5056H7.73047Z" fill="#DB4437"/>
<path d="M3.84717 69.2011H27.0234L37.7673 58.4572V50.389H18.6073L3.84717 25.0691V69.2011ZM3.84717 69.2011H27.0234L37.7673 58.4572V50.389H18.6073L3.84717 25.0691V69.2011Z" fill="#0F9D58"/>
<path d="M28.1948 33.7821L37.7825 50.3841L27.0386 69.2013H52.558V33.7821H28.1948ZM28.1948 33.7821L37.7825 50.3841L27.0386 69.2013H52.558V33.7821H28.1948Z" fill="#FFCD40"/>
<path d="M28.1949 55.9249C34.3095 55.9249 39.2663 50.968 39.2663 44.8535C39.2663 38.7389 34.3095 33.7821 28.1949 33.7821C22.0804 33.7821 17.1235 38.7389 17.1235 44.8535C17.1235 50.968 22.0804 55.9249 28.1949 55.9249Z" fill="#F1F1F1"/>
<path d="M28.1949 53.7095C33.086 53.7095 37.051 49.7445 37.051 44.8534C37.051 39.9623 33.086 35.9973 28.1949 35.9973C23.3039 35.9973 19.3389 39.9623 19.3389 44.8534C19.3389 49.7445 23.3039 53.7095 28.1949 53.7095Z" fill="#4285F4"/>
</g>
<path d="M0 0H56.3904V24.3478H0V0Z" fill="#212121" fill-opacity="0.05"/>
<path d="M0 24.0101H56.3904V24.3273H0V24.0101Z" fill="#212121" fill-opacity="0.02"/>
<path d="M0 24.3478H56.3904V24.6701H0V24.3478Z" fill="white" fill-opacity="0.05"/>
<path d="M34.6006 10.2527H21.8102C21.1575 10.2539 20.5291 10.0055 20.0535 9.55852C19.578 9.1115 19.2913 8.49961 19.2521 7.84812C19.247 7.90257 19.247 7.95738 19.2521 8.01183C19.2521 8.69028 19.5216 9.34094 20.0014 9.82067C20.4811 10.3004 21.1318 10.5699 21.8102 10.5699H34.6006C34.9365 10.5699 35.2692 10.5037 35.5796 10.3752C35.8899 10.2466 36.1719 10.0582 36.4095 9.82067C36.647 9.58313 36.8354 9.30113 36.964 8.99077C37.0925 8.68041 37.1587 8.34776 37.1587 8.01183C37.1638 7.95738 37.1638 7.90257 37.1587 7.84812C37.1195 8.49961 36.8328 9.1115 36.3573 9.55852C35.8817 10.0055 35.2533 10.2539 34.6006 10.2527ZM0 0.0203857V0.342704H56.3904V0.0203857H0Z" fill="#212121" fill-opacity="0.02"/>
<path d="M21.7897 5.12628H34.5802C35.2328 5.12511 35.8613 5.37345 36.3368 5.82047C36.8124 6.26749 37.0991 6.87938 37.1382 7.53088C37.1382 7.4746 37.1382 7.42344 37.1382 7.36716C37.1382 6.68872 36.8687 6.03806 36.389 5.55833C35.9093 5.07859 35.2586 4.80908 34.5802 4.80908H21.7897C21.1113 4.80908 20.4606 5.07859 19.9809 5.55833C19.5012 6.03806 19.2317 6.68872 19.2317 7.36716C19.2266 7.42162 19.2266 7.47643 19.2317 7.53088C19.2708 6.87938 19.5575 6.26749 20.0331 5.82047C20.5086 5.37345 21.1371 5.12511 21.7897 5.12628ZM52.543 48.3783H3.84736C2.8278 48.3756 1.85078 47.9694 1.12985 47.2485C0.408914 46.5276 0.00270081 45.5505 0 44.531V44.8533C0.00404951 45.872 0.410858 46.8477 1.13165 47.5675C1.85244 48.2873 2.82869 48.6928 3.84736 48.6955H52.543C53.5617 48.6928 54.5379 48.2873 55.2587 47.5675C55.9795 46.8477 56.3863 45.872 56.3904 44.8533V44.531C56.3877 45.5505 55.9814 46.5276 55.2605 47.2485C54.5396 47.9694 53.5626 48.3756 52.543 48.3783V48.3783Z" fill="#231F20" fill-opacity="0.1"/>
<path d="M0 0V44.8534C0.00404951 45.8721 0.410858 46.8478 1.13165 47.5676C1.85244 48.2874 2.82869 48.693 3.84736 48.6956H52.543C53.5617 48.693 54.5379 48.2874 55.2587 47.5676C55.9795 46.8478 56.3863 45.8721 56.3904 44.8534V0H0ZM34.6006 10.2323H21.8102C21.1318 10.2323 20.4811 9.96282 20.0014 9.48308C19.5216 9.00335 19.2521 8.35269 19.2521 7.67425C19.2521 6.9958 19.5216 6.34514 20.0014 5.86541C20.4811 5.38568 21.1318 5.11616 21.8102 5.11616H34.6006C34.9365 5.11616 35.2692 5.18233 35.5796 5.31089C35.8899 5.43944 36.1719 5.62787 36.4095 5.86541C36.647 6.10295 36.8354 6.38495 36.964 6.69531C37.0925 7.00567 37.1587 7.33831 37.1587 7.67425C37.1587 8.01018 37.0925 8.34282 36.964 8.65318C36.8354 8.96354 36.647 9.24554 36.4095 9.48308C36.1719 9.72062 35.8899 9.90905 35.5796 10.0376C35.2692 10.1662 34.9365 10.2323 34.6006 10.2323Z" fill="url(#paint0_radialsdfsd2dfsd)"/>
</g>
<path fill-rule="evenodd" clip-rule="evenodd" d="M95.5041 10.3484C95.7186 10.3268 95.919 10.2315 96.0711 10.0787C96.159 9.99413 96.2284 9.8923 96.2751 9.7796C96.3218 9.66691 96.3446 9.54579 96.3423 9.42384C96.3427 9.20824 96.2683 8.99916 96.1318 8.83228C95.9953 8.6654 95.8051 8.55107 95.5937 8.5088C95.3823 8.46652 95.1627 8.49893 94.9725 8.60048C94.7824 8.70203 94.6333 8.86644 94.5508 9.06564C94.4683 9.26485 94.4575 9.4865 94.5203 9.69278C94.583 9.89906 94.7154 10.0772 94.8948 10.1967C95.0742 10.3163 95.2896 10.3699 95.5041 10.3484ZM94.7563 18.8632H96.0711V11.8438H94.7563V18.8632ZM70.8335 18.8633L74.7013 8.63098H76.1901L80.0579 18.8633H78.5947L77.6073 16.0852H73.2944L72.2711 18.8633H70.8335ZM73.7292 14.8522H77.1366L75.4636 10.2221H75.4073L73.7292 14.8522ZM72.965 38.9612C74.116 39.7474 75.4715 40.1807 76.8651 40.2079C77.9189 40.2098 78.96 39.9792 79.9144 39.5326C80.8124 39.1255 81.6079 38.5223 82.2422 37.7675L81.0297 36.5549C80.5258 37.172 79.8903 37.6687 79.1698 38.0086C78.4492 38.3485 77.6618 38.5231 76.8651 38.5196C76.174 38.5358 75.4867 38.4118 74.8448 38.155C74.2028 37.8983 73.6196 37.5141 73.1303 37.0256C72.1492 35.9563 71.6048 34.5579 71.6048 33.1067C71.6048 31.6554 72.1492 30.257 73.1303 29.1877C73.6196 28.6992 74.2028 28.315 74.8448 28.0583C75.4867 27.8015 76.174 27.6775 76.8651 27.6938C77.5851 27.6634 78.302 27.8038 78.9573 28.1035C79.6126 28.4031 80.1877 28.8535 80.6357 29.4179L81.8432 28.2412C81.2334 27.5213 80.4691 26.9483 79.6073 26.5648C78.7454 26.1812 77.8081 25.997 76.8651 26.0259C75.9339 26.0063 75.0086 26.1777 74.1462 26.5297C73.2839 26.8817 72.5028 27.4067 71.8513 28.0724C70.8832 29.0753 70.2289 30.3389 69.9684 31.7083C69.708 33.0777 69.8528 34.4933 70.385 35.7817C70.9173 37.07 71.8139 38.175 72.965 38.9612ZM85.5371 30.6305V26.3534H83.7925V39.9112H85.5371V34.7951C85.5248 34.071 85.7654 33.3654 86.2175 32.7998C86.4216 32.5267 86.6875 32.3059 86.9934 32.1556C87.2994 32.0052 87.6367 31.9297 87.9775 31.9351C89.5055 31.9351 90.2695 32.7878 90.2695 34.4932V39.9215H92.009V34.2425C92.0721 33.2148 91.7573 32.1995 91.1239 31.3877C90.7898 31.0225 90.3774 30.7375 89.9176 30.5541C89.4578 30.3708 88.9624 30.2937 88.4687 30.3287C87.8584 30.3265 87.2584 30.4853 86.7292 30.7891C86.238 31.0505 85.8263 31.4393 85.5371 31.9147H85.4603L85.5371 30.6305ZM95.7952 39.906H94.0557V30.6304H95.7287V32.1653H95.8054C96.0077 31.6322 96.3943 31.1894 96.8951 30.9169C97.3723 30.6036 97.9261 30.4267 98.4965 30.4053C98.9425 30.3924 99.3865 30.4707 99.8011 30.6355L99.136 32.2625C98.8378 32.1631 98.5241 32.1181 98.21 32.1295C97.8947 32.1316 97.5832 32.1991 97.2952 32.3277C97.0073 32.4562 96.7491 32.6431 96.537 32.8764C96.2904 33.1377 96.0987 33.4456 95.973 33.7822C95.8474 34.1187 95.7904 34.477 95.8054 34.8359L95.7952 39.906ZM104.597 30.3276C103.315 30.3276 102.084 30.8336 101.172 31.7355C100.306 32.7074 99.8271 33.9638 99.8271 35.2657C99.8271 36.5676 100.306 37.824 101.172 38.7959C102.083 39.7003 103.314 40.2079 104.597 40.2079C105.881 40.2079 107.112 39.7003 108.023 38.7959C108.889 37.824 109.368 36.5676 109.368 35.2657C109.368 33.9638 108.889 32.7074 108.023 31.7355C107.111 30.8336 105.88 30.3276 104.597 30.3276ZM103.438 38.3782C103.071 38.2208 102.741 37.9903 102.466 37.701C101.889 37.0219 101.572 36.1596 101.572 35.2683C101.572 34.3769 101.889 33.5146 102.466 32.8355C102.74 32.5449 103.07 32.3132 103.437 32.1549C103.803 31.9966 104.198 31.9149 104.597 31.9149C104.997 31.9149 105.391 31.9966 105.758 32.1549C106.124 32.3132 106.455 32.5449 106.728 32.8355C107.31 33.5127 107.629 34.3757 107.629 35.2683C107.629 36.1608 107.31 37.0238 106.728 37.701C106.454 37.9903 106.123 38.2208 105.757 38.3782C105.391 38.5357 104.996 38.6169 104.597 38.6169C104.199 38.6169 103.804 38.5357 103.438 38.3782ZM110.77 39.9061V30.6305H112.438V31.9147H112.51C112.814 31.4407 113.235 31.0531 113.732 30.7891C114.229 30.4965 114.793 30.3379 115.369 30.3286C116.809 30.3286 117.786 30.9204 118.301 32.104C118.633 31.5459 119.109 31.0869 119.678 30.7747C120.248 30.4625 120.89 30.3085 121.54 30.3286C122.007 30.2957 122.475 30.3736 122.906 30.5558C123.337 30.7381 123.719 31.0196 124.021 31.3775C124.618 32.2094 124.912 33.2203 124.855 34.2425V39.9215H123.11V34.4932C123.177 33.7905 122.996 33.0865 122.599 32.503C122.401 32.2988 122.162 32.1403 121.896 32.0386C121.631 31.937 121.347 31.8947 121.064 31.9147C120.732 31.9121 120.404 31.9905 120.109 32.1429C119.814 32.2953 119.56 32.5172 119.37 32.7895C118.926 33.3477 118.684 34.0405 118.685 34.7541V39.8703H116.94V34.4932C117.007 33.7905 116.826 33.0865 116.429 32.503C116.231 32.2988 115.991 32.1403 115.726 32.0386C115.461 31.937 115.177 31.8947 114.894 31.9147C114.562 31.9121 114.234 31.9905 113.939 32.1429C113.644 32.2953 113.39 32.5172 113.2 32.7895C112.754 33.3472 112.51 34.0399 112.51 34.7541V39.8703L110.77 39.9061ZM129.241 39.8774C129.831 40.1192 130.465 40.2319 131.102 40.2079C132.01 40.2392 132.904 39.9851 133.66 39.4814C134.323 39.0348 134.841 38.4057 135.154 37.6703L133.619 37.0257C133.424 37.5333 133.069 37.9633 132.607 38.2505C132.145 38.5377 131.602 38.6663 131.061 38.6168C130.308 38.6232 129.583 38.3307 129.045 37.8033C128.453 37.2177 128.116 36.4212 128.109 35.588H135.456V35.2657C135.515 33.9568 135.07 32.6749 134.212 31.6844C133.793 31.2337 133.281 30.8791 132.711 30.6451C132.141 30.411 131.528 30.3031 130.913 30.3286C130.293 30.313 129.679 30.4357 129.113 30.688C128.547 30.9403 128.045 31.3156 127.643 31.7867C126.799 32.7465 126.345 33.9876 126.369 35.2657C126.322 36.5733 126.795 37.8463 127.684 38.8061C128.121 39.2703 128.652 39.6355 129.241 39.8774ZM132.862 32.6155C133.278 33.0253 133.535 33.569 133.588 34.1504L128.211 34.1299C128.359 33.4988 128.701 32.9298 129.188 32.503C129.652 32.1005 130.248 31.8837 130.861 31.8942C131.227 31.8672 131.594 31.9175 131.938 32.0418C132.283 32.1661 132.598 32.3616 132.862 32.6155ZM156.545 26.3534L152.927 39.9061H151.147L148.231 30.9682H148.154L145.243 39.9061H143.463L139.692 26.3534H141.513L144.368 37.0104H144.445L147.402 28.1696H149.029L151.96 37.0104H152.007L154.713 26.3534H156.545ZM159.207 39.8774C159.796 40.1192 160.43 40.2319 161.067 40.2079C161.973 40.2388 162.866 39.9847 163.62 39.4814C164.283 39.0336 164.803 38.405 165.119 37.6703L163.584 37.0257C163.39 37.5338 163.035 37.9643 162.573 38.2516C162.111 38.5389 161.568 38.6672 161.026 38.6168C160.273 38.6221 159.549 38.3297 159.011 37.8033C158.418 37.2177 158.081 36.4212 158.074 35.588H165.421V35.2657C165.481 33.9568 165.036 32.6749 164.178 31.6844C163.758 31.2337 163.246 30.8791 162.676 30.6451C162.107 30.411 161.493 30.3031 160.878 30.3286C160.259 30.3123 159.645 30.4348 159.08 30.6871C158.515 30.9394 158.014 31.3152 157.614 31.7867C156.765 32.7442 156.308 33.9864 156.335 35.2657C156.288 36.5733 156.76 37.8463 157.65 38.8061C158.086 39.2703 158.617 39.6355 159.207 39.8774ZM162.837 32.6155C163.253 33.0253 163.511 33.569 163.564 34.1504H158.192C158.34 33.5193 158.681 32.9503 159.169 32.5235C159.629 32.1156 160.223 31.8915 160.837 31.8942C161.202 31.8672 161.569 31.9175 161.914 32.0418C162.259 32.1661 162.573 32.3616 162.837 32.6155ZM171.913 40.208C171.251 40.2176 170.597 40.061 170.01 39.7526C169.496 39.4948 169.061 39.1023 168.752 38.6168H168.675V39.9061H167.012V26.3534H168.752V30.6305L168.675 31.9147H168.752C169.064 31.4317 169.498 31.0398 170.01 30.7789C170.597 30.472 171.251 30.3172 171.913 30.3287C172.504 30.326 173.089 30.4513 173.627 30.6959C174.164 30.9405 174.643 31.2987 175.029 31.7458C175.871 32.7264 176.334 33.976 176.334 35.2683C176.334 36.5606 175.871 37.8102 175.029 38.7908C174.643 39.2379 174.164 39.5961 173.627 39.8407C173.089 40.0854 172.504 40.2106 171.913 40.208ZM171.627 38.6168C172.019 38.6201 172.407 38.5401 172.766 38.3823C173.125 38.2244 173.447 37.9922 173.709 37.701C174.274 37.0163 174.584 36.1562 174.584 35.2683C174.584 34.3805 174.274 33.5203 173.709 32.8356C173.444 32.5467 173.122 32.316 172.763 32.1582C172.404 32.0004 172.016 31.9189 171.624 31.9189C171.232 31.9189 170.845 32.0004 170.486 32.1582C170.127 32.316 169.805 32.5467 169.54 32.8356C168.98 33.5268 168.675 34.3892 168.675 35.2785C168.675 36.1679 168.98 37.0302 169.54 37.7215C169.805 38.0096 170.128 38.2384 170.487 38.3927C170.847 38.547 171.236 38.6234 171.627 38.6168ZM182.749 39.2411C183.589 39.8521 184.596 40.1898 185.635 40.208L185.614 40.1978C186.697 40.2003 187.756 39.8777 188.653 39.2718C189.111 38.9584 189.483 38.5342 189.733 38.0388C190.011 37.4945 190.152 36.8901 190.142 36.2788C190.155 35.6833 190.034 35.0925 189.789 34.5495C189.562 34.0507 189.209 33.6189 188.766 33.2961C188.338 32.9837 187.881 32.7146 187.4 32.4928C186.854 32.2546 186.295 32.0462 185.727 31.8687C185.036 31.6699 184.386 31.3531 183.803 30.9324C183.601 30.7858 183.437 30.5935 183.324 30.3711C183.211 30.1488 183.153 29.9028 183.153 29.6534C183.153 29.3821 183.216 29.1145 183.339 28.8726C183.462 28.6306 183.64 28.4213 183.859 28.2618C184.363 27.9026 184.965 27.7095 185.584 27.7095C186.202 27.7095 186.805 27.9026 187.308 28.2618C187.704 28.5621 187.995 28.979 188.142 29.4538L189.733 28.7939C189.466 28.0395 188.977 27.3833 188.331 26.9111C187.527 26.3142 186.543 26.0125 185.543 26.0567C184.438 25.9989 183.355 26.3753 182.524 27.1055C182.158 27.4234 181.866 27.8165 181.666 28.2581C181.467 28.6996 181.365 29.1791 181.368 29.6636C181.354 30.0907 181.428 30.516 181.588 30.9125C181.747 31.3089 181.988 31.6677 182.294 31.9659C183.078 32.6569 184.011 33.1576 185.021 33.4291C185.931 33.6663 186.796 34.0536 187.579 34.5751C187.844 34.782 188.055 35.0493 188.194 35.3547C188.334 35.66 188.399 35.9945 188.382 36.33C188.391 36.6447 188.323 36.9567 188.183 37.2387C188.043 37.5206 187.835 37.7638 187.579 37.9467C187.014 38.3528 186.33 38.5613 185.635 38.5401C184.904 38.5429 184.199 38.2708 183.66 37.7778C183.084 37.2856 182.676 36.6255 182.493 35.89L180.902 36.5346C181.152 37.6384 181.813 38.6058 182.749 39.2411ZM195.519 40.0545C195.117 40.1024 194.709 40.0588 194.326 39.927C193.943 39.7952 193.594 39.5785 193.306 39.2933C193.019 39.008 192.799 38.6614 192.664 38.2794C192.529 37.8974 192.482 37.4898 192.526 37.0871V32.2216H190.889V30.6305H192.516V27.791H194.261V30.6305H196.532V32.2216H194.261V36.9541C194.261 37.9773 194.675 38.4889 195.509 38.4889C195.781 38.4971 196.052 38.4446 196.302 38.3354L196.911 39.8293C196.467 39.9968 195.994 40.0733 195.519 40.0545ZM202.352 30.3276C201.069 30.3276 199.838 30.8336 198.926 31.7355C198.06 32.7074 197.582 33.9638 197.582 35.2657C197.582 36.5676 198.06 37.824 198.926 38.7959C199.837 39.7003 201.068 40.2079 202.352 40.2079C203.635 40.2079 204.866 39.7003 205.777 38.7959C206.643 37.824 207.122 36.5676 207.122 35.2657C207.122 33.9638 206.643 32.7074 205.777 31.7355C204.865 30.8336 203.634 30.3276 202.352 30.3276ZM201.192 38.3782C200.826 38.2208 200.495 37.9903 200.221 37.701C199.643 37.0219 199.326 36.1596 199.326 35.2683C199.326 34.3769 199.643 33.5146 200.221 32.8355C200.494 32.5449 200.825 32.3132 201.191 32.1549C201.558 31.9966 201.953 31.9149 202.352 31.9149C202.751 31.9149 203.146 31.9966 203.512 32.1549C203.879 32.3132 204.209 32.5449 204.483 32.8355C205.064 33.5127 205.384 34.3757 205.384 35.2683C205.384 36.1608 205.064 37.0238 204.483 37.701C204.208 37.9903 203.878 38.2208 203.511 38.3782C203.145 38.5357 202.75 38.6169 202.352 38.6169C201.953 38.6169 201.558 38.5357 201.192 38.3782ZM210.264 39.9061H208.524V30.6305H210.187V32.1653H210.264C210.46 31.6237 210.848 31.1725 211.354 30.8965C211.829 30.5834 212.381 30.4064 212.95 30.3849C213.398 30.3714 213.843 30.4498 214.26 30.6151L213.595 32.2421C213.296 32.1432 212.983 32.0981 212.669 32.1091C212.352 32.1111 212.04 32.1785 211.751 32.3071C211.463 32.4356 211.203 32.6225 210.99 32.856C210.745 33.1177 210.554 33.4258 210.429 33.7624C210.304 34.0989 210.248 34.457 210.264 34.8155V39.9061ZM217.168 39.8764C217.757 40.1181 218.392 40.2311 219.028 40.2079C219.929 40.2409 220.817 39.9942 221.571 39.5018C222.232 39.0537 222.751 38.425 223.065 37.6907L221.53 37.0461C221.338 37.5501 220.987 37.978 220.53 38.265C220.073 38.552 219.535 38.6826 218.998 38.6372C218.625 38.6409 218.255 38.571 217.909 38.4314C217.563 38.2918 217.248 38.0853 216.982 37.8237C216.683 37.5331 216.446 37.1855 216.284 36.8014C216.123 36.4173 216.04 36.0047 216.041 35.588H223.382V35.2656C223.443 33.9574 223 32.6756 222.144 31.6843C221.723 31.2337 221.21 30.8793 220.64 30.6453C220.069 30.4113 219.455 30.3033 218.839 30.3285C218.221 30.3122 217.606 30.4347 217.041 30.687C216.477 30.9393 215.975 31.3151 215.575 31.7867C214.726 32.7441 214.269 33.9864 214.296 35.2656C214.251 36.5729 214.723 37.845 215.611 38.806C216.048 39.2697 216.579 39.6346 217.168 39.8764ZM220.799 32.6155C221.217 33.0236 221.474 33.5682 221.525 34.1503L216.153 34.1299C216.297 33.4986 216.638 32.9291 217.125 32.5029C217.591 32.1014 218.188 31.8847 218.803 31.8941C219.168 31.8676 219.534 31.9181 219.878 32.0424C220.221 32.1667 220.535 32.3619 220.799 32.6155ZM79.5923 11.844L82.4266 18.8634H83.7313L86.5963 11.844H85.1894L83.0969 17.2876H83.0713L81.0248 11.844H79.5923ZM89.5279 19.0935C88.8458 19.116 88.1792 18.8865 87.6554 18.4489C87.409 18.2395 87.2133 17.9769 87.083 17.6809C86.9528 17.3849 86.8913 17.0633 86.9033 16.7401C86.8905 16.3903 86.9653 16.0429 87.1207 15.7293C87.2762 15.4157 87.5074 15.1459 87.7935 14.9443C88.4323 14.4927 89.2014 14.2627 89.9833 14.2895C90.646 14.2638 91.3039 14.4119 91.8916 14.7192V14.5146C91.9025 14.2833 91.8623 14.0524 91.7739 13.8384C91.6855 13.6244 91.551 13.4326 91.38 13.2765C91.018 12.9646 90.5529 12.7987 90.0753 12.8109C89.7164 12.81 89.3635 12.9035 89.0521 13.082C88.7568 13.2455 88.5312 13.5111 88.4177 13.829L87.2103 13.3174C87.4162 12.8467 87.7493 12.4427 88.1721 12.1509C88.7302 11.778 89.3952 11.5983 90.0651 11.6393C90.8816 11.6097 91.679 11.8913 92.2958 12.4272C92.5923 12.7075 92.8241 13.0491 92.9752 13.4281C93.1263 13.8072 93.193 14.2146 93.1706 14.622V18.8633H91.8916V17.8708H91.8302C91.5913 18.2622 91.2515 18.5823 90.8465 18.7974C90.4415 19.0125 89.986 19.1148 89.5279 19.0935ZM89.7428 17.8708C90.2963 17.8688 90.827 17.6503 91.2214 17.2619C91.4307 17.0853 91.5991 16.8652 91.7148 16.6169C91.8305 16.3687 91.8909 16.0982 91.8916 15.8243C91.4019 15.4822 90.8092 15.3195 90.2135 15.3638C89.6964 15.3279 89.1834 15.4766 88.7656 15.7834C88.6166 15.8983 88.4954 16.0454 88.4113 16.2137C88.3271 16.3821 88.2821 16.5673 88.2796 16.7554C88.2769 16.9187 88.3164 17.0799 88.3944 17.2233C88.4724 17.3667 88.5862 17.4876 88.7247 17.574C89.0259 17.7744 89.3811 17.8779 89.7428 17.8708ZM99.1102 18.8633H97.7749V8.63098H99.0949L99.1102 18.8633ZM100.993 18.4489C101.516 18.8857 102.18 19.1151 102.861 19.0935C103.317 19.1097 103.769 19.0052 104.171 18.7904C104.574 18.5757 104.912 18.2584 105.153 17.8707H105.209V18.8633H106.473V14.622C106.499 14.2169 106.437 13.8109 106.291 13.432C106.146 13.053 105.92 12.7102 105.629 12.4271C105.01 11.8909 104.211 11.6094 103.393 11.6392C102.725 11.5994 102.062 11.779 101.505 12.1509C101.081 12.4411 100.747 12.8455 100.543 13.3173L101.745 13.829C101.863 13.5116 102.089 13.2467 102.385 13.082C102.696 12.9034 103.049 12.8099 103.408 12.8108C103.886 12.7986 104.351 12.9646 104.713 13.2764C104.884 13.4323 105.019 13.6241 105.107 13.8382C105.196 14.0522 105.236 14.2832 105.224 14.5145V14.7192C104.639 14.4114 103.982 14.2632 103.321 14.2894C102.539 14.2627 101.77 14.4927 101.131 14.9443C100.845 15.1459 100.614 15.4157 100.459 15.7293C100.303 16.0429 100.228 16.3903 100.241 16.7401C100.229 17.0632 100.291 17.3849 100.421 17.6809C100.551 17.9768 100.747 18.2394 100.993 18.4489ZM104.559 17.2773C104.163 17.6659 103.631 17.8844 103.076 17.8861V17.8707C102.708 17.8877 102.345 17.7893 102.037 17.5893C101.898 17.5029 101.785 17.3821 101.707 17.2386C101.629 17.0952 101.589 16.934 101.592 16.7708C101.596 16.5802 101.645 16.3933 101.733 16.2246C101.822 16.0559 101.949 15.9101 102.104 15.7987C102.521 15.4915 103.034 15.3428 103.551 15.3792C104.146 15.333 104.737 15.4959 105.224 15.8396C105.225 16.1132 105.165 16.3835 105.05 16.6318C104.935 16.8801 104.768 17.1003 104.559 17.2773ZM111.686 19.0935C111.185 19.1005 110.69 18.9809 110.248 18.7456C109.856 18.5478 109.526 18.2449 109.297 17.8707H109.235V18.8479H107.977V8.6156H109.297V11.8541L109.235 12.8262H109.297C109.532 12.4602 109.86 12.1634 110.248 11.9667C110.691 11.7332 111.185 11.6153 111.686 11.6239C112.132 11.6217 112.573 11.7166 112.978 11.9021C113.384 12.0877 113.744 12.3594 114.034 12.6983C114.671 13.4404 115.021 14.3859 115.021 15.3638C115.021 16.3417 114.671 17.2873 114.034 18.0293C113.743 18.3664 113.383 18.6362 112.977 18.8199C112.572 19.0037 112.131 19.097 111.686 19.0935ZM111.471 17.8707C111.767 17.8736 112.061 17.8134 112.333 17.6944C112.604 17.5753 112.848 17.4 113.047 17.1801C113.473 16.661 113.706 16.0101 113.706 15.3382C113.706 14.6664 113.473 14.0154 113.047 13.4964C112.846 13.2779 112.602 13.1035 112.33 12.9842C112.059 12.8649 111.765 12.8033 111.468 12.8033C111.172 12.8033 110.878 12.8649 110.606 12.9842C110.335 13.1035 110.091 13.2779 109.89 13.4964C109.466 14.0187 109.235 14.6708 109.235 15.3434C109.235 16.0159 109.466 16.668 109.89 17.1903C110.09 17.4096 110.334 17.5837 110.607 17.701C110.88 17.8184 111.174 17.8762 111.471 17.8707ZM116.157 18.8633H117.472V8.63098H116.157V18.8633ZM122.189 19.0934C121.707 19.1114 121.226 19.0258 120.779 18.8422C120.333 18.6586 119.931 18.3814 119.6 18.0292C118.929 17.3036 118.572 16.3415 118.608 15.3535C118.587 14.3849 118.933 13.4441 119.575 12.7187C119.878 12.3616 120.257 12.077 120.685 11.8858C121.113 11.6945 121.578 11.6015 122.046 11.6136C122.511 11.5936 122.976 11.6747 123.407 11.8514C123.838 12.028 124.225 12.296 124.543 12.6368C125.196 13.3888 125.533 14.3639 125.484 15.3586V15.5991H119.923C119.929 16.2304 120.184 16.8337 120.634 17.2772C120.837 17.4758 121.077 17.6323 121.34 17.7376C121.603 17.843 121.885 17.8952 122.169 17.8911C122.576 17.9259 122.983 17.8274 123.329 17.6106C123.675 17.3937 123.941 17.0702 124.087 16.6888L125.264 17.2004C125.026 17.756 124.633 18.2318 124.133 18.5715C123.556 18.9444 122.876 19.1269 122.189 19.0934ZM124.077 14.4888C124.036 14.053 123.84 13.6463 123.525 13.3428C123.326 13.1502 123.089 13.0018 122.829 12.9074C122.568 12.8131 122.291 12.7749 122.015 12.7954C121.55 12.7873 121.098 12.9512 120.746 13.2559C120.378 13.5794 120.12 14.0107 120.01 14.4888H124.077ZM130.613 10.353C130.86 10.3525 131.096 10.2539 131.271 10.0789C131.445 9.90431 131.542 9.6679 131.542 9.42143C131.542 9.17496 131.445 8.93854 131.271 8.764C131.095 8.58967 130.858 8.49182 130.611 8.49182C130.363 8.49182 130.126 8.58967 129.951 8.764C129.776 8.93904 129.679 9.17618 129.679 9.42324C129.68 9.6703 129.778 9.90705 129.953 10.0814C130.128 10.2558 130.366 10.3535 130.613 10.353ZM129.951 18.8633H131.271V11.8439H129.951V18.8633ZM134.248 11.844V12.816H134.304C134.523 12.4559 134.836 12.1622 135.21 11.9668C135.609 11.7343 136.063 11.6125 136.525 11.6137C136.896 11.589 137.267 11.6484 137.612 11.7875C137.956 11.9266 138.265 12.1418 138.515 12.417C139.001 13.0243 139.247 13.7891 139.206 14.5658V18.8633H137.886V14.7704C137.886 13.4709 137.308 12.8212 136.151 12.8212C135.893 12.8167 135.638 12.8738 135.407 12.9877C135.176 13.1016 134.975 13.269 134.821 13.476C134.476 13.9117 134.295 14.4551 134.309 15.0109V18.894H132.995V11.844H134.248ZM146.04 18.8759C146.329 18.9762 146.637 19.0103 146.941 18.9758C147.304 18.983 147.664 18.9168 148 18.7814L147.54 17.6507C147.351 17.7319 147.147 17.7704 146.941 17.7632C146.312 17.7632 145.995 17.3795 145.995 16.6172V13.0359H147.714V11.8336H145.995V9.68481H144.675V11.8438H143.442V13.0461H144.675V16.7298C144.643 17.0343 144.68 17.3421 144.783 17.6305C144.886 17.9189 145.052 18.1805 145.27 18.396C145.487 18.6115 145.75 18.7755 146.04 18.8759ZM150.364 8.60535V11.8439L150.308 12.8159H150.364C150.581 12.456 150.893 12.1623 151.265 11.9667C151.665 11.7336 152.121 11.6117 152.585 11.6137C152.954 11.5909 153.323 11.6512 153.666 11.7902C154.009 11.9292 154.316 12.1434 154.565 12.4169C155.049 13.0247 155.293 13.7896 155.25 14.5657V18.8633H153.935V14.7703C153.935 13.4708 153.357 12.8211 152.201 12.8211C151.943 12.8166 151.688 12.8737 151.457 12.9876C151.225 13.1015 151.024 13.2689 150.871 13.4759C150.523 13.9104 150.341 14.4546 150.359 15.0108V18.894H149.039V8.66162L150.364 8.60535ZM158.581 18.8417C159.026 19.0253 159.506 19.1111 159.988 19.0935C160.675 19.1269 161.356 18.9424 161.932 18.5665C162.435 18.2284 162.829 17.7523 163.068 17.1954L161.891 16.6838C161.745 17.0652 161.479 17.3887 161.133 17.6056C160.787 17.8224 160.379 17.9209 159.972 17.8861C159.689 17.8902 159.407 17.838 159.144 17.7326C158.88 17.6273 158.64 17.4708 158.438 17.2722C158.214 17.0533 158.036 16.7923 157.914 16.5042C157.792 16.2162 157.728 15.9069 157.726 15.5941H163.262V15.3536C163.317 14.364 162.989 13.3912 162.346 12.6369C162.028 12.2957 161.64 12.0275 161.208 11.8509C160.776 11.6742 160.311 11.5933 159.845 11.6137C159.376 11.6016 158.911 11.6947 158.484 11.8859C158.056 12.0771 157.677 12.3617 157.373 12.7188C156.731 13.4442 156.386 14.385 156.407 15.3536C156.373 16.3423 156.731 17.3042 157.404 18.0293C157.734 18.3811 158.135 18.6581 158.581 18.8417ZM161.328 13.3429C161.64 13.6493 161.835 14.0544 161.881 14.489H157.788C157.898 14.0108 158.156 13.5795 158.525 13.256C158.876 12.9514 159.328 12.7874 159.793 12.7955C160.073 12.772 160.355 12.8086 160.62 12.9031C160.885 12.9975 161.126 13.1475 161.328 13.3429Z" fill="#5D6398"/>
<defs>
<radialGradient id="paint0_radialsdfsd2dfsd" cx="0" cy="0" r="1" gradientUnits="userSpaceOnUse" gradientTransform="translate(-0.15732 -0.208483) scale(72.9156)">
<stop stop-color="white" stop-opacity="0.1"/>
<stop offset="1" stop-color="white" stop-opacity="0"/>
</radialGradient>
</defs>
</svg>
