<svg width="3471" height="183" viewBox="0 0 3471 183" fill="none" xmlns="http://www.w3.org/2000/svg">
<g filter="url(#filter0_di2dssafd)">
<path fill-rule="evenodd" clip-rule="evenodd" d="M1183.1 3.52002H1269.9V32.72H1213.2V58.78H1262.34V87.98H1213.2V140H1183.1V3.52002ZM1187.1 7.52002V136H1209.2V83.98H1258.34V62.78H1209.2V28.72H1265.9V7.52002H1187.1ZM1436.94 57.6497C1435.29 58.022 1433.18 58.7946 1430.57 60.0597L1430.54 60.0705L1430.52 60.0808C1426.77 61.7856 1423.04 64.2468 1419.32 67.4947C1415.78 70.7002 1412.99 74.2867 1410.95 78.2547L1407.91 84.1655L1405.4 61.34H1386.51V136H1407.53V107.22C1407.53 102.576 1408.63 98.0744 1410.8 93.7358C1412.99 89.2298 1416.16 85.5463 1420.28 82.7119C1424.48 79.8239 1429.32 78.4 1434.73 78.4C1435.14 78.4 1435.53 78.4055 1435.9 78.417L1436.94 57.6497ZM1428.84 56.4497C1432.86 54.5049 1436.31 53.38 1439.05 53.38H1441.16L1439.68 82.9219L1437.47 82.5528C1436.91 82.4599 1436.02 82.4 1434.73 82.4C1430.06 82.4 1426.03 83.6162 1422.55 86.0081C1418.99 88.4516 1416.28 91.6046 1414.39 95.4938L1414.39 95.5042L1414.38 95.5145C1412.47 99.3327 1411.53 103.228 1411.53 107.22V140H1382.51V57.34H1408.99L1410.53 71.3234C1412.28 68.8897 1414.32 66.6205 1416.65 64.5158L1416.67 64.5053L1416.68 64.4949C1420.63 61.0343 1424.69 58.3424 1428.84 56.4497ZM1320.74 57.56C1312.27 57.56 1304.74 59.3554 1298.11 62.9039L1298.09 62.9099C1291.57 66.3451 1286.51 71.0724 1282.86 77.1019C1279.34 83.1251 1277.56 89.9668 1277.56 97.68C1277.56 106.147 1279.36 113.34 1282.86 119.338C1286.5 125.365 1291.5 130.023 1297.88 133.334C1304.41 136.534 1311.89 138.16 1320.38 138.16C1329.11 138.16 1336.57 136.416 1342.82 133.008C1349.22 129.462 1354.1 124.628 1357.51 118.489C1360.94 112.331 1362.66 105.41 1362.66 97.68C1362.66 89.9499 1360.94 83.0953 1357.52 77.0652C1354.12 71.0492 1349.24 66.3324 1342.84 62.903L1342.82 62.8929L1342.8 62.8823C1336.54 59.3561 1329.21 57.56 1320.74 57.56ZM1296.23 59.3731C1303.51 55.4836 1311.69 53.56 1320.74 53.56C1329.78 53.56 1337.81 55.4806 1344.75 59.3873C1351.78 63.1572 1357.21 68.3969 1361 75.0948C1364.79 81.7847 1366.66 89.3302 1366.66 97.68C1366.66 106.03 1364.79 113.629 1361.01 120.431C1357.22 127.251 1351.79 132.615 1344.75 136.51L1344.74 136.516C1337.79 140.305 1329.65 142.16 1320.38 142.16C1311.36 142.16 1303.25 140.429 1296.1 136.915L1296.08 136.906L1296.06 136.896C1289.02 133.25 1283.46 128.076 1279.43 121.394L1279.42 121.382L1279.42 121.37C1275.49 114.65 1273.56 106.728 1273.56 97.68C1273.56 89.3185 1275.5 81.7642 1279.42 75.0703L1279.42 75.0582L1279.43 75.0463C1283.47 68.3632 1289.08 63.1354 1296.23 59.3731ZM1304.83 81.0679C1308.81 76.4327 1313.92 74.08 1320.02 74.08C1326.31 74.08 1331.5 76.3362 1335.39 80.8891C1339.36 85.3931 1341.28 91.106 1341.28 97.86C1341.28 104.614 1339.36 110.327 1335.39 114.831C1331.5 119.384 1326.31 121.64 1320.02 121.64C1313.94 121.64 1308.83 119.361 1304.84 114.843L1304.83 114.833L1304.82 114.822C1300.87 110.213 1298.94 104.512 1298.94 97.86C1298.94 91.2144 1300.87 85.5648 1304.83 81.0679ZM1320.02 78.08C1315.09 78.08 1311.08 79.9238 1307.86 83.6816L1307.85 83.6925L1307.84 83.7033C1304.61 87.3645 1302.94 92.0311 1302.94 97.86C1302.94 103.682 1304.61 108.419 1307.85 112.208C1311.06 115.843 1315.07 117.64 1320.02 117.64C1325.25 117.64 1329.29 115.82 1332.36 112.222L1332.37 112.209L1332.38 112.197C1335.61 108.543 1337.28 103.82 1337.28 97.86C1337.28 91.9002 1335.61 87.1774 1332.38 83.5233L1332.37 83.5107L1332.36 83.4979C1329.29 79.8996 1325.25 78.08 1320.02 78.08Z" fill="#3E4373"/>
</g>
<g filter="url(#filter1_di11)">
<path fill-rule="evenodd" clip-rule="evenodd" d="M4 3.52002H90.8V32.72H34.1V58.78H83.24V87.98H34.1V140H4V3.52002ZM8 7.52002V136H30.1V83.98H79.24V62.78H30.1V28.72H86.8V7.52002H8ZM257.839 57.6497C256.186 58.022 254.076 58.7946 251.467 60.0597L251.445 60.0705L251.422 60.0808C247.672 61.7856 243.938 64.2468 240.224 67.4947C236.677 70.7002 233.894 74.2867 231.853 78.2547L228.813 84.1655L226.303 61.34H207.415V136H228.435V107.22C228.435 102.576 229.533 98.0744 231.701 93.7358C233.891 89.2298 237.059 85.5463 241.182 82.7119C245.382 79.8239 250.225 78.4 255.635 78.4C256.043 78.4 256.432 78.4055 256.8 78.417L257.839 57.6497ZM249.744 56.4497C253.759 54.5049 257.21 53.38 259.955 53.38H262.057L260.58 82.9219L258.366 82.5528C257.808 82.4599 256.917 82.4 255.635 82.4C250.965 82.4 246.927 83.6162 243.448 86.0081C239.894 88.4516 237.183 91.6046 235.294 95.4938L235.289 95.5042L235.284 95.5145C233.374 99.3327 232.435 103.228 232.435 107.22V140H203.415V57.34H229.887L231.425 71.3234C233.179 68.8897 235.224 66.6205 237.554 64.5158L237.566 64.5053L237.578 64.4949C241.533 61.0343 245.587 58.3424 249.744 56.4497ZM141.643 57.56C133.175 57.56 125.645 59.3554 119.005 62.9039L118.994 62.9099C112.467 66.3451 107.405 71.0724 103.762 77.1019C100.242 83.1251 98.4627 89.9668 98.4627 97.68C98.4627 106.147 100.257 113.34 103.762 119.338C107.403 125.365 112.398 130.023 118.783 133.334C125.306 136.534 132.791 138.16 141.283 138.16C150.011 138.16 157.467 136.416 163.719 133.008C170.121 129.462 175.004 124.628 178.414 118.489C181.835 112.331 183.563 105.41 183.563 97.68C183.563 89.9499 181.835 83.0953 178.422 77.0652C175.017 71.0492 170.14 66.3324 163.738 62.903L163.719 62.8929L163.701 62.8823C157.444 59.3561 150.113 57.56 141.643 57.56ZM117.126 59.3731C124.405 55.4836 132.593 53.56 141.643 53.56C150.684 53.56 158.707 55.4806 165.646 59.3873C172.675 63.1572 178.112 68.3969 181.903 75.0948C185.69 81.7847 187.563 89.3302 187.563 97.68C187.563 106.03 185.69 113.629 181.911 120.431C178.122 127.251 172.686 132.615 165.651 136.51L165.64 136.516C158.694 140.305 150.552 142.16 141.283 142.16C132.263 142.16 124.154 140.429 117.001 136.915L116.982 136.906L116.963 136.896C109.922 133.25 104.365 128.076 100.331 121.394L100.323 121.382L100.316 121.37C96.3859 114.65 94.4627 106.728 94.4627 97.68C94.4627 89.3185 96.401 81.7642 100.316 75.0703L100.323 75.0582L100.331 75.0463C104.366 68.3632 109.98 63.1354 117.126 59.3731ZM125.733 81.0679C129.711 76.4327 134.822 74.08 140.923 74.08C147.213 74.08 152.404 76.3362 156.293 80.8891C160.262 85.3931 162.183 91.106 162.183 97.86C162.183 104.614 160.262 110.327 156.293 114.831C152.404 119.384 147.213 121.64 140.923 121.64C134.838 121.64 129.729 119.361 125.743 114.843L125.733 114.833L125.724 114.822C121.774 110.213 119.843 104.512 119.843 97.86C119.843 91.2144 121.77 85.5648 125.733 81.0679ZM140.923 78.08C135.988 78.08 131.982 79.9238 128.761 83.6816L128.752 83.6925L128.742 83.7033C125.512 87.3645 123.843 92.0311 123.843 97.86C123.843 103.682 125.509 108.419 128.752 112.208C131.965 115.843 135.972 117.64 140.923 117.64C146.146 117.64 150.192 115.82 153.261 112.222L153.272 112.209L153.283 112.197C156.507 108.543 158.183 103.82 158.183 97.86C158.183 91.9002 156.507 87.1774 153.283 83.5233L153.272 83.5107L153.261 83.4979C150.192 79.8996 146.146 78.08 140.923 78.08Z" fill="#3E4373"/>
</g>
<g filter="url(#filter2_di2a)">
<path fill-rule="evenodd" clip-rule="evenodd" d="M2362.1 3.52002H2448.9V32.72H2392.2V58.78H2441.34V87.98H2392.2V140H2362.1V3.52002ZM2366.1 7.52002V136H2388.2V83.98H2437.34V62.78H2388.2V28.72H2444.9V7.52002H2366.1ZM2615.94 57.6497C2614.29 58.022 2612.18 58.7946 2609.57 60.0597L2609.54 60.0705L2609.52 60.0808C2605.77 61.7856 2602.04 64.2468 2598.32 67.4947C2594.78 70.7002 2591.99 74.2867 2589.95 78.2547L2586.91 84.1655L2584.4 61.34H2565.51V136H2586.53V107.22C2586.53 102.576 2587.63 98.0744 2589.8 93.7358C2591.99 89.2298 2595.16 85.5463 2599.28 82.7119C2603.48 79.8239 2608.32 78.4 2613.73 78.4C2614.14 78.4 2614.53 78.4055 2614.9 78.417L2615.94 57.6497ZM2607.84 56.4497C2611.86 54.5049 2615.31 53.38 2618.05 53.38H2620.16L2618.68 82.9219L2616.47 82.5528C2615.91 82.4599 2615.02 82.4 2613.73 82.4C2609.06 82.4 2605.03 83.6162 2601.55 86.0081C2597.99 88.4516 2595.28 91.6046 2593.39 95.4938L2593.39 95.5042L2593.38 95.5145C2591.47 99.3327 2590.53 103.228 2590.53 107.22V140H2561.51V57.34H2587.99L2589.53 71.3234C2591.28 68.8897 2593.32 66.6205 2595.65 64.5158L2595.67 64.5053L2595.68 64.4949C2599.63 61.0343 2603.69 58.3424 2607.84 56.4497ZM2499.74 57.56C2491.27 57.56 2483.74 59.3554 2477.11 62.9039L2477.09 62.9099C2470.57 66.3451 2465.51 71.0724 2461.86 77.1019C2458.34 83.1251 2456.56 89.9668 2456.56 97.68C2456.56 106.147 2458.36 113.34 2461.86 119.338C2465.5 125.365 2470.5 130.023 2476.88 133.334C2483.41 136.534 2490.89 138.16 2499.38 138.16C2508.11 138.16 2515.57 136.416 2521.82 133.008C2528.22 129.462 2533.1 124.628 2536.51 118.489C2539.94 112.331 2541.66 105.41 2541.66 97.68C2541.66 89.9499 2539.94 83.0953 2536.52 77.0652C2533.12 71.0492 2528.24 66.3324 2521.84 62.903L2521.82 62.8929L2521.8 62.8823C2515.54 59.3561 2508.21 57.56 2499.74 57.56ZM2475.23 59.3731C2482.51 55.4836 2490.69 53.56 2499.74 53.56C2508.78 53.56 2516.81 55.4806 2523.75 59.3873C2530.78 63.1572 2536.21 68.3969 2540 75.0948C2543.79 81.7847 2545.66 89.3302 2545.66 97.68C2545.66 106.03 2543.79 113.629 2540.01 120.431C2536.22 127.251 2530.79 132.615 2523.75 136.51L2523.74 136.516C2516.79 140.305 2508.65 142.16 2499.38 142.16C2490.36 142.16 2482.25 140.429 2475.1 136.915L2475.08 136.906L2475.06 136.896C2468.02 133.25 2462.46 128.076 2458.43 121.394L2458.42 121.382L2458.42 121.37C2454.49 114.65 2452.56 106.728 2452.56 97.68C2452.56 89.3185 2454.5 81.7642 2458.42 75.0703L2458.42 75.0582L2458.43 75.0463C2462.47 68.3632 2468.08 63.1354 2475.23 59.3731ZM2483.83 81.0679C2487.81 76.4327 2492.92 74.08 2499.02 74.08C2505.31 74.08 2510.5 76.3362 2514.39 80.8891C2518.36 85.3931 2520.28 91.106 2520.28 97.86C2520.28 104.614 2518.36 110.327 2514.39 114.831C2510.5 119.384 2505.31 121.64 2499.02 121.64C2492.94 121.64 2487.83 119.361 2483.84 114.843L2483.83 114.833L2483.82 114.822C2479.87 110.213 2477.94 104.512 2477.94 97.86C2477.94 91.2144 2479.87 85.5648 2483.83 81.0679ZM2499.02 78.08C2494.09 78.08 2490.08 79.9238 2486.86 83.6816L2486.85 83.6925L2486.84 83.7033C2483.61 87.3645 2481.94 92.0311 2481.94 97.86C2481.94 103.682 2483.61 108.419 2486.85 112.208C2490.06 115.843 2494.07 117.64 2499.02 117.64C2504.25 117.64 2508.29 115.82 2511.36 112.222L2511.37 112.209L2511.38 112.197C2514.61 108.543 2516.28 103.82 2516.28 97.86C2516.28 91.9002 2514.61 87.1774 2511.38 83.5233L2511.37 83.5107L2511.36 83.4979C2508.29 79.8996 2504.25 78.08 2499.02 78.08Z" fill="#3E4373"/>
</g>
<g filter="url(#filter3_dibb)">
<path fill-rule="evenodd" clip-rule="evenodd" d="M1517.1 3.52002H1611.46V32.72H1547.2V56.98H1604.08V86.18H1547.2V110.8H1613.98V140H1517.1V3.52002ZM1521.1 7.52002V136H1609.98V114.8H1543.2V82.18H1600.08V60.98H1543.2V28.72H1607.46V7.52002H1521.1ZM1880.27 57.6497C1878.62 58.022 1876.51 58.7946 1873.9 60.0597L1873.88 60.0705L1873.86 60.0808C1870.11 61.7856 1866.37 64.2468 1862.66 67.4947C1859.11 70.7002 1856.33 74.2867 1854.29 78.2547L1851.25 84.1655L1848.74 61.34H1829.85V136H1850.87V107.22C1850.87 102.576 1851.97 98.0744 1854.14 93.7358C1856.33 89.2298 1859.49 85.5463 1863.62 82.7119C1867.82 79.8239 1872.66 78.4 1878.07 78.4C1878.48 78.4 1878.87 78.4055 1879.24 78.417L1880.27 57.6497ZM1872.18 56.4497C1876.2 54.5049 1879.65 53.38 1882.39 53.38H1884.49L1883.02 82.9219L1880.8 82.5528C1880.24 82.4599 1879.35 82.4 1878.07 82.4C1873.4 82.4 1869.36 83.6162 1865.88 86.0081C1862.33 88.4516 1859.62 91.6046 1857.73 95.4938L1857.72 95.5042L1857.72 95.5145C1855.81 99.3327 1854.87 103.228 1854.87 107.22V140H1825.85V57.34H1852.32L1853.86 71.3234C1855.62 68.8897 1857.66 66.6205 1859.99 64.5158L1860 64.5053L1860.01 64.4949C1863.97 61.0343 1868.02 58.3424 1872.18 56.4497ZM1767.6 57.56C1759.64 57.56 1752.36 59.4013 1745.7 63.0712L1745.69 63.0776L1745.68 63.0839C1739.02 66.6434 1733.77 71.5033 1729.88 77.6751C1726.12 83.834 1724.24 90.5485 1724.24 97.86C1724.24 105.849 1725.91 112.894 1729.22 119.047C1732.5 125.039 1737.3 129.743 1743.68 133.167C1750.18 136.47 1757.95 138.16 1767.06 138.16C1771.16 138.16 1775.52 137.477 1780.16 136.084C1784.16 134.886 1787.98 133.346 1791.63 131.465L1782.58 116.283C1777.54 119.21 1772.54 120.74 1767.6 120.74C1760.5 120.74 1754.7 118.325 1750.43 113.388L1748.44 111.095L1807.25 92.3519C1805.02 81.2848 1800.55 72.8737 1793.98 66.9454L1793.97 66.9399L1793.97 66.9343C1787.19 60.7245 1778.46 57.56 1767.6 57.56ZM1743.78 59.5626C1751.05 55.5566 1759 53.56 1767.6 53.56C1779.29 53.56 1789.04 56.9937 1796.66 63.9801C1804.39 70.9489 1809.29 80.8134 1811.51 93.3725L1811.81 95.0945L1755.73 112.972C1758.84 115.466 1762.76 116.74 1767.6 116.74C1772.16 116.74 1777.01 115.167 1782.18 111.839L1783.92 110.717L1797.19 132.987L1795.39 133.988C1790.94 136.459 1786.25 138.435 1781.31 139.916C1776.36 141.403 1771.6 142.16 1767.06 142.16C1757.45 142.16 1749.03 140.374 1741.85 136.723L1741.83 136.713L1741.81 136.703C1734.77 132.93 1729.38 127.679 1725.7 120.96L1725.7 120.953L1725.7 120.946C1722.04 114.14 1720.24 106.428 1720.24 97.86C1720.24 89.8164 1722.32 82.3749 1726.47 75.5771L1726.48 75.5657L1726.49 75.5544C1730.75 68.775 1736.53 63.4405 1743.78 59.5626ZM2033.38 57.56C2024.91 57.56 2017.38 59.3554 2010.74 62.9039L2010.73 62.9099C2004.2 66.3453 1999.14 71.073 1995.49 77.103C1991.97 83.1259 1990.2 89.9673 1990.2 97.68C1990.2 106.146 1991.99 113.339 1995.49 119.337C1999.14 125.364 2004.13 130.023 2010.52 133.334C2017.04 136.534 2024.52 138.16 2033.02 138.16C2041.74 138.16 2049.2 136.416 2055.45 133.008C2061.85 129.462 2066.74 124.628 2070.15 118.489C2073.57 112.331 2075.3 105.41 2075.3 97.68C2075.3 89.9499 2073.57 83.0953 2070.16 77.0652C2066.75 71.0492 2061.87 66.3324 2055.47 62.903L2055.45 62.8929L2055.43 62.8823C2049.18 59.3561 2041.85 57.56 2033.38 57.56ZM2008.86 59.3731C2016.14 55.4836 2024.33 53.56 2033.38 53.56C2042.42 53.56 2050.44 55.4806 2057.38 59.3873C2064.41 63.1572 2069.84 68.3969 2073.64 75.0948C2077.42 81.7847 2079.3 89.3302 2079.3 97.68C2079.3 106.03 2077.42 113.629 2073.64 120.431C2069.86 127.251 2064.42 132.615 2057.38 136.51L2057.37 136.516C2050.43 140.305 2042.28 142.16 2033.02 142.16C2024 142.16 2015.89 140.429 2008.73 136.915L2008.71 136.906L2008.7 136.896C2001.65 133.25 1996.1 128.076 1992.06 121.394L1992.06 121.382L1992.05 121.37C1988.12 114.65 1986.2 106.728 1986.2 97.68C1986.2 89.3185 1988.13 81.7642 1992.05 75.0703L1992.06 75.0582L1992.06 75.0463C1996.1 68.3632 2001.71 63.1354 2008.86 59.3731ZM2151.87 57.56C2145.19 57.56 2139.48 58.9386 2134.67 61.622C2129.96 64.3177 2126.26 68.0699 2123.55 72.9148L2120.67 78.0895L2118.27 61.34H2099.15V136H2120.35V105.96C2120.35 97.1784 2122.14 89.8092 2125.89 83.9966C2129.68 78.1032 2134.9 74.98 2141.43 74.98C2145.43 74.98 2148.8 76.035 2151.21 78.4458C2153.61 80.8408 2154.75 84.275 2154.95 88.4064L2154.95 88.4532V136H2176.15V79.158C2176.03 72.8761 2173.69 67.7777 2169.09 63.7207L2169.08 63.7128L2169.07 63.7048C2164.56 59.6377 2158.88 57.56 2151.87 57.56ZM2132.71 58.1336C2138.22 55.06 2144.63 53.56 2151.87 53.56C2159.73 53.56 2166.41 55.92 2171.74 60.728C2177.2 65.5461 2180.02 71.7191 2180.15 79.1049L2180.15 79.1225V140H2150.95V88.5478C2150.78 85.025 2149.82 82.713 2148.38 81.2742C2146.95 79.8451 2144.75 78.98 2141.43 78.98C2136.44 78.98 2132.41 81.2569 2129.25 86.1634C2126.03 91.1508 2124.35 97.7016 2124.35 105.96V140H2095.15V57.34H2121.74L2123.05 66.4615C2125.69 63.0866 2128.9 60.3097 2132.7 58.1435L2132.7 58.1385L2132.71 58.1336ZM2243.26 57.56C2235.31 57.56 2228.02 59.4013 2221.37 63.0712L2221.36 63.0776L2221.35 63.0839C2214.69 66.6432 2209.43 71.5028 2205.54 77.6742C2201.78 83.8334 2199.9 90.5482 2199.9 97.86C2199.9 105.848 2201.58 112.893 2204.88 119.045C2208.16 125.038 2212.96 129.742 2219.35 133.167C2225.85 136.47 2233.62 138.16 2242.72 138.16C2246.82 138.16 2251.19 137.477 2255.83 136.084C2259.82 134.886 2263.64 133.346 2267.29 131.465L2258.24 116.283C2253.2 119.21 2248.2 120.74 2243.26 120.74C2236.16 120.74 2230.36 118.325 2226.09 113.388L2224.11 111.095L2282.91 92.3519C2280.68 81.2848 2276.22 72.8737 2269.64 66.9454L2269.64 66.9399L2269.63 66.9343C2262.86 60.7245 2254.13 57.56 2243.26 57.56ZM2219.45 59.5621C2226.71 55.5565 2234.66 53.56 2243.26 53.56C2254.96 53.56 2264.7 56.9943 2272.33 63.9819C2280.05 70.9505 2284.96 80.8144 2287.17 93.3725L2287.48 95.0945L2231.39 112.972C2234.51 115.466 2238.42 116.74 2243.26 116.74C2247.83 116.74 2252.67 115.167 2257.84 111.839L2259.58 110.717L2272.86 132.987L2271.05 133.988C2266.61 136.459 2261.91 138.435 2256.98 139.916C2252.02 141.403 2247.27 142.16 2242.72 142.16C2233.12 142.16 2224.69 140.374 2217.52 136.723L2217.5 136.713L2217.48 136.703C2210.43 132.93 2205.04 127.679 2201.37 120.96L2201.36 120.953L2201.36 120.946C2197.71 114.14 2195.9 106.428 2195.9 97.86C2195.9 89.8164 2197.98 82.3749 2202.14 75.5771L2202.14 75.5657L2202.15 75.5544C2206.42 68.7747 2212.2 63.4401 2219.45 59.5621ZM1620.19 57.34H1654.81L1671.81 92.0061L1686.81 57.34H1719.6L1672.74 141.62H1669.7L1620.19 57.34ZM1627.18 61.34L1671.17 136.22L1712.8 61.34H1689.44L1672.04 101.554L1652.32 61.34H1627.18ZM1887.32 57.34H1920.08L1939.49 100.885L1959.07 57.34H1986.09L1933.59 177.8H1904.88L1924.67 133.894L1887.32 57.34ZM1893.72 61.34L1929.09 133.826L1911.07 173.8H1930.97L1979.99 61.34H1961.65L1939.47 110.675L1917.48 61.34H1893.72ZM1750.61 79.623C1754.4 75.3002 1759.47 73.18 1765.62 73.18C1770 73.18 1773.8 74.182 1776.89 76.329C1779.98 78.4805 1782.16 81.6594 1783.53 85.6984L1784.17 87.593L1745.08 100.829V96.42C1745.08 89.5903 1746.86 83.9176 1750.61 79.623ZM1765.62 77.18C1760.49 77.18 1756.56 78.8998 1753.62 82.257C1750.85 85.4226 1749.29 89.6916 1749.1 95.2447L1779.01 85.1184C1777.9 82.6826 1776.42 80.8761 1774.6 79.6111C1772.34 78.038 1769.39 77.18 1765.62 77.18ZM2226.28 79.623C2230.06 75.3002 2235.13 73.18 2241.28 73.18C2245.67 73.18 2249.47 74.182 2252.55 76.329C2255.64 78.4805 2257.83 81.6594 2259.2 85.6984L2259.84 87.593L2220.74 100.829V96.42C2220.74 89.5903 2222.52 83.9176 2226.28 79.623ZM2241.28 77.18C2236.15 77.18 2232.23 78.8998 2229.29 82.257C2226.52 85.4226 2224.95 89.6916 2224.76 95.2447L2254.67 85.1184C2253.56 82.6826 2252.08 80.8761 2250.26 79.6111C2248.01 78.038 2245.06 77.18 2241.28 77.18ZM2017.47 81.066C2021.45 76.432 2026.56 74.08 2032.66 74.08C2038.95 74.08 2044.14 76.336 2048.03 80.8886C2051.99 85.3926 2053.92 91.1058 2053.92 97.86C2053.92 104.614 2051.99 110.327 2048.03 114.831C2044.14 119.384 2038.95 121.64 2032.66 121.64C2026.57 121.64 2021.46 119.361 2017.48 114.843L2017.47 114.833L2017.46 114.822C2013.51 110.213 2011.58 104.512 2011.58 97.86C2011.58 91.2134 2013.5 85.5633 2017.47 81.066ZM2032.66 78.08C2027.72 78.08 2023.72 79.9238 2020.49 83.6816L2020.48 83.6925L2020.48 83.7033C2017.24 87.3645 2015.58 92.0311 2015.58 97.86C2015.58 103.681 2017.24 108.417 2020.48 112.206C2023.7 115.842 2027.7 117.64 2032.66 117.64C2037.88 117.64 2041.92 115.82 2044.99 112.222L2045 112.209L2045.02 112.197C2048.24 108.543 2049.92 103.82 2049.92 97.86C2049.92 91.9002 2048.24 87.1774 2045.02 83.5233L2045 83.5107L2044.99 83.4979C2041.92 79.8996 2037.88 78.08 2032.66 78.08Z" fill="#3E4373"/>
</g>
<g filter="url(#filter4_dibbbs)">
<path fill-rule="evenodd" clip-rule="evenodd" d="M338 3.52002H432.36V32.72H368.1V56.98H424.98V86.18H368.1V110.8H434.88V140H338V3.52002ZM342 7.52002V136H430.88V114.8H364.1V82.18H420.98V60.98H364.1V28.72H428.36V7.52002H342ZM701.175 57.6497C699.522 58.022 697.412 58.7946 694.803 60.0597L694.781 60.0705L694.758 60.0808C691.008 61.7856 687.273 64.2468 683.56 67.4947C680.013 70.7002 677.23 74.2867 675.189 78.2547L672.149 84.1655L669.639 61.34H650.751V136H671.771V107.22C671.771 102.576 672.869 98.0744 675.037 93.7358C677.227 89.2298 680.395 85.5463 684.518 82.7119C688.718 79.8239 693.561 78.4 698.971 78.4C699.378 78.4 699.768 78.4055 700.136 78.417L701.175 57.6497ZM693.08 56.4497C697.095 54.5049 700.546 53.38 703.291 53.38H705.393L703.916 82.9219L701.702 82.5528C701.144 82.4599 700.253 82.4 698.971 82.4C694.301 82.4 690.263 83.6162 686.784 86.0081C683.23 88.4516 680.519 91.6046 678.63 95.4938L678.625 95.5042L678.619 95.5145C676.71 99.3327 675.771 103.228 675.771 107.22V140H646.751V57.34H673.223L674.761 71.3234C676.515 68.8897 678.56 66.6205 680.89 64.5158L680.902 64.5053L680.914 64.4949C684.869 61.0343 688.923 58.3424 693.08 56.4497ZM588.498 57.56C580.542 57.56 573.256 59.4013 566.605 63.0712L566.593 63.0776L566.581 63.0839C559.921 66.6434 554.666 71.5033 550.778 77.6751C547.017 83.834 545.138 90.5485 545.138 97.86C545.138 105.849 546.814 112.894 550.117 119.047C553.397 125.039 558.2 129.743 564.584 133.167C571.084 136.47 578.854 138.16 587.958 138.16C592.056 138.16 596.421 137.477 601.064 136.084C605.059 134.886 608.88 133.346 612.528 131.465L603.477 116.283C598.439 119.21 593.439 120.74 588.498 120.74C581.398 120.74 575.595 118.325 571.326 113.388L569.342 111.095L628.145 92.3519C625.916 81.2848 621.454 72.8737 614.879 66.9454L614.873 66.9399L614.867 66.9343C608.093 60.7245 599.361 57.56 588.498 57.56ZM564.684 59.5626C571.949 55.5566 579.9 53.56 588.498 53.56C600.193 53.56 609.939 56.9937 617.564 63.9801C625.29 70.9489 630.192 80.8134 632.408 93.3725L632.712 95.0945L576.627 112.972C579.742 115.466 583.66 116.74 588.498 116.74C593.061 116.74 597.91 115.167 603.075 111.839L604.816 110.717L618.092 132.987L616.29 133.988C611.842 136.459 607.149 138.435 602.213 139.916C597.256 141.403 592.501 142.16 587.958 142.16C578.351 142.16 569.928 140.374 562.752 136.723L562.733 136.713L562.714 136.703C555.67 132.93 550.28 127.679 546.604 120.96L546.6 120.953L546.596 120.946C542.941 114.14 541.138 106.428 541.138 97.86C541.138 89.8164 543.218 82.3749 547.372 75.5771L547.379 75.5657L547.386 75.5544C551.654 68.775 557.433 63.4405 564.684 59.5626ZM854.276 57.56C845.808 57.56 838.277 59.3554 831.638 62.9039L831.627 62.9099C825.1 66.3453 820.037 71.073 816.394 77.103C812.875 83.1259 811.095 89.9673 811.095 97.68C811.095 106.146 812.89 113.339 816.394 119.337C820.036 125.364 825.03 130.023 831.416 133.334C837.939 136.534 845.424 138.16 853.915 138.16C862.644 138.16 870.1 136.416 876.352 133.008C882.754 129.462 887.637 124.628 891.047 118.489C894.468 112.331 896.195 105.41 896.195 97.68C896.195 89.9499 894.468 83.0953 891.055 77.0652C887.65 71.0492 882.773 66.3324 876.371 62.903L876.352 62.8929L876.333 62.8823C870.077 59.3561 862.746 57.56 854.276 57.56ZM829.758 59.3731C837.038 55.4836 845.226 53.56 854.276 53.56C863.317 53.56 871.34 55.4806 878.279 59.3873C885.308 63.1572 890.745 68.3969 894.536 75.0948C898.323 81.7847 900.195 89.3302 900.195 97.68C900.195 106.03 898.323 113.629 894.544 120.431C890.755 127.251 885.319 132.615 878.284 136.51L878.273 136.516C871.327 140.305 863.184 142.16 853.915 142.16C844.896 142.16 836.786 140.429 829.634 136.915L829.615 136.906L829.596 136.896C822.555 133.25 816.998 128.076 812.963 121.394L812.956 121.382L812.949 121.37C809.019 114.65 807.095 106.728 807.095 97.68C807.095 89.3185 809.034 81.7642 812.949 75.0703L812.956 75.0582L812.963 75.0463C816.998 68.3632 822.612 63.1354 829.758 59.3731ZM972.768 57.56C966.091 57.56 960.382 58.9386 955.57 61.622C950.857 64.3177 947.158 68.0699 944.454 72.9148L941.566 78.0895L939.173 61.34H920.048V136H941.247V105.96C941.247 97.1784 943.04 89.8092 946.786 83.9966C950.584 78.1032 955.8 74.98 962.328 74.98C966.328 74.98 969.701 76.035 972.112 78.4458C974.507 80.8408 975.652 84.275 975.845 88.4064L975.848 88.4532V136H997.048V79.158C996.933 72.8761 994.591 67.7777 989.985 63.7207L989.977 63.7128L989.968 63.7048C985.461 59.6377 979.778 57.56 972.768 57.56ZM953.613 58.1336C959.12 55.06 965.527 53.56 972.768 53.56C980.633 53.56 987.308 55.92 992.639 60.728C998.104 65.5461 1000.92 71.7191 1001.05 79.1049L1001.05 79.1225V140H971.848V88.5478C971.675 85.025 970.722 82.713 969.283 81.2742C967.854 79.8451 965.647 78.98 962.328 78.98C957.335 78.98 953.311 81.2569 950.149 86.1634C946.935 91.1508 945.247 97.7016 945.247 105.96V140H916.048V57.34H942.642L943.945 66.4615C946.585 63.0866 949.805 60.3097 953.595 58.1435L953.604 58.1385L953.613 58.1336ZM1064.16 57.56C1056.21 57.56 1048.92 59.4013 1042.27 63.0712L1042.26 63.0776L1042.25 63.0839C1035.59 66.6432 1030.33 71.5028 1026.44 77.6742C1022.68 83.8334 1020.8 90.5482 1020.8 97.86C1020.8 105.848 1022.48 112.893 1025.78 119.045C1029.06 125.038 1033.86 129.742 1040.25 133.167C1046.75 136.47 1054.52 138.16 1063.62 138.16C1067.72 138.16 1072.09 137.477 1076.73 136.084C1080.72 134.886 1084.54 133.346 1088.19 131.465L1079.14 116.283C1074.1 119.21 1069.1 120.74 1064.16 120.74C1057.06 120.74 1051.26 118.325 1046.99 113.388L1045.01 111.095L1103.81 92.3519C1101.58 81.2848 1097.12 72.8737 1090.54 66.9454L1090.54 66.9399L1090.53 66.9343C1083.76 60.7245 1075.02 57.56 1064.16 57.56ZM1040.35 59.5621C1047.61 55.5565 1055.56 53.56 1064.16 53.56C1075.86 53.56 1085.6 56.9943 1093.23 63.9819C1100.95 70.9505 1105.86 80.8144 1108.07 93.3725L1108.38 95.0945L1052.29 112.972C1055.41 115.466 1059.32 116.74 1064.16 116.74C1068.73 116.74 1073.57 115.167 1078.74 111.839L1080.48 110.717L1093.76 132.987L1091.95 133.988C1087.51 136.459 1082.81 138.435 1077.88 139.916C1072.92 141.403 1068.17 142.16 1063.62 142.16C1054.02 142.16 1045.59 140.374 1038.42 136.723L1038.4 136.713L1038.38 136.703C1031.33 132.93 1025.94 127.679 1022.27 120.96L1022.26 120.953L1022.26 120.946C1018.61 114.14 1016.8 106.428 1016.8 97.86C1016.8 89.8164 1018.88 82.3749 1023.04 75.5771L1023.04 75.5657L1023.05 75.5544C1027.32 68.7747 1033.1 63.4401 1040.35 59.5621ZM441.088 57.34H475.71L492.709 92.0061L507.709 57.34H540.503L493.639 141.62H490.598L441.088 57.34ZM448.077 61.34L492.065 136.22L533.702 61.34H510.337L492.936 101.554L473.216 61.34H448.077ZM708.218 57.34H740.977L760.387 100.885L779.965 57.34H806.992L754.489 177.8H725.784L745.57 133.894L708.218 57.34ZM714.62 61.34L749.988 133.826L731.974 173.8H751.869L800.885 61.34H782.552L760.371 110.675L738.381 61.34H714.62ZM571.513 79.623C575.296 75.3002 580.37 73.18 586.518 73.18C590.903 73.18 594.705 74.182 597.787 76.329C600.875 78.4805 603.065 81.6594 604.433 85.6984L605.074 87.593L565.978 100.829V96.42C565.978 89.5903 567.756 83.9176 571.513 79.623ZM586.518 77.18C581.387 77.18 577.461 78.8998 574.524 82.257C571.754 85.4226 570.19 89.6916 569.998 95.2447L599.91 85.1184C598.799 82.6826 597.316 80.8761 595.5 79.6111C593.242 78.038 590.294 77.18 586.518 77.18ZM1047.18 79.623C1050.96 75.3002 1056.03 73.18 1062.18 73.18C1066.57 73.18 1070.37 74.182 1073.45 76.329C1076.54 78.4805 1078.73 81.6594 1080.1 85.6984L1080.74 87.593L1041.64 100.829V96.42C1041.64 89.5903 1043.42 83.9176 1047.18 79.623ZM1062.18 77.18C1057.05 77.18 1053.13 78.8998 1050.19 82.257C1047.42 85.4226 1045.85 89.6916 1045.66 95.2447L1075.57 85.1184C1074.46 82.6826 1072.98 80.8761 1071.16 79.6111C1068.91 78.038 1065.96 77.18 1062.18 77.18ZM838.368 81.066C842.345 76.432 847.456 74.08 853.555 74.08C859.846 74.08 865.036 76.336 868.926 80.8886C872.894 85.3926 874.815 91.1058 874.815 97.86C874.815 104.614 872.894 110.327 868.926 114.831C865.036 119.384 859.846 121.64 853.555 121.64C847.471 121.64 842.362 119.361 838.376 114.843L838.366 114.833L838.357 114.822C834.406 110.213 832.475 104.512 832.475 97.86C832.475 91.2134 834.404 85.5633 838.368 81.066ZM853.555 78.08C848.621 78.08 844.615 79.9238 841.394 83.6816L841.385 83.6925L841.375 83.7033C838.145 87.3645 836.475 92.0311 836.475 97.86C836.475 103.681 838.141 108.417 841.383 112.206C844.596 115.842 848.604 117.64 853.555 117.64C858.779 117.64 862.825 115.82 865.894 112.222L865.905 112.209L865.916 112.197C869.14 108.543 870.815 103.82 870.815 97.86C870.815 91.9002 869.14 87.1774 865.916 83.5233L865.905 83.5107L865.894 83.4979C862.825 79.8996 858.779 78.08 853.555 78.08Z" fill="#3E4373"/>
</g>
<g filter="url(#filter5_di2dsa)">
<path fill-rule="evenodd" clip-rule="evenodd" d="M2696.1 3.52002H2790.46V32.72H2726.2V56.98H2783.08V86.18H2726.2V110.8H2792.98V140H2696.1V3.52002ZM2700.1 7.52002V136H2788.98V114.8H2722.2V82.18H2779.08V60.98H2722.2V28.72H2786.46V7.52002H2700.1ZM3059.27 57.6497C3057.62 58.022 3055.51 58.7946 3052.9 60.0597L3052.88 60.0705L3052.86 60.0808C3049.11 61.7856 3045.37 64.2468 3041.66 67.4947C3038.11 70.7002 3035.33 74.2867 3033.29 78.2547L3030.25 84.1655L3027.74 61.34H3008.85V136H3029.87V107.22C3029.87 102.576 3030.97 98.0744 3033.14 93.7358C3035.33 89.2298 3038.49 85.5463 3042.62 82.7119C3046.82 79.8239 3051.66 78.4 3057.07 78.4C3057.48 78.4 3057.87 78.4055 3058.24 78.417L3059.27 57.6497ZM3051.18 56.4497C3055.2 54.5049 3058.65 53.38 3061.39 53.38H3063.49L3062.02 82.9219L3059.8 82.5528C3059.24 82.4599 3058.35 82.4 3057.07 82.4C3052.4 82.4 3048.36 83.6162 3044.88 86.0081C3041.33 88.4516 3038.62 91.6046 3036.73 95.4938L3036.72 95.5042L3036.72 95.5145C3034.81 99.3327 3033.87 103.228 3033.87 107.22V140H3004.85V57.34H3031.32L3032.86 71.3234C3034.62 68.8897 3036.66 66.6205 3038.99 64.5158L3039 64.5053L3039.01 64.4949C3042.97 61.0343 3047.02 58.3424 3051.18 56.4497ZM2946.6 57.56C2938.64 57.56 2931.36 59.4013 2924.7 63.0712L2924.69 63.0776L2924.68 63.0839C2918.02 66.6434 2912.77 71.5033 2908.88 77.6751C2905.12 83.834 2903.24 90.5485 2903.24 97.86C2903.24 105.849 2904.91 112.894 2908.22 119.047C2911.5 125.039 2916.3 129.743 2922.68 133.167C2929.18 136.47 2936.95 138.16 2946.06 138.16C2950.16 138.16 2954.52 137.477 2959.16 136.084C2963.16 134.886 2966.98 133.346 2970.63 131.465L2961.58 116.283C2956.54 119.21 2951.54 120.74 2946.6 120.74C2939.5 120.74 2933.7 118.325 2929.43 113.388L2927.44 111.095L2986.25 92.3519C2984.02 81.2848 2979.55 72.8737 2972.98 66.9454L2972.97 66.9399L2972.97 66.9343C2966.19 60.7245 2957.46 57.56 2946.6 57.56ZM2922.78 59.5626C2930.05 55.5566 2938 53.56 2946.6 53.56C2958.29 53.56 2968.04 56.9937 2975.66 63.9801C2983.39 70.9489 2988.29 80.8134 2990.51 93.3725L2990.81 95.0945L2934.73 112.972C2937.84 115.466 2941.76 116.74 2946.6 116.74C2951.16 116.74 2956.01 115.167 2961.18 111.839L2962.92 110.717L2976.19 132.987L2974.39 133.988C2969.94 136.459 2965.25 138.435 2960.31 139.916C2955.36 141.403 2950.6 142.16 2946.06 142.16C2936.45 142.16 2928.03 140.374 2920.85 136.723L2920.83 136.713L2920.81 136.703C2913.77 132.93 2908.38 127.679 2904.7 120.96L2904.7 120.953L2904.7 120.946C2901.04 114.14 2899.24 106.428 2899.24 97.86C2899.24 89.8164 2901.32 82.3749 2905.47 75.5771L2905.48 75.5657L2905.49 75.5544C2909.75 68.775 2915.53 63.4405 2922.78 59.5626ZM3212.38 57.56C3203.91 57.56 3196.38 59.3554 3189.74 62.9039L3189.73 62.9099C3183.2 66.3453 3178.14 71.073 3174.49 77.103C3170.97 83.1259 3169.2 89.9673 3169.2 97.68C3169.2 106.146 3170.99 113.339 3174.49 119.337C3178.14 125.364 3183.13 130.023 3189.52 133.334C3196.04 136.534 3203.52 138.16 3212.02 138.16C3220.74 138.16 3228.2 136.416 3234.45 133.008C3240.85 129.462 3245.74 124.628 3249.15 118.489C3252.57 112.331 3254.3 105.41 3254.3 97.68C3254.3 89.9499 3252.57 83.0953 3249.16 77.0652C3245.75 71.0492 3240.87 66.3324 3234.47 62.903L3234.45 62.8929L3234.43 62.8823C3228.18 59.3561 3220.85 57.56 3212.38 57.56ZM3187.86 59.3731C3195.14 55.4836 3203.33 53.56 3212.38 53.56C3221.42 53.56 3229.44 55.4806 3236.38 59.3873C3243.41 63.1572 3248.84 68.3969 3252.64 75.0948C3256.42 81.7847 3258.3 89.3302 3258.3 97.68C3258.3 106.03 3256.42 113.629 3252.64 120.431C3248.86 127.251 3243.42 132.615 3236.38 136.51L3236.37 136.516C3229.43 140.305 3221.28 142.16 3212.02 142.16C3203 142.16 3194.89 140.429 3187.73 136.915L3187.71 136.906L3187.7 136.896C3180.65 133.25 3175.1 128.076 3171.06 121.394L3171.06 121.382L3171.05 121.37C3167.12 114.65 3165.2 106.728 3165.2 97.68C3165.2 89.3185 3167.13 81.7642 3171.05 75.0703L3171.06 75.0582L3171.06 75.0463C3175.1 68.3632 3180.71 63.1354 3187.86 59.3731ZM3330.87 57.56C3324.19 57.56 3318.48 58.9386 3313.67 61.622C3308.96 64.3177 3305.26 68.0699 3302.55 72.9148L3299.67 78.0895L3297.27 61.34H3278.15V136H3299.35V105.96C3299.35 97.1784 3301.14 89.8092 3304.89 83.9966C3308.68 78.1032 3313.9 74.98 3320.43 74.98C3324.43 74.98 3327.8 76.035 3330.21 78.4458C3332.61 80.8408 3333.75 84.275 3333.95 88.4064L3333.95 88.4532V136H3355.15V79.158C3355.03 72.8761 3352.69 67.7777 3348.09 63.7207L3348.08 63.7128L3348.07 63.7048C3343.56 59.6377 3337.88 57.56 3330.87 57.56ZM3311.71 58.1336C3317.22 55.06 3323.63 53.56 3330.87 53.56C3338.73 53.56 3345.41 55.92 3350.74 60.728C3356.2 65.5461 3359.02 71.7191 3359.15 79.1049L3359.15 79.1225V140H3329.95V88.5478C3329.78 85.025 3328.82 82.713 3327.38 81.2742C3325.95 79.8451 3323.75 78.98 3320.43 78.98C3315.44 78.98 3311.41 81.2569 3308.25 86.1634C3305.03 91.1508 3303.35 97.7016 3303.35 105.96V140H3274.15V57.34H3300.74L3302.05 66.4615C3304.69 63.0866 3307.9 60.3097 3311.7 58.1435L3311.7 58.1385L3311.71 58.1336ZM3422.26 57.56C3414.31 57.56 3407.02 59.4013 3400.37 63.0712L3400.36 63.0776L3400.35 63.0839C3393.69 66.6432 3388.43 71.5028 3384.54 77.6742C3380.78 83.8334 3378.9 90.5482 3378.9 97.86C3378.9 105.848 3380.58 112.893 3383.88 119.045C3387.16 125.038 3391.96 129.742 3398.35 133.167C3404.85 136.47 3412.62 138.16 3421.72 138.16C3425.82 138.16 3430.19 137.477 3434.83 136.084C3438.82 134.886 3442.64 133.346 3446.29 131.465L3437.24 116.283C3432.2 119.21 3427.2 120.74 3422.26 120.74C3415.16 120.74 3409.36 118.325 3405.09 113.388L3403.11 111.095L3461.91 92.3519C3459.68 81.2848 3455.22 72.8737 3448.64 66.9454L3448.64 66.9399L3448.63 66.9343C3441.86 60.7245 3433.13 57.56 3422.26 57.56ZM3398.45 59.5621C3405.71 55.5565 3413.66 53.56 3422.26 53.56C3433.96 53.56 3443.7 56.9943 3451.33 63.9819C3459.05 70.9505 3463.96 80.8144 3466.17 93.3725L3466.48 95.0945L3410.39 112.972C3413.51 115.466 3417.42 116.74 3422.26 116.74C3426.83 116.74 3431.67 115.167 3436.84 111.839L3438.58 110.717L3451.86 132.987L3450.05 133.988C3445.61 136.459 3440.91 138.435 3435.98 139.916C3431.02 141.403 3426.27 142.16 3421.72 142.16C3412.12 142.16 3403.69 140.374 3396.52 136.723L3396.5 136.713L3396.48 136.703C3389.43 132.93 3384.04 127.679 3380.37 120.96L3380.36 120.953L3380.36 120.946C3376.71 114.14 3374.9 106.428 3374.9 97.86C3374.9 89.8164 3376.98 82.3749 3381.14 75.5771L3381.14 75.5657L3381.15 75.5544C3385.42 68.7747 3391.2 63.4401 3398.45 59.5621ZM2799.19 57.34H2833.81L2850.81 92.0061L2865.81 57.34H2898.6L2851.74 141.62H2848.7L2799.19 57.34ZM2806.18 61.34L2850.17 136.22L2891.8 61.34H2868.44L2851.04 101.554L2831.32 61.34H2806.18ZM3066.32 57.34H3099.08L3118.49 100.885L3138.07 57.34H3165.09L3112.59 177.8H3083.88L3103.67 133.894L3066.32 57.34ZM3072.72 61.34L3108.09 133.826L3090.07 173.8H3109.97L3158.99 61.34H3140.65L3118.47 110.675L3096.48 61.34H3072.72ZM2929.61 79.623C2933.4 75.3002 2938.47 73.18 2944.62 73.18C2949 73.18 2952.8 74.182 2955.89 76.329C2958.98 78.4805 2961.16 81.6594 2962.53 85.6984L2963.17 87.593L2924.08 100.829V96.42C2924.08 89.5903 2925.86 83.9176 2929.61 79.623ZM2944.62 77.18C2939.49 77.18 2935.56 78.8998 2932.62 82.257C2929.85 85.4226 2928.29 89.6916 2928.1 95.2447L2958.01 85.1184C2956.9 82.6826 2955.42 80.8761 2953.6 79.6111C2951.34 78.038 2948.39 77.18 2944.62 77.18ZM3405.28 79.623C3409.06 75.3002 3414.13 73.18 3420.28 73.18C3424.67 73.18 3428.47 74.182 3431.55 76.329C3434.64 78.4805 3436.83 81.6594 3438.2 85.6984L3438.84 87.593L3399.74 100.829V96.42C3399.74 89.5903 3401.52 83.9176 3405.28 79.623ZM3420.28 77.18C3415.15 77.18 3411.23 78.8998 3408.29 82.257C3405.52 85.4226 3403.95 89.6916 3403.76 95.2447L3433.67 85.1184C3432.56 82.6826 3431.08 80.8761 3429.26 79.6111C3427.01 78.038 3424.06 77.18 3420.28 77.18ZM3196.47 81.066C3200.45 76.432 3205.56 74.08 3211.66 74.08C3217.95 74.08 3223.14 76.336 3227.03 80.8886C3230.99 85.3926 3232.92 91.1058 3232.92 97.86C3232.92 104.614 3230.99 110.327 3227.03 114.831C3223.14 119.384 3217.95 121.64 3211.66 121.64C3205.57 121.64 3200.46 119.361 3196.48 114.843L3196.47 114.833L3196.46 114.822C3192.51 110.213 3190.58 104.512 3190.58 97.86C3190.58 91.2134 3192.5 85.5633 3196.47 81.066ZM3211.66 78.08C3206.72 78.08 3202.72 79.9238 3199.49 83.6816L3199.48 83.6925L3199.48 83.7033C3196.24 87.3645 3194.58 92.0311 3194.58 97.86C3194.58 103.681 3196.24 108.417 3199.48 112.206C3202.7 115.842 3206.7 117.64 3211.66 117.64C3216.88 117.64 3220.92 115.82 3223.99 112.222L3224 112.209L3224.02 112.197C3227.24 108.543 3228.92 103.82 3228.92 97.86C3228.92 91.9002 3227.24 87.1774 3224.02 83.5233L3224 83.5107L3223.99 83.4979C3220.92 79.8996 3216.88 78.08 3211.66 78.08Z" fill="#3E4373"/>
</g>
<defs>
<filter id="filter0_di2dssafd" x="1179.1" y="0.52002" width="266.057" height="146.64" filterUnits="userSpaceOnUse" color-interpolation-filters="sRGB">
<feFlood flood-opacity="0" result="BackgroundImageFix"/>
<feColorMatrix in="SourceAlpha" type="matrix" values="0 0 0 0 0 0 0 0 0 0 0 0 0 0 0 0 0 0 127 0"/>
<feOffset dy="1"/>
<feGaussianBlur stdDeviation="2"/>
<feColorMatrix type="matrix" values="0 0 0 0 0 0 0 0 0 0 0 0 0 0 0 0 0 0 0.14 0"/>
<feBlend mode="normal" in2="BackgroundImageFix" result="effect1_dropShadow"/>
<feBlend mode="normal" in="SourceGraphic" in2="effect1_dropShadow" result="shape"/>
<feColorMatrix in="SourceAlpha" type="matrix" values="0 0 0 0 0 0 0 0 0 0 0 0 0 0 0 0 0 0 127 0" result="hardAlpha"/>
<feOffset dy="1"/>
<feGaussianBlur stdDeviation="0.5"/>
<feComposite in2="hardAlpha" operator="arithmetic" k2="-1" k3="1"/>
<feColorMatrix type="matrix" values="0 0 0 0 0.278431 0 0 0 0 0.301961 0 0 0 0 0.521569 0 0 0 0.5 0"/>
<feBlend mode="normal" in2="shape" result="effect2_innerShadow"/>
</filter>
<filter id="filter1_di11" x="0" y="0.52002" width="266.057" height="146.64" filterUnits="userSpaceOnUse" color-interpolation-filters="sRGB">
<feFlood flood-opacity="0" result="BackgroundImageFix"/>
<feColorMatrix in="SourceAlpha" type="matrix" values="0 0 0 0 0 0 0 0 0 0 0 0 0 0 0 0 0 0 127 0"/>
<feOffset dy="1"/>
<feGaussianBlur stdDeviation="2"/>
<feColorMatrix type="matrix" values="0 0 0 0 0 0 0 0 0 0 0 0 0 0 0 0 0 0 0.14 0"/>
<feBlend mode="normal" in2="BackgroundImageFix" result="effect1_dropShadow"/>
<feBlend mode="normal" in="SourceGraphic" in2="effect1_dropShadow" result="shape"/>
<feColorMatrix in="SourceAlpha" type="matrix" values="0 0 0 0 0 0 0 0 0 0 0 0 0 0 0 0 0 0 127 0" result="hardAlpha"/>
<feOffset dy="1"/>
<feGaussianBlur stdDeviation="0.5"/>
<feComposite in2="hardAlpha" operator="arithmetic" k2="-1" k3="1"/>
<feColorMatrix type="matrix" values="0 0 0 0 0.278431 0 0 0 0 0.301961 0 0 0 0 0.521569 0 0 0 0.5 0"/>
<feBlend mode="normal" in2="shape" result="effect2_innerShadow"/>
</filter>
<filter id="filter2_di2a" x="2358.1" y="0.52002" width="266.057" height="146.64" filterUnits="userSpaceOnUse" color-interpolation-filters="sRGB">
<feFlood flood-opacity="0" result="BackgroundImageFix"/>
<feColorMatrix in="SourceAlpha" type="matrix" values="0 0 0 0 0 0 0 0 0 0 0 0 0 0 0 0 0 0 127 0"/>
<feOffset dy="1"/>
<feGaussianBlur stdDeviation="2"/>
<feColorMatrix type="matrix" values="0 0 0 0 0 0 0 0 0 0 0 0 0 0 0 0 0 0 0.14 0"/>
<feBlend mode="normal" in2="BackgroundImageFix" result="effect1_dropShadow"/>
<feBlend mode="normal" in="SourceGraphic" in2="effect1_dropShadow" result="shape"/>
<feColorMatrix in="SourceAlpha" type="matrix" values="0 0 0 0 0 0 0 0 0 0 0 0 0 0 0 0 0 0 127 0" result="hardAlpha"/>
<feOffset dy="1"/>
<feGaussianBlur stdDeviation="0.5"/>
<feComposite in2="hardAlpha" operator="arithmetic" k2="-1" k3="1"/>
<feColorMatrix type="matrix" values="0 0 0 0 0.278431 0 0 0 0 0.301961 0 0 0 0 0.521569 0 0 0 0.5 0"/>
<feBlend mode="normal" in2="shape" result="effect2_innerShadow"/>
</filter>
<filter id="filter3_dibb" x="1513.1" y="0.52002" width="778.376" height="182.28" filterUnits="userSpaceOnUse" color-interpolation-filters="sRGB">
<feFlood flood-opacity="0" result="BackgroundImageFix"/>
<feColorMatrix in="SourceAlpha" type="matrix" values="0 0 0 0 0 0 0 0 0 0 0 0 0 0 0 0 0 0 127 0"/>
<feOffset dy="1"/>
<feGaussianBlur stdDeviation="2"/>
<feColorMatrix type="matrix" values="0 0 0 0 0 0 0 0 0 0 0 0 0 0 0 0 0 0 0.14 0"/>
<feBlend mode="normal" in2="BackgroundImageFix" result="effect1_dropShadow"/>
<feBlend mode="normal" in="SourceGraphic" in2="effect1_dropShadow" result="shape"/>
<feColorMatrix in="SourceAlpha" type="matrix" values="0 0 0 0 0 0 0 0 0 0 0 0 0 0 0 0 0 0 127 0" result="hardAlpha"/>
<feOffset dy="1"/>
<feGaussianBlur stdDeviation="0.5"/>
<feComposite in2="hardAlpha" operator="arithmetic" k2="-1" k3="1"/>
<feColorMatrix type="matrix" values="0 0 0 0 0.278431 0 0 0 0 0.301961 0 0 0 0 0.521569 0 0 0 0.5 0"/>
<feBlend mode="normal" in2="shape" result="effect2_innerShadow"/>
</filter>
<filter id="filter4_dibbbs" x="334" y="0.52002" width="778.376" height="182.28" filterUnits="userSpaceOnUse" color-interpolation-filters="sRGB">
<feFlood flood-opacity="0" result="BackgroundImageFix"/>
<feColorMatrix in="SourceAlpha" type="matrix" values="0 0 0 0 0 0 0 0 0 0 0 0 0 0 0 0 0 0 127 0"/>
<feOffset dy="1"/>
<feGaussianBlur stdDeviation="2"/>
<feColorMatrix type="matrix" values="0 0 0 0 0 0 0 0 0 0 0 0 0 0 0 0 0 0 0.14 0"/>
<feBlend mode="normal" in2="BackgroundImageFix" result="effect1_dropShadow"/>
<feBlend mode="normal" in="SourceGraphic" in2="effect1_dropShadow" result="shape"/>
<feColorMatrix in="SourceAlpha" type="matrix" values="0 0 0 0 0 0 0 0 0 0 0 0 0 0 0 0 0 0 127 0" result="hardAlpha"/>
<feOffset dy="1"/>
<feGaussianBlur stdDeviation="0.5"/>
<feComposite in2="hardAlpha" operator="arithmetic" k2="-1" k3="1"/>
<feColorMatrix type="matrix" values="0 0 0 0 0.278431 0 0 0 0 0.301961 0 0 0 0 0.521569 0 0 0 0.5 0"/>
<feBlend mode="normal" in2="shape" result="effect2_innerShadow"/>
</filter>
<filter id="filter5_di2dsa" x="2692.1" y="0.52002" width="778.376" height="182.28" filterUnits="userSpaceOnUse" color-interpolation-filters="sRGB">
<feFlood flood-opacity="0" result="BackgroundImageFix"/>
<feColorMatrix in="SourceAlpha" type="matrix" values="0 0 0 0 0 0 0 0 0 0 0 0 0 0 0 0 0 0 127 0"/>
<feOffset dy="1"/>
<feGaussianBlur stdDeviation="2"/>
<feColorMatrix type="matrix" values="0 0 0 0 0 0 0 0 0 0 0 0 0 0 0 0 0 0 0.14 0"/>
<feBlend mode="normal" in2="BackgroundImageFix" result="effect1_dropShadow"/>
<feBlend mode="normal" in="SourceGraphic" in2="effect1_dropShadow" result="shape"/>
<feColorMatrix in="SourceAlpha" type="matrix" values="0 0 0 0 0 0 0 0 0 0 0 0 0 0 0 0 0 0 127 0" result="hardAlpha"/>
<feOffset dy="1"/>
<feGaussianBlur stdDeviation="0.5"/>
<feComposite in2="hardAlpha" operator="arithmetic" k2="-1" k3="1"/>
<feColorMatrix type="matrix" values="0 0 0 0 0.278431 0 0 0 0 0.301961 0 0 0 0 0.521569 0 0 0 0.5 0"/>
<feBlend mode="normal" in2="shape" result="effect2_innerShadow"/>
</filter>
</defs>
</svg>
