<svg width="542" height="230" viewBox="0 0 542 230" fill="none" xmlns="http://www.w3.org/2000/svg">
<g filter="url(#filter0_di)">
<path fill-rule="evenodd" clip-rule="evenodd" d="M167.813 26.52C172.253 20.76 176.213 12 178.493 3.3L185.093 5.22C183.833 9.48 182.273 13.86 180.413 18.18V59.1H173.633V30.96C172.853 32.1 172.073 33.12 171.293 34.14C170.753 32.4 169.013 28.32 167.813 26.52ZM192.233 59.04H185.273V16.26H192.233V59.04ZM194.873 17.94C193.553 14.82 190.433 9.84 187.913 6.18L193.313 3C195.893 6.54 199.193 11.28 200.693 14.28L194.873 17.94ZM200.633 5.1H222.233V51.3C222.233 54.84 221.453 56.64 219.233 57.72C217.073 58.86 213.833 58.98 209.153 58.98C208.853 57.12 207.833 54.18 206.933 52.38C209.753 52.56 212.873 52.56 213.833 52.5C214.793 52.5 215.153 52.14 215.153 51.18V11.52H200.633V5.1ZM153.833 4.8C157.013 7.56 160.973 11.52 162.713 14.34L156.953 18.36C155.393 15.6 151.673 11.34 148.433 8.46L153.833 4.8ZM149.333 37.02C151.493 34.44 153.473 31.74 155.033 28.86L161.333 31.56C158.633 36.42 155.273 40.8 151.373 44.7C152.993 49.32 154.853 52.08 156.653 52.08C157.913 52.08 158.633 49.2 158.933 42.12C160.493 43.8 162.893 45.42 164.813 46.2C163.673 56.7 161.453 59.34 155.993 59.34C151.613 59.34 148.253 55.74 145.673 49.86C142.193 52.74 138.413 55.2 134.573 57.18C133.553 55.5 131.573 53.04 129.833 51.42C134.453 49.32 139.073 46.38 143.213 42.96C141.893 38.22 140.873 32.76 140.153 26.88H127.973V33.72C129.503 33.45 131.048 33.165 132.593 32.88C134.138 32.595 135.683 32.31 137.213 32.04L137.753 38.52L127.973 40.5V50.76C127.973 54.66 127.133 56.58 124.733 57.72C122.393 58.86 118.793 59.16 113.933 59.1C113.633 57.12 112.433 53.88 111.413 51.9C114.773 52.08 118.253 52.02 119.333 51.96C120.413 51.96 120.773 51.66 120.773 50.7V42C119.769 42.2039 118.774 42.4078 117.794 42.6085L117.792 42.6088L117.792 42.6088C115.024 43.1757 112.381 43.7169 110.033 44.16L108.293 36.96C108.83 36.8753 109.388 36.7876 109.967 36.6968C113.079 36.2085 116.777 35.6282 120.773 34.92V26.88H109.433V20.1H120.773V13.26C117.533 13.8 114.233 14.22 111.173 14.58C110.873 12.84 109.913 10.2 109.133 8.58C117.533 7.44 126.833 5.52 132.953 3.54L137.753 9.6C134.753 10.5 131.453 11.28 127.973 12V20.1H139.493C139.013 14.7 138.833 9.12 138.773 3.66H146.273C146.153 9.24 146.393 14.82 146.873 20.1H163.193V26.88H147.593C148.073 30.48 148.673 33.96 149.333 37.02ZM235.193 59.4C237.653 56.1 240.713 51 242.573 46.68L235.733 44.88C233.873 49.08 230.813 53.76 228.413 56.64L235.193 59.4ZM245.873 47.28C246.593 51.06 247.013 55.92 247.013 58.8L254.033 57.84C253.973 54.9 253.313 50.22 252.533 46.62L245.873 47.28ZM270.533 33.24C268.793 31.86 266.273 30.18 263.453 28.44C264.233 25.2 264.713 21.48 265.013 17.4H270.593C270.293 33.54 270.293 43.62 277.973 43.62C282.353 43.62 284.213 41.46 284.873 34.08C283.253 33.72 280.913 32.58 279.593 31.5C279.413 35.7 279.053 37.44 278.213 37.44C276.353 37.5 276.593 28.02 277.313 11.4H265.253C265.335 9.59935 265.361 7.74287 265.388 5.79249V5.78985L265.388 5.78475L265.388 5.7802L265.388 5.77618L265.389 5.77265V5.76961C265.401 4.86775 265.414 3.9458 265.433 3H258.713C258.713 6 258.653 8.76 258.593 11.4H251.513V17.4H258.353C258.173 20.16 257.873 22.62 257.393 24.9C256.38 24.3214 255.407 23.7815 254.503 23.2804L254.501 23.2797L254.493 23.2751C254.275 23.1545 254.062 23.0361 253.853 22.92L250.853 27.36L250.193 21.18L250.192 21.1802C248.212 21.6601 246.233 22.1401 244.313 22.62V17.64H250.493V11.1H244.313V3.24H237.773V11.1H229.793V17.64H237.773V24.12C234.293 24.9 231.053 25.62 228.473 26.1L229.853 33L237.773 31.02V36.54C237.773 37.32 237.473 37.5 236.693 37.56C235.913 37.56 233.453 37.56 230.993 37.44C231.833 39.3 232.733 42 232.913 43.86C236.933 43.86 239.753 43.68 241.733 42.66C243.713 41.58 244.313 39.9 244.313 36.66V29.34L250.613 27.72L250.493 27.9C251.641 28.5623 252.854 29.3222 254.108 30.1078L254.108 30.1078L254.109 30.1081L254.109 30.1081L254.111 30.1095C254.56 30.3908 255.014 30.6754 255.473 30.96C253.913 34.38 251.453 37.14 247.793 39.42C249.413 40.62 251.393 43.02 252.233 44.7C256.493 42.06 259.373 38.76 261.293 34.68C263.573 36.24 265.613 37.74 266.993 39L270.533 33.24ZM258.113 47.16C259.493 50.88 260.873 55.68 261.233 58.62L268.313 57.24C267.833 54.24 266.333 49.56 264.833 46.08L258.113 47.16ZM270.293 47.04C272.993 50.94 276.173 56.22 277.433 59.4L284.213 56.4C282.713 53.04 279.353 48.06 276.653 44.46L270.293 47.04ZM320.273 47.34C322.553 46.14 324.593 44.76 326.213 43.08H313.253C315.293 44.76 317.633 46.14 320.273 47.34ZM296.273 23.94V28.2H305.213C305.453 27 305.693 25.8 305.873 24.48L312.653 25.26C312.563 25.74 312.473 26.235 312.383 26.73L312.38 26.7462L312.38 26.7468C312.291 27.2362 312.202 27.7254 312.113 28.2H336.113V23.94H296.273ZM313.268 15.4614C313.013 14.669 312.766 13.8991 312.533 13.2L316.673 11.64C312.653 11.88 308.453 12.06 304.373 12.18C305.213 14.1 306.113 16.26 306.593 18H314.093C313.815 17.1665 313.537 16.3013 313.268 15.4614ZM318.053 11.58C318.893 13.62 319.793 16.14 320.333 18H325.433C326.693 15.78 328.133 12.96 328.973 10.74C325.553 11.1 321.833 11.34 318.053 11.58ZM331.193 37.08L332.273 36.9L336.173 39.6C333.953 43.8 330.953 47.16 327.173 49.92C331.853 51.3 337.073 52.14 342.593 52.62C341.273 54.12 339.773 57 338.933 58.74C332.033 57.96 325.793 56.4 320.333 54C315.533 56.28 310.253 57.84 304.733 58.8C304.193 57.18 302.573 54.24 301.493 52.92C305.753 52.32 309.833 51.54 313.493 50.28C310.973 48.54 308.633 46.5 306.653 44.28C303.353 50.46 298.913 55.26 292.793 58.8C292.073 57.48 289.673 54.66 288.353 53.4C296.153 49.44 300.953 42.96 303.773 34.08H295.493V29.1H290.393V18H300.473C299.993 16.56 299.453 15.12 298.913 13.86L302.513 12.24C299.513 12.36 296.453 12.42 293.573 12.42C293.453 10.74 292.733 8.46 292.193 6.96C307.373 6.66 325.253 5.64 336.773 3.96L338.753 9.66C335.993 10.02 332.933 10.38 329.693 10.68L335.333 12.3C334.535 13.6161 333.711 14.9321 332.931 16.1777L332.929 16.1818L332.921 16.1931L332.917 16.2L332.915 16.2032L332.908 16.215L332.884 16.2522L332.87 16.2748C332.498 16.869 332.136 17.4466 331.793 18H342.233V29.1H337.253V34.08H310.673C310.373 35.1 310.073 36.12 309.713 37.08H331.193ZM365.307 53.94H374.187V35.94H389.967V28.5H374.187V16.92H392.667V9.48H365.307V53.94ZM408.504 53.94H399.684V20.34H408.504V53.94ZM409.224 10.08C409.224 13.02 407.124 14.94 404.124 14.94C401.064 14.94 398.964 13.02 398.964 10.08C398.964 7.2 401.064 5.28 404.124 5.28C407.124 5.28 409.224 7.2 409.224 10.08ZM429.727 68.52C440.947 68.52 448.027 63.36 448.027 56.58C448.027 50.7 443.587 48.18 435.487 48.18H429.787C425.827 48.18 424.507 47.22 424.507 45.42C424.507 44.04 425.047 43.32 425.947 42.54C427.387 43.02 428.947 43.32 430.267 43.32C437.467 43.32 443.227 39.48 443.227 31.92C443.227 29.82 442.567 27.96 441.727 26.82H447.427V20.34H435.307C433.927 19.86 432.127 19.5 430.267 19.5C423.127 19.5 416.707 23.76 416.707 31.62C416.707 35.58 418.867 38.76 421.207 40.44V40.68C419.167 42.12 417.427 44.46 417.427 46.98C417.427 49.74 418.747 51.48 420.487 52.62V52.92C417.427 54.66 415.687 57.06 415.687 59.88C415.687 65.82 421.807 68.52 429.727 68.52ZM430.267 37.86C427.327 37.86 424.987 35.64 424.987 31.62C424.987 27.72 427.267 25.5 430.267 25.5C433.267 25.5 435.547 27.72 435.547 31.62C435.547 35.64 433.207 37.86 430.267 37.86ZM431.047 62.94C426.187 62.94 423.067 61.32 423.067 58.5C423.067 57.12 423.727 55.8 425.227 54.6C426.427 54.9 427.867 55.08 429.907 55.08H433.987C437.587 55.08 439.567 55.68 439.567 58.08C439.567 60.72 436.087 62.94 431.047 62.94ZM462.528 53.94H453.708V20.34H460.908L461.568 24.84H461.748C464.568 21.9 467.688 19.5 472.068 19.5C476.868 19.5 479.688 21.66 481.308 25.38C484.368 22.14 487.608 19.5 491.988 19.5C499.128 19.5 502.428 24.54 502.428 33V53.94H493.608V34.08C493.608 28.86 492.108 27.06 488.928 27.06C487.008 27.06 484.848 28.32 482.448 30.84V53.94H473.688V34.08C473.688 28.86 472.128 27.06 468.948 27.06C467.028 27.06 464.868 28.32 462.528 30.84V53.94ZM519.82 54.78C523.66 54.78 527.02 52.86 529.96 50.34H530.2L530.8 53.94H538V34.32C538 24.6 533.62 19.5 525.1 19.5C519.82 19.5 515.02 21.48 511.06 23.94L514.24 29.76C517.36 27.96 520.36 26.58 523.48 26.58C527.62 26.58 529.06 29.1 529.24 32.4C515.68 33.84 509.86 37.62 509.86 44.82C509.86 50.52 513.82 54.78 519.82 54.78ZM522.7 47.88C520.12 47.88 518.26 46.74 518.26 44.1C518.26 41.1 521.02 38.82 529.24 37.8V44.58C527.08 46.68 525.22 47.88 522.7 47.88ZM507.34 88.52C502.12 96.08 491.98 101.66 481.24 104.78C482.5 106.28 484.48 109.52 485.2 111.14C493.96 108.02 502.54 103.28 508.96 96.98C515.74 102.68 525.04 107.84 533.2 110.66C534.28 108.86 536.38 106.1 538 104.6C529.12 102.14 518.98 97.4 512.98 92.42C513.16 92.1801 513.325 91.9401 513.49 91.7002C513.655 91.4601 513.82 91.2201 514 90.98L507.34 88.52ZM523.9 109.94L522.82 110.24H512.38L515.98 106.94C514.24 104.84 510.7 102.32 507.58 100.76L503.32 104.66C505.84 106.16 508.78 108.32 510.58 110.24H489.94V116.3H517.72C515.92 118.34 513.76 120.38 511.72 121.94C513.34 122.84 515.68 124.46 517.06 125.6C521.08 122.36 526 117.2 528.76 113L523.9 109.94ZM500.5 122.36C504.46 125.6 509.08 130.28 511.12 133.4L516.7 129.2C514.48 126.02 509.56 121.64 505.66 118.64L500.5 122.36ZM487.84 142.76C490.3 138.56 492.16 131.96 493.3 126.74L486.94 124.58C485.92 129.74 483.82 135.62 481.36 139.52L487.84 142.76ZM506.08 137.66C502.78 137.66 502.24 137.36 502.24 135.38V124.16H495.16V135.5C495.16 141.92 497.26 143.96 505.36 143.96H516.58C523.12 143.96 525.1 141.8 526 133.28C524.08 132.86 521.08 131.78 519.58 130.7C519.22 136.7 518.8 137.66 516.04 137.66H506.08ZM523.3 126.38C526.54 131.24 530.08 137.72 531.4 141.86L537.88 139.04C536.32 134.9 532.54 128.66 529.24 123.92L523.3 126.38ZM346.36 106.94H338.5L338.38 107.18C339.4 112.4 340.78 117.32 342.64 121.64C344.38 117.38 345.58 112.52 346.36 106.94ZM357.88 100.34V106.94H353.38C352.12 115.64 350.02 123.02 346.78 129.08C349.78 133.4 353.62 136.76 358.6 139.04C356.98 140.48 354.76 143.24 353.68 145.16C349.12 142.76 345.46 139.52 342.46 135.5C339.16 139.58 335.02 142.94 329.74 145.64C329.14 144.08 327.1 140.9 325.78 139.4C331.3 136.88 335.5 133.46 338.62 129.14C336.76 125.42 335.38 121.28 334.12 116.78C333.1 118.64 332.02 120.2 330.82 121.7C329.98 120.56 328.18 118.58 326.62 117.08C326.32 133.76 326.02 140.24 324.52 142.28C323.32 143.96 322.24 144.56 320.5 144.92C318.94 145.16 316.6 145.22 314.08 145.16C313.9 143.18 313.24 140.48 312.22 138.68C314.14 138.8 315.88 138.86 316.84 138.86C317.56 138.86 318.04 138.68 318.52 137.96C319.3 136.64 319.66 131.6 319.9 117.56H314.86C314.8 127.04 313.48 137 306.04 145.22C304.9 143.66 302.56 141.74 300.82 140.54C307.24 133.1 308.14 124.52 308.14 116.78V105.2H302.26V98.6H313.84C313.36 96.32 312.28 93.2 311.38 90.8L317.68 89.3C318.76 91.76 319.96 95.06 320.56 97.16L315.64 98.6H328.72V105.2H314.86V111.08H326.74C326.74 111.08 326.74 113.12 326.68 113.96V114.44C331.06 108.38 333.82 99.14 335.26 89.48L342.52 90.62C341.98 93.92 341.32 97.22 340.48 100.34H357.88ZM135.7 135.86V129.62H164.2V135.86H135.7ZM164.2 116.84V123.02H135.7V116.84H164.2ZM164.2 104.06V110.24H135.7V104.06H164.2ZM151.24 97.22C152.2 95.06 153.16 92.72 154.06 90.32L145.42 89.36C145.12 91.76 144.46 94.64 143.8 97.22H128.44V145.46H135.7V142.46H164.2V145.4H171.82V97.22H151.24ZM27.4 95.6C30.82 99.86 34.54 105.44 36.28 109.22L29.8 113.18C28.3 109.34 24.58 103.28 21.28 99.02L27.4 95.6ZM16.24 93.56V126.98L27.64 121.22C28 123.38 28.9 126.44 29.5 128.06C12.4 137.06 9.64 138.86 7.9 140.54C7.24 138.92 5.26 136.1 4 134.84C5.68 133.76 8.44 131.18 8.44 128V93.56H16.24ZM45.64 126.08C50.32 130.82 55.72 136.46 58.42 140.54L52.12 145.28C50.02 141.86 46.06 137 42.04 132.62C38.32 138.08 33.28 142.46 26.44 145.76C25.48 144.26 22.66 141.02 20.98 139.52C38.98 132.2 43.18 117.32 44.14 92L51.76 92.36C51.1 106.28 49.42 117.38 45.64 126.08ZM94.24 99.74H81.94V102.62C84.82 113.06 89.38 121.7 96.58 128C100.42 123.98 103.48 119.18 105.52 113.42H90.76C91.84 109.76 93.16 104.66 94.24 99.74ZM108.4 106.7L109.66 106.4L114.64 108.38C112.36 118.58 108.28 126.38 102.64 132.38C107.02 134.96 112.18 137 118.18 138.32C116.5 139.82 114.4 143 113.32 145.04C106.72 143.3 101.26 140.84 96.64 137.66C91.96 141.02 86.68 143.6 80.86 145.58C79.96 143.66 78.16 140.72 76.72 139.28C81.88 137.84 86.62 135.74 90.82 132.86C86.68 128.72 83.44 123.86 80.8 118.22C79.18 127.46 75.34 137.36 66.58 145.16C65.5 143.24 62.92 140.18 61.36 138.86C73.24 128.6 74.44 113.42 74.44 103.58V99.74H64.96V92.48H102.94C102.16 97.04 101.2 102.2 100.18 106.7H108.4ZM213.16 125.06V135.26H226.3V125.06H213.16ZM205.78 125.06H193.06V135.26H205.78V125.06ZM205.78 118.1V108.08H193.06V118.1H205.78ZM226.3 118.1V108.08H213.16V118.1H226.3ZM213.16 89.54V100.88H233.8V145.46H226.3V142.34H193.06V145.52H185.92V100.88H205.78V89.54H213.16ZM263.5 114.32V112.58V99.68H277.24V114.32H263.5ZM297.04 114.32H284.74V99.68H295.24V92.96H244.6V99.68H256.18V112.52V114.32H242.62V121.16H255.58C254.44 128.24 251.2 135.14 242.44 140.42C244.24 141.62 247 144.14 248.2 145.76C258.64 139.22 262 130.1 263.08 121.16H277.24V145.58H284.74V121.16H297.04V114.32ZM370.78 133.04V121.28H380.32V133.04H370.78ZM380.32 115.1H370.78V105.38H380.32V115.1ZM399.4 98.72C400.3 96.2 401.08 93.68 401.74 91.1L394.9 89.54C393.16 96.56 390.28 103.82 386.8 108.86V99.14H377.5C378.52 96.56 379.6 93.56 380.62 90.56L372.82 89.48C372.58 92.3 371.86 96.14 371.08 99.14H364.3V143.72H370.78V139.34H386.8V111.32C388.42 112.4 390.46 113.78 391.42 114.68C393.28 112.1 395.14 108.8 396.7 105.2H409.54C408.88 126.38 408.1 135.38 406.36 137.3C405.58 138.08 404.92 138.32 403.72 138.32C402.16 138.32 398.62 138.32 394.78 137.96C396.04 139.94 397 142.94 397.12 144.92C400.66 145.04 404.26 145.1 406.54 144.8C408.94 144.38 410.62 143.72 412.3 141.5C414.76 138.32 415.42 128.78 416.2 101.96C416.26 101.12 416.26 98.72 416.26 98.72H399.4ZM406.3 126.08C404.44 122.6 400.48 116.9 397.48 112.76L391.9 115.94C394.84 120.32 398.56 126.2 400.24 129.8L406.3 126.08ZM468.46 98.42H453.52V123.98H446.74V92.18H475.48V123.98H468.46V98.42ZM439.48 121.4C442.06 125.3 444.1 129.14 445.42 132.2L439.6 136.58C438.76 134.48 437.62 132.02 436.18 129.38C433.42 135.02 430.06 139.76 426.1 143.54C425.02 141.92 422.68 139.34 420.88 138.08C425.2 134.36 428.86 128.66 431.74 121.82C428.8 117.26 425.68 112.7 422.68 108.74L427.9 105.02C430 107.78 432.28 110.78 434.5 113.96C435.76 109.7 436.78 105.26 437.5 100.7H422.62V93.92H439.24L440.5 93.62L445.06 95.06C444.04 104.9 442.24 113.78 439.48 121.4ZM466.66 137.24C466.66 138.8 467.08 139.28 468.16 139.28H470.56C472 139.28 472.36 137.54 472.54 129.8C474.16 131 476.44 131.96 478.06 132.38C477.46 141.68 476.5 144.5 470.5 144.5H466.72C462.04 144.5 460.06 143.06 460.06 138.02V130.64C457.18 136.28 452.56 141.56 445.12 145.46C444.34 144.02 442 141.38 440.68 140.36C455.86 132.44 457.54 120.56 457.54 111.44V102.02H464.26V111.56C464.26 115.28 463.9 119.6 462.7 123.98H466.66V137.24ZM430.3 187.6C433.66 184.3 436.78 180.46 439.3 176.32C442.54 179.98 445.96 184.18 448.36 187.6H430.3ZM450.82 189.76L455.38 185.44C452.74 181.42 447.16 175.24 442.54 170.38C442.72 169.961 442.914 169.526 443.109 169.092L443.11 169.091C443.237 168.807 443.364 168.523 443.487 168.243C443.553 168.094 443.617 167.946 443.68 167.8L437.14 165.76C434.02 173.38 427.72 181.42 420.46 186.34C422.02 187.54 424.42 190.12 425.56 191.62C425.86 191.38 426.175 191.14 426.49 190.9L426.491 190.899C426.806 190.659 427.12 190.42 427.42 190.18V212.08C427.42 218.98 429.64 220.9 436.66 220.9H446.26C452.38 220.9 454.24 218.38 455.02 209.92C453.22 209.56 450.34 208.48 448.84 207.34C448.48 213.64 448.06 214.84 445.6 214.84H437.5C434.8 214.84 434.38 214.48 434.38 212.02V193.72H443.86C443.5 198.88 443.08 201.1 442.54 201.76C442.12 202.3 441.64 202.42 440.86 202.42C439.96 202.42 438.16 202.42 436.24 202.18C437.14 203.8 437.86 206.32 437.92 208.18C440.56 208.24 442.9 208.18 444.34 208C445.96 207.76 447.28 207.28 448.36 205.96C449.74 204.34 450.34 199.96 450.82 190V189.76ZM463.06 172.72H456.22V206.62H463.06V172.72ZM467.68 167.02V213.52C467.68 214.66 467.2 215.02 466.06 215.08C464.86 215.08 460.84 215.08 457.06 214.9C458.08 216.82 459.16 219.82 459.46 221.8C465.1 221.8 468.94 221.62 471.4 220.48C473.92 219.4 474.76 217.6 474.76 213.52V167.02H467.68ZM140.62 194.62H162.28V190.78H140.62V194.62ZM140.62 200.56V204.46H162.28V200.56H140.62ZM175.96 173.08V179.8H143.86C143.14 181.42 142.36 182.98 141.46 184.54H169.24V214.18C169.24 217.72 168.58 219.64 166.12 220.72C163.78 221.86 160.36 221.92 155.5 221.92C155.2 219.94 154.24 216.94 153.34 215.02C156.4 215.2 159.88 215.2 160.9 215.2C161.92 215.14 162.28 214.84 162.28 214V210.4H140.62V221.86H133.54V195.76C131.14 198.4 128.56 200.8 125.62 202.78C124.6 201.22 122.32 198.64 120.94 197.32C127.3 193.06 132.28 186.76 135.88 179.8H122.74V173.08H138.88C139.84 170.62 140.62 168.22 141.22 165.82L148.6 167.5C148 169.36 147.4 171.22 146.68 173.08H175.96ZM69.1599 166.12C72.2199 169.06 76.2399 173.26 78.1599 176.08L72.0999 180.64C70.4799 177.76 66.6399 173.26 63.6399 170.08L69.1599 166.12ZM80.6799 202.78C79.5999 201.34 77.0199 198.46 75.3999 197.14V209.2C76.3599 209.86 77.4999 210.64 78.9399 211.48C83.0799 213.94 88.6599 214.3 95.6199 214.3C102.04 214.3 111.94 213.7 118.12 212.74C117.28 214.84 116.02 218.56 115.96 220.72C111.58 220.96 101.62 221.38 95.2599 221.38C87.3399 221.38 82.2999 220.66 77.8599 218.14C76.8051 217.567 75.838 216.923 74.9718 216.347C73.5716 215.416 72.4355 214.66 71.6199 214.66C69.8799 214.66 67.2999 218.74 65.1999 222.46L59.9199 215.26C62.7399 212.2 65.6199 209.92 68.1999 208.66V192.7H61.4199V185.68H75.3999V196.96C82.9599 192.16 89.7999 184.84 94.5399 176.5H79.0599V169.42H115.42V176.5H102.82C101.92 178.3 100.9 179.98 99.8799 181.66V189.16L104.5 185.2C105.53 186.214 106.702 187.344 107.918 188.516L107.92 188.519L107.92 188.519C111.239 191.718 114.884 195.233 116.86 197.56L111.34 202.66C109.574 200.378 106.388 197.014 103.332 193.789C102.129 192.52 100.947 191.272 99.8799 190.12V211.96H92.4999V191.8C88.8399 196.06 84.7599 199.84 80.6799 202.78ZM190.9 224.98C198.34 222.76 202.72 217.24 202.72 210.4C202.72 205.36 200.5 202.18 196.24 202.18C193.06 202.18 190.36 204.22 190.36 207.58C190.36 211 193.06 212.92 196.06 212.92C196.3 212.92 196.54 212.92 196.72 212.86C196.36 216.04 193.66 218.62 188.98 220.12L190.9 224.98ZM272.92 179.8H295.72V186.52H242.92V179.8H265.24V175.18H247.42V168.58H292V175.18H272.92V179.8ZM290.2 189.82V209.5H282.4V196.36H256.48V210.28H249.04V189.82H290.2ZM265.24 198.64H273.22V203.74C273.22 209.92 269.38 217.24 247 221.86C246.1 220.18 243.94 217.48 242.08 215.92C263.38 212.5 265.24 207.34 265.24 203.5V198.64ZM292.66 221.92C287.8 219.64 277.96 216.04 271.12 213.76L274.66 208.42C281.14 210.28 291.28 213.58 296.38 215.8L292.66 221.92ZM325.3 209.92V204.88H320.02V201.4H324.64V196.36H321.58C322.365 194.833 323.151 193.052 323.936 191.271L323.936 191.27C324.231 190.602 324.525 189.934 324.82 189.28L320.26 188.2C319.66 190.54 318.4 193.9 317.32 196.36H310.12V201.4H314.68V204.88H309.52V209.92H314.68V218.68H320.02V209.92H325.3ZM310.3 189.64C311.5 191.68 312.88 194.44 313.48 196.12L317.02 194.38C316.36 192.76 314.92 190.12 313.72 188.14L310.3 189.64ZM356.86 188.56V181.96H347.2V170.5C348.76 173.74 350.38 177.88 351.16 180.4L357.04 178.18C356.14 175.54 354.22 171.34 352.54 168.16L347.2 170.08V165.88H340.24V181.96H333.22V188.56H340.12C339.82 197.5 338.26 208.36 331.84 216.28C331.9 215.86 331.9 215.44 331.9 214.96V182.08H320.74V177.34H332.62V171.34H320.74V165.94H313.96V171.34H301.6V177.34H313.96V182.08H302.98V221.56H308.8V187.78H325.9V214.9C325.9 215.5 325.72 215.68 325.12 215.68C324.58 215.68 322.96 215.68 321.34 215.62C322.06 217.18 322.78 219.64 322.96 221.26C325.96 221.26 328.18 221.2 329.8 220.18C330.82 219.58 331.36 218.8 331.66 217.72C333.34 218.86 335.44 220.9 336.46 222.16C340.48 217.24 343.06 211.3 344.62 205.18C346.36 211.84 348.88 217.42 352.48 221.38C353.62 219.52 355.96 216.94 357.46 215.62C351.82 210.1 349.06 199.84 347.62 188.56H356.86ZM362.38 201.04H399.64V207.88H362.38V201.04ZM379.36 179.98C378.82 182.8 378.28 185.56 377.74 188.14H413.98C413.98 188.14 413.86 190.3 413.68 191.26C412.18 208.18 410.62 215.32 407.74 218.14C405.76 220.24 403.78 220.78 400.6 221.08C398.14 221.26 393.82 221.2 389.44 221.02C389.32 218.92 388.18 215.92 386.68 213.88C391.42 214.3 396.28 214.3 398.32 214.3C399.7 214.3 400.66 214.24 401.56 213.58C403.54 212.08 404.98 206.14 406.06 194.74H374.92L368.74 194.68C370.66 187.48 372.94 175.84 374.26 166.84L381.58 167.56C381.53 167.858 381.481 168.157 381.431 168.458C381.179 169.977 380.92 171.537 380.62 173.14H412.42V179.98H379.36ZM513.94 183.76V178.72H506.38C505.42 180.64 504.28 182.32 503.14 183.76C501.76 182.74 498.82 181.18 497.14 180.46C500.26 177.04 502.72 171.7 504.1 166.48L510.7 167.98C510.328 169.415 509.862 170.756 509.385 172.127L509.385 172.128C509.323 172.305 509.262 172.482 509.2 172.66H513.94V165.94H521.02V172.66H534.04V178.72H521.02V183.76H536.5V189.76H497.92V183.76H503.14H513.94ZM525.22 199.06H508.84V205.06H525.22V199.06ZM532.3 193.36V210.76H502.18V193.36H532.3ZM487.48 167.92C490.78 170.56 494.86 174.46 496.72 177.22L491.08 181.54C489.4 178.78 485.5 174.7 482.2 171.7L487.48 167.92ZM481.96 188.92H495.58V210.04C495.973 210.276 496.4 210.569 496.881 210.899C497.503 211.325 498.215 211.813 499.06 212.32C502.72 214.48 508 214.72 514.36 214.72C520.84 214.72 531.52 214.24 538 213.28C537.28 215.14 536.14 218.44 536.08 220.3C530.74 220.66 520.6 220.96 514.12 220.96C506.86 220.96 502.12 220.36 498.34 218.14C497.59 217.715 496.889 217.255 496.244 216.833L496.243 216.832C494.979 216.004 493.935 215.32 493.18 215.32C491.44 215.32 488.5 218.56 485.86 221.92L481.6 215.68C483.88 213.52 486.4 211.78 488.74 210.64V195.52H481.96V188.92Z" fill="#3E4373"/>
</g>
<defs>
<filter id="filter0_di" x="0" y="0" width="542" height="229.98" filterUnits="userSpaceOnUse" color-interpolation-filters="sRGB">
<feFlood flood-opacity="0" result="BackgroundImageFix"/>
<feColorMatrix in="SourceAlpha" type="matrix" values="0 0 0 0 0 0 0 0 0 0 0 0 0 0 0 0 0 0 127 0"/>
<feOffset dy="1"/>
<feGaussianBlur stdDeviation="2"/>
<feColorMatrix type="matrix" values="0 0 0 0 0 0 0 0 0 0 0 0 0 0 0 0 0 0 0.25 0"/>
<feBlend mode="normal" in2="BackgroundImageFix" result="effect1_dropShadow"/>
<feBlend mode="normal" in="SourceGraphic" in2="effect1_dropShadow" result="shape"/>
<feColorMatrix in="SourceAlpha" type="matrix" values="0 0 0 0 0 0 0 0 0 0 0 0 0 0 0 0 0 0 127 0" result="hardAlpha"/>
<feOffset dy="1"/>
<feGaussianBlur stdDeviation="0.5"/>
<feComposite in2="hardAlpha" operator="arithmetic" k2="-1" k3="1"/>
<feColorMatrix type="matrix" values="0 0 0 0 0.280226 0 0 0 0 0.302825 0 0 0 0 0.519774 0 0 0 1 0"/>
<feBlend mode="normal" in2="shape" result="effect2_innerShadow"/>
</filter>
</defs>
</svg>
