<svg width="3469" height="183" viewBox="0 0 3469 183" fill="none" xmlns="http://www.w3.org/2000/svg">
<g filter222="url(#filter2220_di)">
<path fill-rule="evenodd" clip-rule="evenodd" d="M1181.1 3.52002H1267.9V32.72H1211.2V58.78H1260.34V87.98H1211.2V140H1181.1V3.52002ZM1185.1 7.52002V136H1207.2V83.98H1256.34V62.78H1207.2V28.72H1263.9V7.52002H1185.1ZM1434.94 57.6497C1433.29 58.022 1431.18 58.7946 1428.57 60.0597L1428.54 60.0705L1428.52 60.0808C1424.77 61.7856 1421.04 64.2468 1417.32 67.4947C1413.78 70.7002 1410.99 74.2867 1408.95 78.2547L1405.91 84.1655L1403.4 61.34H1384.51V136H1405.53V107.22C1405.53 102.576 1406.63 98.0744 1408.8 93.7358C1410.99 89.2298 1414.16 85.5463 1418.28 82.7119C1422.48 79.8239 1427.32 78.4 1432.73 78.4C1433.14 78.4 1433.53 78.4055 1433.9 78.417L1434.94 57.6497ZM1426.84 56.4497C1430.86 54.5049 1434.31 53.38 1437.05 53.38H1439.16L1437.68 82.9219L1435.47 82.5528C1434.91 82.4599 1434.02 82.4 1432.73 82.4C1428.06 82.4 1424.03 83.6162 1420.55 86.0081C1416.99 88.4516 1414.28 91.6046 1412.39 95.4938L1412.39 95.5042L1412.38 95.5145C1410.47 99.3327 1409.53 103.228 1409.53 107.22V140H1380.51V57.34H1406.99L1408.53 71.3234C1410.28 68.8897 1412.32 66.6205 1414.65 64.5158L1414.67 64.5053L1414.68 64.4949C1418.63 61.0343 1422.69 58.3424 1426.84 56.4497ZM1318.74 57.56C1310.27 57.56 1302.74 59.3554 1296.11 62.9039L1296.09 62.9099C1289.57 66.3451 1284.51 71.0724 1280.86 77.1019C1277.34 83.1251 1275.56 89.9668 1275.56 97.68C1275.56 106.147 1277.36 113.34 1280.86 119.338C1284.5 125.365 1289.5 130.023 1295.88 133.334C1302.41 136.534 1309.89 138.16 1318.38 138.16C1327.11 138.16 1334.57 136.416 1340.82 133.008C1347.22 129.462 1352.1 124.628 1355.51 118.489C1358.94 112.331 1360.66 105.41 1360.66 97.68C1360.66 89.9499 1358.94 83.0953 1355.52 77.0652C1352.12 71.0492 1347.24 66.3324 1340.84 62.903L1340.82 62.8929L1340.8 62.8823C1334.54 59.3561 1327.21 57.56 1318.74 57.56ZM1294.23 59.3731C1301.51 55.4836 1309.69 53.56 1318.74 53.56C1327.78 53.56 1335.81 55.4806 1342.75 59.3873C1349.78 63.1572 1355.21 68.3969 1359 75.0948C1362.79 81.7847 1364.66 89.3302 1364.66 97.68C1364.66 106.03 1362.79 113.629 1359.01 120.431C1355.22 127.251 1349.79 132.615 1342.75 136.51L1342.74 136.516C1335.79 140.305 1327.65 142.16 1318.38 142.16C1309.36 142.16 1301.25 140.429 1294.1 136.915L1294.08 136.906L1294.06 136.896C1287.02 133.25 1281.46 128.076 1277.43 121.394L1277.42 121.382L1277.42 121.37C1273.49 114.65 1271.56 106.728 1271.56 97.68C1271.56 89.3185 1273.5 81.7642 1277.42 75.0703L1277.42 75.0582L1277.43 75.0463C1281.47 68.3632 1287.08 63.1354 1294.23 59.3731ZM1302.83 81.0679C1306.81 76.4327 1311.92 74.08 1318.02 74.08C1324.31 74.08 1329.5 76.3362 1333.39 80.8891C1337.36 85.3931 1339.28 91.106 1339.28 97.86C1339.28 104.614 1337.36 110.327 1333.39 114.831C1329.5 119.384 1324.31 121.64 1318.02 121.64C1311.94 121.64 1306.83 119.361 1302.84 114.843L1302.83 114.833L1302.82 114.822C1298.87 110.213 1296.94 104.512 1296.94 97.86C1296.94 91.2144 1298.87 85.5648 1302.83 81.0679ZM1318.02 78.08C1313.09 78.08 1309.08 79.9238 1305.86 83.6816L1305.85 83.6925L1305.84 83.7033C1302.61 87.3645 1300.94 92.0311 1300.94 97.86C1300.94 103.682 1302.61 108.419 1305.85 112.208C1309.06 115.843 1313.07 117.64 1318.02 117.64C1323.25 117.64 1327.29 115.82 1330.36 112.222L1330.37 112.209L1330.38 112.197C1333.61 108.543 1335.28 103.82 1335.28 97.86C1335.28 91.9002 1333.61 87.1774 1330.38 83.5233L1330.37 83.5107L1330.36 83.4979C1327.29 79.8996 1323.25 78.08 1318.02 78.08Z" fill="#3E4373"/>
</g>
<g filter222="url(#filter2221_di)">
<path fill-rule="evenodd" clip-rule="evenodd" d="M2360.1 3.52002H2446.9V32.72H2390.2V58.78H2439.34V87.98H2390.2V140H2360.1V3.52002ZM2364.1 7.52002V136H2386.2V83.98H2435.34V62.78H2386.2V28.72H2442.9V7.52002H2364.1ZM2613.94 57.6497C2612.29 58.022 2610.18 58.7946 2607.57 60.0597L2607.54 60.0705L2607.52 60.0808C2603.77 61.7856 2600.04 64.2468 2596.32 67.4947C2592.78 70.7002 2589.99 74.2867 2587.95 78.2547L2584.91 84.1655L2582.4 61.34H2563.51V136H2584.53V107.22C2584.53 102.576 2585.63 98.0744 2587.8 93.7358C2589.99 89.2298 2593.16 85.5463 2597.28 82.7119C2601.48 79.8239 2606.32 78.4 2611.73 78.4C2612.14 78.4 2612.53 78.4055 2612.9 78.417L2613.94 57.6497ZM2605.84 56.4497C2609.86 54.5049 2613.31 53.38 2616.05 53.38H2618.16L2616.68 82.9219L2614.47 82.5528C2613.91 82.4599 2613.02 82.4 2611.73 82.4C2607.06 82.4 2603.03 83.6162 2599.55 86.0081C2595.99 88.4516 2593.28 91.6046 2591.39 95.4938L2591.39 95.5042L2591.38 95.5145C2589.47 99.3327 2588.53 103.228 2588.53 107.22V140H2559.51V57.34H2585.99L2587.53 71.3234C2589.28 68.8897 2591.32 66.6205 2593.65 64.5158L2593.67 64.5053L2593.68 64.4949C2597.63 61.0343 2601.69 58.3424 2605.84 56.4497ZM2497.74 57.56C2489.27 57.56 2481.74 59.3554 2475.11 62.9039L2475.09 62.9099C2468.57 66.3451 2463.51 71.0724 2459.86 77.1019C2456.34 83.1251 2454.56 89.9668 2454.56 97.68C2454.56 106.147 2456.36 113.34 2459.86 119.338C2463.5 125.365 2468.5 130.023 2474.88 133.334C2481.41 136.534 2488.89 138.16 2497.38 138.16C2506.11 138.16 2513.57 136.416 2519.82 133.008C2526.22 129.462 2531.1 124.628 2534.51 118.489C2537.94 112.331 2539.66 105.41 2539.66 97.68C2539.66 89.9499 2537.94 83.0953 2534.52 77.0652C2531.12 71.0492 2526.24 66.3324 2519.84 62.903L2519.82 62.8929L2519.8 62.8823C2513.54 59.3561 2506.21 57.56 2497.74 57.56ZM2473.23 59.3731C2480.51 55.4836 2488.69 53.56 2497.74 53.56C2506.78 53.56 2514.81 55.4806 2521.75 59.3873C2528.78 63.1572 2534.21 68.3969 2538 75.0948C2541.79 81.7847 2543.66 89.3302 2543.66 97.68C2543.66 106.03 2541.79 113.629 2538.01 120.431C2534.22 127.251 2528.79 132.615 2521.75 136.51L2521.74 136.516C2514.79 140.305 2506.65 142.16 2497.38 142.16C2488.36 142.16 2480.25 140.429 2473.1 136.915L2473.08 136.906L2473.06 136.896C2466.02 133.25 2460.46 128.076 2456.43 121.394L2456.42 121.382L2456.42 121.37C2452.49 114.65 2450.56 106.728 2450.56 97.68C2450.56 89.3185 2452.5 81.7642 2456.42 75.0703L2456.42 75.0582L2456.43 75.0463C2460.47 68.3632 2466.08 63.1354 2473.23 59.3731ZM2481.83 81.0679C2485.81 76.4327 2490.92 74.08 2497.02 74.08C2503.31 74.08 2508.5 76.3362 2512.39 80.8891C2516.36 85.3931 2518.28 91.106 2518.28 97.86C2518.28 104.614 2516.36 110.327 2512.39 114.831C2508.5 119.384 2503.31 121.64 2497.02 121.64C2490.94 121.64 2485.83 119.361 2481.84 114.843L2481.83 114.833L2481.82 114.822C2477.87 110.213 2475.94 104.512 2475.94 97.86C2475.94 91.2144 2477.87 85.5648 2481.83 81.0679ZM2497.02 78.08C2492.09 78.08 2488.08 79.9238 2484.86 83.6816L2484.85 83.6925L2484.84 83.7033C2481.61 87.3645 2479.94 92.0311 2479.94 97.86C2479.94 103.682 2481.61 108.419 2484.85 112.208C2488.06 115.843 2492.07 117.64 2497.02 117.64C2502.25 117.64 2506.29 115.82 2509.36 112.222L2509.37 112.209L2509.38 112.197C2512.61 108.543 2514.28 103.82 2514.28 97.86C2514.28 91.9002 2512.61 87.1774 2509.38 83.5233L2509.37 83.5107L2509.36 83.4979C2506.29 79.8996 2502.25 78.08 2497.02 78.08Z" fill="#3E4373"/>
</g>
<g filter222="url(#filter2222_di)">
<path fill-rule="evenodd" clip-rule="evenodd" d="M1515.1 3.52002H1609.46V32.72H1545.2V56.98H1602.08V86.18H1545.2V110.8H1611.98V140H1515.1V3.52002ZM1519.1 7.52002V136H1607.98V114.8H1541.2V82.18H1598.08V60.98H1541.2V28.72H1605.46V7.52002H1519.1ZM1878.27 57.6497C1876.62 58.022 1874.51 58.7946 1871.9 60.0597L1871.88 60.0705L1871.86 60.0808C1868.11 61.7856 1864.37 64.2468 1860.66 67.4947C1857.11 70.7002 1854.33 74.2867 1852.29 78.2547L1849.25 84.1655L1846.74 61.34H1827.85V136H1848.87V107.22C1848.87 102.576 1849.97 98.0744 1852.14 93.7358C1854.33 89.2298 1857.49 85.5463 1861.62 82.7119C1865.82 79.8239 1870.66 78.4 1876.07 78.4C1876.48 78.4 1876.87 78.4055 1877.24 78.417L1878.27 57.6497ZM1870.18 56.4497C1874.2 54.5049 1877.65 53.38 1880.39 53.38H1882.49L1881.02 82.9219L1878.8 82.5528C1878.24 82.4599 1877.35 82.4 1876.07 82.4C1871.4 82.4 1867.36 83.6162 1863.88 86.0081C1860.33 88.4516 1857.62 91.6046 1855.73 95.4938L1855.72 95.5042L1855.72 95.5145C1853.81 99.3327 1852.87 103.228 1852.87 107.22V140H1823.85V57.34H1850.32L1851.86 71.3234C1853.62 68.8897 1855.66 66.6205 1857.99 64.5158L1858 64.5053L1858.01 64.4949C1861.97 61.0343 1866.02 58.3424 1870.18 56.4497ZM1765.6 57.56C1757.64 57.56 1750.36 59.4013 1743.7 63.0712L1743.69 63.0776L1743.68 63.0839C1737.02 66.6434 1731.77 71.5033 1727.88 77.6751C1724.12 83.834 1722.24 90.5485 1722.24 97.86C1722.24 105.849 1723.91 112.894 1727.22 119.047C1730.5 125.039 1735.3 129.743 1741.68 133.167C1748.18 136.47 1755.95 138.16 1765.06 138.16C1769.16 138.16 1773.52 137.477 1778.16 136.084C1782.16 134.886 1785.98 133.346 1789.63 131.465L1780.58 116.283C1775.54 119.21 1770.54 120.74 1765.6 120.74C1758.5 120.74 1752.7 118.325 1748.43 113.388L1746.44 111.095L1805.25 92.3519C1803.02 81.2848 1798.55 72.8737 1791.98 66.9454L1791.97 66.9399L1791.97 66.9343C1785.19 60.7245 1776.46 57.56 1765.6 57.56ZM1741.78 59.5626C1749.05 55.5566 1757 53.56 1765.6 53.56C1777.29 53.56 1787.04 56.9937 1794.66 63.9801C1802.39 70.9489 1807.29 80.8134 1809.51 93.3725L1809.81 95.0945L1753.73 112.972C1756.84 115.466 1760.76 116.74 1765.6 116.74C1770.16 116.74 1775.01 115.167 1780.18 111.839L1781.92 110.717L1795.19 132.987L1793.39 133.988C1788.94 136.459 1784.25 138.435 1779.31 139.916C1774.36 141.403 1769.6 142.16 1765.06 142.16C1755.45 142.16 1747.03 140.374 1739.85 136.723L1739.83 136.713L1739.81 136.703C1732.77 132.93 1727.38 127.679 1723.7 120.96L1723.7 120.953L1723.7 120.946C1720.04 114.14 1718.24 106.428 1718.24 97.86C1718.24 89.8164 1720.32 82.3749 1724.47 75.5771L1724.48 75.5657L1724.49 75.5544C1728.75 68.775 1734.53 63.4405 1741.78 59.5626ZM2031.38 57.56C2022.91 57.56 2015.38 59.3554 2008.74 62.9039L2008.73 62.9099C2002.2 66.3453 1997.14 71.073 1993.49 77.103C1989.97 83.1259 1988.2 89.9673 1988.2 97.68C1988.2 106.146 1989.99 113.339 1993.49 119.337C1997.14 125.364 2002.13 130.023 2008.52 133.334C2015.04 136.534 2022.52 138.16 2031.02 138.16C2039.74 138.16 2047.2 136.416 2053.45 133.008C2059.85 129.462 2064.74 124.628 2068.15 118.489C2071.57 112.331 2073.3 105.41 2073.3 97.68C2073.3 89.9499 2071.57 83.0953 2068.16 77.0652C2064.75 71.0492 2059.87 66.3324 2053.47 62.903L2053.45 62.8929L2053.43 62.8823C2047.18 59.3561 2039.85 57.56 2031.38 57.56ZM2006.86 59.3731C2014.14 55.4836 2022.33 53.56 2031.38 53.56C2040.42 53.56 2048.44 55.4806 2055.38 59.3873C2062.41 63.1572 2067.84 68.3969 2071.64 75.0948C2075.42 81.7847 2077.3 89.3302 2077.3 97.68C2077.3 106.03 2075.42 113.629 2071.64 120.431C2067.86 127.251 2062.42 132.615 2055.38 136.51L2055.37 136.516C2048.43 140.305 2040.28 142.16 2031.02 142.16C2022 142.16 2013.89 140.429 2006.73 136.915L2006.71 136.906L2006.7 136.896C1999.65 133.25 1994.1 128.076 1990.06 121.394L1990.06 121.382L1990.05 121.37C1986.12 114.65 1984.2 106.728 1984.2 97.68C1984.2 89.3185 1986.13 81.7642 1990.05 75.0703L1990.06 75.0582L1990.06 75.0463C1994.1 68.3632 1999.71 63.1354 2006.86 59.3731ZM2149.87 57.56C2143.19 57.56 2137.48 58.9386 2132.67 61.622C2127.96 64.3177 2124.26 68.0699 2121.55 72.9148L2118.67 78.0895L2116.27 61.34H2097.15V136H2118.35V105.96C2118.35 97.1784 2120.14 89.8092 2123.89 83.9966C2127.68 78.1032 2132.9 74.98 2139.43 74.98C2143.43 74.98 2146.8 76.035 2149.21 78.4458C2151.61 80.8408 2152.75 84.275 2152.95 88.4064L2152.95 88.4532V136H2174.15V79.158C2174.03 72.8761 2171.69 67.7777 2167.09 63.7207L2167.08 63.7128L2167.07 63.7048C2162.56 59.6377 2156.88 57.56 2149.87 57.56ZM2130.71 58.1336C2136.22 55.06 2142.63 53.56 2149.87 53.56C2157.73 53.56 2164.41 55.92 2169.74 60.728C2175.2 65.5461 2178.02 71.7191 2178.15 79.1049L2178.15 79.1225V140H2148.95V88.5478C2148.78 85.025 2147.82 82.713 2146.38 81.2742C2144.95 79.8451 2142.75 78.98 2139.43 78.98C2134.44 78.98 2130.41 81.2569 2127.25 86.1634C2124.03 91.1508 2122.35 97.7016 2122.35 105.96V140H2093.15V57.34H2119.74L2121.05 66.4615C2123.69 63.0866 2126.9 60.3097 2130.7 58.1435L2130.7 58.1385L2130.71 58.1336ZM2241.26 57.56C2233.31 57.56 2226.02 59.4013 2219.37 63.0712L2219.36 63.0776L2219.35 63.0839C2212.69 66.6432 2207.43 71.5028 2203.54 77.6742C2199.78 83.8334 2197.9 90.5482 2197.9 97.86C2197.9 105.848 2199.58 112.893 2202.88 119.045C2206.16 125.038 2210.96 129.742 2217.35 133.167C2223.85 136.47 2231.62 138.16 2240.72 138.16C2244.82 138.16 2249.19 137.477 2253.83 136.084C2257.82 134.886 2261.64 133.346 2265.29 131.465L2256.24 116.283C2251.2 119.21 2246.2 120.74 2241.26 120.74C2234.16 120.74 2228.36 118.325 2224.09 113.388L2222.11 111.095L2280.91 92.3519C2278.68 81.2848 2274.22 72.8737 2267.64 66.9454L2267.64 66.9399L2267.63 66.9343C2260.86 60.7245 2252.13 57.56 2241.26 57.56ZM2217.45 59.5621C2224.71 55.5565 2232.66 53.56 2241.26 53.56C2252.96 53.56 2262.7 56.9943 2270.33 63.9819C2278.05 70.9505 2282.96 80.8144 2285.17 93.3725L2285.48 95.0945L2229.39 112.972C2232.51 115.466 2236.42 116.74 2241.26 116.74C2245.83 116.74 2250.67 115.167 2255.84 111.839L2257.58 110.717L2270.86 132.987L2269.05 133.988C2264.61 136.459 2259.91 138.435 2254.98 139.916C2250.02 141.403 2245.27 142.16 2240.72 142.16C2231.12 142.16 2222.69 140.374 2215.52 136.723L2215.5 136.713L2215.48 136.703C2208.43 132.93 2203.04 127.679 2199.37 120.96L2199.36 120.953L2199.36 120.946C2195.71 114.14 2193.9 106.428 2193.9 97.86C2193.9 89.8164 2195.98 82.3749 2200.14 75.5771L2200.14 75.5657L2200.15 75.5544C2204.42 68.7747 2210.2 63.4401 2217.45 59.5621ZM1618.19 57.34H1652.81L1669.81 92.0061L1684.81 57.34H1717.6L1670.74 141.62H1667.7L1618.19 57.34ZM1625.18 61.34L1669.17 136.22L1710.8 61.34H1687.44L1670.04 101.554L1650.32 61.34H1625.18ZM1885.32 57.34H1918.08L1937.49 100.885L1957.07 57.34H1984.09L1931.59 177.8H1902.88L1922.67 133.894L1885.32 57.34ZM1891.72 61.34L1927.09 133.826L1909.07 173.8H1928.97L1977.99 61.34H1959.65L1937.47 110.675L1915.48 61.34H1891.72ZM1748.61 79.623C1752.4 75.3002 1757.47 73.18 1763.62 73.18C1768 73.18 1771.8 74.182 1774.89 76.329C1777.98 78.4805 1780.16 81.6594 1781.53 85.6984L1782.17 87.593L1743.08 100.829V96.42C1743.08 89.5903 1744.86 83.9176 1748.61 79.623ZM1763.62 77.18C1758.49 77.18 1754.56 78.8998 1751.62 82.257C1748.85 85.4226 1747.29 89.6916 1747.1 95.2447L1777.01 85.1184C1775.9 82.6826 1774.42 80.8761 1772.6 79.6111C1770.34 78.038 1767.39 77.18 1763.62 77.18ZM2224.28 79.623C2228.06 75.3002 2233.13 73.18 2239.28 73.18C2243.67 73.18 2247.47 74.182 2250.55 76.329C2253.64 78.4805 2255.83 81.6594 2257.2 85.6984L2257.84 87.593L2218.74 100.829V96.42C2218.74 89.5903 2220.52 83.9176 2224.28 79.623ZM2239.28 77.18C2234.15 77.18 2230.23 78.8998 2227.29 82.257C2224.52 85.4226 2222.95 89.6916 2222.76 95.2447L2252.67 85.1184C2251.56 82.6826 2250.08 80.8761 2248.26 79.6111C2246.01 78.038 2243.06 77.18 2239.28 77.18ZM2015.47 81.066C2019.45 76.432 2024.56 74.08 2030.66 74.08C2036.95 74.08 2042.14 76.336 2046.03 80.8886C2049.99 85.3926 2051.92 91.1058 2051.92 97.86C2051.92 104.614 2049.99 110.327 2046.03 114.831C2042.14 119.384 2036.95 121.64 2030.66 121.64C2024.57 121.64 2019.46 119.361 2015.48 114.843L2015.47 114.833L2015.46 114.822C2011.51 110.213 2009.58 104.512 2009.58 97.86C2009.58 91.2134 2011.5 85.5633 2015.47 81.066ZM2030.66 78.08C2025.72 78.08 2021.72 79.9238 2018.49 83.6816L2018.48 83.6925L2018.48 83.7033C2015.24 87.3645 2013.58 92.0311 2013.58 97.86C2013.58 103.681 2015.24 108.417 2018.48 112.206C2021.7 115.842 2025.7 117.64 2030.66 117.64C2035.88 117.64 2039.92 115.82 2042.99 112.222L2043 112.209L2043.02 112.197C2046.24 108.543 2047.92 103.82 2047.92 97.86C2047.92 91.9002 2046.24 87.1774 2043.02 83.5233L2043 83.5107L2042.99 83.4979C2039.92 79.8996 2035.88 78.08 2030.66 78.08Z" fill="#3E4373"/>
</g>
<g filter222="url(#filter2223_di)">
<path fill-rule="evenodd" clip-rule="evenodd" d="M2694.1 3.52002H2788.46V32.72H2724.2V56.98H2781.08V86.18H2724.2V110.8H2790.98V140H2694.1V3.52002ZM2698.1 7.52002V136H2786.98V114.8H2720.2V82.18H2777.08V60.98H2720.2V28.72H2784.46V7.52002H2698.1ZM3057.27 57.6497C3055.62 58.022 3053.51 58.7946 3050.9 60.0597L3050.88 60.0705L3050.86 60.0808C3047.11 61.7856 3043.37 64.2468 3039.66 67.4947C3036.11 70.7002 3033.33 74.2867 3031.29 78.2547L3028.25 84.1655L3025.74 61.34H3006.85V136H3027.87V107.22C3027.87 102.576 3028.97 98.0744 3031.14 93.7358C3033.33 89.2298 3036.49 85.5463 3040.62 82.7119C3044.82 79.8239 3049.66 78.4 3055.07 78.4C3055.48 78.4 3055.87 78.4055 3056.24 78.417L3057.27 57.6497ZM3049.18 56.4497C3053.2 54.5049 3056.65 53.38 3059.39 53.38H3061.49L3060.02 82.9219L3057.8 82.5528C3057.24 82.4599 3056.35 82.4 3055.07 82.4C3050.4 82.4 3046.36 83.6162 3042.88 86.0081C3039.33 88.4516 3036.62 91.6046 3034.73 95.4938L3034.72 95.5042L3034.72 95.5145C3032.81 99.3327 3031.87 103.228 3031.87 107.22V140H3002.85V57.34H3029.32L3030.86 71.3234C3032.62 68.8897 3034.66 66.6205 3036.99 64.5158L3037 64.5053L3037.01 64.4949C3040.97 61.0343 3045.02 58.3424 3049.18 56.4497ZM2944.6 57.56C2936.64 57.56 2929.36 59.4013 2922.7 63.0712L2922.69 63.0776L2922.68 63.0839C2916.02 66.6434 2910.77 71.5033 2906.88 77.6751C2903.12 83.834 2901.24 90.5485 2901.24 97.86C2901.24 105.849 2902.91 112.894 2906.22 119.047C2909.5 125.039 2914.3 129.743 2920.68 133.167C2927.18 136.47 2934.95 138.16 2944.06 138.16C2948.16 138.16 2952.52 137.477 2957.16 136.084C2961.16 134.886 2964.98 133.346 2968.63 131.465L2959.58 116.283C2954.54 119.21 2949.54 120.74 2944.6 120.74C2937.5 120.74 2931.7 118.325 2927.43 113.388L2925.44 111.095L2984.25 92.3519C2982.02 81.2848 2977.55 72.8737 2970.98 66.9454L2970.97 66.9399L2970.97 66.9343C2964.19 60.7245 2955.46 57.56 2944.6 57.56ZM2920.78 59.5626C2928.05 55.5566 2936 53.56 2944.6 53.56C2956.29 53.56 2966.04 56.9937 2973.66 63.9801C2981.39 70.9489 2986.29 80.8134 2988.51 93.3725L2988.81 95.0945L2932.73 112.972C2935.84 115.466 2939.76 116.74 2944.6 116.74C2949.16 116.74 2954.01 115.167 2959.18 111.839L2960.92 110.717L2974.19 132.987L2972.39 133.988C2967.94 136.459 2963.25 138.435 2958.31 139.916C2953.36 141.403 2948.6 142.16 2944.06 142.16C2934.45 142.16 2926.03 140.374 2918.85 136.723L2918.83 136.713L2918.81 136.703C2911.77 132.93 2906.38 127.679 2902.7 120.96L2902.7 120.953L2902.7 120.946C2899.04 114.14 2897.24 106.428 2897.24 97.86C2897.24 89.8164 2899.32 82.3749 2903.47 75.5771L2903.48 75.5657L2903.49 75.5544C2907.75 68.775 2913.53 63.4405 2920.78 59.5626ZM3210.38 57.56C3201.91 57.56 3194.38 59.3554 3187.74 62.9039L3187.73 62.9099C3181.2 66.3453 3176.14 71.073 3172.49 77.103C3168.97 83.1259 3167.2 89.9673 3167.2 97.68C3167.2 106.146 3168.99 113.339 3172.49 119.337C3176.14 125.364 3181.13 130.023 3187.52 133.334C3194.04 136.534 3201.52 138.16 3210.02 138.16C3218.74 138.16 3226.2 136.416 3232.45 133.008C3238.85 129.462 3243.74 124.628 3247.15 118.489C3250.57 112.331 3252.3 105.41 3252.3 97.68C3252.3 89.9499 3250.57 83.0953 3247.16 77.0652C3243.75 71.0492 3238.87 66.3324 3232.47 62.903L3232.45 62.8929L3232.43 62.8823C3226.18 59.3561 3218.85 57.56 3210.38 57.56ZM3185.86 59.3731C3193.14 55.4836 3201.33 53.56 3210.38 53.56C3219.42 53.56 3227.44 55.4806 3234.38 59.3873C3241.41 63.1572 3246.84 68.3969 3250.64 75.0948C3254.42 81.7847 3256.3 89.3302 3256.3 97.68C3256.3 106.03 3254.42 113.629 3250.64 120.431C3246.86 127.251 3241.42 132.615 3234.38 136.51L3234.37 136.516C3227.43 140.305 3219.28 142.16 3210.02 142.16C3201 142.16 3192.89 140.429 3185.73 136.915L3185.71 136.906L3185.7 136.896C3178.65 133.25 3173.1 128.076 3169.06 121.394L3169.06 121.382L3169.05 121.37C3165.12 114.65 3163.2 106.728 3163.2 97.68C3163.2 89.3185 3165.13 81.7642 3169.05 75.0703L3169.06 75.0582L3169.06 75.0463C3173.1 68.3632 3178.71 63.1354 3185.86 59.3731ZM3328.87 57.56C3322.19 57.56 3316.48 58.9386 3311.67 61.622C3306.96 64.3177 3303.26 68.0699 3300.55 72.9148L3297.67 78.0895L3295.27 61.34H3276.15V136H3297.35V105.96C3297.35 97.1784 3299.14 89.8092 3302.89 83.9966C3306.68 78.1032 3311.9 74.98 3318.43 74.98C3322.43 74.98 3325.8 76.035 3328.21 78.4458C3330.61 80.8408 3331.75 84.275 3331.95 88.4064L3331.95 88.4532V136H3353.15V79.158C3353.03 72.8761 3350.69 67.7777 3346.09 63.7207L3346.08 63.7128L3346.07 63.7048C3341.56 59.6377 3335.88 57.56 3328.87 57.56ZM3309.71 58.1336C3315.22 55.06 3321.63 53.56 3328.87 53.56C3336.73 53.56 3343.41 55.92 3348.74 60.728C3354.2 65.5461 3357.02 71.7191 3357.15 79.1049L3357.15 79.1225V140H3327.95V88.5478C3327.78 85.025 3326.82 82.713 3325.38 81.2742C3323.95 79.8451 3321.75 78.98 3318.43 78.98C3313.44 78.98 3309.41 81.2569 3306.25 86.1634C3303.03 91.1508 3301.35 97.7016 3301.35 105.96V140H3272.15V57.34H3298.74L3300.05 66.4615C3302.69 63.0866 3305.9 60.3097 3309.7 58.1435L3309.7 58.1385L3309.71 58.1336ZM3420.26 57.56C3412.31 57.56 3405.02 59.4013 3398.37 63.0712L3398.36 63.0776L3398.35 63.0839C3391.69 66.6432 3386.43 71.5028 3382.54 77.6742C3378.78 83.8334 3376.9 90.5482 3376.9 97.86C3376.9 105.848 3378.58 112.893 3381.88 119.045C3385.16 125.038 3389.96 129.742 3396.35 133.167C3402.85 136.47 3410.62 138.16 3419.72 138.16C3423.82 138.16 3428.19 137.477 3432.83 136.084C3436.82 134.886 3440.64 133.346 3444.29 131.465L3435.24 116.283C3430.2 119.21 3425.2 120.74 3420.26 120.74C3413.16 120.74 3407.36 118.325 3403.09 113.388L3401.11 111.095L3459.91 92.3519C3457.68 81.2848 3453.22 72.8737 3446.64 66.9454L3446.64 66.9399L3446.63 66.9343C3439.86 60.7245 3431.13 57.56 3420.26 57.56ZM3396.45 59.5621C3403.71 55.5565 3411.66 53.56 3420.26 53.56C3431.96 53.56 3441.7 56.9943 3449.33 63.9819C3457.05 70.9505 3461.96 80.8144 3464.17 93.3725L3464.48 95.0945L3408.39 112.972C3411.51 115.466 3415.42 116.74 3420.26 116.74C3424.83 116.74 3429.67 115.167 3434.84 111.839L3436.58 110.717L3449.86 132.987L3448.05 133.988C3443.61 136.459 3438.91 138.435 3433.98 139.916C3429.02 141.403 3424.27 142.16 3419.72 142.16C3410.12 142.16 3401.69 140.374 3394.52 136.723L3394.5 136.713L3394.48 136.703C3387.43 132.93 3382.04 127.679 3378.37 120.96L3378.36 120.953L3378.36 120.946C3374.71 114.14 3372.9 106.428 3372.9 97.86C3372.9 89.8164 3374.98 82.3749 3379.14 75.5771L3379.14 75.5657L3379.15 75.5544C3383.42 68.7747 3389.2 63.4401 3396.45 59.5621ZM2797.19 57.34H2831.81L2848.81 92.0061L2863.81 57.34H2896.6L2849.74 141.62H2846.7L2797.19 57.34ZM2804.18 61.34L2848.17 136.22L2889.8 61.34H2866.44L2849.04 101.554L2829.32 61.34H2804.18ZM3064.32 57.34H3097.08L3116.49 100.885L3136.07 57.34H3163.09L3110.59 177.8H3081.88L3101.67 133.894L3064.32 57.34ZM3070.72 61.34L3106.09 133.826L3088.07 173.8H3107.97L3156.99 61.34H3138.65L3116.47 110.675L3094.48 61.34H3070.72ZM2927.61 79.623C2931.4 75.3002 2936.47 73.18 2942.62 73.18C2947 73.18 2950.8 74.182 2953.89 76.329C2956.98 78.4805 2959.16 81.6594 2960.53 85.6984L2961.17 87.593L2922.08 100.829V96.42C2922.08 89.5903 2923.86 83.9176 2927.61 79.623ZM2942.62 77.18C2937.49 77.18 2933.56 78.8998 2930.62 82.257C2927.85 85.4226 2926.29 89.6916 2926.1 95.2447L2956.01 85.1184C2954.9 82.6826 2953.42 80.8761 2951.6 79.6111C2949.34 78.038 2946.39 77.18 2942.62 77.18ZM3403.28 79.623C3407.06 75.3002 3412.13 73.18 3418.28 73.18C3422.67 73.18 3426.47 74.182 3429.55 76.329C3432.64 78.4805 3434.83 81.6594 3436.2 85.6984L3436.84 87.593L3397.74 100.829V96.42C3397.74 89.5903 3399.52 83.9176 3403.28 79.623ZM3418.28 77.18C3413.15 77.18 3409.23 78.8998 3406.29 82.257C3403.52 85.4226 3401.95 89.6916 3401.76 95.2447L3431.67 85.1184C3430.56 82.6826 3429.08 80.8761 3427.26 79.6111C3425.01 78.038 3422.06 77.18 3418.28 77.18ZM3194.47 81.066C3198.45 76.432 3203.56 74.08 3209.66 74.08C3215.95 74.08 3221.14 76.336 3225.03 80.8886C3228.99 85.3926 3230.92 91.1058 3230.92 97.86C3230.92 104.614 3228.99 110.327 3225.03 114.831C3221.14 119.384 3215.95 121.64 3209.66 121.64C3203.57 121.64 3198.46 119.361 3194.48 114.843L3194.47 114.833L3194.46 114.822C3190.51 110.213 3188.58 104.512 3188.58 97.86C3188.58 91.2134 3190.5 85.5633 3194.47 81.066ZM3209.66 78.08C3204.72 78.08 3200.72 79.9238 3197.49 83.6816L3197.48 83.6925L3197.48 83.7033C3194.24 87.3645 3192.58 92.0311 3192.58 97.86C3192.58 103.681 3194.24 108.417 3197.48 112.206C3200.7 115.842 3204.7 117.64 3209.66 117.64C3214.88 117.64 3218.92 115.82 3221.99 112.222L3222 112.209L3222.02 112.197C3225.24 108.543 3226.92 103.82 3226.92 97.86C3226.92 91.9002 3225.24 87.1774 3222.02 83.5233L3222 83.5107L3221.99 83.4979C3218.92 79.8996 3214.88 78.08 3209.66 78.08Z" fill="#3E4373"/>
</g>
<g filter222="url(#filter2224_di)">
<path fill-rule="evenodd" clip-rule="evenodd" d="M30.2001 85.98H79.3401V60.78H30.2001V30.72H86.9001V5.52002H4.1001V138H30.2001V85.98ZM26.2001 134V81.98H75.3401V64.78H26.2001V26.72H82.9001V9.52002H8.1001V134H26.2001ZM116.163 61.14C109.323 64.74 103.983 69.72 100.143 76.08C96.4228 82.44 94.5628 89.64 94.5628 97.68C94.5628 106.44 96.4228 114 100.143 120.36C103.983 126.72 109.263 131.64 115.983 135.12C122.823 138.48 130.623 140.16 139.383 140.16C148.383 140.16 156.183 138.36 162.783 134.76C169.503 131.04 174.663 125.94 178.263 119.46C181.863 112.98 183.663 105.72 183.663 97.68C183.663 89.64 181.863 82.44 178.263 76.08C174.663 69.72 169.503 64.74 162.783 61.14C156.183 57.42 148.503 55.56 139.743 55.56C130.983 55.56 123.123 57.42 116.163 61.14ZM160.857 131.254C166.941 127.884 171.545 123.315 174.766 117.517C178.008 111.681 179.663 105.099 179.663 97.68C179.663 90.2597 178.008 83.7506 174.782 78.0504C171.571 72.3784 166.977 67.9247 160.894 64.6659L160.856 64.6457L160.819 64.6246C154.906 61.2921 147.923 59.56 139.743 59.56C131.567 59.56 124.366 61.2908 118.048 64.6678L118.037 64.6738L118.026 64.6797C111.812 67.9502 107.028 72.4248 103.581 78.1238C100.261 83.8102 98.5628 90.2936 98.5628 97.68C98.5628 105.853 100.291 112.68 103.581 118.316C107.024 124.009 111.733 128.407 117.784 131.548C123.99 134.589 131.159 136.16 139.383 136.16C147.84 136.16 154.952 134.472 160.857 131.254ZM122.324 116.145L122.306 116.123C118.004 111.105 115.943 104.925 115.943 97.86C115.943 90.8082 117.998 84.669 122.324 79.7551C126.68 74.685 132.342 72.08 139.023 72.08C145.844 72.08 151.605 74.5526 155.905 79.579C160.241 84.5066 162.283 90.7121 162.283 97.86C162.283 105.008 160.241 111.214 155.904 116.141C151.605 121.168 145.844 123.64 139.023 123.64C132.374 123.64 126.715 121.121 122.343 116.167L122.324 116.145ZM152.883 113.52C156.483 109.44 158.283 104.22 158.283 97.86C158.283 91.5 156.483 86.28 152.883 82.2C149.403 78.12 144.783 76.08 139.023 76.08C133.503 76.08 128.943 78.18 125.343 82.38C121.743 86.46 119.943 91.62 119.943 97.86C119.943 104.1 121.743 109.32 125.343 113.52C128.943 117.6 133.503 119.64 139.023 119.64C144.783 119.64 149.403 117.6 152.883 113.52ZM225.652 90.991L222.611 63.34H207.515V134H224.535V107.22C224.535 102.252 225.712 97.4491 228.007 92.8518C230.348 88.0397 233.743 84.0926 238.149 81.0639C242.516 78.0614 247.509 76.5332 252.998 76.4084L253.799 60.3985C252.824 60.7648 251.708 61.2444 250.44 61.8593L250.395 61.8809L250.35 61.9015C246.808 63.5113 243.24 65.8537 239.653 68.9894C236.28 72.0404 233.653 75.4332 231.732 79.1694L225.652 90.991ZM236.995 66C240.835 62.64 244.735 60.06 248.695 58.26C250.679 57.2981 252.452 56.5772 254.014 56.0972C255.57 55.6191 256.917 55.38 258.055 55.38L256.795 80.58C256.075 80.46 255.055 80.4 253.735 80.4C253.579 80.4 253.424 80.4013 253.27 80.4038C248.421 80.4827 244.136 81.8015 240.415 84.36C236.575 87 233.635 90.42 231.595 94.62C229.555 98.7 228.535 102.9 228.535 107.22V138H203.515V59.34H226.195L228.175 77.34C229.155 75.4336 230.296 73.6136 231.598 71.8802C233.165 69.7949 234.963 67.8349 236.995 66Z" fill="#3E4373"/>
</g>
<g filter222="url(#filter2225_di)">
<path fill-rule="evenodd" clip-rule="evenodd" d="M336.1 3.52002H430.46V32.72H366.2V56.98H423.08V86.18H366.2V110.8H432.98V140H336.1V3.52002ZM340.1 7.52002V136H428.98V114.8H362.2V82.18H419.08V60.98H362.2V28.72H426.46V7.52002H340.1ZM699.275 57.6497C697.622 58.022 695.513 58.7946 692.903 60.0597L692.881 60.0705L692.858 60.0808C689.108 61.7856 685.374 64.2468 681.66 67.4947C678.113 70.7002 675.33 74.2867 673.289 78.2547L670.249 84.1655L667.739 61.34H648.851V136H669.871V107.22C669.871 102.576 670.969 98.0744 673.137 93.7358C675.328 89.2298 678.495 85.5463 682.618 82.7119C686.819 79.8239 691.661 78.4 697.071 78.4C697.479 78.4 697.868 78.4055 698.236 78.417L699.275 57.6497ZM691.18 56.4497C695.195 54.5049 698.646 53.38 701.391 53.38H703.493L702.016 82.9219L699.802 82.5528C699.244 82.4599 698.353 82.4 697.071 82.4C692.401 82.4 688.363 83.6162 684.884 86.0081C681.33 88.4516 678.619 91.6046 676.73 95.4938L676.725 95.5042L676.72 95.5145C674.81 99.3327 673.871 103.228 673.871 107.22V140H644.851V57.34H671.323L672.861 71.3234C674.615 68.8897 676.66 66.6205 678.99 64.5158L679.002 64.5053L679.014 64.4949C682.969 61.0343 687.023 58.3424 691.18 56.4497ZM586.599 57.56C578.642 57.56 571.356 59.4013 564.705 63.0712L564.693 63.0776L564.681 63.0839C558.022 66.6434 552.766 71.5033 548.878 77.6751C545.117 83.834 543.239 90.5485 543.239 97.86C543.239 105.849 544.914 112.894 548.217 119.047C551.497 125.039 556.3 129.743 562.684 133.167C569.184 136.47 576.954 138.16 586.059 138.16C590.156 138.16 594.521 137.477 599.164 136.084C603.159 134.886 606.98 133.346 610.628 131.465L601.577 116.283C596.539 119.21 591.539 120.74 586.599 120.74C579.499 120.74 573.696 118.325 569.426 113.388L567.443 111.095L626.245 92.3519C624.016 81.2848 619.554 72.8737 612.979 66.9454L612.973 66.9399L612.967 66.9343C606.193 60.7245 597.461 57.56 586.599 57.56ZM562.784 59.5626C570.049 55.5566 578 53.56 586.599 53.56C598.293 53.56 608.039 56.9937 615.664 63.9801C623.39 70.9489 628.292 80.8134 630.508 93.3725L630.812 95.0945L574.727 112.972C577.843 115.466 581.76 116.74 586.599 116.74C591.161 116.74 596.01 115.167 601.175 111.839L602.916 110.717L616.192 132.987L614.39 133.988C609.942 136.459 605.249 138.435 600.313 139.916C595.356 141.403 590.601 142.16 586.059 142.16C576.452 142.16 568.028 140.374 560.852 136.723L560.833 136.713L560.814 136.703C553.77 132.93 548.38 127.679 544.704 120.96L544.7 120.953L544.697 120.946C541.042 114.14 539.239 106.428 539.239 97.86C539.239 89.8164 541.318 82.3749 545.472 75.5771L545.479 75.5657L545.486 75.5544C549.755 68.775 555.533 63.4405 562.784 59.5626ZM852.376 57.56C843.908 57.56 836.377 59.3554 829.738 62.9039L829.727 62.9099C823.2 66.3453 818.138 71.073 814.494 77.103C810.975 83.1259 809.196 89.9673 809.196 97.68C809.196 106.146 810.99 113.339 814.494 119.337C818.136 125.364 823.13 130.023 829.516 133.334C836.039 136.534 843.524 138.16 852.016 138.16C860.744 138.16 868.2 136.416 874.452 133.008C880.854 129.462 885.737 124.628 889.147 118.489C892.568 112.331 894.296 105.41 894.296 97.68C894.296 89.9499 892.568 83.0953 889.155 77.0652C885.75 71.0492 880.873 66.3324 874.471 62.903L874.452 62.8929L874.434 62.8823C868.177 59.3561 860.846 57.56 852.376 57.56ZM827.859 59.3731C835.138 55.4836 843.326 53.56 852.376 53.56C861.417 53.56 869.44 55.4806 876.379 59.3873C883.408 63.1572 888.845 68.3969 892.636 75.0948C896.423 81.7847 898.296 89.3302 898.296 97.68C898.296 106.03 896.423 113.629 892.644 120.431C888.855 127.251 883.419 132.615 876.384 136.51L876.373 136.516C869.427 140.305 861.284 142.16 852.016 142.16C842.996 142.16 834.887 140.429 827.734 136.915L827.715 136.906L827.696 136.896C820.655 133.25 815.098 128.076 811.063 121.394L811.056 121.382L811.049 121.37C807.119 114.65 805.196 106.728 805.196 97.68C805.196 89.3185 807.134 81.7642 811.049 75.0703L811.056 75.0582L811.063 75.0463C815.099 68.3632 820.712 63.1354 827.859 59.3731ZM970.868 57.56C964.192 57.56 958.482 58.9386 953.67 61.622C948.957 64.3177 945.258 68.0699 942.554 72.9148L939.666 78.0895L937.273 61.34H918.148V136H939.348V105.96C939.348 97.1784 941.141 89.8092 944.886 83.9966C948.685 78.1032 953.9 74.98 960.428 74.98C964.428 74.98 967.801 76.035 970.212 78.4458C972.607 80.8408 973.752 84.275 973.945 88.4064L973.948 88.4532V136H995.148V79.158C995.033 72.8761 992.691 67.7777 988.086 63.7207L988.077 63.7128L988.068 63.7048C983.561 59.6377 977.878 57.56 970.868 57.56ZM951.713 58.1336C957.22 55.06 963.627 53.56 970.868 53.56C978.733 53.56 985.408 55.92 990.74 60.728C996.204 65.5461 999.018 71.7191 999.147 79.1049L999.148 79.1225V140H969.948V88.5478C969.775 85.025 968.822 82.713 967.383 81.2742C965.954 79.8451 963.747 78.98 960.428 78.98C955.435 78.98 951.411 81.2569 948.249 86.1634C945.035 91.1508 943.348 97.7016 943.348 105.96V140H914.148V57.34H940.742L942.045 66.4615C944.685 63.0866 947.905 60.3097 951.695 58.1435L951.704 58.1385L951.713 58.1336ZM1062.26 57.56C1054.31 57.56 1047.02 59.4013 1040.37 63.0712L1040.36 63.0776L1040.35 63.0839C1033.69 66.6432 1028.43 71.5028 1024.54 77.6742C1020.78 83.8334 1018.9 90.5482 1018.9 97.86C1018.9 105.848 1020.58 112.893 1023.88 119.045C1027.16 125.038 1031.96 129.742 1038.35 133.167C1044.85 136.47 1052.62 138.16 1061.72 138.16C1065.82 138.16 1070.19 137.477 1074.83 136.084C1078.82 134.886 1082.64 133.346 1086.29 131.465L1077.24 116.283C1072.2 119.21 1067.2 120.74 1062.26 120.74C1055.16 120.74 1049.36 118.325 1045.09 113.388L1043.11 111.095L1101.91 92.3519C1099.68 81.2848 1095.22 72.8737 1088.64 66.9454L1088.64 66.9399L1088.63 66.9343C1081.86 60.7245 1073.13 57.56 1062.26 57.56ZM1038.45 59.5621C1045.71 55.5565 1053.66 53.56 1062.26 53.56C1073.96 53.56 1083.7 56.9943 1091.33 63.9819C1099.05 70.9505 1103.96 80.8144 1106.17 93.3725L1106.48 95.0945L1050.39 112.972C1053.51 115.466 1057.42 116.74 1062.26 116.74C1066.83 116.74 1071.67 115.167 1076.84 111.839L1078.58 110.717L1091.86 132.987L1090.05 133.988C1085.61 136.459 1080.91 138.435 1075.98 139.916C1071.02 141.403 1066.27 142.16 1061.72 142.16C1052.12 142.16 1043.69 140.374 1036.52 136.723L1036.5 136.713L1036.48 136.703C1029.43 132.93 1024.04 127.679 1020.37 120.96L1020.36 120.953L1020.36 120.946C1016.71 114.14 1014.9 106.428 1014.9 97.86C1014.9 89.8164 1016.98 82.3749 1021.14 75.5771L1021.14 75.5657L1021.15 75.5544C1025.42 68.7747 1031.2 63.4401 1038.45 59.5621ZM439.188 57.34H473.81L490.809 92.0061L505.809 57.34H538.603L491.739 141.62H488.698L439.188 57.34ZM446.177 61.34L490.165 136.22L531.802 61.34H508.437L491.036 101.554L471.316 61.34H446.177ZM706.318 57.34H739.077L758.487 100.885L778.065 57.34H805.092L752.589 177.8H723.884L743.67 133.894L706.318 57.34ZM712.72 61.34L748.088 133.826L730.074 173.8H749.969L798.985 61.34H780.652L758.471 110.675L736.481 61.34H712.72ZM569.613 79.623C573.396 75.3002 578.47 73.18 584.619 73.18C589.003 73.18 592.805 74.182 595.887 76.329C598.975 78.4805 601.165 81.6594 602.533 85.6984L603.175 87.593L564.079 100.829V96.42C564.079 89.5903 565.856 83.9176 569.613 79.623ZM584.619 77.18C579.487 77.18 575.561 78.8998 572.624 82.257C569.854 85.4226 568.29 89.6916 568.098 95.2447L598.01 85.1184C596.9 82.6826 595.416 80.8761 593.6 79.6111C591.342 78.038 588.394 77.18 584.619 77.18ZM1045.28 79.623C1049.06 75.3002 1054.13 73.18 1060.28 73.18C1064.67 73.18 1068.47 74.182 1071.55 76.329C1074.64 78.4805 1076.83 81.6594 1078.2 85.6984L1078.84 87.593L1039.74 100.829V96.42C1039.74 89.5903 1041.52 83.9176 1045.28 79.623ZM1060.28 77.18C1055.15 77.18 1051.23 78.8998 1048.29 82.257C1045.52 85.4226 1043.95 89.6916 1043.76 95.2447L1073.67 85.1184C1072.56 82.6826 1071.08 80.8761 1069.26 79.6111C1067.01 78.038 1064.06 77.18 1060.28 77.18ZM836.468 81.066C840.445 76.432 845.556 74.08 851.656 74.08C857.946 74.08 863.136 76.336 867.026 80.8886C870.994 85.3926 872.916 91.1058 872.916 97.86C872.916 104.614 870.994 110.327 867.026 114.831C863.136 119.384 857.946 121.64 851.656 121.64C845.571 121.64 840.462 119.361 836.476 114.843L836.466 114.833L836.457 114.822C832.506 110.213 830.576 104.512 830.576 97.86C830.576 91.2134 832.504 85.5633 836.468 81.066ZM851.656 78.08C846.721 78.08 842.715 79.9238 839.494 83.6816L839.485 83.6925L839.475 83.7033C836.245 87.3645 834.576 92.0311 834.576 97.86C834.576 103.681 836.241 108.417 839.483 112.206C842.696 115.842 846.704 117.64 851.656 117.64C856.879 117.64 860.925 115.82 863.994 112.222L864.005 112.209L864.016 112.197C867.24 108.543 868.916 103.82 868.916 97.86C868.916 91.9002 867.24 87.1774 864.016 83.5233L864.005 83.5107L863.994 83.4979C860.925 79.8996 856.879 78.08 851.656 78.08Z" fill="#3E4373"/>
</g>
<defs>
<filter222 id="filter2220_di" x="1177.1" y="0.52002" width="266.057" height="146.64" filter222Units="userSpaceOnUse" color-interpolation-filter222s="sRGB">
<feFlood flood-opacity="0" result="BackgroundImageFix"/>
<feColorMatrix in="SourceAlpha" type="matrix" values="0 0 0 0 0 0 0 0 0 0 0 0 0 0 0 0 0 0 127 0"/>
<feOffset dy="1"/>
<feGaussianBlur stdDeviation="2"/>
<feColorMatrix type="matrix" values="0 0 0 0 0 0 0 0 0 0 0 0 0 0 0 0 0 0 0.14 0"/>
<feBlend mode="normal" in2="BackgroundImageFix" result="effect1_dropShadow"/>
<feBlend mode="normal" in="SourceGraphic" in2="effect1_dropShadow" result="shape"/>
<feColorMatrix in="SourceAlpha" type="matrix" values="0 0 0 0 0 0 0 0 0 0 0 0 0 0 0 0 0 0 127 0" result="hardAlpha"/>
<feOffset dy="1"/>
<feGaussianBlur stdDeviation="0.5"/>
<feComposite in2="hardAlpha" operator="arithmetic" k2="-1" k3="1"/>
<feColorMatrix type="matrix" values="0 0 0 0 0.278431 0 0 0 0 0.301961 0 0 0 0 0.521569 0 0 0 0.5 0"/>
<feBlend mode="normal" in2="shape" result="effect2_innerShadow"/>
</filter222>
<filter222 id="filter2221_di" x="2356.1" y="0.52002" width="266.057" height="146.64" filter222Units="userSpaceOnUse" color-interpolation-filter222s="sRGB">
<feFlood flood-opacity="0" result="BackgroundImageFix"/>
<feColorMatrix in="SourceAlpha" type="matrix" values="0 0 0 0 0 0 0 0 0 0 0 0 0 0 0 0 0 0 127 0"/>
<feOffset dy="1"/>
<feGaussianBlur stdDeviation="2"/>
<feColorMatrix type="matrix" values="0 0 0 0 0 0 0 0 0 0 0 0 0 0 0 0 0 0 0.14 0"/>
<feBlend mode="normal" in2="BackgroundImageFix" result="effect1_dropShadow"/>
<feBlend mode="normal" in="SourceGraphic" in2="effect1_dropShadow" result="shape"/>
<feColorMatrix in="SourceAlpha" type="matrix" values="0 0 0 0 0 0 0 0 0 0 0 0 0 0 0 0 0 0 127 0" result="hardAlpha"/>
<feOffset dy="1"/>
<feGaussianBlur stdDeviation="0.5"/>
<feComposite in2="hardAlpha" operator="arithmetic" k2="-1" k3="1"/>
<feColorMatrix type="matrix" values="0 0 0 0 0.278431 0 0 0 0 0.301961 0 0 0 0 0.521569 0 0 0 0.5 0"/>
<feBlend mode="normal" in2="shape" result="effect2_innerShadow"/>
</filter222>
<filter222 id="filter2222_di" x="1511.1" y="0.52002" width="778.376" height="182.28" filter222Units="userSpaceOnUse" color-interpolation-filter222s="sRGB">
<feFlood flood-opacity="0" result="BackgroundImageFix"/>
<feColorMatrix in="SourceAlpha" type="matrix" values="0 0 0 0 0 0 0 0 0 0 0 0 0 0 0 0 0 0 127 0"/>
<feOffset dy="1"/>
<feGaussianBlur stdDeviation="2"/>
<feColorMatrix type="matrix" values="0 0 0 0 0 0 0 0 0 0 0 0 0 0 0 0 0 0 0.14 0"/>
<feBlend mode="normal" in2="BackgroundImageFix" result="effect1_dropShadow"/>
<feBlend mode="normal" in="SourceGraphic" in2="effect1_dropShadow" result="shape"/>
<feColorMatrix in="SourceAlpha" type="matrix" values="0 0 0 0 0 0 0 0 0 0 0 0 0 0 0 0 0 0 127 0" result="hardAlpha"/>
<feOffset dy="1"/>
<feGaussianBlur stdDeviation="0.5"/>
<feComposite in2="hardAlpha" operator="arithmetic" k2="-1" k3="1"/>
<feColorMatrix type="matrix" values="0 0 0 0 0.278431 0 0 0 0 0.301961 0 0 0 0 0.521569 0 0 0 0.5 0"/>
<feBlend mode="normal" in2="shape" result="effect2_innerShadow"/>
</filter222>
<filter222 id="filter2223_di" x="2690.1" y="0.52002" width="778.376" height="182.28" filter222Units="userSpaceOnUse" color-interpolation-filter222s="sRGB">
<feFlood flood-opacity="0" result="BackgroundImageFix"/>
<feColorMatrix in="SourceAlpha" type="matrix" values="0 0 0 0 0 0 0 0 0 0 0 0 0 0 0 0 0 0 127 0"/>
<feOffset dy="1"/>
<feGaussianBlur stdDeviation="2"/>
<feColorMatrix type="matrix" values="0 0 0 0 0 0 0 0 0 0 0 0 0 0 0 0 0 0 0.14 0"/>
<feBlend mode="normal" in2="BackgroundImageFix" result="effect1_dropShadow"/>
<feBlend mode="normal" in="SourceGraphic" in2="effect1_dropShadow" result="shape"/>
<feColorMatrix in="SourceAlpha" type="matrix" values="0 0 0 0 0 0 0 0 0 0 0 0 0 0 0 0 0 0 127 0" result="hardAlpha"/>
<feOffset dy="1"/>
<feGaussianBlur stdDeviation="0.5"/>
<feComposite in2="hardAlpha" operator="arithmetic" k2="-1" k3="1"/>
<feColorMatrix type="matrix" values="0 0 0 0 0.278431 0 0 0 0 0.301961 0 0 0 0 0.521569 0 0 0 0.5 0"/>
<feBlend mode="normal" in2="shape" result="effect2_innerShadow"/>
</filter222>
<filter222 id="filter2224_di" x="0.100098" y="2.52002" width="261.955" height="142.64" filter222Units="userSpaceOnUse" color-interpolation-filter222s="sRGB">
<feFlood flood-opacity="0" result="BackgroundImageFix"/>
<feColorMatrix in="SourceAlpha" type="matrix" values="0 0 0 0 0 0 0 0 0 0 0 0 0 0 0 0 0 0 127 0"/>
<feOffset dy="1"/>
<feGaussianBlur stdDeviation="2"/>
<feColorMatrix type="matrix" values="0 0 0 0 0 0 0 0 0 0 0 0 0 0 0 0 0 0 0.14 0"/>
<feBlend mode="normal" in2="BackgroundImageFix" result="effect1_dropShadow"/>
<feBlend mode="normal" in="SourceGraphic" in2="effect1_dropShadow" result="shape"/>
<feColorMatrix in="SourceAlpha" type="matrix" values="0 0 0 0 0 0 0 0 0 0 0 0 0 0 0 0 0 0 127 0" result="hardAlpha"/>
<feOffset dy="1"/>
<feGaussianBlur stdDeviation="0.5"/>
<feComposite in2="hardAlpha" operator="arithmetic" k2="-1" k3="1"/>
<feColorMatrix type="matrix" values="0 0 0 0 0.278431 0 0 0 0 0.301961 0 0 0 0 0.521569 0 0 0 0.5 0"/>
<feBlend mode="normal" in2="shape" result="effect2_innerShadow"/>
</filter222>
<filter222 id="filter2225_di" x="332.1" y="0.52002" width="778.376" height="182.28" filter222Units="userSpaceOnUse" color-interpolation-filter222s="sRGB">
<feFlood flood-opacity="0" result="BackgroundImageFix"/>
<feColorMatrix in="SourceAlpha" type="matrix" values="0 0 0 0 0 0 0 0 0 0 0 0 0 0 0 0 0 0 127 0"/>
<feOffset dy="1"/>
<feGaussianBlur stdDeviation="2"/>
<feColorMatrix type="matrix" values="0 0 0 0 0 0 0 0 0 0 0 0 0 0 0 0 0 0 0.14 0"/>
<feBlend mode="normal" in2="BackgroundImageFix" result="effect1_dropShadow"/>
<feBlend mode="normal" in="SourceGraphic" in2="effect1_dropShadow" result="shape"/>
<feColorMatrix in="SourceAlpha" type="matrix" values="0 0 0 0 0 0 0 0 0 0 0 0 0 0 0 0 0 0 127 0" result="hardAlpha"/>
<feOffset dy="1"/>
<feGaussianBlur stdDeviation="0.5"/>
<feComposite in2="hardAlpha" operator="arithmetic" k2="-1" k3="1"/>
<feColorMatrix type="matrix" values="0 0 0 0 0.278431 0 0 0 0 0.301961 0 0 0 0 0.521569 0 0 0 0.5 0"/>
<feBlend mode="normal" in2="shape" result="effect2_innerShadow"/>
</filter222>
</defs>
</svg>
