<svg width="14" height="18" viewBox="0 0 14 18" fill="none" xmlns="http://www.w3.org/2000/svg">
<path d="M9.73838 6.00117C10.5342 6.00117 11.2974 5.68504 11.8601 5.12232C12.4228 4.5596 12.739 3.79639 12.739 3.00059C12.739 2.20478 12.4228 1.44157 11.8601 0.878851C11.2974 0.316132 10.5342 0 9.73838 0L3.73721 0C2.94187 0 2.17911 0.315947 1.61672 0.878336C1.05433 1.44073 0.73838 2.20349 0.73838 2.99883C0.73838 3.79417 1.05433 4.55693 1.61672 5.11932C2.17911 5.68171 2.94187 5.99766 3.73721 5.99766C2.9414 5.99766 2.17819 6.31379 1.61547 6.87651C1.05275 7.43923 0.736622 8.20244 0.736622 8.99824C0.736622 9.79405 1.05275 10.5573 1.61547 11.12C2.17819 11.6827 2.9414 11.9988 3.73721 11.9988C3.14375 11.9985 2.56351 12.1741 2.06988 12.5035C1.57624 12.833 1.19137 13.3014 0.963944 13.8495C0.736515 14.3977 0.67674 15.0009 0.792178 15.5831C0.907615 16.1652 1.19308 16.7 1.61247 17.1199C2.03187 17.5398 2.56635 17.8259 3.14834 17.942C3.73033 18.0581 4.33368 17.9991 4.8821 17.7723C5.43052 17.5455 5.89937 17.1612 6.22937 16.6679C6.55937 16.1747 6.73569 15.5946 6.73604 15.0012V6.00117H9.73838ZM9.73838 6.00117C9.14527 6.00117 8.56547 6.17705 8.07232 6.50657C7.57917 6.83608 7.1948 7.30443 6.96782 7.8524C6.74085 8.40036 6.68146 9.00333 6.79717 9.58504C6.91288 10.1668 7.19849 10.7011 7.61789 11.1205C8.03728 11.5399 8.57162 11.8255 9.15334 11.9412C9.73505 12.0569 10.338 11.9975 10.886 11.7706C11.4339 11.5436 11.9023 11.1592 12.2318 10.6661C12.5613 10.1729 12.7372 9.59311 12.7372 9C12.7371 8.20469 12.4211 7.44198 11.8588 6.87961C11.2964 6.31724 10.5337 6.00126 9.73838 6.00117Z" fill="#5D6398"/>
</svg>
