<svg width="21" height="20" viewBox="0 0 21 20" fill="none" xmlns="http://www.w3.org/2000/svg">
<path d="M11.3767 15.4388L9.77108 16.4604L7.74413 13.2739C7.32562 14.6075 6.62936 15.8088 5.70957 16.9122C5.3272 17.3716 4.92961 17.7854 4.4721 18.22C4.32467 18.3599 3.73494 18.902 3.63697 19L2.29201 17.655C2.42422 17.5228 3.04058 16.9559 3.16233 16.8408C3.57134 16.4528 3.91852 16.0894 4.24857 15.6937C5.45276 14.2498 6.17945 12.6405 6.28123 10.7181H2.4889V8.81579H6.29359V5.0111H5.46798C4.81262 6.21528 3.98605 7.1246 2.97781 7.7286L2 6.09829C3.32689 5.3012 4.30659 3.62143 4.88966 1L6.74635 1.41281C6.61319 2.0149 6.45815 2.5799 6.28123 3.10875H10.5739V5.0111H8.19594V8.81579H10.5739V10.7181H8.37191L11.3767 15.4388V15.4388ZM15.0273 15.3722L16.0888 14.5228H17.7077V5.0111H13.903V14.5228H14.603L15.0273 15.3722V15.3722ZM12.0006 3.10875H19.61V16.4252H16.7565L14.3786 18.3275L13.4274 16.4252H12.0006V3.10875Z" fill="#5D6398"/>
</svg>
