<svg width="20" height="20" viewBox="0 0 20 20" fill="none" xmlns="http://www.w3.org/2000/svg">
<path fill-rule="evenodd" clip-rule="evenodd" d="M18.9998 17.7017C18.9998 18.2504 18.5549 18.6952 18.0064 18.6952H13.42V11.725H15.7597L16.11 9.00849H13.42V7.27404C13.42 6.48753 13.6384 5.95155 14.7663 5.95155L16.2048 5.95091V3.52129C15.9559 3.48818 15.102 3.41421 14.1087 3.41421C12.0346 3.41421 10.6147 4.68017 10.6147 7.0051V9.00849H8.26899V11.725H10.6147V18.6952H1.99343C1.44465 18.6952 1 18.2504 1 17.7017V1.68875C1 1.14003 1.44465 0.695312 1.99343 0.695312H18.0064C18.5549 0.695312 18.9998 1.14003 18.9998 1.68875V17.7017ZM10.6147 18.6952V18.6955H13.42V18.6952H10.6147Z" fill="#5D6398"/>
</svg>
