<svg width="21" height="20" viewBox="0 0 21 20" fill="none" xmlns="http://www.w3.org/2000/svg">
<path d="M9.27169 10.7178C7.69534 10.3081 5.91528 11.0928 5.23011 12.4817C4.53337 13.8983 5.20697 15.47 6.79952 15.9839C8.44764 16.5163 10.392 15.7015 11.068 14.1715C11.7323 12.6761 10.9013 11.1391 9.27169 10.7178V10.7178ZM8.06802 14.3335C7.74858 14.845 7.06109 15.0673 6.5449 14.8335C6.03565 14.602 5.88519 14.0071 6.20694 13.5094C6.52407 13.0141 7.18609 12.7919 7.69765 13.0071C8.21616 13.227 8.38282 13.8173 8.06802 14.3335V14.3335ZM9.12123 12.9793C9.00549 13.1784 8.74856 13.2733 8.54949 13.19C8.35273 13.109 8.29023 12.8868 8.40134 12.6923C8.51708 12.4979 8.76244 12.4053 8.9592 12.4817C9.16058 12.5557 9.23234 12.7803 9.12123 12.9793V12.9793ZM16.8641 8.41463C17.2113 8.52574 17.5817 8.33593 17.6951 7.99103C17.9683 7.14383 17.797 6.17625 17.1581 5.46794C16.8548 5.13184 16.4684 4.88153 16.0377 4.74215C15.607 4.60278 15.1471 4.57927 14.7044 4.67397C14.6197 4.69198 14.5394 4.72651 14.4681 4.7756C14.3968 4.82468 14.3358 4.88736 14.2887 4.96003C14.2416 5.0327 14.2093 5.11395 14.1937 5.19911C14.178 5.28428 14.1793 5.3717 14.1975 5.45636C14.2156 5.54094 14.2502 5.62112 14.2994 5.69229C14.3485 5.76346 14.4112 5.82423 14.4839 5.87111C14.5566 5.918 14.6379 5.95007 14.723 5.96549C14.8081 5.98091 14.8954 5.97938 14.9799 5.96098C15.4058 5.87071 15.8665 6.00265 16.1813 6.34755C16.3299 6.5118 16.4324 6.71247 16.4783 6.92918C16.5243 7.14588 16.512 7.37088 16.4428 7.58132C16.4155 7.66368 16.4048 7.75063 16.4112 7.83717C16.4176 7.9237 16.4411 8.00811 16.4803 8.08555C16.5194 8.16298 16.5735 8.23192 16.6393 8.2884C16.7052 8.34487 16.7816 8.38777 16.8641 8.41463V8.41463ZM19.1743 3.64622C17.8618 2.19023 15.9243 1.63469 14.135 2.01431C14.0365 2.03513 13.9431 2.07523 13.8602 2.1323C13.7772 2.18936 13.7064 2.26227 13.6518 2.34682C13.5971 2.43138 13.5597 2.5259 13.5418 2.62496C13.5238 2.72402 13.5256 2.82565 13.5471 2.92401C13.568 3.02251 13.6082 3.11591 13.6652 3.19889C13.7223 3.28187 13.7952 3.35279 13.8796 3.4076C13.9641 3.46242 14.0586 3.50005 14.1576 3.51835C14.2566 3.53666 14.3583 3.53527 14.4568 3.51427C15.7299 3.24345 17.1049 3.63927 18.04 4.67397C18.9729 5.70867 19.2252 7.12068 18.827 8.35676C18.6974 8.75953 18.9173 9.19008 19.3201 9.32202C19.7229 9.45165 20.1534 9.23174 20.283 8.83129V8.82897C20.8409 7.08364 20.489 5.09989 19.1743 3.64622V3.64622ZM15.5609 9.69933C15.2785 9.61599 15.0864 9.55812 15.2345 9.18776C15.554 8.38454 15.5864 7.69011 15.2415 7.19706C14.5933 6.26884 12.8156 6.31977 10.7786 7.1716C10.7786 7.1716 10.1397 7.45169 10.3018 6.94476C10.6143 5.93783 10.568 5.09526 10.0795 4.60684C8.9754 3.50039 6.03797 4.64851 3.51719 7.16697C1.63297 9.05351 0.538086 11.0535 0.538086 12.7826C0.538086 16.0904 4.77873 18.1019 8.92911 18.1019C14.3688 18.1019 17.9868 14.9423 17.9868 12.4307C17.9868 10.9146 16.709 10.0558 15.5609 9.69933ZM8.94068 16.9168C5.63057 17.2431 2.77183 15.7478 2.55656 13.5719C2.34129 11.3984 4.85281 9.37063 8.16292 9.04425C11.473 8.71555 14.3318 10.2132 14.547 12.3868C14.76 14.5603 12.2508 16.5881 8.94068 16.9168Z" fill="#5D6398"/>
</svg>
