<svg width="21" height="20" viewBox="0 0 21 20" fill="none" xmlns="http://www.w3.org/2000/svg">
<g clip-path="url(#clip0)">
<path d="M16.3611 11.7373C16.5768 11.7345 16.7828 11.6475 16.9353 11.495C17.0878 11.3426 17.1747 11.1365 17.1775 10.9209C17.1775 10.4682 16.8148 10.1046 16.3611 10.1046C15.9075 10.1046 15.5448 10.4682 15.5448 10.9209C15.5448 11.3755 15.9084 11.7373 16.3611 11.7373ZM12.3384 11.7373C12.554 11.7345 12.76 11.6475 12.9125 11.495C13.065 11.3426 13.1519 11.1365 13.1548 10.9209C13.1548 10.4682 12.7911 10.1046 12.3384 10.1046C11.8839 10.1046 11.522 10.4682 11.522 10.9209C11.522 11.3755 11.8848 11.7373 12.3384 11.7373ZM18.3084 16.3191C18.2502 16.3515 18.2036 16.4014 18.1756 16.4619C18.1475 16.5223 18.1392 16.5901 18.152 16.6555C18.152 16.6991 18.152 16.7436 18.1748 16.7891C18.2639 17.1682 18.442 17.7718 18.442 17.7946C18.442 17.8609 18.4648 17.9055 18.4648 17.9509C18.4648 17.9773 18.4596 18.0033 18.4495 18.0277C18.4393 18.052 18.4245 18.0741 18.4059 18.0927C18.3872 18.1112 18.365 18.126 18.3407 18.136C18.3163 18.146 18.2902 18.151 18.2639 18.1509C18.2184 18.1509 18.1966 18.1291 18.152 18.1073L16.8348 17.3473C16.7386 17.2943 16.6317 17.2639 16.522 17.2582C16.4557 17.2582 16.3884 17.2582 16.3439 17.28C15.7184 17.4591 15.0711 17.5482 14.3793 17.5482C11.052 17.5482 8.37295 15.3146 8.37295 12.5436C8.37295 9.77364 11.052 7.5391 14.3793 7.5391C17.7057 7.5391 20.3848 9.77364 20.3848 12.5436C20.3848 14.0409 19.5811 15.4036 18.3084 16.32V16.3191ZM14.6329 6.63546C14.5481 6.63264 14.4633 6.63112 14.3784 6.63091C10.5839 6.63091 7.46386 9.23091 7.46386 12.5446C7.46386 13.0482 7.53658 13.5355 7.67113 13.9991H7.59022C6.79591 13.9911 6.0061 13.8786 5.24113 13.6646C5.17386 13.6418 5.10658 13.6418 5.03931 13.6418C4.90496 13.6447 4.7738 13.6833 4.65931 13.7536L3.07022 14.6673C3.02477 14.69 2.98022 14.7127 2.93567 14.7127C2.8708 14.712 2.80877 14.6859 2.7629 14.6401C2.71702 14.5942 2.69093 14.5322 2.69022 14.4673C2.69022 14.4 2.71204 14.3555 2.73477 14.2882C2.75658 14.2664 2.9584 13.53 3.07022 13.0846C3.07022 13.0391 3.09204 12.9727 3.09204 12.9282C3.09179 12.8503 3.07353 12.7734 3.03868 12.7037C3.00383 12.634 2.95333 12.5733 2.89113 12.5264C1.34658 11.4327 0.384766 9.80546 0.384766 7.99819C0.384766 4.67727 3.63022 2 7.61204 2C11.0348 2 13.912 3.97182 14.6329 6.63455V6.63546ZM9.94749 7.01546C10.4684 7.01546 10.8802 6.58182 10.8802 6.08273C10.8802 5.56182 10.4684 5.15 9.94749 5.15C9.42658 5.15 9.01477 5.56182 9.01477 6.08273C9.01477 6.60364 9.42658 7.01546 9.94749 7.01546ZM5.16567 7.01546C5.68658 7.01546 6.09931 6.58182 6.09931 6.08273C6.09931 5.56182 5.68658 5.15 5.16567 5.15C4.64567 5.15 4.23295 5.56182 4.23295 6.08273C4.23295 6.60364 4.64567 7.01546 5.16567 7.01546Z" fill="#5D6398"/>
</g>
<defs>
<clipPath id="clip0">
<rect width="20" height="20" fill="white" transform="translate(0.384766)"/>
</clipPath>
</defs>
</svg>
