<svg width="20" height="20" viewBox="0 0 20 20" fill="none" xmlns="http://www.w3.org/2000/svg">
<path d="M9.99984 18.3332C5.39734 18.3332 1.6665 14.6023 1.6665 9.99984C1.6665 5.39734 5.39734 1.6665 9.99984 1.6665C14.6023 1.6665 18.3332 5.39734 18.3332 9.99984C18.3332 14.6023 14.6023 18.3332 9.99984 18.3332ZM15.2957 13.2932V13.2057C15.2957 12.4373 15.2957 12.0865 14.7523 11.7757C14.5777 11.6767 14.3983 11.5863 14.2148 11.5048C13.909 11.3657 13.7065 11.2748 13.4332 10.8748C13.4005 10.8273 13.3683 10.7796 13.3365 10.7315C13.049 10.294 12.8415 9.979 12.0515 10.104C10.4973 10.3507 10.3823 10.624 10.314 11.0857L10.3032 11.1615C10.2023 11.8365 10.184 12.0632 10.4657 12.359C11.5198 13.4648 12.1515 14.2623 12.3432 14.729C12.4365 14.9565 12.6765 15.6457 12.5115 16.3273C13.523 15.9244 14.4234 15.2852 15.1373 14.4632C15.229 14.1515 15.2957 13.7632 15.2957 13.2932ZM9.99984 3.194C8.069 3.194 6.32484 3.999 5.0865 5.29067C5.234 5.39317 5.36234 5.53734 5.45067 5.73567C5.62067 6.1165 5.62067 6.509 5.62067 6.8565C5.62067 7.12984 5.62067 7.38984 5.70817 7.57734C5.82817 7.834 6.3465 7.944 6.804 8.039C6.96817 8.074 7.1365 8.109 7.28984 8.1515C7.7115 8.26817 8.03817 8.64734 8.299 8.9515C8.40734 9.07734 8.56817 9.26317 8.649 9.30984C8.69067 9.27984 8.82484 9.134 8.89067 8.89484C8.94234 8.7115 8.92734 8.54984 8.85317 8.4615C8.3865 7.9115 8.41234 6.85317 8.5565 6.46234C8.78317 5.8465 9.4915 5.89234 10.0098 5.92567C10.2032 5.93817 10.3848 5.95067 10.5215 5.93317C11.0398 5.86817 11.1998 5.079 11.3123 4.92484C11.5557 4.5915 12.3007 4.089 12.7623 3.779C11.8928 3.39233 10.9515 3.19301 9.99984 3.194Z" fill="#64698F"/>
</svg>
