<svg width="20" height="20" viewBox="0 0 20 20" fill="none" xmlns="http://www.w3.org/2000/svg">
<path d="M10 19C5.0293 19 1 14.9707 1 10C1 5.0293 5.0293 1 10 1C14.9707 1 19 5.0293 19 10C19 14.9707 14.9707 19 10 19ZM15.7195 13.5568V13.4623C15.7195 12.6325 15.7195 12.2536 15.1327 11.9179C14.9441 11.811 14.7504 11.7134 14.5522 11.6254C14.2219 11.4751 14.0032 11.377 13.708 10.945C13.6728 10.8937 13.638 10.8421 13.6036 10.7902C13.2931 10.3177 13.069 9.9775 12.2158 10.1125C10.5373 10.3789 10.4131 10.6741 10.3393 11.1727L10.3276 11.2546C10.2187 11.9836 10.1989 12.2284 10.5031 12.5479C11.6416 13.7422 12.3238 14.6035 12.5308 15.1075C12.6316 15.3532 12.8908 16.0975 12.7126 16.8337C13.805 16.3986 14.7774 15.7082 15.5485 14.8204C15.6475 14.4838 15.7195 14.0644 15.7195 13.5568V13.5568ZM10 2.6497C7.9147 2.6497 6.031 3.5191 4.6936 4.9141C4.8529 5.0248 4.9915 5.1805 5.0869 5.3947C5.2705 5.806 5.2705 6.2299 5.2705 6.6052C5.2705 6.9004 5.2705 7.1812 5.365 7.3837C5.4946 7.6609 6.0544 7.7797 6.5485 7.8823C6.7258 7.9201 6.9076 7.9579 7.0732 8.0038C7.5286 8.1298 7.8814 8.5393 8.1631 8.8678C8.2801 9.0037 8.4538 9.2044 8.5411 9.2548C8.5861 9.2224 8.731 9.0649 8.8021 8.8066C8.8579 8.6086 8.8417 8.434 8.7616 8.3386C8.2576 7.7446 8.2855 6.6016 8.4412 6.1795C8.686 5.5144 9.451 5.5639 10.0108 5.5999C10.2196 5.6134 10.4158 5.6269 10.5634 5.608C11.1232 5.5378 11.296 4.6855 11.4175 4.519C11.6803 4.159 12.4849 3.6163 12.9835 3.2815C12.0443 2.86389 11.0278 2.64863 10 2.6497V2.6497Z" fill="#64698F"/>
</svg>
