<svg width="20" height="20" viewBox="0 0 20 20" fill="none" xmlns="http://www.w3.org/2000/svg">
<path d="M17.9441 5.92662C17.9568 6.10428 17.9568 6.28197 17.9568 6.45963C17.9568 11.8784 13.8325 18.1221 6.29441 18.1221C3.97207 18.1221 1.81473 17.4494 0 16.282C0.329961 16.32 0.647187 16.3327 0.989844 16.3327C2.90605 16.3327 4.67004 15.6855 6.07867 14.5815C4.27664 14.5434 2.76648 13.3632 2.24617 11.7388C2.5 11.7769 2.75379 11.8022 3.02031 11.8022C3.38832 11.8022 3.75637 11.7515 4.09898 11.6627C2.22082 11.2819 0.812148 9.63221 0.812148 7.63982V7.58908C1.35781 7.89365 1.99238 8.084 2.66492 8.10935C1.56086 7.3733 0.837539 6.11697 0.837539 4.69564C0.837539 3.93424 1.04055 3.23627 1.3959 2.62713C3.41367 5.11443 6.44668 6.73877 9.84766 6.91646C9.78422 6.61189 9.74613 6.29467 9.74613 5.9774C9.74613 3.7185 11.5736 1.87842 13.8451 1.87842C15.0253 1.87842 16.0913 2.37334 16.84 3.17283C17.7664 2.99518 18.6547 2.65252 19.4416 2.18299C19.137 3.13479 18.4898 3.93428 17.6395 4.44186C18.4644 4.35307 19.2639 4.12459 19.9999 3.80736C19.4416 4.61951 18.7436 5.34283 17.9441 5.92662Z" fill="#5d6398"/>
</svg>
