<svg width="20" height="20" viewBox="0 0 20 20" fill="none" xmlns="http://www.w3.org/2000/svg">
<path d="M7.04984 15.4936C7.04984 15.568 6.96424 15.6276 6.8563 15.6276C6.73347 15.6387 6.64786 15.5792 6.64786 15.4936C6.64786 15.4191 6.73347 15.3596 6.84141 15.3596C6.95307 15.3484 7.04984 15.408 7.04984 15.4936ZM5.89229 15.3261C5.86624 15.4005 5.94068 15.4861 6.05234 15.5085C6.14911 15.5457 6.26077 15.5085 6.28311 15.434C6.30544 15.3596 6.23472 15.274 6.12306 15.2405C6.02629 15.2144 5.91835 15.2516 5.89229 15.3261ZM7.53743 15.2628C7.42949 15.2889 7.35505 15.3596 7.36621 15.4452C7.37738 15.5196 7.47415 15.568 7.58581 15.542C7.69375 15.5159 7.76819 15.4452 7.75703 15.3707C7.74586 15.3 7.64537 15.2516 7.53743 15.2628ZM9.98652 1C4.82407 1 0.875 4.91929 0.875 10.0817C0.875 14.2095 3.47297 17.7417 7.18384 18.9848C7.66025 19.0704 7.82775 18.7764 7.82775 18.5345C7.82775 18.3037 7.81658 17.0308 7.81658 16.2491C7.81658 16.2491 5.21116 16.8074 4.66402 15.14C4.66402 15.14 4.23971 14.0569 3.6293 13.7777C3.6293 13.7777 2.77696 13.1934 3.68885 13.2045C3.68885 13.2045 4.61564 13.279 5.12555 14.1648C5.94068 15.6015 7.30666 15.1884 7.83891 14.9427C7.92452 14.3472 8.16645 13.934 8.43444 13.6884C6.35382 13.4576 4.2546 13.1561 4.2546 9.57555C4.2546 8.55199 4.53747 8.03835 5.133 7.38328C5.03623 7.14134 4.71985 6.14384 5.22977 4.85602C6.00768 4.61409 7.79797 5.86097 7.79797 5.86097C8.54238 5.65253 9.34261 5.54459 10.1354 5.54459C10.9282 5.54459 11.7284 5.65253 12.4728 5.86097C12.4728 5.86097 14.2631 4.61037 15.041 4.85602C15.551 6.14756 15.2346 7.14134 15.1378 7.38328C15.7333 8.04208 16.0981 8.55571 16.0981 9.57555C16.0981 13.1673 13.9058 13.4539 11.8252 13.6884C12.1676 13.9824 12.4579 14.5407 12.4579 15.4154C12.4579 16.6697 12.4468 18.2218 12.4468 18.527C12.4468 18.769 12.618 19.063 13.0907 18.9774C16.8127 17.7417 19.3363 14.2095 19.3363 10.0817C19.3363 4.91929 15.149 1 9.98652 1ZM4.49281 13.8373C4.44442 13.8745 4.45559 13.9601 4.51886 14.0308C4.57842 14.0904 4.66402 14.1164 4.71241 14.068C4.7608 14.0308 4.74963 13.9452 4.68636 13.8745C4.6268 13.8149 4.5412 13.7889 4.49281 13.8373ZM4.09083 13.5358C4.06478 13.5842 4.102 13.6437 4.17644 13.6809C4.23599 13.7182 4.31043 13.707 4.33649 13.6549C4.36254 13.6065 4.32532 13.547 4.25088 13.5097C4.17644 13.4874 4.11689 13.4986 4.09083 13.5358ZM5.29677 14.8608C5.23722 14.9092 5.25955 15.0209 5.34515 15.0916C5.43076 15.1772 5.5387 15.1884 5.58709 15.1288C5.63547 15.0804 5.61314 14.9688 5.5387 14.898C5.45682 14.8124 5.34515 14.8013 5.29677 14.8608ZM4.87246 14.3137C4.8129 14.3509 4.8129 14.4477 4.87246 14.5333C4.93201 14.6189 5.0325 14.6561 5.08089 14.6189C5.14044 14.5705 5.14044 14.4737 5.08089 14.3881C5.02878 14.3025 4.93201 14.2653 4.87246 14.3137Z" fill="#64698F"/>
</svg>
