<svg width="20" height="20" viewBox="0 0 20 20" fill="none" xmlns="http://www.w3.org/2000/svg">
<path d="M9.75683 5.26562C7.27246 5.26562 5.26855 7.26953 5.26855 9.75391C5.26855 12.2383 7.27246 14.2422 9.75683 14.2422C12.2412 14.2422 14.2451 12.2383 14.2451 9.75391C14.2451 7.26953 12.2412 5.26562 9.75683 5.26562ZM9.75683 12.6719C8.15137 12.6719 6.83887 11.3633 6.83887 9.75391C6.83887 8.14453 8.14746 6.83594 9.75683 6.83594C11.3662 6.83594 12.6748 8.14453 12.6748 9.75391C12.6748 11.3633 11.3623 12.6719 9.75683 12.6719ZM15.4756 5.08203C15.4756 5.66406 15.0068 6.12891 14.4287 6.12891C13.8467 6.12891 13.3818 5.66016 13.3818 5.08203C13.3818 4.50391 13.8506 4.03516 14.4287 4.03516C15.0068 4.03516 15.4756 4.50391 15.4756 5.08203ZM18.4482 6.14453C18.3818 4.74219 18.0615 3.5 17.0342 2.47656C16.0107 1.45312 14.7686 1.13281 13.3662 1.0625C11.9209 0.980469 7.58887 0.980469 6.14355 1.0625C4.74512 1.12891 3.50293 1.44922 2.47559 2.47266C1.44824 3.49609 1.13184 4.73828 1.06152 6.14062C0.979492 7.58594 0.979492 11.918 1.06152 13.3633C1.12793 14.7656 1.44824 16.0078 2.47559 17.0312C3.50293 18.0547 4.74121 18.375 6.14355 18.4453C7.58887 18.5273 11.9209 18.5273 13.3662 18.4453C14.7686 18.3789 16.0107 18.0586 17.0342 17.0312C18.0576 16.0078 18.3779 14.7656 18.4482 13.3633C18.5303 11.918 18.5303 7.58984 18.4482 6.14453ZM16.5811 14.9141C16.2764 15.6797 15.6865 16.2695 14.917 16.5781C13.7646 17.0352 11.0303 16.9297 9.75683 16.9297C8.4834 16.9297 5.74512 17.0312 4.59668 16.5781C3.83105 16.2734 3.24121 15.6836 2.93262 14.9141C2.47559 13.7617 2.58105 11.0273 2.58105 9.75391C2.58105 8.48047 2.47949 5.74219 2.93262 4.59375C3.2373 3.82812 3.82715 3.23828 4.59668 2.92969C5.74902 2.47266 8.4834 2.57812 9.75683 2.57812C11.0303 2.57812 13.7686 2.47656 14.917 2.92969C15.6826 3.23437 16.2725 3.82422 16.5811 4.59375C17.0381 5.74609 16.9326 8.48047 16.9326 9.75391C16.9326 11.0273 17.0381 13.7656 16.5811 14.9141Z" fill="#64698F"/>
</svg>
