<svg width="20" height="20" viewBox="0 0 20 20" fill="none" xmlns="http://www.w3.org/2000/svg">
<g clip-path="url(#clip0)">
<path d="M19.6205 6.23938L10.4799 0.145631C10.1679 -0.0463616 9.83492 -0.0481194 9.52008 0.145631L0.379453 6.23938C0.145078 6.39559 0 6.67465 0 6.95364V13.0474C0 13.3264 0.145078 13.6054 0.379492 13.7616L9.52012 19.8563C9.83211 20.0483 10.1651 20.05 10.4799 19.8563L19.6205 13.7616C19.8549 13.6054 20 13.3264 20 13.0474V6.95364C20 6.67465 19.8549 6.39559 19.6205 6.23938ZM10.8594 2.467L17.5893 6.95364L14.5871 8.96258L10.8594 6.47372V2.467ZM9.14062 2.467V6.47372L5.41293 8.96258L2.4107 6.95364L9.14062 2.467ZM1.71875 8.56079L3.87277 10.0005L1.71875 11.4402V8.56079ZM9.14062 17.534L2.4107 13.0474L5.41293 11.0384L9.14062 13.5273V17.534ZM10 12.0318L6.96426 10.0005L10 7.96926L13.0357 10.0005L10 12.0318ZM10.8594 17.534V13.5273L14.5871 11.0384L17.5893 13.0474L10.8594 17.534ZM18.2812 11.4402L16.1272 10.0005L18.2812 8.56079V11.4402Z" fill="#64698F"/>
</g>
<defs>
<clipPath id="clip0">
<rect width="20" height="20" fill="white"/>
</clipPath>
</defs>
</svg>
