<svg width="20" height="20" viewBox="0 0 20 20" fill="none" xmlns="http://www.w3.org/2000/svg">
<path d="M10 1C5.03737 1 1 5.03737 1 10C1 14.9626 5.03737 19 10 19C14.9626 19 19 14.9626 19 10C19 5.03737 14.9626 1 10 1ZM15.9505 5.15038C17.0212 6.4585 17.6696 8.12462 17.6865 9.93907C17.433 9.88547 14.8915 9.36996 12.3336 9.69164C12.1248 9.18209 11.9278 8.73383 11.658 8.18146C14.5003 7.021 15.7885 5.36961 15.9505 5.15038V5.15038ZM15.0959 4.26141C14.9577 4.45836 13.8005 6.01373 11.0669 7.03831C9.80723 4.72386 8.41103 2.82254 8.19855 2.53802C10.6364 1.95037 13.2054 2.58411 15.0959 4.26141V4.26141ZM6.73173 3.05476C6.93441 3.33271 8.30811 5.23639 9.58186 7.50065C5.98596 8.45556 2.8188 8.4418 2.47498 8.43727C2.97347 6.05179 4.58106 4.06918 6.73173 3.05476ZM2.31262 10.0117C2.31262 9.93312 2.31418 9.85487 2.31654 9.77681C2.65288 9.78371 6.37815 9.83172 10.2172 8.68281C10.4372 9.1135 10.6475 9.55069 10.8404 9.98741C8.06061 10.7704 5.53498 13.0186 4.28888 15.1517C3.06107 13.7889 2.31262 11.9862 2.31262 10.0117ZM5.28142 16.0763C6.08442 14.4348 8.26369 12.3158 11.3629 11.2585C12.4422 14.0632 12.8885 16.4137 13.0028 17.0882C10.531 18.141 7.55875 17.8522 5.28142 16.0763V16.0763ZM14.2952 16.3844C14.2164 15.9167 13.8073 13.6663 12.8018 10.9033C15.2107 10.5177 17.3272 11.149 17.5902 11.2319C17.2475 13.3709 16.0198 15.2182 14.2952 16.3844Z" fill="#64698F"/>
</svg>
