<svg width="20" height="20" viewBox="0 0 20 20" fill="none" xmlns="http://www.w3.org/2000/svg">
<path d="M10 0.3125C4.65828 0.3125 0.3125 4.65828 0.3125 10C0.3125 15.3417 4.65828 19.6875 10 19.6875C15.3417 19.6875 19.6875 15.3417 19.6875 10C19.6875 4.65828 15.3417 0.3125 10 0.3125ZM16.4051 4.77992C17.5575 6.18797 18.2554 7.98137 18.2736 9.93441C18.0008 9.87672 15.2651 9.32184 12.5118 9.66809C12.2871 9.11961 12.0751 8.63711 11.7846 8.04254C14.844 6.79344 16.2306 5.0159 16.4051 4.77992ZM15.4852 3.82305C15.3364 4.03504 14.0908 5.70922 11.1484 6.81207C9.7925 4.32082 8.28965 2.27426 8.06094 1.96801C10.685 1.33547 13.4502 2.01762 15.4852 3.82305ZM6.48207 2.52422C6.70023 2.8234 8.17887 4.8725 9.54992 7.30973C5.67934 8.33758 2.27023 8.32277 1.90016 8.31789C2.43672 5.7502 4.16711 3.61613 6.48207 2.52422ZM1.72539 10.0126C1.72539 9.92801 1.72707 9.84379 1.72961 9.75977C2.09164 9.76719 6.10148 9.81887 10.2338 8.58219C10.4706 9.04578 10.6969 9.51637 10.9046 9.98645C7.91246 10.8292 5.19391 13.2492 3.85262 15.5453C2.53102 14.0783 1.72539 12.1379 1.72539 10.0126ZM4.92098 16.5405C5.78531 14.7736 8.13105 12.4927 11.467 11.3547C12.6287 14.3736 13.1092 16.9036 13.2322 17.6296C10.5716 18.7629 7.37227 18.452 4.92098 16.5405ZM14.6233 16.8721C14.5385 16.3687 14.0981 13.9464 13.0158 10.9723C15.6088 10.5573 17.8869 11.2367 18.17 11.3261C17.8012 13.6284 16.4796 15.6168 14.6233 16.8721Z" fill="#64698F"/>
</svg>
