<svg width="226" height="226" viewBox="0 0 226 226" fill="none" xmlns="http://www.w3.org/2000/svg">
<g filter="url(#filter0_di)">
<rect x="112.895" y="4.41421" width="152" height="152" rx="15" transform="rotate(45 112.895 4.41421)" stroke="#3E4373" stroke-width="2"/>
</g>
<path d="M112.794 98.8041H113.794V97.8041H112.794V98.8041ZM112.794 125.196V126.196H113.794V125.196H112.794ZM112.794 125.608H113.794V124.608H112.794V125.608ZM87.4019 85.1959C87.4019 78.464 92.8659 73 99.5977 73V71C91.7613 71 85.4019 77.3595 85.4019 85.1959H87.4019ZM99.5977 97.3918C92.8659 97.3918 87.4019 91.9277 87.4019 85.1959H85.4019C85.4019 93.0323 91.7613 99.3918 99.5977 99.3918V97.3918ZM112.794 97.3918H99.5977V99.3918H112.794V97.3918ZM125.989 97.3918H112.794V99.3918H125.989V97.3918ZM138.185 85.1959C138.185 91.9277 132.721 97.3918 125.989 97.3918V99.3918C133.826 99.3918 140.185 93.0323 140.185 85.1959H138.185ZM125.989 73C132.721 73 138.185 78.464 138.185 85.1959H140.185C140.185 77.3595 133.826 71 125.989 71V73ZM112.794 73H125.989V71H112.794V73ZM99.5977 73H112.794V71H99.5977V73ZM99.5977 97.8041C91.7613 97.8041 85.4019 104.164 85.4019 112H87.4019C87.4019 105.268 92.8659 99.8041 99.5977 99.8041V97.8041ZM112.794 97.8041H99.5977V99.8041H112.794V97.8041ZM113.794 125.196V98.8041H111.794V125.196H113.794ZM99.5977 126.196H112.794V124.196H99.5977V126.196ZM85.4019 112C85.4019 119.836 91.7613 126.196 99.5977 126.196V124.196C92.8659 124.196 87.4019 118.732 87.4019 112H85.4019ZM111.794 138.804C111.794 145.536 106.33 151 99.5977 151V153C107.434 153 113.794 146.641 113.794 138.804H111.794ZM111.794 125.608V138.804H113.794V125.608H111.794ZM99.5977 126.608H112.794V124.608H99.5977V126.608ZM87.4019 138.804C87.4019 132.072 92.8659 126.608 99.5977 126.608V124.608C91.7613 124.608 85.4019 130.968 85.4019 138.804H87.4019ZM99.5977 151C92.8659 151 87.4019 145.536 87.4019 138.804H85.4019C85.4019 146.641 91.7613 153 99.5977 153V151ZM138.598 112C138.598 118.732 133.134 124.196 126.402 124.196V126.196C134.238 126.196 140.598 119.836 140.598 112H138.598ZM126.402 99.8041C133.134 99.8041 138.598 105.268 138.598 112H140.598C140.598 104.164 134.238 97.8041 126.402 97.8041V99.8041ZM114.206 112C114.206 105.268 119.67 99.8041 126.402 99.8041V97.8041C118.565 97.8041 112.206 104.164 112.206 112H114.206ZM126.402 124.196C119.67 124.196 114.206 118.732 114.206 112H112.206C112.206 119.836 118.565 126.196 126.402 126.196V124.196Z" fill="url(#paint0_linear)"/>
<defs>
<filter id="filter0_di" x="0" y="0" width="225.789" height="225.789" filterUnits="userSpaceOnUse" color-interpolation-filters="sRGB">
<feFlood flood-opacity="0" result="BackgroundImageFix"/>
<feColorMatrix in="SourceAlpha" type="matrix" values="0 0 0 0 0 0 0 0 0 0 0 0 0 0 0 0 0 0 127 0"/>
<feOffset dy="1"/>
<feGaussianBlur stdDeviation="2"/>
<feColorMatrix type="matrix" values="0 0 0 0 0 0 0 0 0 0 0 0 0 0 0 0 0 0 0.25 0"/>
<feBlend mode="normal" in2="BackgroundImageFix" result="effect1_dropShadow"/>
<feBlend mode="normal" in="SourceGraphic" in2="effect1_dropShadow" result="shape"/>
<feColorMatrix in="SourceAlpha" type="matrix" values="0 0 0 0 0 0 0 0 0 0 0 0 0 0 0 0 0 0 127 0" result="hardAlpha"/>
<feOffset dy="1"/>
<feGaussianBlur stdDeviation="0.5"/>
<feComposite in2="hardAlpha" operator="arithmetic" k2="-1" k3="1"/>
<feColorMatrix type="matrix" values="0 0 0 0 0.3625 0 0 0 0 0.388443 0 0 0 0 0.6375 0 0 0 0.7 0"/>
<feBlend mode="normal" in2="shape" result="effect2_innerShadow"/>
</filter>
<linearGradient id="paint0_linear" x1="86.4019" y1="112.02" x2="139.599" y2="112.021" gradientUnits="userSpaceOnUse">
<stop stop-color="#605CF7"/>
<stop offset="0.364583" stop-color="#F15C8D"/>
<stop offset="0.816877" stop-color="#EBA800"/>
<stop offset="1" stop-color="#01B5FF"/>
</linearGradient>
</defs>
</svg>
