<svg width="226" height="226" viewBox="0 0 226 226" fill="none" xmlns="http://www.w3.org/2000/svg">
<g filter="url(#filter0_di)">
<rect x="113" y="4.41421" width="152" height="152" rx="15" transform="rotate(45 113 4.41421)" stroke="#3E4373" stroke-width="2"/>
</g>
<g opacity="0.6">
<path d="M81.419 76.1613C82.1914 75.389 82.0369 74.3076 81.419 73.6897C80.6466 72.9173 79.5653 73.0718 78.9473 73.6897C78.175 74.4621 78.3294 75.5434 78.9474 76.1614C79.7197 76.9337 80.6466 76.9337 81.419 76.1613Z" fill="#5D6398"/>
<path d="M75.2403 69.9829C76.0126 69.2105 75.8582 68.1292 75.2403 67.5113C74.4679 66.7389 73.3865 66.8933 72.7686 67.5112C71.9962 68.2836 72.1507 69.365 72.7686 69.9829C73.541 70.7553 74.4679 70.7553 75.2403 69.9829Z" fill="#5D6398"/>
<path d="M111.697 106.439C112.005 106.13 112.005 105.512 111.697 105.203C111.388 104.894 110.77 104.894 110.461 105.203C110.152 105.512 110.152 106.13 110.461 106.439C110.77 106.748 111.388 106.748 111.697 106.439Z" fill="#5D6398"/>
<path d="M111.697 156.33C112.005 156.021 112.005 155.403 111.697 155.094C111.388 154.785 110.77 154.785 110.461 155.094C110.152 155.403 110.152 156.021 110.461 156.33C110.77 156.639 111.388 156.639 111.697 156.33Z" fill="#5D6398"/>
<path d="M87.4441 82.1858C88.062 81.5679 88.062 80.6411 87.4441 80.0232C86.8262 79.4053 85.8993 79.4053 85.2814 80.0232C84.6635 80.6411 84.6635 81.5679 85.2814 82.1858C85.8993 82.8037 86.8261 82.8037 87.4441 82.1858Z" fill="#5D6398"/>
<path d="M81.419 63.8032C82.1914 63.0308 82.0369 61.9495 81.419 61.3316C80.6466 60.5592 79.5652 60.7137 78.9473 61.3316C78.3294 61.9495 78.3294 63.1853 78.9473 63.8032C79.7197 64.5756 80.6466 64.5756 81.419 63.8032Z" fill="#5D6398"/>
<path d="M93.6233 88.365C94.2412 87.7471 94.2412 86.8203 93.6233 86.2024C93.0053 85.5844 92.0785 85.5844 91.4606 86.2024C90.8427 86.8203 90.8427 87.7471 91.4606 88.365C92.0785 88.9829 93.0053 88.9829 93.6233 88.365Z" fill="#5D6398"/>
<path d="M99.6474 94.3895C100.111 93.9261 100.265 93.1537 99.6474 92.5358C99.1839 92.0724 98.4116 91.9179 97.7937 92.5358C97.3302 92.9992 97.1757 93.7716 97.7937 94.3895C98.2571 94.8529 99.1839 94.8529 99.6474 94.3895Z" fill="#5D6398"/>
<path d="M105.827 100.568C106.29 100.105 106.444 99.3327 105.827 98.7147C105.209 98.0968 104.591 98.0968 103.973 98.7147C103.509 99.1782 103.355 99.9506 103.973 100.568C104.591 101.186 105.363 101.032 105.827 100.568Z" fill="#5D6398"/>
<path d="M57.1665 126.057C58.0933 125.131 58.0933 123.586 57.1665 122.659C56.2396 121.732 54.6949 121.732 53.768 122.659C52.8411 123.586 52.8411 125.131 53.768 126.057C54.6949 126.984 56.2396 126.984 57.1665 126.057Z" fill="#5D6398"/>
<path d="M63.1911 132.082C63.9635 131.309 64.1179 129.919 63.1911 128.992C62.2642 128.065 61.0284 128.065 60.1015 128.992C59.3292 129.765 59.1747 131.155 60.1015 132.082C61.0284 133.009 62.4187 132.854 63.1911 132.082Z" fill="#5D6398"/>
<path d="M66.2807 135.171C65.4276 136.024 65.4276 137.408 66.2807 138.261C67.1339 139.114 68.5171 139.114 69.3703 138.261C70.2234 137.408 70.2234 136.024 69.3703 135.171C68.5171 134.318 67.1339 134.318 66.2807 135.171Z" fill="#5D6398"/>
<path d="M50.9878 119.878C51.9146 118.951 51.9146 117.407 50.9878 116.48C50.0609 115.553 48.5162 115.553 47.5893 116.48C46.6624 117.407 46.6624 118.951 47.5893 119.878C48.5162 120.805 50.0609 120.805 50.9878 119.878Z" fill="#5D6398"/>
<path d="M75.2403 144.131C76.0126 143.359 75.8582 142.277 75.2403 141.659C74.4679 140.887 73.3866 141.042 72.7686 141.659C71.9963 142.432 72.1507 143.513 72.7686 144.131C73.541 144.903 74.4679 144.903 75.2403 144.131Z" fill="#5D6398"/>
<path d="M38.7835 107.675C39.8648 106.593 39.7104 104.894 38.7835 103.967C37.7022 102.886 36.0029 103.04 35.0761 103.967C34.1492 104.894 34.1492 106.748 35.0761 107.675C36.1574 108.756 37.7022 108.756 38.7835 107.675Z" fill="#5D6398"/>
<path d="M32.9135 114.163C34.1493 112.927 34.1493 111.073 32.9135 109.837C31.6777 108.602 29.824 108.602 28.5882 109.837C27.3523 111.073 27.3523 112.927 28.5882 114.163C29.824 115.398 31.6777 115.398 32.9135 114.163Z" fill="#5D6398"/>
<path d="M57.1665 138.415C58.0933 137.488 58.0933 135.944 57.1665 135.017C56.2396 134.09 54.6949 134.09 53.768 135.017C52.8411 135.944 52.8411 137.488 53.768 138.415C54.6949 139.342 56.2396 139.342 57.1665 138.415Z" fill="#5D6398"/>
<path d="M81.419 150.31C82.1914 149.538 82.0369 148.457 81.419 147.839C80.8011 147.221 79.5653 147.221 78.9474 147.839C78.175 148.611 78.3294 149.692 78.9473 150.31C79.5652 150.928 80.6466 151.083 81.419 150.31Z" fill="#5D6398"/>
<path d="M81.419 163.041C82.1914 162.269 82.0369 161.187 81.419 160.569C80.8011 159.951 79.5653 159.951 78.9474 160.569C78.175 161.342 78.3294 162.423 78.9473 163.041C79.5652 163.659 80.6466 163.813 81.419 163.041Z" fill="#5D6398"/>
<path d="M63.1911 144.44C63.9635 143.668 64.1179 142.277 63.1911 141.35C62.2642 140.424 61.0284 140.424 60.1015 141.35C59.1747 142.277 59.1747 143.513 60.1015 144.44C61.0284 145.367 62.4187 145.212 63.1911 144.44Z" fill="#5D6398"/>
<path d="M50.9878 132.236C51.9146 131.309 51.9146 129.765 50.9878 128.838C50.0609 127.911 48.5162 127.911 47.5893 128.838C46.6624 129.765 46.6624 131.309 47.5893 132.236C48.5162 133.163 50.0609 133.163 50.9878 132.236Z" fill="#5D6398"/>
<path d="M69.3703 150.619C70.1427 149.847 70.2971 148.457 69.3703 147.53C68.5979 146.757 67.2076 146.603 66.2807 147.53C65.3539 148.457 65.3539 149.692 66.2807 150.619C67.0531 151.392 68.5979 151.392 69.3703 150.619Z" fill="#5D6398"/>
<path d="M44.9627 126.212C46.044 125.131 45.8895 123.431 44.9627 122.504C43.8813 121.423 42.1821 121.578 41.2553 122.504C40.3284 123.431 40.3284 125.285 41.2553 126.212C42.3366 127.293 43.8814 127.293 44.9627 126.212Z" fill="#5D6398"/>
<path d="M38.7835 120.033C39.8648 118.951 39.7103 117.252 38.7835 116.325C37.8566 115.398 36.0029 115.398 35.0761 116.325C34.1492 117.252 34.1492 119.106 35.0761 120.033C36.0029 120.96 37.7022 121.114 38.7835 120.033Z" fill="#5D6398"/>
<path d="M105.827 51.1361C106.29 50.6727 106.444 49.9003 105.827 49.2824C105.209 48.6645 104.591 48.6645 103.973 49.2824C103.509 49.7458 103.355 50.5182 103.973 51.1361C104.591 51.754 105.363 51.5995 105.827 51.1361Z" fill="#5D6398"/>
<path d="M99.6474 44.9574C100.111 44.4939 100.265 43.7216 99.6474 43.1037C99.1839 42.6402 98.4116 42.4858 97.7937 43.1037C97.3302 43.5671 97.1757 44.3395 97.7937 44.9574C98.2571 45.4208 99.1839 45.4208 99.6474 44.9574Z" fill="#5D6398"/>
<path d="M105.827 63.4942C106.29 63.0308 106.444 62.2584 105.827 61.6405C105.363 61.1771 104.591 61.0226 103.973 61.6405C103.509 62.104 103.355 62.8763 103.973 63.4942C104.436 63.9577 105.363 63.9577 105.827 63.4942Z" fill="#5D6398"/>
<path d="M105.827 38.7777C106.29 38.3143 106.444 37.5419 105.827 36.924C105.363 36.4605 104.591 36.3061 103.973 36.924C103.355 37.5419 103.355 38.1598 103.973 38.7777C104.436 39.2411 105.363 39.2411 105.827 38.7777Z" fill="#5D6398"/>
<path d="M111.697 69.365C112.006 69.056 112.005 68.4381 111.697 68.1292C111.388 67.8202 110.77 67.8202 110.461 68.1292C110.152 68.4381 110.152 69.056 110.461 69.365C110.77 69.6739 111.388 69.6739 111.697 69.365Z" fill="#5D6398"/>
<path d="M110.461 55.7708C110.119 56.112 110.119 56.6653 110.461 57.0066C110.802 57.3478 111.355 57.3478 111.697 57.0066C112.038 56.6653 112.038 56.112 111.697 55.7708C111.355 55.4295 110.802 55.4295 110.461 55.7708Z" fill="#5D6398"/>
<path d="M111.697 44.6484C112.006 44.3395 112.005 43.7216 111.697 43.4126C111.388 43.1037 110.77 43.1037 110.461 43.4126C110.152 43.7216 110.152 44.3395 110.461 44.6484C110.77 44.9574 111.388 44.9574 111.697 44.6484Z" fill="#5D6398"/>
<path d="M111.697 32.2905C112.006 31.9816 112.005 31.3637 111.697 31.0547C111.388 30.7457 110.77 30.7457 110.461 31.0547C110.152 31.3636 110.152 31.9816 110.461 32.2905C110.77 32.5995 111.388 32.5995 111.697 32.2905Z" fill="#5D6398"/>
<path d="M110.461 92.8447C110.119 93.186 110.119 93.7393 110.461 94.0806C110.802 94.4218 111.355 94.4218 111.697 94.0806C112.038 93.7393 112.038 93.186 111.697 92.8447C111.355 92.5035 110.802 92.5035 110.461 92.8447Z" fill="#5D6398"/>
<path d="M103.973 86.3568C103.461 86.8687 103.461 87.6987 103.973 88.2105C104.485 88.7224 105.315 88.7224 105.827 88.2105C106.338 87.6987 106.338 86.8687 105.827 86.3568C105.315 85.8449 104.485 85.8449 103.973 86.3568Z" fill="#5D6398"/>
<path d="M91.4606 73.844C90.8634 74.4412 90.8634 75.4094 91.4606 76.0066C92.0578 76.6038 93.026 76.6038 93.6233 76.0066C94.2205 75.4094 94.2205 74.4412 93.6233 73.844C93.0261 73.2468 92.0578 73.2468 91.4606 73.844Z" fill="#5D6398"/>
<path d="M87.4441 57.47C88.062 56.8521 88.062 55.9252 87.4441 55.3073C86.8262 54.6894 85.8993 54.6894 85.2814 55.3073C84.6635 55.9253 84.6635 56.8521 85.2814 57.47C85.8993 58.0879 86.8261 58.0879 87.4441 57.47Z" fill="#5D6398"/>
<path d="M99.6474 82.0313C100.111 81.5679 100.265 80.7955 99.6474 80.1776C99.1839 79.7142 98.4116 79.5597 97.7937 80.1776C97.1757 80.7955 97.1757 81.4134 97.7937 82.0313C98.2571 82.4948 99.1839 82.4948 99.6474 82.0313Z" fill="#5D6398"/>
<path d="M93.6233 63.6487C94.2412 63.0308 94.2412 62.104 93.6233 61.486C93.0054 60.8681 92.0785 60.8682 91.4606 61.4861C90.8427 62.104 90.8427 63.0308 91.4606 63.6487C92.0785 64.2666 93.0053 64.2666 93.6233 63.6487Z" fill="#5D6398"/>
<path d="M99.6474 57.315C100.111 56.8516 100.265 56.0792 99.6474 55.4613C99.0295 54.8434 98.4116 54.8434 97.7936 55.4613C97.3302 55.9248 97.1757 56.6971 97.7936 57.315C98.4115 57.933 99.1839 57.7785 99.6474 57.315Z" fill="#5D6398"/>
<path d="M85.2814 67.6653C84.6842 68.2625 84.6842 69.2307 85.2814 69.8279C85.8786 70.4251 86.8469 70.4251 87.4441 69.8279C88.0413 69.2307 88.0413 68.2625 87.4441 67.6652C86.8469 67.068 85.8786 67.0681 85.2814 67.6653Z" fill="#5D6398"/>
<path d="M93.6233 51.2906C94.2412 50.6727 94.2412 49.7458 93.6233 49.1279C93.0054 48.51 92.0785 48.51 91.4606 49.1279C90.8427 49.7458 90.8427 50.6727 91.4606 51.2906C92.0785 51.9085 93.0053 51.9085 93.6233 51.2906Z" fill="#5D6398"/>
<path d="M111.697 81.7226C112.006 81.4137 112.005 80.7958 111.697 80.4868C111.388 80.1779 110.77 80.1779 110.461 80.4868C110.152 80.7958 110.152 81.4137 110.461 81.7226C110.77 82.0316 111.388 82.0316 111.697 81.7226Z" fill="#5D6398"/>
<path d="M99.6474 69.6734C100.111 69.21 100.265 68.4376 99.6474 67.8197C99.1839 67.3563 98.4116 67.2018 97.7936 67.8197C97.3302 68.2832 97.1757 69.0555 97.7937 69.6734C98.2571 70.1369 99.1839 70.1369 99.6474 69.6734Z" fill="#5D6398"/>
<path d="M105.827 75.8522C106.29 75.3887 106.444 74.6163 105.827 73.9984C105.363 73.535 104.591 73.3805 103.973 73.9984C103.509 74.4619 103.355 75.2342 103.973 75.8521C104.436 76.3156 105.363 76.3156 105.827 75.8522Z" fill="#5D6398"/>
<path d="M110.461 117.561C110.119 117.902 110.119 118.456 110.461 118.797C110.802 119.138 111.355 119.138 111.697 118.797C112.038 118.456 112.038 117.902 111.697 117.561C111.355 117.22 110.802 117.22 110.461 117.561Z" fill="#5D6398"/>
<path d="M110.461 167.452C110.119 167.794 110.119 168.347 110.461 168.688C110.802 169.029 111.355 169.029 111.697 168.688C112.038 168.347 112.038 167.794 111.697 167.452C111.355 167.111 110.802 167.111 110.461 167.452Z" fill="#5D6398"/>
<path d="M50.9878 95.1619C51.9146 94.235 51.9146 92.6903 50.9878 91.7634C50.0609 90.8365 48.5162 90.8365 47.5893 91.7634C46.6624 92.6903 46.6624 94.235 47.5893 95.1619C48.5162 96.0887 50.0609 96.0887 50.9878 95.1619Z" fill="#5D6398"/>
<path d="M60.1015 91.9179C59.2484 92.771 59.2484 94.1543 60.1015 95.0074C60.9547 95.8606 62.3379 95.8606 63.1911 95.0074C64.0442 94.1543 64.0442 92.771 63.1911 91.9179C62.3379 91.0647 60.9547 91.0647 60.1015 91.9179Z" fill="#5D6398"/>
<path d="M63.1911 107.366C63.9635 106.593 64.1179 105.203 63.1911 104.276C62.2642 103.349 61.0284 103.349 60.1015 104.276C59.3292 105.049 59.1747 106.439 60.1015 107.366C61.0284 108.293 62.4187 108.138 63.1911 107.366Z" fill="#5D6398"/>
<path d="M57.167 88.9829C58.0938 88.0561 58.0938 86.5113 57.167 85.5845C56.2401 84.6576 54.6954 84.6576 53.7685 85.5845C52.8416 86.5113 52.8416 88.0561 53.7685 88.9829C54.6954 89.9098 56.2401 89.9098 57.167 88.9829Z" fill="#5D6398"/>
<path d="M57.1665 101.341C58.0933 100.414 58.0933 98.8692 57.1665 97.9424C56.2396 97.0155 54.6949 97.0155 53.768 97.9424C52.8411 98.8692 52.8411 100.414 53.768 101.341C54.6949 102.268 56.2396 102.268 57.1665 101.341Z" fill="#5D6398"/>
<path d="M69.3703 113.545C70.1427 112.772 70.2971 111.382 69.3703 110.455C68.4434 109.528 67.2076 109.528 66.2807 110.455C65.5084 111.228 65.3539 112.618 66.2807 113.545C67.2076 114.472 68.5979 114.317 69.3703 113.545Z" fill="#5D6398"/>
<path d="M111.697 143.513C112.005 143.204 112.006 142.586 111.697 142.277C111.388 141.968 110.77 141.968 110.461 142.277C110.152 142.586 110.152 143.204 110.461 143.513C110.77 143.822 111.388 143.822 111.697 143.513Z" fill="#5D6398"/>
<path d="M111.697 193.405C112.005 193.096 112.006 192.478 111.697 192.169C111.388 191.86 110.77 191.86 110.461 192.169C110.152 192.478 110.152 193.096 110.461 193.405C110.77 193.714 111.388 193.714 111.697 193.405Z" fill="#5D6398"/>
<path d="M75.2403 107.057C76.0126 106.284 75.8582 105.203 75.2403 104.585C74.6223 103.967 73.3865 103.967 72.7686 104.585C71.9963 105.358 72.1507 106.439 72.7686 107.057C73.3866 107.675 74.4679 107.829 75.2403 107.057Z" fill="#5D6398"/>
<path d="M99.6474 131.464C100.111 131.001 100.265 130.228 99.6474 129.61C99.0295 128.992 98.4116 128.992 97.7937 129.61C97.1757 130.228 97.1757 130.846 97.7937 131.464C98.4116 132.082 99.1839 131.927 99.6474 131.464Z" fill="#5D6398"/>
<path d="M99.6474 143.657C100.111 143.193 100.265 142.421 99.6474 141.803C99.0295 141.185 98.4116 141.185 97.7937 141.803C97.1757 142.421 97.1757 143.039 97.7937 143.657C98.4116 144.274 99.1839 144.12 99.6474 143.657Z" fill="#5D6398"/>
<path d="M105.827 137.643C106.29 137.179 106.444 136.407 105.827 135.789C105.363 135.326 104.591 135.171 103.973 135.789C103.355 136.407 103.355 137.025 103.973 137.643C104.436 138.106 105.363 138.106 105.827 137.643Z" fill="#5D6398"/>
<path d="M105.827 175.174C106.29 174.71 106.444 173.938 105.827 173.32C105.363 172.857 104.591 172.702 103.973 173.32C103.355 173.938 103.355 174.556 103.973 175.174C104.436 175.637 105.363 175.637 105.827 175.174Z" fill="#5D6398"/>
<path d="M105.827 187.371C106.29 186.908 106.444 186.135 105.827 185.517C105.363 185.054 104.591 184.9 103.973 185.517C103.355 186.135 103.355 186.753 103.973 187.371C104.436 187.835 105.363 187.835 105.827 187.371Z" fill="#5D6398"/>
<path d="M81.419 113.236C82.1914 112.463 82.0369 111.382 81.419 110.764C80.8011 110.146 79.5652 110.146 78.9473 110.764C78.175 111.537 78.3294 112.618 78.9474 113.236C79.5653 113.854 80.6466 114.008 81.419 113.236Z" fill="#5D6398"/>
<path d="M87.4441 119.26C88.062 118.642 88.062 117.716 87.4441 117.098C86.8261 116.48 85.8993 116.48 85.2814 117.098C84.6635 117.716 84.6635 118.642 85.2814 119.26C85.8993 119.878 86.8261 119.878 87.4441 119.26Z" fill="#5D6398"/>
<path d="M93.6233 125.439C94.2412 124.822 94.2412 123.895 93.6233 123.277C93.0054 122.659 92.0785 122.659 91.4606 123.277C90.8427 123.895 90.8427 124.822 91.4606 125.439C92.0785 126.057 93.0053 126.057 93.6233 125.439Z" fill="#5D6398"/>
<path d="M75.2403 119.415C76.0126 118.642 75.8582 117.561 75.2403 116.943C74.6223 116.325 73.3865 116.325 72.7686 116.943C71.9962 117.716 72.1507 118.797 72.7686 119.415C73.3865 120.033 74.4679 120.187 75.2403 119.415Z" fill="#5D6398"/>
<path d="M75.2403 156.24C76.0126 155.468 75.8582 154.387 75.2403 153.769C74.6223 153.151 73.3865 153.151 72.7686 153.769C71.9962 154.541 72.1507 155.623 72.7686 156.24C73.3865 156.858 74.4679 157.013 75.2403 156.24Z" fill="#5D6398"/>
<path d="M91.4606 172.709C90.8634 173.306 90.8634 174.274 91.4606 174.872C92.0578 175.469 93.0261 175.469 93.6233 174.872C94.2205 174.274 94.2205 173.306 93.6233 172.709C93.026 172.112 92.0578 172.112 91.4606 172.709Z" fill="#5D6398"/>
<path d="M99.6474 156.18C100.111 155.716 100.265 154.944 99.6474 154.326C99.0295 153.708 98.4116 153.708 97.7936 154.326C97.3302 154.789 97.1757 155.562 97.7936 156.18C98.4116 156.797 99.1839 156.643 99.6474 156.18Z" fill="#5D6398"/>
<path d="M99.6474 168.914C100.111 168.45 100.265 167.678 99.6474 167.06C99.0295 166.442 98.4116 166.442 97.7936 167.06C97.3302 167.524 97.1757 168.296 97.7936 168.914C98.4116 169.532 99.1839 169.377 99.6474 168.914Z" fill="#5D6398"/>
<path d="M85.2814 166.53C84.6842 167.127 84.6842 168.096 85.2814 168.693C85.8786 169.29 86.8469 169.29 87.4441 168.693C88.0413 168.096 88.0413 167.127 87.4441 166.53C86.8468 165.933 85.8786 165.933 85.2814 166.53Z" fill="#5D6398"/>
<path d="M87.4441 131.618C88.062 131.001 88.062 130.074 87.4441 129.456C86.8262 128.838 85.8993 128.838 85.2814 129.456C84.6635 130.074 84.6635 131.001 85.2814 131.618C85.8993 132.236 86.8262 132.236 87.4441 131.618Z" fill="#5D6398"/>
<path d="M93.6233 137.797C94.2412 137.179 94.2412 136.253 93.6233 135.635C93.0054 135.017 92.0785 135.017 91.4606 135.635C90.8427 136.253 90.8427 137.179 91.4606 137.797C92.0785 138.415 93.0054 138.415 93.6233 137.797Z" fill="#5D6398"/>
<path d="M93.6233 149.949C94.2412 149.331 94.2412 148.404 93.6233 147.786C93.0054 147.168 92.0785 147.168 91.4606 147.786C90.8427 148.404 90.8427 149.331 91.4606 149.949C92.0785 150.566 93.0054 150.566 93.6233 149.949Z" fill="#5D6398"/>
<path d="M93.6233 162.513C94.2412 161.896 94.2412 160.969 93.6233 160.351C93.0053 159.733 92.0785 159.733 91.4606 160.351C90.8427 160.969 90.8427 161.896 91.4606 162.513C92.0785 163.131 93.0053 163.131 93.6233 162.513Z" fill="#5D6398"/>
<path d="M99.6474 180.896C100.111 180.433 100.265 179.661 99.6474 179.043C99.1839 178.579 98.4115 178.425 97.7936 179.043C97.1757 179.661 97.1757 180.278 97.7936 180.896C98.2571 181.36 99.1839 181.36 99.6474 180.896Z" fill="#5D6398"/>
<path d="M105.827 112.926C106.29 112.463 106.444 111.69 105.827 111.072C105.363 110.609 104.591 110.455 103.973 111.072C103.355 111.69 103.355 112.308 103.973 112.926C104.436 113.39 105.363 113.39 105.827 112.926Z" fill="#5D6398"/>
<path d="M105.827 150.457C106.29 149.993 106.444 149.221 105.827 148.603C105.363 148.139 104.591 147.985 103.973 148.603C103.355 149.221 103.355 149.839 103.973 150.457C104.436 150.92 105.363 150.92 105.827 150.457Z" fill="#5D6398"/>
<path d="M87.4441 94.544C88.062 93.9261 88.062 92.9992 87.4441 92.3813C86.8261 91.7634 85.8993 91.7634 85.2814 92.3813C84.6635 92.9992 84.6635 93.9261 85.2814 94.544C85.8993 95.1619 86.8261 95.1619 87.4441 94.544Z" fill="#5D6398"/>
<path d="M93.6233 100.723C94.2412 100.105 94.2412 99.1782 93.6233 98.5603C93.0053 97.9424 92.0785 97.9424 91.4606 98.5603C90.8427 99.1782 90.8427 100.105 91.4606 100.723C92.0785 101.341 93.0053 101.341 93.6233 100.723Z" fill="#5D6398"/>
<path d="M85.2814 141.814C84.6842 142.411 84.6842 143.379 85.2814 143.977C85.8786 144.574 86.8469 144.574 87.4441 143.977C88.0413 143.379 88.0413 142.411 87.4441 141.814C86.8469 141.217 85.8786 141.217 85.2814 141.814Z" fill="#5D6398"/>
<path d="M85.2814 154.586C84.6842 155.183 84.6842 156.151 85.2814 156.749C85.8786 157.346 86.8469 157.346 87.4441 156.749C88.0413 156.151 88.0413 155.183 87.4441 154.586C86.8469 153.989 85.8786 153.989 85.2814 154.586Z" fill="#5D6398"/>
<path d="M99.6474 106.748C100.111 106.284 100.265 105.512 99.6474 104.894C99.0295 104.276 98.4116 104.276 97.7937 104.894C97.1757 105.512 97.1757 106.13 97.7937 106.748C98.4116 107.366 99.1839 107.211 99.6474 106.748Z" fill="#5D6398"/>
<path d="M69.3703 125.903C70.1427 125.131 70.2971 123.74 69.3703 122.813C68.4434 121.887 67.2076 121.887 66.2807 122.813C65.5084 123.586 65.3539 124.976 66.2807 125.903C67.2076 126.83 68.5979 126.675 69.3703 125.903Z" fill="#5D6398"/>
<path d="M44.9627 101.495C46.044 100.414 45.8896 98.7147 44.9627 97.7879C43.8814 96.7066 42.1821 96.861 41.2553 97.7879C40.1739 98.8692 40.3284 100.568 41.2553 101.495C42.3366 102.577 43.8814 102.577 44.9627 101.495Z" fill="#5D6398"/>
<path d="M81.419 137.952C82.1914 137.179 82.0369 136.098 81.419 135.48C80.6466 134.708 79.5653 134.862 78.9474 135.48C78.175 136.252 78.3294 137.334 78.9473 137.952C79.7197 138.724 80.6466 138.724 81.419 137.952Z" fill="#5D6398"/>
<path d="M75.2403 131.773C76.0126 131.001 75.8582 129.919 75.2403 129.301C74.6224 128.683 73.3866 128.683 72.7686 129.301C71.9963 130.074 72.1507 131.155 72.7686 131.773C73.3865 132.391 74.4679 132.545 75.2403 131.773Z" fill="#5D6398"/>
<path d="M63.1911 119.724C63.9635 118.951 64.1179 117.561 63.1911 116.634C62.2642 115.707 61.0284 115.707 60.1015 116.634C59.3292 117.407 59.1747 118.797 60.1015 119.724C61.0284 120.651 62.4187 120.496 63.1911 119.724Z" fill="#5D6398"/>
<path d="M50.9878 107.52C51.9146 106.593 51.9146 105.048 50.9878 104.122C50.0609 103.195 48.5162 103.195 47.5893 104.122C46.6624 105.048 46.6624 106.593 47.5893 107.52C48.5162 108.447 50.0609 108.447 50.9878 107.52Z" fill="#5D6398"/>
<path d="M57.1665 113.699C58.0933 112.772 58.0933 111.227 57.1665 110.301C56.2396 109.374 54.6949 109.374 53.768 110.301C52.8411 111.227 52.8411 112.772 53.768 113.699C54.6949 114.626 56.2396 114.626 57.1665 113.699Z" fill="#5D6398"/>
<path d="M87.4441 106.902C88.062 106.284 88.062 105.358 87.4441 104.74C86.8261 104.122 85.8993 104.122 85.2814 104.74C84.6635 105.358 84.6635 106.284 85.2814 106.902C85.8993 107.52 86.8261 107.52 87.4441 106.902Z" fill="#5D6398"/>
<path d="M81.419 100.877C82.1914 100.105 82.0369 99.0237 81.419 98.4058C80.8011 97.7879 79.5652 97.7879 78.9473 98.4058C78.3294 99.0237 78.3294 100.259 78.9474 100.877C79.5653 101.495 80.6466 101.65 81.419 100.877Z" fill="#5D6398"/>
<path d="M69.7076 100.877C70.4799 100.105 70.3255 99.0237 69.7075 98.4058C69.0896 97.7879 67.8538 97.7879 67.2359 98.4058C66.618 99.0237 66.618 100.259 67.2359 100.877C67.8538 101.495 68.9352 101.65 69.7076 100.877Z" fill="#5D6398"/>
<path d="M81.419 88.5195C82.1914 87.7471 82.0369 86.6658 81.419 86.0479C80.8011 85.43 79.5653 85.43 78.9474 86.0479C78.3295 86.6658 78.3295 87.9016 78.9474 88.5195C79.5653 89.1374 80.6466 89.2919 81.419 88.5195Z" fill="#5D6398"/>
<path d="M63.1911 82.6493C63.9635 81.8769 64.1179 80.4866 63.1911 79.5597C62.4187 78.7873 61.0284 78.6329 60.1015 79.5597C59.1747 80.4866 59.1747 81.7224 60.1015 82.6493C60.8739 83.4216 62.4187 83.4216 63.1911 82.6493Z" fill="#5D6398"/>
<path d="M99.6474 119.106C100.111 118.642 100.265 117.87 99.6474 117.252C99.1839 116.789 98.4116 116.634 97.7937 117.252C97.3302 117.716 97.1757 118.488 97.7937 119.106C98.2571 119.569 99.1839 119.569 99.6474 119.106Z" fill="#5D6398"/>
<path d="M75.2403 94.6985C76.0126 93.9261 75.8582 92.8447 75.2403 92.2268C74.6224 91.6089 73.3866 91.6089 72.7687 92.2268C72.1507 92.8447 72.1507 94.0805 72.7687 94.6985C73.3866 95.3164 74.4679 95.4708 75.2403 94.6985Z" fill="#5D6398"/>
<path d="M69.3703 88.8285C70.1427 88.0561 70.2971 86.6658 69.3703 85.7389C68.5979 84.9665 67.2076 84.8121 66.2807 85.7389C65.3539 86.6658 65.3539 87.9016 66.2807 88.8285C67.0531 89.6008 68.5979 89.6008 69.3703 88.8285Z" fill="#5D6398"/>
<path d="M93.6233 113.081C94.2412 112.463 94.2412 111.536 93.6233 110.918C93.0053 110.301 92.0785 110.301 91.4606 110.918C90.8427 111.536 90.8427 112.463 91.4606 113.081C92.0785 113.699 93.0053 113.699 93.6233 113.081Z" fill="#5D6398"/>
<path d="M69.3703 76.4701C70.1427 75.6977 70.2971 74.3074 69.3703 73.3805C68.5979 72.6081 67.2076 72.4537 66.2807 73.3805C65.3539 74.3074 65.3539 75.5432 66.2807 76.4701C67.0531 77.2424 68.5979 77.2424 69.3703 76.4701Z" fill="#5D6398"/>
<path d="M75.2403 82.3403C76.0126 81.5679 75.8582 80.4866 75.2403 79.8687C74.4679 79.0963 73.3865 79.2508 72.7686 79.8687C72.1507 80.4866 72.1507 81.7224 72.7686 82.3403C73.541 83.1127 74.4679 83.1127 75.2403 82.3403Z" fill="#5D6398"/>
<path d="M111.697 131.155C112.005 130.846 112.005 130.228 111.697 129.919C111.388 129.61 110.77 129.61 110.461 129.919C110.152 130.228 110.152 130.846 110.461 131.155C110.77 131.464 111.388 131.464 111.697 131.155Z" fill="#5D6398"/>
<path d="M111.697 181.047C112.005 180.738 112.005 180.12 111.697 179.811C111.388 179.502 110.77 179.502 110.461 179.811C110.152 180.12 110.152 180.738 110.461 181.047C110.77 181.356 111.388 181.356 111.697 181.047Z" fill="#5D6398"/>
<path d="M105.827 125.285C106.29 124.822 106.444 124.049 105.827 123.431C105.209 122.813 104.591 122.813 103.973 123.431C103.509 123.895 103.355 124.667 103.973 125.285C104.591 125.903 105.363 125.748 105.827 125.285Z" fill="#5D6398"/>
<path d="M105.827 162.815C106.29 162.352 106.444 161.579 105.827 160.962C105.209 160.344 104.591 160.344 103.973 160.962C103.509 161.425 103.355 162.197 103.973 162.815C104.591 163.433 105.363 163.279 105.827 162.815Z" fill="#5D6398"/>
<path d="M41.2553 110.146C40.2315 111.17 40.2315 112.83 41.2553 113.853C42.279 114.877 43.9389 114.877 44.9627 113.853C45.9865 112.83 45.9865 111.17 44.9627 110.146C43.9389 109.122 42.279 109.122 41.2553 110.146Z" fill="#5D6398"/>
</g>
<mask id="path-106-outside-1" maskUnits="userSpaceOnUse" x="45" y="96" width="135" height="32" fill="black">
<rect fill="white" x="45" y="96" width="135" height="32"/>
<path fill-rule="evenodd" clip-rule="evenodd" d="M64.7666 108.707C64.7666 107.602 63.8712 106.707 62.7666 106.707H60.7577V118.213H64.7666V108.707ZM60.6691 101.413C60.551 101.682 60.4919 101.974 60.4919 102.288C60.4919 102.602 60.551 102.901 60.6691 103.185C60.7872 103.454 60.9496 103.693 61.1564 103.903C61.3631 104.112 61.5993 104.277 61.8651 104.396C62.1457 104.516 62.441 104.576 62.7511 104.576C63.0611 104.576 63.3491 104.516 63.6149 104.396C63.8954 104.277 64.139 104.112 64.3458 103.903C64.5525 103.693 64.7149 103.454 64.833 103.185C64.9512 102.901 65.0102 102.602 65.0102 102.288C65.0102 101.974 64.9512 101.682 64.833 101.413C64.7149 101.129 64.5525 100.882 64.3458 100.673C64.139 100.464 63.8954 100.299 63.6149 100.179C63.3491 100.06 63.0611 100 62.7511 100C62.441 100 62.1457 100.06 61.8651 100.179C61.5993 100.299 61.3631 100.464 61.1564 100.673C60.9496 100.882 60.7872 101.129 60.6691 101.413ZM53.3411 105.024H58.5682V101.301H51C49.8954 101.301 49 102.196 49 103.301V118.213H53.3411V111.574H58.1031V107.85H53.3411V105.024ZM71.2271 112.404C71.2271 112.778 71.2935 113.129 71.4264 113.458C71.5593 113.772 71.7365 114.049 71.958 114.288C72.1943 114.527 72.4674 114.714 72.7775 114.849C73.1024 114.983 73.4493 115.05 73.8185 115.05C74.1729 115.05 74.5051 114.983 74.8152 114.849C75.14 114.714 75.4132 114.527 75.6347 114.288C75.8709 114.049 76.0555 113.772 76.1884 113.458C76.3361 113.129 76.4099 112.785 76.4099 112.426C76.4099 112.052 76.3361 111.708 76.1884 111.394C76.0555 111.08 75.8709 110.804 75.6347 110.564C75.3984 110.325 75.1179 110.138 74.793 110.004C74.483 109.869 74.1581 109.802 73.8185 109.802C73.4641 109.802 73.1319 109.877 72.8218 110.026C72.5117 110.161 72.2386 110.348 72.0023 110.587C71.766 110.811 71.5741 111.08 71.4264 111.394C71.2935 111.708 71.2271 112.045 71.2271 112.404ZM80.2195 108.707V117.428C80.2195 118.071 80.1826 118.647 80.1087 119.155C80.0349 119.664 79.9315 120.112 79.7986 120.501C79.6215 120.994 79.3409 121.45 78.957 121.869C78.5879 122.303 78.1375 122.677 77.6059 122.991C77.0744 123.305 76.469 123.551 75.7897 123.731C75.1253 123.91 74.4017 124 73.6192 124C72.7332 124 71.9211 123.888 71.1828 123.664C70.4445 123.439 69.7948 123.125 69.2337 122.721C68.6874 122.333 68.237 121.869 67.8826 121.331C67.5283 120.807 67.292 120.232 67.1739 119.604H71.6922C71.9728 120.366 72.6077 120.748 73.597 120.748C74.4387 120.748 75.081 120.508 75.5239 120.03C75.9817 119.551 76.2106 118.886 76.2106 118.034V116.935C75.9152 117.219 75.6273 117.458 75.3468 117.652C75.081 117.832 74.8078 117.981 74.5273 118.101C74.2467 118.221 73.9514 118.303 73.6413 118.348C73.3312 118.407 72.9916 118.437 72.6225 118.437C71.8103 118.437 71.0647 118.295 70.3854 118.011C69.7062 117.727 69.1156 117.331 68.6135 116.822C68.1263 116.314 67.7424 115.708 67.4618 115.006C67.196 114.288 67.0631 113.495 67.0631 112.628C67.0631 111.746 67.2108 110.931 67.5061 110.183C67.8014 109.421 68.2001 108.763 68.7021 108.209C69.2189 107.641 69.8243 107.2 70.5183 106.886C71.2271 106.557 71.9949 106.393 72.8218 106.393C74.1655 106.393 75.2951 106.901 76.2106 107.918V106.707H78.2195C79.324 106.707 80.2195 107.602 80.2195 108.707ZM85.5455 106.707H82.9496V118.213H86.9586V112.538C86.9586 111.925 87.0029 111.432 87.0914 111.058C87.1948 110.669 87.3277 110.37 87.4901 110.161C87.6673 109.936 87.8667 109.787 88.0881 109.712C88.3096 109.637 88.5459 109.6 88.7969 109.6C89.0922 109.6 89.3506 109.645 89.5721 109.735C89.7936 109.809 89.9708 109.959 90.1037 110.183C90.2513 110.407 90.3621 110.714 90.4359 111.103C90.5097 111.477 90.5467 111.955 90.5467 112.538V118.213H94.5556V112.538C94.5556 110.639 95.1979 109.69 96.4825 109.69C96.7188 109.69 96.9402 109.727 97.147 109.802C97.3537 109.877 97.5309 110.019 97.6785 110.228C97.841 110.437 97.9591 110.729 98.0329 111.103C98.1215 111.477 98.1658 111.955 98.1658 112.538V118.213H102.175V110.744C102.175 109.981 102.071 109.331 101.865 108.793C101.673 108.254 101.407 107.821 101.067 107.492C100.728 107.148 100.322 106.901 99.8491 106.751C99.3766 106.587 98.8746 106.505 98.343 106.505C96.6745 106.505 95.3898 107.23 94.4891 108.68C93.6032 107.245 92.3186 106.527 90.6353 106.527C89.2768 106.527 88.0512 107.058 86.9586 108.12C86.9586 107.339 86.3259 106.707 85.5455 106.707ZM108.646 112.426C108.646 112.8 108.713 113.151 108.846 113.48C108.979 113.794 109.156 114.071 109.377 114.31C109.613 114.55 109.887 114.736 110.197 114.871C110.522 115.006 110.869 115.073 111.238 115.073C111.592 115.073 111.924 115.006 112.234 114.871C112.559 114.736 112.832 114.55 113.054 114.31C113.29 114.071 113.475 113.794 113.608 113.48C113.755 113.166 113.829 112.83 113.829 112.471C113.829 112.112 113.755 111.776 113.608 111.462C113.475 111.133 113.29 110.849 113.054 110.609C112.832 110.37 112.559 110.183 112.234 110.049C111.924 109.914 111.592 109.847 111.238 109.847C110.869 109.847 110.522 109.914 110.197 110.049C109.887 110.183 109.613 110.37 109.377 110.609C109.156 110.849 108.979 111.125 108.846 111.439C108.713 111.738 108.646 112.067 108.646 112.426ZM113.696 106.707H117.727V118.213H113.696V116.935C112.84 118.026 111.681 118.572 110.219 118.572C109.392 118.572 108.632 118.422 107.938 118.123C107.244 117.809 106.638 117.376 106.121 116.822C105.605 116.269 105.198 115.619 104.903 114.871C104.623 114.123 104.482 113.308 104.482 112.426C104.482 111.604 104.623 110.826 104.903 110.093C105.184 109.346 105.575 108.695 106.077 108.142C106.579 107.589 107.177 107.155 107.871 106.841C108.565 106.512 109.333 106.348 110.175 106.348C111.592 106.348 112.766 106.849 113.696 107.85V106.707ZM175.546 118.937V100.809H173.105V118.937H175.546ZM147.517 109.782C146.425 110.841 145.879 112.126 145.879 113.635C145.879 115.238 146.414 116.569 147.484 117.628C148.554 118.701 149.881 119.238 151.465 119.238C153.063 119.238 154.412 118.712 155.511 117.66C156.603 116.601 157.149 115.288 157.149 113.721C157.149 112.168 156.607 110.859 155.522 109.793C154.423 108.727 153.085 108.194 151.508 108.194C149.939 108.194 148.609 108.723 147.517 109.782ZM149.22 116.158C148.656 115.549 148.374 114.723 148.374 113.678C148.374 112.705 148.663 111.911 149.241 111.296C149.82 110.68 150.576 110.372 151.508 110.372C152.456 110.372 153.219 110.68 153.797 111.296C154.368 111.904 154.654 112.716 154.654 113.732C154.654 114.748 154.368 115.56 153.797 116.168C153.226 116.777 152.463 117.081 151.508 117.081C150.561 117.081 149.798 116.773 149.22 116.158ZM159.242 113.635C159.242 112.126 159.788 110.841 160.88 109.782C161.972 108.723 163.303 108.194 164.872 108.194C166.449 108.194 167.786 108.727 168.885 109.793C169.97 110.859 170.513 112.168 170.513 113.721C170.513 115.288 169.967 116.601 168.875 117.66C167.775 118.712 166.427 119.238 164.829 119.238C163.245 119.238 161.918 118.701 160.848 117.628C159.778 116.569 159.242 115.238 159.242 113.635ZM161.737 113.678C161.737 114.723 162.019 115.549 162.583 116.158C163.162 116.773 163.925 117.081 164.872 117.081C165.827 117.081 166.59 116.777 167.161 116.168C167.732 115.56 168.018 114.748 168.018 113.732C168.018 112.716 167.732 111.904 167.161 111.296C166.582 110.68 165.819 110.372 164.872 110.372C163.939 110.372 163.184 110.68 162.605 111.296C162.026 111.911 161.737 112.705 161.737 113.678ZM134.917 105.282C135.986 104.763 137.187 104.569 138.368 104.725C139.549 104.881 140.656 105.379 141.55 106.158L143.396 104.083C142.087 102.943 140.466 102.213 138.738 101.985C137.009 101.757 135.251 102.041 133.686 102.801C132.121 103.561 130.819 104.764 129.944 106.257C129.07 107.749 128.662 109.465 128.773 111.187C128.884 112.908 129.509 114.559 130.568 115.93C131.627 117.3 133.073 118.329 134.723 118.887C136.373 119.444 138.153 119.505 139.838 119.061C141.523 118.618 143.037 117.69 144.189 116.395L142.092 114.569C141.305 115.453 140.271 116.087 139.12 116.39C137.969 116.693 136.753 116.652 135.625 116.271C134.498 115.89 133.51 115.187 132.787 114.251C132.063 113.315 131.637 112.187 131.561 111.011C131.485 109.835 131.764 108.662 132.361 107.643C132.958 106.623 133.848 105.802 134.917 105.282ZM122.091 115.097H125.717V118.685H122.091V115.097Z"/>
</mask>
<path fill-rule="evenodd" clip-rule="evenodd" d="M64.7666 108.707C64.7666 107.602 63.8712 106.707 62.7666 106.707H60.7577V118.213H64.7666V108.707ZM60.6691 101.413C60.551 101.682 60.4919 101.974 60.4919 102.288C60.4919 102.602 60.551 102.901 60.6691 103.185C60.7872 103.454 60.9496 103.693 61.1564 103.903C61.3631 104.112 61.5993 104.277 61.8651 104.396C62.1457 104.516 62.441 104.576 62.7511 104.576C63.0611 104.576 63.3491 104.516 63.6149 104.396C63.8954 104.277 64.139 104.112 64.3458 103.903C64.5525 103.693 64.7149 103.454 64.833 103.185C64.9512 102.901 65.0102 102.602 65.0102 102.288C65.0102 101.974 64.9512 101.682 64.833 101.413C64.7149 101.129 64.5525 100.882 64.3458 100.673C64.139 100.464 63.8954 100.299 63.6149 100.179C63.3491 100.06 63.0611 100 62.7511 100C62.441 100 62.1457 100.06 61.8651 100.179C61.5993 100.299 61.3631 100.464 61.1564 100.673C60.9496 100.882 60.7872 101.129 60.6691 101.413ZM53.3411 105.024H58.5682V101.301H51C49.8954 101.301 49 102.196 49 103.301V118.213H53.3411V111.574H58.1031V107.85H53.3411V105.024ZM71.2271 112.404C71.2271 112.778 71.2935 113.129 71.4264 113.458C71.5593 113.772 71.7365 114.049 71.958 114.288C72.1943 114.527 72.4674 114.714 72.7775 114.849C73.1024 114.983 73.4493 115.05 73.8185 115.05C74.1729 115.05 74.5051 114.983 74.8152 114.849C75.14 114.714 75.4132 114.527 75.6347 114.288C75.8709 114.049 76.0555 113.772 76.1884 113.458C76.3361 113.129 76.4099 112.785 76.4099 112.426C76.4099 112.052 76.3361 111.708 76.1884 111.394C76.0555 111.08 75.8709 110.804 75.6347 110.564C75.3984 110.325 75.1179 110.138 74.793 110.004C74.483 109.869 74.1581 109.802 73.8185 109.802C73.4641 109.802 73.1319 109.877 72.8218 110.026C72.5117 110.161 72.2386 110.348 72.0023 110.587C71.766 110.811 71.5741 111.08 71.4264 111.394C71.2935 111.708 71.2271 112.045 71.2271 112.404ZM80.2195 108.707V117.428C80.2195 118.071 80.1826 118.647 80.1087 119.155C80.0349 119.664 79.9315 120.112 79.7986 120.501C79.6215 120.994 79.3409 121.45 78.957 121.869C78.5879 122.303 78.1375 122.677 77.6059 122.991C77.0744 123.305 76.469 123.551 75.7897 123.731C75.1253 123.91 74.4017 124 73.6192 124C72.7332 124 71.9211 123.888 71.1828 123.664C70.4445 123.439 69.7948 123.125 69.2337 122.721C68.6874 122.333 68.237 121.869 67.8826 121.331C67.5283 120.807 67.292 120.232 67.1739 119.604H71.6922C71.9728 120.366 72.6077 120.748 73.597 120.748C74.4387 120.748 75.081 120.508 75.5239 120.03C75.9817 119.551 76.2106 118.886 76.2106 118.034V116.935C75.9152 117.219 75.6273 117.458 75.3468 117.652C75.081 117.832 74.8078 117.981 74.5273 118.101C74.2467 118.221 73.9514 118.303 73.6413 118.348C73.3312 118.407 72.9916 118.437 72.6225 118.437C71.8103 118.437 71.0647 118.295 70.3854 118.011C69.7062 117.727 69.1156 117.331 68.6135 116.822C68.1263 116.314 67.7424 115.708 67.4618 115.006C67.196 114.288 67.0631 113.495 67.0631 112.628C67.0631 111.746 67.2108 110.931 67.5061 110.183C67.8014 109.421 68.2001 108.763 68.7021 108.209C69.2189 107.641 69.8243 107.2 70.5183 106.886C71.2271 106.557 71.9949 106.393 72.8218 106.393C74.1655 106.393 75.2951 106.901 76.2106 107.918V106.707H78.2195C79.324 106.707 80.2195 107.602 80.2195 108.707ZM85.5455 106.707H82.9496V118.213H86.9586V112.538C86.9586 111.925 87.0029 111.432 87.0914 111.058C87.1948 110.669 87.3277 110.37 87.4901 110.161C87.6673 109.936 87.8667 109.787 88.0881 109.712C88.3096 109.637 88.5459 109.6 88.7969 109.6C89.0922 109.6 89.3506 109.645 89.5721 109.735C89.7936 109.809 89.9708 109.959 90.1037 110.183C90.2513 110.407 90.3621 110.714 90.4359 111.103C90.5097 111.477 90.5467 111.955 90.5467 112.538V118.213H94.5556V112.538C94.5556 110.639 95.1979 109.69 96.4825 109.69C96.7188 109.69 96.9402 109.727 97.147 109.802C97.3537 109.877 97.5309 110.019 97.6785 110.228C97.841 110.437 97.9591 110.729 98.0329 111.103C98.1215 111.477 98.1658 111.955 98.1658 112.538V118.213H102.175V110.744C102.175 109.981 102.071 109.331 101.865 108.793C101.673 108.254 101.407 107.821 101.067 107.492C100.728 107.148 100.322 106.901 99.8491 106.751C99.3766 106.587 98.8746 106.505 98.343 106.505C96.6745 106.505 95.3898 107.23 94.4891 108.68C93.6032 107.245 92.3186 106.527 90.6353 106.527C89.2768 106.527 88.0512 107.058 86.9586 108.12C86.9586 107.339 86.3259 106.707 85.5455 106.707ZM108.646 112.426C108.646 112.8 108.713 113.151 108.846 113.48C108.979 113.794 109.156 114.071 109.377 114.31C109.613 114.55 109.887 114.736 110.197 114.871C110.522 115.006 110.869 115.073 111.238 115.073C111.592 115.073 111.924 115.006 112.234 114.871C112.559 114.736 112.832 114.55 113.054 114.31C113.29 114.071 113.475 113.794 113.608 113.48C113.755 113.166 113.829 112.83 113.829 112.471C113.829 112.112 113.755 111.776 113.608 111.462C113.475 111.133 113.29 110.849 113.054 110.609C112.832 110.37 112.559 110.183 112.234 110.049C111.924 109.914 111.592 109.847 111.238 109.847C110.869 109.847 110.522 109.914 110.197 110.049C109.887 110.183 109.613 110.37 109.377 110.609C109.156 110.849 108.979 111.125 108.846 111.439C108.713 111.738 108.646 112.067 108.646 112.426ZM113.696 106.707H117.727V118.213H113.696V116.935C112.84 118.026 111.681 118.572 110.219 118.572C109.392 118.572 108.632 118.422 107.938 118.123C107.244 117.809 106.638 117.376 106.121 116.822C105.605 116.269 105.198 115.619 104.903 114.871C104.623 114.123 104.482 113.308 104.482 112.426C104.482 111.604 104.623 110.826 104.903 110.093C105.184 109.346 105.575 108.695 106.077 108.142C106.579 107.589 107.177 107.155 107.871 106.841C108.565 106.512 109.333 106.348 110.175 106.348C111.592 106.348 112.766 106.849 113.696 107.85V106.707ZM175.546 118.937V100.809H173.105V118.937H175.546ZM147.517 109.782C146.425 110.841 145.879 112.126 145.879 113.635C145.879 115.238 146.414 116.569 147.484 117.628C148.554 118.701 149.881 119.238 151.465 119.238C153.063 119.238 154.412 118.712 155.511 117.66C156.603 116.601 157.149 115.288 157.149 113.721C157.149 112.168 156.607 110.859 155.522 109.793C154.423 108.727 153.085 108.194 151.508 108.194C149.939 108.194 148.609 108.723 147.517 109.782ZM149.22 116.158C148.656 115.549 148.374 114.723 148.374 113.678C148.374 112.705 148.663 111.911 149.241 111.296C149.82 110.68 150.576 110.372 151.508 110.372C152.456 110.372 153.219 110.68 153.797 111.296C154.368 111.904 154.654 112.716 154.654 113.732C154.654 114.748 154.368 115.56 153.797 116.168C153.226 116.777 152.463 117.081 151.508 117.081C150.561 117.081 149.798 116.773 149.22 116.158ZM159.242 113.635C159.242 112.126 159.788 110.841 160.88 109.782C161.972 108.723 163.303 108.194 164.872 108.194C166.449 108.194 167.786 108.727 168.885 109.793C169.97 110.859 170.513 112.168 170.513 113.721C170.513 115.288 169.967 116.601 168.875 117.66C167.775 118.712 166.427 119.238 164.829 119.238C163.245 119.238 161.918 118.701 160.848 117.628C159.778 116.569 159.242 115.238 159.242 113.635ZM161.737 113.678C161.737 114.723 162.019 115.549 162.583 116.158C163.162 116.773 163.925 117.081 164.872 117.081C165.827 117.081 166.59 116.777 167.161 116.168C167.732 115.56 168.018 114.748 168.018 113.732C168.018 112.716 167.732 111.904 167.161 111.296C166.582 110.68 165.819 110.372 164.872 110.372C163.939 110.372 163.184 110.68 162.605 111.296C162.026 111.911 161.737 112.705 161.737 113.678ZM134.917 105.282C135.986 104.763 137.187 104.569 138.368 104.725C139.549 104.881 140.656 105.379 141.55 106.158L143.396 104.083C142.087 102.943 140.466 102.213 138.738 101.985C137.009 101.757 135.251 102.041 133.686 102.801C132.121 103.561 130.819 104.764 129.944 106.257C129.07 107.749 128.662 109.465 128.773 111.187C128.884 112.908 129.509 114.559 130.568 115.93C131.627 117.3 133.073 118.329 134.723 118.887C136.373 119.444 138.153 119.505 139.838 119.061C141.523 118.618 143.037 117.69 144.189 116.395L142.092 114.569C141.305 115.453 140.271 116.087 139.12 116.39C137.969 116.693 136.753 116.652 135.625 116.271C134.498 115.89 133.51 115.187 132.787 114.251C132.063 113.315 131.637 112.187 131.561 111.011C131.485 109.835 131.764 108.662 132.361 107.643C132.958 106.623 133.848 105.802 134.917 105.282ZM122.091 115.097H125.717V118.685H122.091V115.097Z" fill="url(#paint0_linear)"/>
<path d="M60.7577 106.707V102.707H56.7577V106.707H60.7577ZM60.7577 118.213H56.7577V122.213H60.7577V118.213ZM64.7666 118.213V122.213H68.7666V118.213H64.7666ZM60.6691 101.413L64.3319 103.021L64.3476 102.985L64.3626 102.949L60.6691 101.413ZM60.6691 103.185L56.9756 104.721L56.9906 104.757L57.0063 104.793L60.6691 103.185ZM61.8651 104.396L60.2234 108.044L60.2596 108.06L60.2962 108.076L61.8651 104.396ZM63.6149 104.396L62.046 100.717L62.0094 100.732L61.9731 100.749L63.6149 104.396ZM64.3458 103.903L61.4996 101.092L61.4995 101.092L64.3458 103.903ZM64.833 103.185L68.4958 104.793L68.5115 104.757L68.5265 104.721L64.833 103.185ZM64.833 101.413L61.1396 102.949L61.1546 102.985L61.1703 103.021L64.833 101.413ZM64.3458 100.673L61.4995 103.483L61.4996 103.483L64.3458 100.673ZM63.6149 100.179L61.9731 103.827L62.0094 103.843L62.046 103.859L63.6149 100.179ZM61.8651 100.179L60.2962 96.5L60.2596 96.5156L60.2234 96.5319L61.8651 100.179ZM61.1564 100.673L58.3101 97.8624L58.3101 97.8624L61.1564 100.673ZM58.5682 105.024V109.024H62.5682V105.024H58.5682ZM53.3411 105.024V101.024H49.3411V105.024H53.3411ZM58.5682 101.301H62.5682V97.3009H58.5682V101.301ZM49 118.213H45V122.213H49V118.213ZM53.3411 118.213V122.213H57.3411V118.213H53.3411ZM53.3411 111.574V107.574H49.3411V111.574H53.3411ZM58.1031 111.574V115.574H62.1031V111.574H58.1031ZM58.1031 107.85H62.1031V103.85H58.1031V107.85ZM53.3411 107.85H49.3411V111.85H53.3411V107.85ZM71.4264 113.458L67.7176 114.956L67.7299 114.987L67.7427 115.017L71.4264 113.458ZM71.958 114.288L69.0227 117.005L69.0665 117.053L69.1118 117.098L71.958 114.288ZM72.7775 114.849L71.185 118.518L71.2157 118.531L71.2466 118.544L72.7775 114.849ZM74.8152 114.849L73.2842 111.153L73.2533 111.166L73.2227 111.179L74.8152 114.849ZM75.6347 114.288L72.7885 111.477L72.7432 111.523L72.6994 111.571L75.6347 114.288ZM76.1884 113.458L72.5391 111.82L72.5215 111.859L72.5047 111.899L76.1884 113.458ZM76.1884 111.394L72.5047 112.953L72.5353 113.026L72.5686 113.096L76.1884 111.394ZM75.6347 110.564L78.4809 107.754L78.4809 107.754L75.6347 110.564ZM74.793 110.004L73.2005 113.673L73.2312 113.686L73.2621 113.699L74.793 110.004ZM72.8218 110.026L74.4143 113.695L74.4875 113.664L74.5593 113.629L72.8218 110.026ZM72.0023 110.587L74.7564 113.488L74.8032 113.443L74.8485 113.397L72.0023 110.587ZM71.4264 111.394L67.8066 109.692L67.7733 109.763L67.7427 109.835L71.4264 111.394ZM80.1087 119.155L84.0672 119.73L84.0672 119.73L80.1087 119.155ZM79.7986 120.501L83.5633 121.853L83.5737 121.824L83.5836 121.795L79.7986 120.501ZM78.957 121.869L76.0088 119.166L75.9589 119.22L75.9111 119.276L78.957 121.869ZM77.6059 122.991L79.6404 126.435L79.6404 126.435L77.6059 122.991ZM75.7897 123.731L74.7681 119.864L74.7575 119.866L74.7469 119.869L75.7897 123.731ZM71.1828 123.664L70.02 127.491L70.02 127.491L71.1828 123.664ZM69.2337 122.721L71.57 119.475L71.5615 119.469L71.5529 119.462L69.2337 122.721ZM67.8826 121.331L71.2237 119.131L71.2094 119.11L71.1948 119.088L67.8826 121.331ZM67.1739 119.604V115.604H62.3514L63.2428 120.343L67.1739 119.604ZM71.6922 119.604L75.4463 118.223L74.4828 115.604H71.6922V119.604ZM75.5239 120.03L72.6335 117.265L72.6109 117.289L72.5886 117.313L75.5239 120.03ZM76.2106 116.935H80.2106V107.536L73.4373 114.052L76.2106 116.935ZM75.3468 117.652L77.585 120.968L77.605 120.954L77.6249 120.94L75.3468 117.652ZM74.5273 118.101L72.9584 114.421L72.9583 114.421L74.5273 118.101ZM73.6413 118.348L73.0686 114.389L72.9758 114.402L72.8837 114.42L73.6413 118.348ZM70.3854 118.011L68.8419 121.701L68.8419 121.701L70.3854 118.011ZM68.6135 116.822L65.7257 119.59L65.7464 119.612L65.7673 119.633L68.6135 116.822ZM67.4618 115.006L63.7107 116.395L63.7282 116.442L63.7469 116.489L67.4618 115.006ZM67.5061 110.183L71.2264 111.653L71.2313 111.64L71.2362 111.628L67.5061 110.183ZM68.7021 108.209L65.743 105.518L65.7399 105.521L68.7021 108.209ZM70.5183 106.886L72.1673 110.53L72.1849 110.522L72.2024 110.514L70.5183 106.886ZM76.2106 107.918L73.2379 110.594L80.2106 118.339V107.918H76.2106ZM76.2106 106.707V102.707H72.2106V106.707H76.2106ZM82.9496 106.707V102.707H78.9496V106.707H82.9496ZM82.9496 118.213H78.9496V122.213H82.9496V118.213ZM86.9586 118.213V122.213H90.9586V118.213H86.9586ZM87.0914 111.058L83.2257 110.03L83.2118 110.083L83.1993 110.136L87.0914 111.058ZM87.4901 110.161L84.3514 107.681L84.3405 107.695L84.3298 107.709L87.4901 110.161ZM89.5721 109.735L88.0704 113.442L88.1803 113.487L88.2928 113.524L89.5721 109.735ZM90.1037 110.183L86.6623 112.222L86.7106 112.304L86.7626 112.383L90.1037 110.183ZM90.4359 111.103L86.5061 111.849L86.5089 111.863L86.5117 111.878L90.4359 111.103ZM90.5467 118.213H86.5467V122.213H90.5467V118.213ZM94.5556 118.213V122.213H98.5556V118.213H94.5556ZM97.147 109.802L95.7865 113.563L95.7865 113.563L97.147 109.802ZM97.6785 110.228L94.4098 112.534L94.4623 112.608L94.5182 112.68L97.6785 110.228ZM98.0329 111.103L94.1087 111.878L94.1233 111.952L94.1407 112.025L98.0329 111.103ZM98.1658 118.213H94.1658V122.213H98.1658V118.213ZM102.175 118.213V122.213H106.175V118.213H102.175ZM101.865 108.793L98.097 110.136L98.1132 110.181L98.1305 110.226L101.865 108.793ZM101.067 107.492L98.2211 110.302L98.2523 110.334L98.2842 110.365L101.067 107.492ZM99.8491 106.751L98.534 110.529L98.5879 110.548L98.6422 110.565L99.8491 106.751ZM94.4891 108.68L91.0852 110.781L94.4786 116.28L97.8872 110.791L94.4891 108.68ZM86.9586 108.12H82.9586V117.583L89.746 110.988L86.9586 108.12ZM108.846 113.48L105.137 114.979L105.149 115.009L105.162 115.039L108.846 113.48ZM109.377 114.31L106.442 117.028L106.486 117.075L106.531 117.121L109.377 114.31ZM110.197 114.871L108.604 118.54L108.635 118.554L108.666 118.566L110.197 114.871ZM112.234 114.871L110.703 111.176L110.673 111.188L110.642 111.202L112.234 114.871ZM113.054 114.31L110.208 111.5L110.162 111.546L110.119 111.593L113.054 114.31ZM113.608 113.48L109.988 111.778L109.954 111.849L109.924 111.921L113.608 113.48ZM113.608 111.462L109.899 112.96L109.94 113.063L109.988 113.164L113.608 111.462ZM113.054 110.609L110.119 113.327L110.162 113.374L110.208 113.42L113.054 110.609ZM112.234 110.049L110.642 113.718L110.673 113.731L110.703 113.744L112.234 110.049ZM110.197 110.049L108.666 106.353L108.635 106.366L108.604 106.379L110.197 110.049ZM109.377 110.609L106.531 107.799L106.486 107.845L106.442 107.892L109.377 110.609ZM108.846 111.439L112.501 113.064L112.515 113.031L112.529 112.998L108.846 111.439ZM117.727 106.707H121.727V102.707H117.727V106.707ZM113.696 106.707V102.707H109.696V106.707H113.696ZM117.727 118.213V122.213H121.727V118.213H117.727ZM113.696 118.213H109.696V122.213H113.696V118.213ZM113.696 116.935H117.696V105.356L110.549 114.466L113.696 116.935ZM107.938 118.123L106.289 121.768L106.321 121.783L106.355 121.797L107.938 118.123ZM106.121 116.822L103.198 119.553L103.198 119.553L106.121 116.822ZM104.903 114.871L101.158 116.276L101.17 116.309L101.183 116.341L104.903 114.871ZM104.903 110.093L108.639 111.524L108.643 111.511L108.648 111.499L104.903 110.093ZM106.077 108.142L109.039 110.83L109.039 110.83L106.077 108.142ZM107.871 106.841L109.52 110.485L109.552 110.471L109.584 110.456L107.871 106.841ZM113.696 107.85L110.765 110.572L117.696 118.037V107.85H113.696ZM175.546 100.809H179.546V96.8093H175.546V100.809ZM175.546 118.937V122.937H179.546V118.937H175.546ZM173.105 100.809V96.8093H169.105V100.809H173.105ZM173.105 118.937H169.105V122.937H173.105V118.937ZM147.517 109.782L150.301 112.654V112.654L147.517 109.782ZM147.484 117.628L150.317 114.804L150.307 114.794L150.298 114.785L147.484 117.628ZM155.511 117.66L158.277 120.55L158.286 120.541L158.296 120.532L155.511 117.66ZM155.522 109.793L158.326 106.94L158.316 106.931L158.307 106.922L155.522 109.793ZM149.22 116.158L146.287 118.878L146.296 118.888L146.305 118.897L149.22 116.158ZM149.241 111.296L152.156 114.035L152.156 114.035L149.241 111.296ZM153.797 111.296L156.713 108.557L156.712 108.556L153.797 111.296ZM153.797 116.168L156.713 118.907L156.713 118.907L153.797 116.168ZM160.88 109.782L158.096 106.911L158.096 106.911L160.88 109.782ZM168.885 109.793L171.689 106.94L171.68 106.931L171.67 106.922L168.885 109.793ZM168.875 117.66L171.64 120.55L171.65 120.541L171.659 120.532L168.875 117.66ZM160.848 117.628L163.68 114.804L163.671 114.794L163.661 114.785L160.848 117.628ZM162.583 116.158L159.65 118.878L159.66 118.888L159.669 118.897L162.583 116.158ZM167.161 116.168L164.245 113.43V113.43L167.161 116.168ZM167.161 111.296L170.076 108.557L170.075 108.556L167.161 111.296ZM162.605 111.296L159.691 108.556L159.691 108.556L162.605 111.296ZM138.368 104.725L138.892 100.759L138.892 100.759L138.368 104.725ZM134.917 105.282L133.169 101.684L133.169 101.684L134.917 105.282ZM141.55 106.158L138.923 109.175L141.908 111.774L144.539 108.817L141.55 106.158ZM143.396 104.083L146.385 106.742L149.071 103.721L146.023 101.067L143.396 104.083ZM133.686 102.801L135.434 106.399L135.434 106.399L133.686 102.801ZM129.944 106.257L126.493 104.235L126.493 104.235L129.944 106.257ZM128.773 111.187L132.765 110.929V110.929L128.773 111.187ZM130.568 115.93L127.402 118.375L127.402 118.375L130.568 115.93ZM134.723 118.887L133.442 122.676L134.723 118.887ZM139.838 119.061L138.82 115.193L139.838 119.061ZM144.189 116.395L147.178 119.053L149.864 116.033L146.816 113.378L144.189 116.395ZM142.092 114.569L144.719 111.552L141.734 108.953L139.103 111.91L142.092 114.569ZM135.625 116.271L136.906 112.482L136.906 112.481L135.625 116.271ZM132.787 114.251L129.622 116.696L129.622 116.696L132.787 114.251ZM131.561 111.011L135.553 110.754V110.753L131.561 111.011ZM132.361 107.643L135.812 109.665L135.812 109.665L132.361 107.643ZM125.717 115.097H129.717V111.097H125.717V115.097ZM122.091 115.097V111.097H118.091V115.097H122.091ZM125.717 118.685V122.685H129.717V118.685H125.717ZM122.091 118.685H118.091V122.685H122.091V118.685ZM62.7666 110.707C61.662 110.707 60.7666 109.811 60.7666 108.707H68.7666C68.7666 105.393 66.0803 102.707 62.7666 102.707V110.707ZM60.7577 110.707H62.7666V102.707H60.7577V110.707ZM64.7577 118.213V106.707H56.7577V118.213H64.7577ZM64.7666 114.213H60.7577V122.213H64.7666V114.213ZM60.7666 108.707V118.213H68.7666V108.707H60.7666ZM64.4919 102.288C64.4919 102.489 64.4511 102.749 64.3319 103.021L57.0063 99.8056C56.6509 100.615 56.4919 101.459 56.4919 102.288H64.4919ZM64.3626 101.649C64.451 101.862 64.4919 102.086 64.4919 102.288H56.4919C56.4919 103.118 56.6509 103.94 56.9756 104.721L64.3626 101.649ZM64.0026 101.092C64.1389 101.23 64.2534 101.399 64.3319 101.578L57.0063 104.793C57.321 105.51 57.7604 106.157 58.3101 106.713L64.0026 101.092ZM63.5068 100.749C63.695 100.833 63.8662 100.954 64.0026 101.092L58.3101 106.713C58.86 107.27 59.5036 107.72 60.2234 108.044L63.5068 100.749ZM62.7511 100.576C62.971 100.576 63.2101 100.621 63.434 100.717L60.2962 108.076C61.0812 108.41 61.911 108.576 62.7511 108.576V100.576ZM61.9731 100.749C62.256 100.621 62.5319 100.576 62.7511 100.576V108.576C63.5904 108.576 64.4421 108.41 65.2566 108.044L61.9731 100.749ZM61.4995 101.092C61.6715 100.918 61.8662 100.793 62.046 100.717L65.1838 108.076C65.9246 107.76 66.6066 107.306 67.192 106.713L61.4995 101.092ZM61.1703 101.578C61.2487 101.399 61.3632 101.23 61.4996 101.092L67.192 106.713C67.7418 106.157 68.1811 105.51 68.4958 104.793L61.1703 101.578ZM61.0102 102.288C61.0102 102.086 61.0511 101.862 61.1396 101.649L68.5265 104.721C68.8512 103.94 69.0102 103.118 69.0102 102.288H61.0102ZM61.1703 103.021C61.0511 102.749 61.0102 102.489 61.0102 102.288H69.0102C69.0102 101.459 68.8513 100.615 68.4958 99.8056L61.1703 103.021ZM61.4996 103.483C61.3279 103.31 61.2099 103.118 61.1396 102.949L68.5265 99.8774C68.2199 99.1399 67.7771 98.4549 67.192 97.8624L61.4996 103.483ZM62.046 103.859C61.8662 103.782 61.6715 103.658 61.4995 103.483L67.192 97.8624C66.6066 97.2696 65.9246 96.8159 65.1838 96.5L62.046 103.859ZM62.7511 104C62.5319 104 62.256 103.954 61.9731 103.827L65.2566 96.5319C64.4421 96.1653 63.5904 96 62.7511 96V104ZM63.434 103.859C63.2101 103.954 62.971 104 62.7511 104V96C61.911 96 61.0812 96.1652 60.2962 96.5L63.434 103.859ZM64.0026 103.483C63.8662 103.622 63.695 103.742 63.5068 103.827L60.2234 96.5319C59.5036 96.8558 58.86 97.3055 58.3101 97.8624L64.0026 103.483ZM64.3626 102.949C64.2922 103.118 64.1742 103.31 64.0026 103.483L58.3101 97.8624C57.7251 98.4549 57.2822 99.1399 56.9756 99.8774L64.3626 102.949ZM58.5682 101.024H53.3411V109.024H58.5682V101.024ZM54.5682 101.301V105.024H62.5682V101.301H54.5682ZM51 105.301H58.5682V97.3009H51V105.301ZM53 103.301C53 104.406 52.1046 105.301 51 105.301V97.3009C47.6863 97.3009 45 99.9872 45 103.301H53ZM53 118.213V103.301H45V118.213H53ZM53.3411 114.213H49V122.213H53.3411V114.213ZM49.3411 111.574V118.213H57.3411V111.574H49.3411ZM58.1031 107.574H53.3411V115.574H58.1031V107.574ZM54.1031 107.85V111.574H62.1031V107.85H54.1031ZM53.3411 111.85H58.1031V103.85H53.3411V111.85ZM49.3411 105.024V107.85H57.3411V105.024H49.3411ZM75.1353 111.96C75.2049 112.132 75.2271 112.292 75.2271 112.404H67.2271C67.2271 113.263 67.3822 114.126 67.7176 114.956L75.1353 111.96ZM74.8933 111.571C75.0008 111.687 75.0709 111.806 75.1101 111.899L67.7427 115.017C68.0478 115.738 68.4723 116.411 69.0227 117.005L74.8933 111.571ZM74.37 111.179C74.5263 111.247 74.6793 111.351 74.8042 111.477L69.1118 117.098C69.7092 117.703 70.4085 118.181 71.185 118.518L74.37 111.179ZM73.8185 111.05C73.9481 111.05 74.1239 111.077 74.3084 111.153L71.2466 118.544C72.0808 118.89 72.9506 119.05 73.8185 119.05V111.05ZM73.2227 111.179C73.4394 111.085 73.652 111.05 73.8185 111.05V119.05C74.6937 119.05 75.5708 118.881 76.4077 118.518L73.2227 111.179ZM72.6994 111.571C72.9001 111.354 73.1184 111.222 73.2842 111.153L76.3461 118.544C77.1617 118.206 77.9263 117.7 78.57 117.005L72.6994 111.571ZM72.5047 111.899C72.5664 111.753 72.6637 111.604 72.7885 111.477L78.4809 117.098C79.0781 116.494 79.5447 115.791 79.8721 115.017L72.5047 111.899ZM72.4099 112.426C72.4099 112.218 72.4567 112.004 72.5391 111.82L79.8377 115.096C80.2154 114.254 80.4099 113.352 80.4099 112.426H72.4099ZM72.5686 113.096C72.4469 112.838 72.4099 112.595 72.4099 112.426H80.4099C80.4099 111.51 80.2252 110.579 79.8082 109.692L72.5686 113.096ZM72.7885 113.375C72.6637 113.249 72.5664 113.099 72.5047 112.953L79.8721 109.835C79.5447 109.062 79.0781 108.359 78.4809 107.754L72.7885 113.375ZM73.2621 113.699C73.1168 113.639 72.9443 113.533 72.7885 113.375L78.4809 107.754C77.8526 107.118 77.1189 106.638 76.324 106.308L73.2621 113.699ZM73.8185 113.802C73.6129 113.802 73.3954 113.758 73.2005 113.673L76.3856 106.334C75.5705 105.981 74.7034 105.802 73.8185 105.802V113.802ZM74.5593 113.629C74.3112 113.749 74.0475 113.802 73.8185 113.802V105.802C72.8807 105.802 71.9525 106.005 71.0843 106.423L74.5593 113.629ZM74.8485 113.397C74.7236 113.524 74.5706 113.628 74.4143 113.695L71.2293 106.357C70.4528 106.694 69.7535 107.171 69.1561 107.776L74.8485 113.397ZM75.0462 113.096C74.9962 113.203 74.9037 113.348 74.7564 113.488L69.2482 107.686C68.6284 108.274 68.1519 108.958 67.8066 109.692L75.0462 113.096ZM75.2271 112.404C75.2271 112.552 75.1968 112.748 75.1101 112.953L67.7427 109.835C67.3902 110.668 67.2271 111.538 67.2271 112.404H75.2271ZM84.2195 117.428V108.707H76.2195V117.428H84.2195ZM84.0672 119.73C84.1745 118.991 84.2195 118.218 84.2195 117.428H76.2195C76.2195 117.924 76.1906 118.303 76.1502 118.58L84.0672 119.73ZM83.5836 121.795C83.8133 121.123 83.9663 120.425 84.0672 119.73L76.1502 118.58C76.1035 118.902 76.0497 119.102 76.0137 119.207L83.5836 121.795ZM81.9052 124.572C82.6181 123.795 83.192 122.887 83.5633 121.853L76.034 119.149C76.037 119.141 76.0402 119.133 76.0432 119.127C76.0461 119.121 76.0481 119.118 76.0483 119.117C76.0491 119.116 76.0392 119.133 76.0088 119.166L81.9052 124.572ZM79.6404 126.435C80.5218 125.914 81.3229 125.261 82.0029 124.462L75.9111 119.276C75.8528 119.345 75.7531 119.439 75.5714 119.547L79.6404 126.435ZM76.8114 127.598C77.7981 127.338 78.7522 126.959 79.6404 126.435L75.5714 119.547C75.3965 119.65 75.1398 119.765 74.7681 119.864L76.8114 127.598ZM73.6192 128C74.7067 128 75.7853 127.875 76.8326 127.593L74.7469 119.869C74.4652 119.945 74.0968 120 73.6192 120V128ZM70.02 127.491C71.1863 127.845 72.3964 128 73.6192 128V120C73.07 120 72.6558 119.931 72.3456 119.836L70.02 127.491ZM66.8975 125.968C67.8541 126.657 68.9098 127.154 70.02 127.491L72.3456 119.836C71.9792 119.725 71.7355 119.594 71.57 119.475L66.8975 125.968ZM64.5416 123.53C65.1791 124.499 65.9815 125.317 66.9145 125.981L71.5529 119.462C71.3933 119.349 71.295 119.24 71.2237 119.131L64.5416 123.53ZM63.2428 120.343C63.461 121.503 63.9056 122.592 64.5705 123.574L71.1948 119.088C71.1509 119.023 71.123 118.96 71.105 118.864L63.2428 120.343ZM71.6922 115.604H67.1739V123.604H71.6922V115.604ZM73.597 116.748C73.6023 116.748 73.6898 116.748 73.8357 116.782C73.9859 116.817 74.1999 116.889 74.4382 117.033C74.9799 117.358 75.3042 117.837 75.4463 118.223L67.9382 120.985C68.3607 122.133 69.1429 123.184 70.3194 123.891C71.4342 124.56 72.613 124.748 73.597 124.748V116.748ZM72.5886 117.313C72.8143 117.069 73.0791 116.907 73.3138 116.82C73.5281 116.74 73.6461 116.748 73.597 116.748V124.748C75.2103 124.748 77.0542 124.265 78.4592 122.747L72.5886 117.313ZM72.2106 118.034C72.2106 118.108 72.2001 118.035 72.2564 117.871C72.318 117.692 72.4379 117.469 72.6335 117.265L78.4144 122.795C79.7716 121.376 80.2106 119.609 80.2106 118.034H72.2106ZM72.2106 116.935V118.034H80.2106V116.935H72.2106ZM77.6249 120.94C78.1117 120.603 78.564 120.221 78.9838 119.817L73.4373 114.052C73.2665 114.216 73.1429 114.313 73.0686 114.364L77.6249 120.94ZM76.0961 121.78C76.6226 121.556 77.119 121.282 77.585 120.968L73.1086 114.337C73.043 114.381 72.993 114.407 72.9584 114.421L76.0961 121.78ZM74.214 122.306C74.8575 122.213 75.4884 122.04 76.0962 121.78L72.9583 114.421C73.005 114.402 73.0453 114.392 73.0686 114.389L74.214 122.306ZM72.6225 122.437C73.2044 122.437 73.8015 122.39 74.3989 122.275L72.8837 114.42C72.8609 114.424 72.7788 114.437 72.6225 114.437V122.437ZM68.8419 121.701C70.0582 122.21 71.3352 122.437 72.6225 122.437V114.437C72.2855 114.437 72.0712 114.381 71.929 114.321L68.8419 121.701ZM65.7673 119.633C66.6525 120.529 67.6897 121.219 68.8419 121.701L71.929 114.321C71.7227 114.235 71.5786 114.132 71.4598 114.012L65.7673 119.633ZM63.7469 116.489C64.2037 117.633 64.8569 118.684 65.7257 119.59L71.5014 114.055C71.3956 113.944 71.2811 113.784 71.1768 113.523L63.7469 116.489ZM63.0631 112.628C63.0631 113.907 63.2599 115.177 63.7107 116.395L71.2129 113.617C71.1321 113.398 71.0631 113.084 71.0631 112.628H63.0631ZM63.7858 108.714C63.2884 109.973 63.0631 111.292 63.0631 112.628H71.0631C71.0631 112.2 71.1331 111.889 71.2264 111.653L63.7858 108.714ZM65.7399 105.521C64.8778 106.471 64.2319 107.561 63.776 108.739L71.2362 111.628C71.3709 111.28 71.5224 111.054 71.6644 110.897L65.7399 105.521ZM68.8694 103.242C67.674 103.783 66.6238 104.55 65.743 105.518L71.6613 110.901C71.8141 110.733 71.9747 110.617 72.1673 110.53L68.8694 103.242ZM72.8218 102.393C71.4478 102.393 70.1012 102.67 68.8343 103.258L72.2024 110.514C72.353 110.444 72.542 110.393 72.8218 110.393V102.393ZM79.1832 105.241C77.525 103.4 75.3226 102.393 72.8218 102.393V110.393C72.9762 110.393 73.0289 110.419 73.035 110.421C73.0429 110.425 73.1125 110.455 73.2379 110.594L79.1832 105.241ZM72.2106 106.707V107.918H80.2106V106.707H72.2106ZM78.2195 102.707H76.2106V110.707H78.2195V102.707ZM84.2195 108.707C84.2195 105.393 81.5332 102.707 78.2195 102.707V110.707C77.1149 110.707 76.2195 109.811 76.2195 108.707H84.2195ZM82.9496 110.707H85.5455V102.707H82.9496V110.707ZM86.9496 118.213V106.707H78.9496V118.213H86.9496ZM86.9586 114.213H82.9496V122.213H86.9586V114.213ZM82.9586 112.538V118.213H90.9586V112.538H82.9586ZM83.1993 110.136C83.0096 110.936 82.9586 111.775 82.9586 112.538H90.9586C90.9586 112.324 90.9664 112.17 90.9758 112.066C90.9854 111.958 90.9939 111.937 90.9836 111.98L83.1993 110.136ZM84.3298 107.709C83.7146 108.502 83.4023 109.366 83.2257 110.03L90.9572 112.086C90.9664 112.051 90.9601 112.085 90.924 112.166C90.8887 112.246 90.8069 112.411 90.6505 112.613L84.3298 107.709ZM86.8088 105.922C85.705 106.295 84.9009 106.986 84.3514 107.681L90.6289 112.64C90.4337 112.887 90.0283 113.279 89.3675 113.502L86.8088 105.922ZM88.7969 105.6C88.143 105.6 87.4719 105.698 86.8088 105.922L89.3675 113.502C89.1474 113.576 88.9488 113.6 88.7969 113.6V105.6ZM91.0739 106.027C90.2773 105.705 89.4895 105.6 88.7969 105.6V113.6C88.695 113.6 88.424 113.585 88.0704 113.442L91.0739 106.027ZM93.545 108.144C92.9844 107.198 92.0859 106.361 90.8514 105.945L88.2928 113.524C87.9319 113.403 87.5896 113.211 87.2913 112.96C86.998 112.712 86.796 112.448 86.6623 112.222L93.545 108.144ZM94.3657 110.357C94.2359 109.673 93.986 108.806 93.4447 107.984L86.7626 112.383C86.6315 112.183 86.5651 112.022 86.5355 111.94C86.5054 111.857 86.5007 111.821 86.5061 111.849L94.3657 110.357ZM94.5467 112.538C94.5467 111.816 94.5034 111.053 94.3601 110.328L86.5117 111.878C86.5115 111.877 86.5215 111.929 86.5308 112.05C86.5399 112.168 86.5467 112.328 86.5467 112.538H94.5467ZM94.5467 118.213V112.538H86.5467V118.213H94.5467ZM94.5556 114.213H90.5467V122.213H94.5556V114.213ZM90.5556 112.538V118.213H98.5556V112.538H90.5556ZM96.4825 105.69C94.6997 105.69 92.8885 106.439 91.7241 108.161C90.7484 109.603 90.5556 111.263 90.5556 112.538H98.5556C98.5556 112.276 98.5789 112.168 98.578 112.172C98.5774 112.175 98.5342 112.371 98.3505 112.643C98.1488 112.941 97.832 113.247 97.4075 113.456C97.0008 113.656 96.6555 113.69 96.4825 113.69V105.69ZM98.5074 106.04C97.8329 105.796 97.1478 105.69 96.4825 105.69V113.69C96.2897 113.69 96.0476 113.658 95.7865 113.563L98.5074 106.04ZM100.947 107.923C100.408 107.158 99.6057 106.438 98.5074 106.04L95.7865 113.563C95.1017 113.316 94.6539 112.88 94.4098 112.534L100.947 107.923ZM101.957 110.328C101.812 109.592 101.513 108.645 100.839 107.776L94.5182 112.68C94.3369 112.446 94.2354 112.238 94.1816 112.106C94.1281 111.974 94.111 111.889 94.1087 111.878L101.957 110.328ZM102.166 112.538C102.166 111.787 102.112 110.969 101.925 110.18L94.1407 112.025C94.1327 111.991 94.1406 112.014 94.1496 112.111C94.1583 112.205 94.1658 112.345 94.1658 112.538H102.166ZM102.166 118.213V112.538H94.1658V118.213H102.166ZM102.175 114.213H98.1658V122.213H102.175V114.213ZM98.1747 110.744V118.213H106.175V110.744H98.1747ZM98.1305 110.226C98.1149 110.186 98.1747 110.322 98.1747 110.744H106.175C106.175 109.64 106.028 108.476 105.599 107.359L98.1305 110.226ZM98.2842 110.365C98.0998 110.186 98.0689 110.057 98.097 110.136L105.632 107.449C105.276 106.451 104.714 105.455 103.85 104.619L98.2842 110.365ZM98.6422 110.565C98.5868 110.547 98.5127 110.517 98.4309 110.467C98.3488 110.417 98.2777 110.36 98.2211 110.302L103.913 104.681C103.105 103.862 102.132 103.278 101.056 102.938L98.6422 110.565ZM98.343 110.505C98.455 110.505 98.5101 110.521 98.534 110.529L101.164 102.974C100.243 102.653 99.2942 102.505 98.343 102.505V110.505ZM97.8872 110.791C98.0394 110.545 98.1234 110.516 98.0946 110.532C98.0885 110.535 98.0917 110.532 98.1175 110.525C98.1459 110.518 98.2165 110.505 98.343 110.505V102.505C95.2524 102.505 92.7007 103.978 91.091 106.57L97.8872 110.791ZM90.6353 110.527C90.7713 110.527 90.8492 110.542 90.8827 110.55C90.9137 110.557 90.9181 110.562 90.9101 110.557C90.9022 110.553 90.9092 110.555 90.9328 110.578C90.9583 110.603 91.0126 110.664 91.0852 110.781L97.893 106.58C96.2804 103.967 93.7094 102.527 90.6353 102.527V110.527ZM89.746 110.988C90.1908 110.556 90.4476 110.527 90.6353 110.527V102.527C88.1059 102.527 85.9117 103.56 84.1711 105.251L89.746 110.988ZM85.5455 110.707C84.1168 110.707 82.9586 109.548 82.9586 108.12H90.9586C90.9586 105.13 88.535 102.707 85.5455 102.707V110.707ZM112.554 111.982C112.624 112.154 112.646 112.314 112.646 112.426H104.646C104.646 113.286 104.801 114.148 105.137 114.979L112.554 111.982ZM112.312 111.593C112.42 111.709 112.49 111.829 112.529 111.921L105.162 115.039C105.467 115.76 105.891 116.433 106.442 117.028L112.312 111.593ZM111.789 111.202C111.946 111.27 112.099 111.373 112.223 111.5L106.531 117.121C107.128 117.726 107.828 118.203 108.604 118.54L111.789 111.202ZM111.238 111.073C111.367 111.073 111.543 111.099 111.728 111.176L108.666 118.566C109.5 118.912 110.37 119.073 111.238 119.073V111.073ZM110.642 111.202C110.859 111.108 111.071 111.073 111.238 111.073V119.073C112.113 119.073 112.99 118.904 113.827 118.54L110.642 111.202ZM110.119 111.593C110.319 111.376 110.538 111.244 110.703 111.176L113.765 118.566C114.581 118.229 115.346 117.723 115.989 117.028L110.119 111.593ZM109.924 111.921C109.986 111.776 110.083 111.626 110.208 111.5L115.9 117.121C116.497 116.516 116.964 115.813 117.291 115.039L109.924 111.921ZM109.829 112.471C109.829 112.262 109.876 112.015 109.988 111.778L117.227 115.182C117.634 114.317 117.829 113.398 117.829 112.471H109.829ZM109.988 113.164C109.876 112.927 109.829 112.68 109.829 112.471H117.829C117.829 111.544 117.634 110.625 117.227 109.76L109.988 113.164ZM110.208 113.42C110.052 113.263 109.953 113.094 109.899 112.96L117.316 109.963C116.997 109.172 116.528 108.435 115.9 107.799L110.208 113.42ZM110.703 113.744C110.538 113.675 110.319 113.543 110.119 113.327L115.989 107.892C115.346 107.197 114.581 106.691 113.765 106.353L110.703 113.744ZM111.238 113.847C111.071 113.847 110.859 113.812 110.642 113.718L113.827 106.379C112.99 106.016 112.113 105.847 111.238 105.847V113.847ZM111.728 113.744C111.543 113.82 111.367 113.847 111.238 113.847V105.847C110.37 105.847 109.5 106.008 108.666 106.353L111.728 113.744ZM112.223 113.42C112.099 113.546 111.946 113.65 111.789 113.718L108.604 106.379C107.828 106.716 107.128 107.194 106.531 107.799L112.223 113.42ZM112.529 112.998C112.49 113.091 112.42 113.211 112.312 113.327L106.442 107.892C105.891 108.487 105.467 109.16 105.162 109.88L112.529 112.998ZM112.646 112.426C112.646 112.572 112.616 112.804 112.501 113.064L105.19 109.815C104.809 110.673 104.646 111.562 104.646 112.426H112.646ZM117.727 102.707H113.696V110.707H117.727V102.707ZM121.727 118.213V106.707H113.727V118.213H121.727ZM113.696 122.213H117.727V114.213H113.696V122.213ZM109.696 116.935V118.213H117.696V116.935H109.696ZM110.219 122.572C112.833 122.572 115.183 121.52 116.843 119.404L110.549 114.466C110.507 114.52 110.48 114.542 110.475 114.546C110.471 114.55 110.474 114.547 110.481 114.544C110.487 114.541 110.478 114.546 110.443 114.554C110.407 114.561 110.335 114.572 110.219 114.572V122.572ZM106.355 121.797C107.594 122.331 108.899 122.572 110.219 122.572V114.572C109.885 114.572 109.669 114.514 109.521 114.45L106.355 121.797ZM103.198 119.553C104.078 120.494 105.117 121.237 106.289 121.768L109.587 114.479C109.37 114.381 109.199 114.257 109.044 114.092L103.198 119.553ZM101.183 116.341C101.651 117.526 102.318 118.611 103.198 119.553L109.044 114.092C108.891 113.928 108.746 113.712 108.623 113.402L101.183 116.341ZM100.482 112.426C100.482 113.738 100.692 115.035 101.158 116.276L108.648 113.466C108.553 113.212 108.482 112.879 108.482 112.426H100.482ZM101.168 108.663C100.704 109.874 100.482 111.139 100.482 112.426H108.482C108.482 112.069 108.541 111.778 108.639 111.524L101.168 108.663ZM103.115 105.454C102.25 106.407 101.604 107.5 101.158 108.688L108.648 111.499C108.764 111.191 108.9 110.984 109.039 110.83L103.115 105.454ZM106.222 103.197C105.04 103.732 103.992 104.487 103.115 105.454L109.039 110.83C109.166 110.69 109.315 110.578 109.52 110.485L106.222 103.197ZM110.175 102.348C108.798 102.348 107.437 102.62 106.158 103.227L109.584 110.456C109.693 110.404 109.868 110.348 110.175 110.348V102.348ZM116.627 105.129C114.909 103.278 112.658 102.348 110.175 102.348V110.348C110.404 110.348 110.51 110.386 110.548 110.402C110.583 110.417 110.654 110.453 110.765 110.572L116.627 105.129ZM109.696 106.707V107.85H117.696V106.707H109.696ZM171.546 100.809V118.937H179.546V100.809H171.546ZM173.105 104.809H175.546V96.8093H173.105V104.809ZM177.105 118.937V100.809H169.105V118.937H177.105ZM175.546 114.937H173.105V122.937H175.546V114.937ZM149.879 113.635C149.879 113.217 149.98 112.966 150.301 112.654L144.732 106.911C142.87 108.717 141.879 111.034 141.879 113.635H149.879ZM150.298 114.785C150.039 114.529 149.879 114.247 149.879 113.635H141.879C141.879 116.23 142.788 118.609 144.671 120.471L150.298 114.785ZM151.465 115.238C150.891 115.238 150.6 115.088 150.317 114.804L144.652 120.452C146.509 122.315 148.872 123.238 151.465 123.238V115.238ZM152.746 114.77C152.431 115.071 152.09 115.238 151.465 115.238V123.238C154.036 123.238 156.392 122.353 158.277 120.55L152.746 114.77ZM153.149 113.721C153.149 114.243 153.015 114.508 152.726 114.789L158.296 120.532C160.19 118.694 161.149 116.334 161.149 113.721H153.149ZM152.718 112.646C153.02 112.942 153.149 113.216 153.149 113.721H161.149C161.149 111.121 160.193 108.776 158.326 106.94L152.718 112.646ZM151.508 112.194C152.079 112.194 152.408 112.345 152.737 112.664L158.307 106.922C156.437 105.108 154.091 104.194 151.508 104.194V112.194ZM150.301 112.654C150.621 112.343 150.942 112.194 151.508 112.194V104.194C148.936 104.194 146.596 105.103 144.732 106.911L150.301 112.654ZM144.374 113.678C144.374 115.459 144.872 117.351 146.287 118.878L152.153 113.438C152.207 113.497 152.256 113.562 152.295 113.629C152.334 113.695 152.358 113.751 152.371 113.79C152.396 113.865 152.374 113.845 152.374 113.678H144.374ZM146.327 108.556C144.945 110.026 144.374 111.853 144.374 113.678H152.374C152.374 113.589 152.386 113.619 152.349 113.722C152.331 113.772 152.304 113.829 152.268 113.888C152.232 113.946 152.193 113.996 152.156 114.035L146.327 108.556ZM151.508 106.372C149.6 106.372 147.745 107.048 146.327 108.556L152.156 114.035C152.065 114.131 151.924 114.237 151.75 114.308C151.586 114.375 151.486 114.372 151.508 114.372V106.372ZM156.712 108.556C155.281 107.034 153.411 106.372 151.508 106.372V114.372C151.546 114.372 151.455 114.378 151.295 114.313C151.124 114.244 150.98 114.138 150.883 114.035L156.712 108.556ZM158.654 113.732C158.654 111.932 158.126 110.061 156.713 108.557L150.882 114.034C150.833 113.982 150.787 113.922 150.747 113.856C150.708 113.791 150.682 113.733 150.666 113.688C150.635 113.599 150.654 113.596 150.654 113.732H158.654ZM156.713 118.907C158.126 117.403 158.654 115.532 158.654 113.732H150.654C150.654 113.867 150.635 113.865 150.666 113.776C150.682 113.731 150.708 113.673 150.747 113.608C150.787 113.542 150.833 113.482 150.882 113.43L156.713 118.907ZM151.508 121.081C153.393 121.081 155.274 120.439 156.713 118.907L150.882 113.43C150.99 113.314 151.144 113.205 151.315 113.137C151.475 113.073 151.56 113.081 151.508 113.081V121.081ZM146.305 118.897C147.736 120.419 149.606 121.081 151.508 121.081V113.081C151.471 113.081 151.561 113.075 151.722 113.14C151.892 113.209 152.037 113.315 152.134 113.418L146.305 118.897ZM158.096 106.911C156.233 108.717 155.242 111.034 155.242 113.635H163.242C163.242 113.217 163.343 112.966 163.665 112.654L158.096 106.911ZM164.872 104.194C162.3 104.194 159.96 105.103 158.096 106.911L163.665 112.654C163.985 112.343 164.306 112.194 164.872 112.194V104.194ZM171.67 106.922C169.801 105.108 167.454 104.194 164.872 104.194V112.194C165.443 112.194 165.772 112.345 166.101 112.664L171.67 106.922ZM174.513 113.721C174.513 111.121 173.557 108.776 171.689 106.94L166.082 112.646C166.383 112.942 166.513 113.216 166.513 113.721H174.513ZM171.659 120.532C173.554 118.694 174.513 116.334 174.513 113.721H166.513C166.513 114.243 166.379 114.508 166.09 114.789L171.659 120.532ZM164.829 123.238C167.4 123.238 169.756 122.353 171.64 120.55L166.109 114.77C165.795 115.071 165.454 115.238 164.829 115.238V123.238ZM158.015 120.452C159.873 122.315 162.235 123.238 164.829 123.238V115.238C164.255 115.238 163.963 115.088 163.68 114.804L158.015 120.452ZM155.242 113.635C155.242 116.23 156.152 118.609 158.034 120.471L163.661 114.785C163.403 114.529 163.242 114.247 163.242 113.635H155.242ZM165.516 113.438C165.571 113.497 165.619 113.562 165.659 113.629C165.698 113.695 165.721 113.751 165.734 113.79C165.76 113.865 165.737 113.845 165.737 113.678H157.737C157.737 115.459 158.235 117.351 159.65 118.878L165.516 113.438ZM164.872 113.081C164.834 113.081 164.925 113.075 165.086 113.14C165.256 113.209 165.401 113.315 165.498 113.418L159.669 118.897C161.099 120.419 162.969 121.081 164.872 121.081V113.081ZM164.245 113.43C164.354 113.314 164.508 113.205 164.679 113.137C164.839 113.073 164.923 113.081 164.872 113.081V121.081C166.757 121.081 168.637 120.439 170.076 118.907L164.245 113.43ZM164.018 113.732C164.018 113.867 163.999 113.865 164.03 113.776C164.046 113.731 164.072 113.673 164.111 113.608C164.15 113.542 164.196 113.482 164.245 113.43L170.076 118.907C171.489 117.403 172.018 115.532 172.018 113.732H164.018ZM164.245 114.034C164.196 113.982 164.15 113.922 164.111 113.856C164.072 113.791 164.046 113.733 164.03 113.688C163.999 113.599 164.018 113.596 164.018 113.732H172.018C172.018 111.932 171.489 110.061 170.076 108.557L164.245 114.034ZM164.872 114.372C164.91 114.372 164.819 114.378 164.659 114.313C164.488 114.244 164.343 114.138 164.246 114.035L170.075 108.556C168.645 107.034 166.775 106.372 164.872 106.372V114.372ZM165.519 114.035C165.429 114.131 165.288 114.237 165.114 114.308C164.949 114.375 164.849 114.372 164.872 114.372V106.372C162.963 106.372 161.108 107.048 159.691 108.556L165.519 114.035ZM165.737 113.678C165.737 113.589 165.75 113.619 165.713 113.721C165.694 113.771 165.668 113.829 165.632 113.887C165.595 113.946 165.556 113.996 165.519 114.035L159.691 108.556C158.309 110.026 157.737 111.853 157.737 113.678H165.737ZM138.892 100.759C136.936 100.501 134.945 100.822 133.169 101.684L136.665 108.88C137.028 108.704 137.439 108.637 137.844 108.69L138.892 100.759ZM144.177 103.142C142.688 101.844 140.848 101.017 138.892 100.759L137.844 108.69C138.25 108.744 138.625 108.914 138.923 109.175L144.177 103.142ZM140.407 101.425L138.561 103.5L144.539 108.817L146.385 106.742L140.407 101.425ZM138.214 105.951C139.167 106.076 140.055 106.478 140.769 107.1L146.023 101.067C144.118 99.4084 141.765 98.3501 139.261 98.0194L138.214 105.951ZM135.434 106.399C136.293 105.982 137.261 105.825 138.214 105.951L139.261 98.0194C136.758 97.6888 134.21 98.0998 131.938 99.2032L135.434 106.399ZM133.396 108.279C133.868 107.472 134.576 106.816 135.434 106.399L131.938 99.2032C129.667 100.307 127.77 102.056 126.493 104.235L133.396 108.279ZM132.765 110.929C132.706 110.007 132.924 109.084 133.396 108.279L126.493 104.235C125.216 106.414 124.619 108.923 124.782 111.444L132.765 110.929ZM133.733 113.484C133.159 112.742 132.825 111.852 132.765 110.929L124.782 111.444C124.944 113.964 125.858 116.376 127.402 118.375L133.733 113.484ZM136.003 115.097C135.096 114.791 134.307 114.227 133.733 113.484L127.402 118.375C128.946 120.374 131.05 121.868 133.442 122.676L136.003 115.097ZM138.82 115.193C137.892 115.438 136.911 115.404 136.003 115.097L133.442 122.676C135.835 123.485 138.414 123.573 140.856 122.93L138.82 115.193ZM141.2 113.736C140.575 114.44 139.747 114.949 138.82 115.193L140.856 122.93C143.299 122.287 145.5 120.94 147.178 119.053L141.2 113.736ZM139.465 117.585L141.562 119.411L146.816 113.378L144.719 111.552L139.465 117.585ZM140.138 120.259C142.046 119.756 143.768 118.704 145.081 117.227L139.103 111.91C138.843 112.203 138.495 112.419 138.101 112.522L140.138 120.259ZM134.345 120.061C136.215 120.692 138.23 120.761 140.138 120.259L138.101 112.522C137.707 112.626 137.291 112.612 136.906 112.482L134.345 120.061ZM129.622 116.696C130.83 118.261 132.475 119.429 134.345 120.061L136.906 112.481C136.521 112.352 136.191 112.114 135.952 111.805L129.622 116.696ZM127.569 111.268C127.697 113.243 128.413 115.132 129.622 116.696L135.952 111.805C135.714 111.497 135.577 111.131 135.553 110.754L127.569 111.268ZM128.91 105.621C127.91 107.327 127.442 109.293 127.569 111.268L135.553 110.753C135.528 110.376 135.617 109.998 135.812 109.665L128.91 105.621ZM133.169 101.684C131.394 102.547 129.909 103.915 128.91 105.621L135.812 109.665C136.008 109.331 136.302 109.056 136.665 108.88L133.169 101.684ZM125.717 111.097H122.091V119.097H125.717V111.097ZM129.717 118.685V115.097H121.717V118.685H129.717ZM122.091 122.685H125.717V114.685H122.091V122.685ZM118.091 115.097V118.685H126.091V115.097H118.091Z" fill="#292929" mask="url(#path-106-outside-1)"/>
<defs>
<filter id="filter0_di" x="0.105469" y="0" width="225.789" height="225.789" filterUnits="userSpaceOnUse" color-interpolation-filters="sRGB">
<feFlood flood-opacity="0" result="BackgroundImageFix"/>
<feColorMatrix in="SourceAlpha" type="matrix" values="0 0 0 0 0 0 0 0 0 0 0 0 0 0 0 0 0 0 127 0"/>
<feOffset dy="1"/>
<feGaussianBlur stdDeviation="2"/>
<feColorMatrix type="matrix" values="0 0 0 0 0 0 0 0 0 0 0 0 0 0 0 0 0 0 0.25 0"/>
<feBlend mode="normal" in2="BackgroundImageFix" result="effect1_dropShadow"/>
<feBlend mode="normal" in="SourceGraphic" in2="effect1_dropShadow" result="shape"/>
<feColorMatrix in="SourceAlpha" type="matrix" values="0 0 0 0 0 0 0 0 0 0 0 0 0 0 0 0 0 0 127 0" result="hardAlpha"/>
<feOffset dy="1"/>
<feGaussianBlur stdDeviation="0.5"/>
<feComposite in2="hardAlpha" operator="arithmetic" k2="-1" k3="1"/>
<feColorMatrix type="matrix" values="0 0 0 0 0.3625 0 0 0 0 0.388443 0 0 0 0 0.6375 0 0 0 0.6 0"/>
<feBlend mode="normal" in2="shape" result="effect2_innerShadow"/>
</filter>
<linearGradient id="paint0_linear" x1="49" y1="112.006" x2="175.548" y2="112.029" gradientUnits="userSpaceOnUse">
<stop stop-color="#605CF7"/>
<stop offset="0.364583" stop-color="#F15C8D"/>
<stop offset="0.816877" stop-color="#EBA800"/>
<stop offset="1" stop-color="#01B5FF"/>
</linearGradient>
</defs>
</svg>
