<svg width="226" height="226" viewBox="0 0 226 226" fill="none" xmlns="http://www.w3.org/2000/svg">
<g filter="url(#filter0_di)">
<rect x="113" y="4.41421" width="152" height="152" rx="15" transform="rotate(45 113 4.41421)" stroke="#3E4373" stroke-width="2"/>
</g>
<g opacity="0.6">
<path d="M81.419 76.1613C82.1914 75.389 82.0369 74.3076 81.419 73.6897C80.6466 72.9173 79.5653 73.0718 78.9473 73.6897C78.175 74.4621 78.3294 75.5434 78.9474 76.1614C79.7197 76.9337 80.6466 76.9337 81.419 76.1613Z" fill="#5D6398"/>
<path d="M75.2403 69.9829C76.0126 69.2105 75.8582 68.1292 75.2403 67.5113C74.4679 66.7389 73.3865 66.8933 72.7686 67.5112C71.9962 68.2836 72.1507 69.365 72.7686 69.9829C73.541 70.7553 74.4679 70.7553 75.2403 69.9829Z" fill="#5D6398"/>
<path d="M111.697 106.439C112.005 106.13 112.005 105.512 111.697 105.203C111.388 104.894 110.77 104.894 110.461 105.203C110.152 105.512 110.152 106.13 110.461 106.439C110.77 106.748 111.388 106.748 111.697 106.439Z" fill="#5D6398"/>
<path d="M111.697 156.33C112.005 156.021 112.005 155.403 111.697 155.094C111.388 154.785 110.77 154.785 110.461 155.094C110.152 155.403 110.152 156.021 110.461 156.33C110.77 156.639 111.388 156.639 111.697 156.33Z" fill="#5D6398"/>
<path d="M87.4441 82.1858C88.062 81.5679 88.062 80.6411 87.4441 80.0232C86.8262 79.4053 85.8993 79.4053 85.2814 80.0232C84.6635 80.6411 84.6635 81.5679 85.2814 82.1858C85.8993 82.8037 86.8261 82.8037 87.4441 82.1858Z" fill="#5D6398"/>
<path d="M81.419 63.8032C82.1914 63.0308 82.0369 61.9495 81.419 61.3316C80.6466 60.5592 79.5652 60.7137 78.9473 61.3316C78.3294 61.9495 78.3294 63.1853 78.9473 63.8032C79.7197 64.5756 80.6466 64.5756 81.419 63.8032Z" fill="#5D6398"/>
<path d="M93.6233 88.365C94.2412 87.7471 94.2412 86.8203 93.6233 86.2024C93.0053 85.5844 92.0785 85.5844 91.4606 86.2024C90.8427 86.8203 90.8427 87.7471 91.4606 88.365C92.0785 88.9829 93.0053 88.9829 93.6233 88.365Z" fill="#5D6398"/>
<path d="M99.6474 94.3895C100.111 93.9261 100.265 93.1537 99.6474 92.5358C99.1839 92.0724 98.4116 91.9179 97.7937 92.5358C97.3302 92.9992 97.1757 93.7716 97.7937 94.3895C98.2571 94.8529 99.1839 94.8529 99.6474 94.3895Z" fill="#5D6398"/>
<path d="M105.827 100.568C106.29 100.105 106.444 99.3327 105.827 98.7147C105.209 98.0968 104.591 98.0968 103.973 98.7147C103.509 99.1782 103.355 99.9506 103.973 100.568C104.591 101.186 105.363 101.032 105.827 100.568Z" fill="#5D6398"/>
<path d="M57.1665 126.057C58.0933 125.131 58.0933 123.586 57.1665 122.659C56.2396 121.732 54.6949 121.732 53.768 122.659C52.8411 123.586 52.8411 125.131 53.768 126.057C54.6949 126.984 56.2396 126.984 57.1665 126.057Z" fill="#5D6398"/>
<path d="M63.1911 132.082C63.9635 131.309 64.1179 129.919 63.1911 128.992C62.2642 128.065 61.0284 128.065 60.1015 128.992C59.3292 129.765 59.1747 131.155 60.1015 132.082C61.0284 133.009 62.4187 132.854 63.1911 132.082Z" fill="#5D6398"/>
<path d="M66.2807 135.171C65.4276 136.024 65.4276 137.408 66.2807 138.261C67.1339 139.114 68.5171 139.114 69.3703 138.261C70.2234 137.408 70.2234 136.024 69.3703 135.171C68.5171 134.318 67.1339 134.318 66.2807 135.171Z" fill="#5D6398"/>
<path d="M50.9878 119.878C51.9146 118.951 51.9146 117.407 50.9878 116.48C50.0609 115.553 48.5162 115.553 47.5893 116.48C46.6624 117.407 46.6624 118.951 47.5893 119.878C48.5162 120.805 50.0609 120.805 50.9878 119.878Z" fill="#5D6398"/>
<path d="M75.2403 144.131C76.0126 143.359 75.8582 142.277 75.2403 141.659C74.4679 140.887 73.3866 141.042 72.7686 141.659C71.9963 142.432 72.1507 143.513 72.7686 144.131C73.541 144.903 74.4679 144.903 75.2403 144.131Z" fill="#5D6398"/>
<path d="M38.7835 107.675C39.8648 106.593 39.7104 104.894 38.7835 103.967C37.7022 102.886 36.0029 103.04 35.0761 103.967C34.1492 104.894 34.1492 106.748 35.0761 107.675C36.1574 108.756 37.7022 108.756 38.7835 107.675Z" fill="#5D6398"/>
<path d="M32.9135 114.163C34.1493 112.927 34.1493 111.073 32.9135 109.837C31.6777 108.602 29.824 108.602 28.5882 109.837C27.3523 111.073 27.3523 112.927 28.5882 114.163C29.824 115.398 31.6777 115.398 32.9135 114.163Z" fill="#5D6398"/>
<path d="M57.1665 138.415C58.0933 137.488 58.0933 135.944 57.1665 135.017C56.2396 134.09 54.6949 134.09 53.768 135.017C52.8411 135.944 52.8411 137.488 53.768 138.415C54.6949 139.342 56.2396 139.342 57.1665 138.415Z" fill="#5D6398"/>
<path d="M81.419 150.31C82.1914 149.538 82.0369 148.457 81.419 147.839C80.8011 147.221 79.5653 147.221 78.9474 147.839C78.175 148.611 78.3294 149.692 78.9473 150.31C79.5652 150.928 80.6466 151.083 81.419 150.31Z" fill="#5D6398"/>
<path d="M81.419 163.041C82.1914 162.269 82.0369 161.187 81.419 160.569C80.8011 159.951 79.5653 159.951 78.9474 160.569C78.175 161.342 78.3294 162.423 78.9473 163.041C79.5652 163.659 80.6466 163.813 81.419 163.041Z" fill="#5D6398"/>
<path d="M63.1911 144.44C63.9635 143.668 64.1179 142.277 63.1911 141.35C62.2642 140.424 61.0284 140.424 60.1015 141.35C59.1747 142.277 59.1747 143.513 60.1015 144.44C61.0284 145.367 62.4187 145.212 63.1911 144.44Z" fill="#5D6398"/>
<path d="M50.9878 132.236C51.9146 131.309 51.9146 129.765 50.9878 128.838C50.0609 127.911 48.5162 127.911 47.5893 128.838C46.6624 129.765 46.6624 131.309 47.5893 132.236C48.5162 133.163 50.0609 133.163 50.9878 132.236Z" fill="#5D6398"/>
<path d="M69.3703 150.619C70.1427 149.847 70.2971 148.457 69.3703 147.53C68.5979 146.757 67.2076 146.603 66.2807 147.53C65.3539 148.457 65.3539 149.692 66.2807 150.619C67.0531 151.392 68.5979 151.392 69.3703 150.619Z" fill="#5D6398"/>
<path d="M44.9627 126.212C46.044 125.131 45.8895 123.431 44.9627 122.504C43.8813 121.423 42.1821 121.578 41.2553 122.504C40.3284 123.431 40.3284 125.285 41.2553 126.212C42.3366 127.293 43.8814 127.293 44.9627 126.212Z" fill="#5D6398"/>
<path d="M38.7835 120.033C39.8648 118.951 39.7103 117.252 38.7835 116.325C37.8566 115.398 36.0029 115.398 35.0761 116.325C34.1492 117.252 34.1492 119.106 35.0761 120.033C36.0029 120.96 37.7022 121.114 38.7835 120.033Z" fill="#5D6398"/>
<path d="M105.827 51.1361C106.29 50.6727 106.444 49.9003 105.827 49.2824C105.209 48.6645 104.591 48.6645 103.973 49.2824C103.509 49.7458 103.355 50.5182 103.973 51.1361C104.591 51.754 105.363 51.5995 105.827 51.1361Z" fill="#5D6398"/>
<path d="M99.6474 44.9574C100.111 44.4939 100.265 43.7216 99.6474 43.1037C99.1839 42.6402 98.4116 42.4858 97.7937 43.1037C97.3302 43.5671 97.1757 44.3395 97.7937 44.9574C98.2571 45.4208 99.1839 45.4208 99.6474 44.9574Z" fill="#5D6398"/>
<path d="M105.827 63.4942C106.29 63.0308 106.444 62.2584 105.827 61.6405C105.363 61.1771 104.591 61.0226 103.973 61.6405C103.509 62.104 103.355 62.8763 103.973 63.4942C104.436 63.9577 105.363 63.9577 105.827 63.4942Z" fill="#5D6398"/>
<path d="M105.827 38.7777C106.29 38.3143 106.444 37.5419 105.827 36.924C105.363 36.4605 104.591 36.3061 103.973 36.924C103.355 37.5419 103.355 38.1598 103.973 38.7777C104.436 39.2411 105.363 39.2411 105.827 38.7777Z" fill="#5D6398"/>
<path d="M111.697 69.365C112.006 69.056 112.005 68.4381 111.697 68.1292C111.388 67.8202 110.77 67.8202 110.461 68.1292C110.152 68.4381 110.152 69.056 110.461 69.365C110.77 69.6739 111.388 69.6739 111.697 69.365Z" fill="#5D6398"/>
<path d="M110.461 55.7708C110.119 56.112 110.119 56.6653 110.461 57.0066C110.802 57.3478 111.355 57.3478 111.697 57.0066C112.038 56.6653 112.038 56.112 111.697 55.7708C111.355 55.4295 110.802 55.4295 110.461 55.7708Z" fill="#5D6398"/>
<path d="M111.697 44.6484C112.006 44.3395 112.005 43.7216 111.697 43.4126C111.388 43.1037 110.77 43.1037 110.461 43.4126C110.152 43.7216 110.152 44.3395 110.461 44.6484C110.77 44.9574 111.388 44.9574 111.697 44.6484Z" fill="#5D6398"/>
<path d="M111.697 32.2905C112.006 31.9816 112.005 31.3637 111.697 31.0547C111.388 30.7457 110.77 30.7457 110.461 31.0547C110.152 31.3636 110.152 31.9816 110.461 32.2905C110.77 32.5995 111.388 32.5995 111.697 32.2905Z" fill="#5D6398"/>
<path d="M110.461 92.8447C110.119 93.186 110.119 93.7393 110.461 94.0806C110.802 94.4218 111.355 94.4218 111.697 94.0806C112.038 93.7393 112.038 93.186 111.697 92.8447C111.355 92.5035 110.802 92.5035 110.461 92.8447Z" fill="#5D6398"/>
<path d="M103.973 86.3568C103.461 86.8687 103.461 87.6987 103.973 88.2105C104.485 88.7224 105.315 88.7224 105.827 88.2105C106.338 87.6987 106.338 86.8687 105.827 86.3568C105.315 85.8449 104.485 85.8449 103.973 86.3568Z" fill="#5D6398"/>
<path d="M91.4606 73.844C90.8634 74.4412 90.8634 75.4094 91.4606 76.0066C92.0578 76.6038 93.026 76.6038 93.6233 76.0066C94.2205 75.4094 94.2205 74.4412 93.6233 73.844C93.0261 73.2468 92.0578 73.2468 91.4606 73.844Z" fill="#5D6398"/>
<path d="M87.4441 57.47C88.062 56.8521 88.062 55.9252 87.4441 55.3073C86.8262 54.6894 85.8993 54.6894 85.2814 55.3073C84.6635 55.9253 84.6635 56.8521 85.2814 57.47C85.8993 58.0879 86.8261 58.0879 87.4441 57.47Z" fill="#5D6398"/>
<path d="M99.6474 82.0313C100.111 81.5679 100.265 80.7955 99.6474 80.1776C99.1839 79.7142 98.4116 79.5597 97.7937 80.1776C97.1757 80.7955 97.1757 81.4134 97.7937 82.0313C98.2571 82.4948 99.1839 82.4948 99.6474 82.0313Z" fill="#5D6398"/>
<path d="M93.6233 63.6487C94.2412 63.0308 94.2412 62.104 93.6233 61.486C93.0054 60.8681 92.0785 60.8682 91.4606 61.4861C90.8427 62.104 90.8427 63.0308 91.4606 63.6487C92.0785 64.2666 93.0053 64.2666 93.6233 63.6487Z" fill="#5D6398"/>
<path d="M99.6474 57.315C100.111 56.8516 100.265 56.0792 99.6474 55.4613C99.0295 54.8434 98.4116 54.8434 97.7936 55.4613C97.3302 55.9248 97.1757 56.6971 97.7936 57.315C98.4115 57.933 99.1839 57.7785 99.6474 57.315Z" fill="#5D6398"/>
<path d="M85.2814 67.6653C84.6842 68.2625 84.6842 69.2307 85.2814 69.8279C85.8786 70.4251 86.8469 70.4251 87.4441 69.8279C88.0413 69.2307 88.0413 68.2625 87.4441 67.6652C86.8469 67.068 85.8786 67.0681 85.2814 67.6653Z" fill="#5D6398"/>
<path d="M93.6233 51.2906C94.2412 50.6727 94.2412 49.7458 93.6233 49.1279C93.0054 48.51 92.0785 48.51 91.4606 49.1279C90.8427 49.7458 90.8427 50.6727 91.4606 51.2906C92.0785 51.9085 93.0053 51.9085 93.6233 51.2906Z" fill="#5D6398"/>
<path d="M111.697 81.7226C112.006 81.4137 112.005 80.7958 111.697 80.4868C111.388 80.1779 110.77 80.1779 110.461 80.4868C110.152 80.7958 110.152 81.4137 110.461 81.7226C110.77 82.0316 111.388 82.0316 111.697 81.7226Z" fill="#5D6398"/>
<path d="M99.6474 69.6734C100.111 69.21 100.265 68.4376 99.6474 67.8197C99.1839 67.3563 98.4116 67.2018 97.7936 67.8197C97.3302 68.2832 97.1757 69.0555 97.7937 69.6734C98.2571 70.1369 99.1839 70.1369 99.6474 69.6734Z" fill="#5D6398"/>
<path d="M105.827 75.8522C106.29 75.3887 106.444 74.6163 105.827 73.9984C105.363 73.535 104.591 73.3805 103.973 73.9984C103.509 74.4619 103.355 75.2342 103.973 75.8521C104.436 76.3156 105.363 76.3156 105.827 75.8522Z" fill="#5D6398"/>
<path d="M110.461 117.561C110.119 117.902 110.119 118.456 110.461 118.797C110.802 119.138 111.355 119.138 111.697 118.797C112.038 118.456 112.038 117.902 111.697 117.561C111.355 117.22 110.802 117.22 110.461 117.561Z" fill="#5D6398"/>
<path d="M110.461 167.452C110.119 167.794 110.119 168.347 110.461 168.688C110.802 169.029 111.355 169.029 111.697 168.688C112.038 168.347 112.038 167.794 111.697 167.452C111.355 167.111 110.802 167.111 110.461 167.452Z" fill="#5D6398"/>
<path d="M50.9878 95.1619C51.9146 94.235 51.9146 92.6903 50.9878 91.7634C50.0609 90.8365 48.5162 90.8365 47.5893 91.7634C46.6624 92.6903 46.6624 94.235 47.5893 95.1619C48.5162 96.0887 50.0609 96.0887 50.9878 95.1619Z" fill="#5D6398"/>
<path d="M60.1015 91.9179C59.2484 92.771 59.2484 94.1543 60.1015 95.0074C60.9547 95.8606 62.3379 95.8606 63.1911 95.0074C64.0442 94.1543 64.0442 92.771 63.1911 91.9179C62.3379 91.0647 60.9547 91.0647 60.1015 91.9179Z" fill="#5D6398"/>
<path d="M63.1911 107.366C63.9635 106.593 64.1179 105.203 63.1911 104.276C62.2642 103.349 61.0284 103.349 60.1015 104.276C59.3292 105.049 59.1747 106.439 60.1015 107.366C61.0284 108.293 62.4187 108.138 63.1911 107.366Z" fill="#5D6398"/>
<path d="M57.167 88.9829C58.0938 88.0561 58.0938 86.5113 57.167 85.5845C56.2401 84.6576 54.6954 84.6576 53.7685 85.5845C52.8416 86.5113 52.8416 88.0561 53.7685 88.9829C54.6954 89.9098 56.2401 89.9098 57.167 88.9829Z" fill="#5D6398"/>
<path d="M57.1665 101.341C58.0933 100.414 58.0933 98.8692 57.1665 97.9424C56.2396 97.0155 54.6949 97.0155 53.768 97.9424C52.8411 98.8692 52.8411 100.414 53.768 101.341C54.6949 102.268 56.2396 102.268 57.1665 101.341Z" fill="#5D6398"/>
<path d="M69.3703 113.545C70.1427 112.772 70.2971 111.382 69.3703 110.455C68.4434 109.528 67.2076 109.528 66.2807 110.455C65.5084 111.228 65.3539 112.618 66.2807 113.545C67.2076 114.472 68.5979 114.317 69.3703 113.545Z" fill="#5D6398"/>
<path d="M111.697 143.513C112.005 143.204 112.006 142.586 111.697 142.277C111.388 141.968 110.77 141.968 110.461 142.277C110.152 142.586 110.152 143.204 110.461 143.513C110.77 143.822 111.388 143.822 111.697 143.513Z" fill="#5D6398"/>
<path d="M111.697 193.405C112.005 193.096 112.006 192.478 111.697 192.169C111.388 191.86 110.77 191.86 110.461 192.169C110.152 192.478 110.152 193.096 110.461 193.405C110.77 193.714 111.388 193.714 111.697 193.405Z" fill="#5D6398"/>
<path d="M75.2403 107.057C76.0126 106.284 75.8582 105.203 75.2403 104.585C74.6223 103.967 73.3865 103.967 72.7686 104.585C71.9963 105.358 72.1507 106.439 72.7686 107.057C73.3866 107.675 74.4679 107.829 75.2403 107.057Z" fill="#5D6398"/>
<path d="M99.6474 131.464C100.111 131.001 100.265 130.228 99.6474 129.61C99.0295 128.992 98.4116 128.992 97.7937 129.61C97.1757 130.228 97.1757 130.846 97.7937 131.464C98.4116 132.082 99.1839 131.927 99.6474 131.464Z" fill="#5D6398"/>
<path d="M99.6474 143.657C100.111 143.193 100.265 142.421 99.6474 141.803C99.0295 141.185 98.4116 141.185 97.7937 141.803C97.1757 142.421 97.1757 143.039 97.7937 143.657C98.4116 144.274 99.1839 144.12 99.6474 143.657Z" fill="#5D6398"/>
<path d="M105.827 137.643C106.29 137.179 106.444 136.407 105.827 135.789C105.363 135.326 104.591 135.171 103.973 135.789C103.355 136.407 103.355 137.025 103.973 137.643C104.436 138.106 105.363 138.106 105.827 137.643Z" fill="#5D6398"/>
<path d="M105.827 175.174C106.29 174.71 106.444 173.938 105.827 173.32C105.363 172.857 104.591 172.702 103.973 173.32C103.355 173.938 103.355 174.556 103.973 175.174C104.436 175.637 105.363 175.637 105.827 175.174Z" fill="#5D6398"/>
<path d="M105.827 187.371C106.29 186.908 106.444 186.135 105.827 185.517C105.363 185.054 104.591 184.9 103.973 185.517C103.355 186.135 103.355 186.753 103.973 187.371C104.436 187.835 105.363 187.835 105.827 187.371Z" fill="#5D6398"/>
<path d="M81.419 113.236C82.1914 112.463 82.0369 111.382 81.419 110.764C80.8011 110.146 79.5652 110.146 78.9473 110.764C78.175 111.537 78.3294 112.618 78.9474 113.236C79.5653 113.854 80.6466 114.008 81.419 113.236Z" fill="#5D6398"/>
<path d="M87.4441 119.26C88.062 118.642 88.062 117.716 87.4441 117.098C86.8261 116.48 85.8993 116.48 85.2814 117.098C84.6635 117.716 84.6635 118.642 85.2814 119.26C85.8993 119.878 86.8261 119.878 87.4441 119.26Z" fill="#5D6398"/>
<path d="M93.6233 125.439C94.2412 124.822 94.2412 123.895 93.6233 123.277C93.0054 122.659 92.0785 122.659 91.4606 123.277C90.8427 123.895 90.8427 124.822 91.4606 125.439C92.0785 126.057 93.0053 126.057 93.6233 125.439Z" fill="#5D6398"/>
<path d="M75.2403 119.415C76.0126 118.642 75.8582 117.561 75.2403 116.943C74.6223 116.325 73.3865 116.325 72.7686 116.943C71.9962 117.716 72.1507 118.797 72.7686 119.415C73.3865 120.033 74.4679 120.187 75.2403 119.415Z" fill="#5D6398"/>
<path d="M75.2403 156.24C76.0126 155.468 75.8582 154.387 75.2403 153.769C74.6223 153.151 73.3865 153.151 72.7686 153.769C71.9962 154.541 72.1507 155.623 72.7686 156.24C73.3865 156.858 74.4679 157.013 75.2403 156.24Z" fill="#5D6398"/>
<path d="M91.4606 172.709C90.8634 173.306 90.8634 174.274 91.4606 174.872C92.0578 175.469 93.0261 175.469 93.6233 174.872C94.2205 174.274 94.2205 173.306 93.6233 172.709C93.026 172.112 92.0578 172.112 91.4606 172.709Z" fill="#5D6398"/>
<path d="M99.6474 156.18C100.111 155.716 100.265 154.944 99.6474 154.326C99.0295 153.708 98.4116 153.708 97.7936 154.326C97.3302 154.789 97.1757 155.562 97.7936 156.18C98.4116 156.797 99.1839 156.643 99.6474 156.18Z" fill="#5D6398"/>
<path d="M99.6474 168.914C100.111 168.45 100.265 167.678 99.6474 167.06C99.0295 166.442 98.4116 166.442 97.7936 167.06C97.3302 167.524 97.1757 168.296 97.7936 168.914C98.4116 169.532 99.1839 169.377 99.6474 168.914Z" fill="#5D6398"/>
<path d="M85.2814 166.53C84.6842 167.127 84.6842 168.096 85.2814 168.693C85.8786 169.29 86.8469 169.29 87.4441 168.693C88.0413 168.096 88.0413 167.127 87.4441 166.53C86.8468 165.933 85.8786 165.933 85.2814 166.53Z" fill="#5D6398"/>
<path d="M87.4441 131.618C88.062 131.001 88.062 130.074 87.4441 129.456C86.8262 128.838 85.8993 128.838 85.2814 129.456C84.6635 130.074 84.6635 131.001 85.2814 131.618C85.8993 132.236 86.8262 132.236 87.4441 131.618Z" fill="#5D6398"/>
<path d="M93.6233 137.797C94.2412 137.179 94.2412 136.253 93.6233 135.635C93.0054 135.017 92.0785 135.017 91.4606 135.635C90.8427 136.253 90.8427 137.179 91.4606 137.797C92.0785 138.415 93.0054 138.415 93.6233 137.797Z" fill="#5D6398"/>
<path d="M93.6233 149.949C94.2412 149.331 94.2412 148.404 93.6233 147.786C93.0054 147.168 92.0785 147.168 91.4606 147.786C90.8427 148.404 90.8427 149.331 91.4606 149.949C92.0785 150.566 93.0054 150.566 93.6233 149.949Z" fill="#5D6398"/>
<path d="M93.6233 162.513C94.2412 161.896 94.2412 160.969 93.6233 160.351C93.0053 159.733 92.0785 159.733 91.4606 160.351C90.8427 160.969 90.8427 161.896 91.4606 162.513C92.0785 163.131 93.0053 163.131 93.6233 162.513Z" fill="#5D6398"/>
<path d="M99.6474 180.896C100.111 180.433 100.265 179.661 99.6474 179.043C99.1839 178.579 98.4115 178.425 97.7936 179.043C97.1757 179.661 97.1757 180.278 97.7936 180.896C98.2571 181.36 99.1839 181.36 99.6474 180.896Z" fill="#5D6398"/>
<path d="M105.827 112.926C106.29 112.463 106.444 111.69 105.827 111.072C105.363 110.609 104.591 110.455 103.973 111.072C103.355 111.69 103.355 112.308 103.973 112.926C104.436 113.39 105.363 113.39 105.827 112.926Z" fill="#5D6398"/>
<path d="M105.827 150.457C106.29 149.993 106.444 149.221 105.827 148.603C105.363 148.139 104.591 147.985 103.973 148.603C103.355 149.221 103.355 149.839 103.973 150.457C104.436 150.92 105.363 150.92 105.827 150.457Z" fill="#5D6398"/>
<path d="M87.4441 94.544C88.062 93.9261 88.062 92.9992 87.4441 92.3813C86.8261 91.7634 85.8993 91.7634 85.2814 92.3813C84.6635 92.9992 84.6635 93.9261 85.2814 94.544C85.8993 95.1619 86.8261 95.1619 87.4441 94.544Z" fill="#5D6398"/>
<path d="M93.6233 100.723C94.2412 100.105 94.2412 99.1782 93.6233 98.5603C93.0053 97.9424 92.0785 97.9424 91.4606 98.5603C90.8427 99.1782 90.8427 100.105 91.4606 100.723C92.0785 101.341 93.0053 101.341 93.6233 100.723Z" fill="#5D6398"/>
<path d="M85.2814 141.814C84.6842 142.411 84.6842 143.379 85.2814 143.977C85.8786 144.574 86.8469 144.574 87.4441 143.977C88.0413 143.379 88.0413 142.411 87.4441 141.814C86.8469 141.217 85.8786 141.217 85.2814 141.814Z" fill="#5D6398"/>
<path d="M85.2814 154.586C84.6842 155.183 84.6842 156.151 85.2814 156.749C85.8786 157.346 86.8469 157.346 87.4441 156.749C88.0413 156.151 88.0413 155.183 87.4441 154.586C86.8469 153.989 85.8786 153.989 85.2814 154.586Z" fill="#5D6398"/>
<path d="M99.6474 106.748C100.111 106.284 100.265 105.512 99.6474 104.894C99.0295 104.276 98.4116 104.276 97.7937 104.894C97.1757 105.512 97.1757 106.13 97.7937 106.748C98.4116 107.366 99.1839 107.211 99.6474 106.748Z" fill="#5D6398"/>
<path d="M69.3703 125.903C70.1427 125.131 70.2971 123.74 69.3703 122.813C68.4434 121.887 67.2076 121.887 66.2807 122.813C65.5084 123.586 65.3539 124.976 66.2807 125.903C67.2076 126.83 68.5979 126.675 69.3703 125.903Z" fill="#5D6398"/>
<path d="M44.9627 101.495C46.044 100.414 45.8896 98.7147 44.9627 97.7879C43.8814 96.7066 42.1821 96.861 41.2553 97.7879C40.1739 98.8692 40.3284 100.568 41.2553 101.495C42.3366 102.577 43.8814 102.577 44.9627 101.495Z" fill="#5D6398"/>
<path d="M81.419 137.952C82.1914 137.179 82.0369 136.098 81.419 135.48C80.6466 134.708 79.5653 134.862 78.9474 135.48C78.175 136.252 78.3294 137.334 78.9473 137.952C79.7197 138.724 80.6466 138.724 81.419 137.952Z" fill="#5D6398"/>
<path d="M75.2403 131.773C76.0126 131.001 75.8582 129.919 75.2403 129.301C74.6224 128.683 73.3866 128.683 72.7686 129.301C71.9963 130.074 72.1507 131.155 72.7686 131.773C73.3865 132.391 74.4679 132.545 75.2403 131.773Z" fill="#5D6398"/>
<path d="M63.1911 119.724C63.9635 118.951 64.1179 117.561 63.1911 116.634C62.2642 115.707 61.0284 115.707 60.1015 116.634C59.3292 117.407 59.1747 118.797 60.1015 119.724C61.0284 120.651 62.4187 120.496 63.1911 119.724Z" fill="#5D6398"/>
<path d="M50.9878 107.52C51.9146 106.593 51.9146 105.048 50.9878 104.122C50.0609 103.195 48.5162 103.195 47.5893 104.122C46.6624 105.048 46.6624 106.593 47.5893 107.52C48.5162 108.447 50.0609 108.447 50.9878 107.52Z" fill="#5D6398"/>
<path d="M57.1665 113.699C58.0933 112.772 58.0933 111.227 57.1665 110.301C56.2396 109.374 54.6949 109.374 53.768 110.301C52.8411 111.227 52.8411 112.772 53.768 113.699C54.6949 114.626 56.2396 114.626 57.1665 113.699Z" fill="#5D6398"/>
<path d="M87.4441 106.902C88.062 106.284 88.062 105.358 87.4441 104.74C86.8261 104.122 85.8993 104.122 85.2814 104.74C84.6635 105.358 84.6635 106.284 85.2814 106.902C85.8993 107.52 86.8261 107.52 87.4441 106.902Z" fill="#5D6398"/>
<path d="M81.419 100.877C82.1914 100.105 82.0369 99.0237 81.419 98.4058C80.8011 97.7879 79.5652 97.7879 78.9473 98.4058C78.3294 99.0237 78.3294 100.259 78.9474 100.877C79.5653 101.495 80.6466 101.65 81.419 100.877Z" fill="#5D6398"/>
<path d="M69.7076 100.877C70.4799 100.105 70.3255 99.0237 69.7075 98.4058C69.0896 97.7879 67.8538 97.7879 67.2359 98.4058C66.618 99.0237 66.618 100.259 67.2359 100.877C67.8538 101.495 68.9352 101.65 69.7076 100.877Z" fill="#5D6398"/>
<path d="M81.419 88.5195C82.1914 87.7471 82.0369 86.6658 81.419 86.0479C80.8011 85.43 79.5653 85.43 78.9474 86.0479C78.3295 86.6658 78.3295 87.9016 78.9474 88.5195C79.5653 89.1374 80.6466 89.2919 81.419 88.5195Z" fill="#5D6398"/>
<path d="M63.1911 82.6493C63.9635 81.8769 64.1179 80.4866 63.1911 79.5597C62.4187 78.7873 61.0284 78.6329 60.1015 79.5597C59.1747 80.4866 59.1747 81.7224 60.1015 82.6493C60.8739 83.4216 62.4187 83.4216 63.1911 82.6493Z" fill="#5D6398"/>
<path d="M99.6474 119.106C100.111 118.642 100.265 117.87 99.6474 117.252C99.1839 116.789 98.4116 116.634 97.7937 117.252C97.3302 117.716 97.1757 118.488 97.7937 119.106C98.2571 119.569 99.1839 119.569 99.6474 119.106Z" fill="#5D6398"/>
<path d="M75.2403 94.6985C76.0126 93.9261 75.8582 92.8447 75.2403 92.2268C74.6224 91.6089 73.3866 91.6089 72.7687 92.2268C72.1507 92.8447 72.1507 94.0805 72.7687 94.6985C73.3866 95.3164 74.4679 95.4708 75.2403 94.6985Z" fill="#5D6398"/>
<path d="M69.3703 88.8285C70.1427 88.0561 70.2971 86.6658 69.3703 85.7389C68.5979 84.9665 67.2076 84.8121 66.2807 85.7389C65.3539 86.6658 65.3539 87.9016 66.2807 88.8285C67.0531 89.6008 68.5979 89.6008 69.3703 88.8285Z" fill="#5D6398"/>
<path d="M93.6233 113.081C94.2412 112.463 94.2412 111.536 93.6233 110.918C93.0053 110.301 92.0785 110.301 91.4606 110.918C90.8427 111.536 90.8427 112.463 91.4606 113.081C92.0785 113.699 93.0053 113.699 93.6233 113.081Z" fill="#5D6398"/>
<path d="M69.3703 76.4701C70.1427 75.6977 70.2971 74.3074 69.3703 73.3805C68.5979 72.6081 67.2076 72.4537 66.2807 73.3805C65.3539 74.3074 65.3539 75.5432 66.2807 76.4701C67.0531 77.2424 68.5979 77.2424 69.3703 76.4701Z" fill="#5D6398"/>
<path d="M75.2403 82.3403C76.0126 81.5679 75.8582 80.4866 75.2403 79.8687C74.4679 79.0963 73.3865 79.2508 72.7686 79.8687C72.1507 80.4866 72.1507 81.7224 72.7686 82.3403C73.541 83.1127 74.4679 83.1127 75.2403 82.3403Z" fill="#5D6398"/>
<path d="M111.697 131.155C112.005 130.846 112.005 130.228 111.697 129.919C111.388 129.61 110.77 129.61 110.461 129.919C110.152 130.228 110.152 130.846 110.461 131.155C110.77 131.464 111.388 131.464 111.697 131.155Z" fill="#5D6398"/>
<path d="M111.697 181.047C112.005 180.738 112.005 180.12 111.697 179.811C111.388 179.502 110.77 179.502 110.461 179.811C110.152 180.12 110.152 180.738 110.461 181.047C110.77 181.356 111.388 181.356 111.697 181.047Z" fill="#5D6398"/>
<path d="M105.827 125.285C106.29 124.822 106.444 124.049 105.827 123.431C105.209 122.813 104.591 122.813 103.973 123.431C103.509 123.895 103.355 124.667 103.973 125.285C104.591 125.903 105.363 125.748 105.827 125.285Z" fill="#5D6398"/>
<path d="M105.827 162.815C106.29 162.352 106.444 161.579 105.827 160.962C105.209 160.344 104.591 160.344 103.973 160.962C103.509 161.425 103.355 162.197 103.973 162.815C104.591 163.433 105.363 163.279 105.827 162.815Z" fill="#5D6398"/>
<path d="M41.2553 110.146C40.2315 111.17 40.2315 112.83 41.2553 113.853C42.279 114.877 43.9389 114.877 44.9627 113.853C45.9865 112.83 45.9865 111.17 44.9627 110.146C43.9389 109.122 42.279 109.122 41.2553 110.146Z" fill="#5D6398"/>
</g>
<mask id="path-106-outside-1" maskUnits="userSpaceOnUse" x="45" y="96" width="135" height="32" fill="black">
<rect fill="white" x="45" y="96" width="135" height="32"/>
<path fill-rule="evenodd" clip-rule="evenodd" d="M64.7666 108.707C64.7666 107.602 63.8712 106.707 62.7666 106.707H60.7577V118.213H64.7666V108.707ZM60.6691 101.413C60.551 101.682 60.4919 101.974 60.4919 102.288C60.4919 102.602 60.551 102.901 60.6691 103.185C60.7872 103.454 60.9496 103.693 61.1564 103.903C61.3631 104.112 61.5993 104.277 61.8651 104.396C62.1457 104.516 62.441 104.576 62.7511 104.576C63.0611 104.576 63.3491 104.516 63.6149 104.396C63.8954 104.277 64.139 104.112 64.3458 103.903C64.5525 103.693 64.7149 103.454 64.833 103.185C64.9512 102.901 65.0102 102.602 65.0102 102.288C65.0102 101.974 64.9512 101.682 64.833 101.413C64.7149 101.129 64.5525 100.882 64.3458 100.673C64.139 100.464 63.8954 100.299 63.6149 100.179C63.3491 100.06 63.0611 100 62.7511 100C62.441 100 62.1457 100.06 61.8651 100.179C61.5993 100.299 61.3631 100.464 61.1564 100.673C60.9496 100.882 60.7872 101.129 60.6691 101.413ZM53.3411 105.024H58.5682V101.301H51C49.8954 101.301 49 102.196 49 103.301V118.213H53.3411V111.574H58.1031V107.85H53.3411V105.024ZM71.2271 112.404C71.2271 112.778 71.2935 113.129 71.4264 113.458C71.5593 113.772 71.7365 114.049 71.958 114.288C72.1943 114.527 72.4674 114.714 72.7775 114.849C73.1024 114.983 73.4493 115.05 73.8185 115.05C74.1729 115.05 74.5051 114.983 74.8152 114.849C75.14 114.714 75.4132 114.527 75.6347 114.288C75.8709 114.049 76.0555 113.772 76.1884 113.458C76.3361 113.129 76.4099 112.785 76.4099 112.426C76.4099 112.052 76.3361 111.708 76.1884 111.394C76.0555 111.08 75.8709 110.804 75.6347 110.564C75.3984 110.325 75.1179 110.138 74.793 110.004C74.483 109.869 74.1581 109.802 73.8185 109.802C73.4641 109.802 73.1319 109.877 72.8218 110.026C72.5117 110.161 72.2386 110.348 72.0023 110.587C71.766 110.811 71.5741 111.08 71.4264 111.394C71.2935 111.708 71.2271 112.045 71.2271 112.404ZM80.2195 108.707V117.428C80.2195 118.071 80.1826 118.647 80.1087 119.155C80.0349 119.664 79.9315 120.112 79.7986 120.501C79.6215 120.994 79.3409 121.45 78.957 121.869C78.5879 122.303 78.1375 122.677 77.6059 122.991C77.0744 123.305 76.469 123.551 75.7897 123.731C75.1253 123.91 74.4017 124 73.6192 124C72.7332 124 71.9211 123.888 71.1828 123.664C70.4445 123.439 69.7948 123.125 69.2337 122.721C68.6874 122.333 68.237 121.869 67.8826 121.331C67.5283 120.807 67.292 120.232 67.1739 119.604H71.6922C71.9728 120.366 72.6077 120.748 73.597 120.748C74.4387 120.748 75.081 120.508 75.5239 120.03C75.9817 119.551 76.2106 118.886 76.2106 118.034V116.935C75.9152 117.219 75.6273 117.458 75.3468 117.652C75.081 117.832 74.8078 117.981 74.5273 118.101C74.2467 118.221 73.9514 118.303 73.6413 118.348C73.3312 118.407 72.9916 118.437 72.6225 118.437C71.8103 118.437 71.0647 118.295 70.3854 118.011C69.7062 117.727 69.1156 117.331 68.6135 116.822C68.1263 116.314 67.7424 115.708 67.4618 115.006C67.196 114.288 67.0631 113.495 67.0631 112.628C67.0631 111.746 67.2108 110.931 67.5061 110.183C67.8014 109.421 68.2001 108.763 68.7021 108.209C69.2189 107.641 69.8243 107.2 70.5183 106.886C71.2271 106.557 71.9949 106.393 72.8218 106.393C74.1655 106.393 75.2951 106.901 76.2106 107.918V106.707H78.2195C79.324 106.707 80.2195 107.602 80.2195 108.707ZM85.5455 106.707H82.9496V118.213H86.9586V112.538C86.9586 111.925 87.0029 111.432 87.0914 111.058C87.1948 110.669 87.3277 110.37 87.4901 110.161C87.6673 109.936 87.8667 109.787 88.0881 109.712C88.3096 109.637 88.5459 109.6 88.7969 109.6C89.0922 109.6 89.3506 109.645 89.5721 109.735C89.7936 109.809 89.9708 109.959 90.1037 110.183C90.2513 110.407 90.3621 110.714 90.4359 111.103C90.5097 111.477 90.5467 111.955 90.5467 112.538V118.213H94.5556V112.538C94.5556 110.639 95.1979 109.69 96.4825 109.69C96.7188 109.69 96.9402 109.727 97.147 109.802C97.3537 109.877 97.5309 110.019 97.6785 110.228C97.841 110.437 97.9591 110.729 98.0329 111.103C98.1215 111.477 98.1658 111.955 98.1658 112.538V118.213H102.175V110.744C102.175 109.981 102.071 109.331 101.865 108.793C101.673 108.254 101.407 107.821 101.067 107.492C100.728 107.148 100.322 106.901 99.8491 106.751C99.3766 106.587 98.8746 106.505 98.343 106.505C96.6745 106.505 95.3898 107.23 94.4891 108.68C93.6032 107.245 92.3186 106.527 90.6353 106.527C89.2768 106.527 88.0512 107.058 86.9586 108.12C86.9586 107.339 86.3259 106.707 85.5455 106.707ZM108.646 112.426C108.646 112.8 108.713 113.151 108.846 113.48C108.979 113.794 109.156 114.071 109.377 114.31C109.613 114.55 109.887 114.736 110.197 114.871C110.522 115.006 110.869 115.073 111.238 115.073C111.592 115.073 111.924 115.006 112.234 114.871C112.559 114.736 112.832 114.55 113.054 114.31C113.29 114.071 113.475 113.794 113.608 113.48C113.755 113.166 113.829 112.83 113.829 112.471C113.829 112.112 113.755 111.776 113.608 111.462C113.475 111.133 113.29 110.849 113.054 110.609C112.832 110.37 112.559 110.183 112.234 110.049C111.924 109.914 111.592 109.847 111.238 109.847C110.869 109.847 110.522 109.914 110.197 110.049C109.887 110.183 109.613 110.37 109.377 110.609C109.156 110.849 108.979 111.125 108.846 111.439C108.713 111.738 108.646 112.067 108.646 112.426ZM113.696 106.707H117.727V118.213H113.696V116.935C112.84 118.026 111.681 118.572 110.219 118.572C109.392 118.572 108.632 118.422 107.938 118.123C107.244 117.809 106.638 117.376 106.121 116.822C105.605 116.269 105.198 115.619 104.903 114.871C104.623 114.123 104.482 113.308 104.482 112.426C104.482 111.604 104.623 110.826 104.903 110.093C105.184 109.346 105.575 108.695 106.077 108.142C106.579 107.589 107.177 107.155 107.871 106.841C108.565 106.512 109.333 106.348 110.175 106.348C111.592 106.348 112.766 106.849 113.696 107.85V106.707ZM175.546 118.937V100.809H173.105V118.937H175.546ZM147.517 109.782C146.425 110.841 145.879 112.126 145.879 113.635C145.879 115.238 146.414 116.569 147.484 117.628C148.554 118.701 149.881 119.238 151.465 119.238C153.063 119.238 154.412 118.712 155.511 117.66C156.603 116.601 157.149 115.288 157.149 113.721C157.149 112.168 156.607 110.859 155.522 109.793C154.423 108.727 153.085 108.194 151.508 108.194C149.939 108.194 148.609 108.723 147.517 109.782ZM149.22 116.158C148.656 115.549 148.374 114.723 148.374 113.678C148.374 112.705 148.663 111.911 149.241 111.296C149.82 110.68 150.576 110.372 151.508 110.372C152.456 110.372 153.219 110.68 153.797 111.296C154.368 111.904 154.654 112.716 154.654 113.732C154.654 114.748 154.368 115.56 153.797 116.168C153.226 116.777 152.463 117.081 151.508 117.081C150.561 117.081 149.798 116.773 149.22 116.158ZM159.242 113.635C159.242 112.126 159.788 110.841 160.88 109.782C161.972 108.723 163.303 108.194 164.872 108.194C166.449 108.194 167.786 108.727 168.885 109.793C169.97 110.859 170.513 112.168 170.513 113.721C170.513 115.288 169.967 116.601 168.875 117.66C167.775 118.712 166.427 119.238 164.829 119.238C163.245 119.238 161.918 118.701 160.848 117.628C159.778 116.569 159.242 115.238 159.242 113.635ZM161.737 113.678C161.737 114.723 162.019 115.549 162.583 116.158C163.162 116.773 163.925 117.081 164.872 117.081C165.827 117.081 166.59 116.777 167.161 116.168C167.732 115.56 168.018 114.748 168.018 113.732C168.018 112.716 167.732 111.904 167.161 111.296C166.582 110.68 165.819 110.372 164.872 110.372C163.939 110.372 163.184 110.68 162.605 111.296C162.026 111.911 161.737 112.705 161.737 113.678ZM134.917 105.282C135.986 104.763 137.187 104.569 138.368 104.725C139.549 104.881 140.656 105.379 141.55 106.158L143.396 104.083C142.087 102.943 140.466 102.213 138.738 101.985C137.009 101.757 135.251 102.041 133.686 102.801C132.121 103.561 130.819 104.764 129.944 106.257C129.07 107.749 128.662 109.465 128.773 111.187C128.884 112.908 129.509 114.559 130.568 115.93C131.627 117.3 133.073 118.329 134.723 118.887C136.373 119.444 138.153 119.505 139.838 119.061C141.523 118.618 143.037 117.69 144.189 116.395L142.092 114.569C141.305 115.453 140.271 116.087 139.12 116.39C137.969 116.693 136.753 116.652 135.625 116.271C134.498 115.89 133.51 115.187 132.787 114.251C132.063 113.315 131.637 112.187 131.561 111.011C131.485 109.835 131.764 108.662 132.361 107.643C132.958 106.623 133.848 105.802 134.917 105.282ZM122.091 115.097H125.717V118.685H122.091V115.097Z"/>
</mask>
<path fill-rule="evenodd" clip-rule="evenodd" d="M64.7666 108.707C64.7666 107.602 63.8712 106.707 62.7666 106.707H60.7577V118.213H64.7666V108.707ZM60.6691 101.413C60.551 101.682 60.4919 101.974 60.4919 102.288C60.4919 102.602 60.551 102.901 60.6691 103.185C60.7872 103.454 60.9496 103.693 61.1564 103.903C61.3631 104.112 61.5993 104.277 61.8651 104.396C62.1457 104.516 62.441 104.576 62.7511 104.576C63.0611 104.576 63.3491 104.516 63.6149 104.396C63.8954 104.277 64.139 104.112 64.3458 103.903C64.5525 103.693 64.7149 103.454 64.833 103.185C64.9512 102.901 65.0102 102.602 65.0102 102.288C65.0102 101.974 64.9512 101.682 64.833 101.413C64.7149 101.129 64.5525 100.882 64.3458 100.673C64.139 100.464 63.8954 100.299 63.6149 100.179C63.3491 100.06 63.0611 100 62.7511 100C62.441 100 62.1457 100.06 61.8651 100.179C61.5993 100.299 61.3631 100.464 61.1564 100.673C60.9496 100.882 60.7872 101.129 60.6691 101.413ZM53.3411 105.024H58.5682V101.301H51C49.8954 101.301 49 102.196 49 103.301V118.213H53.3411V111.574H58.1031V107.85H53.3411V105.024ZM71.2271 112.404C71.2271 112.778 71.2935 113.129 71.4264 113.458C71.5593 113.772 71.7365 114.049 71.958 114.288C72.1943 114.527 72.4674 114.714 72.7775 114.849C73.1024 114.983 73.4493 115.05 73.8185 115.05C74.1729 115.05 74.5051 114.983 74.8152 114.849C75.14 114.714 75.4132 114.527 75.6347 114.288C75.8709 114.049 76.0555 113.772 76.1884 113.458C76.3361 113.129 76.4099 112.785 76.4099 112.426C76.4099 112.052 76.3361 111.708 76.1884 111.394C76.0555 111.08 75.8709 110.804 75.6347 110.564C75.3984 110.325 75.1179 110.138 74.793 110.004C74.483 109.869 74.1581 109.802 73.8185 109.802C73.4641 109.802 73.1319 109.877 72.8218 110.026C72.5117 110.161 72.2386 110.348 72.0023 110.587C71.766 110.811 71.5741 111.08 71.4264 111.394C71.2935 111.708 71.2271 112.045 71.2271 112.404ZM80.2195 108.707V117.428C80.2195 118.071 80.1826 118.647 80.1087 119.155C80.0349 119.664 79.9315 120.112 79.7986 120.501C79.6215 120.994 79.3409 121.45 78.957 121.869C78.5879 122.303 78.1375 122.677 77.6059 122.991C77.0744 123.305 76.469 123.551 75.7897 123.731C75.1253 123.91 74.4017 124 73.6192 124C72.7332 124 71.9211 123.888 71.1828 123.664C70.4445 123.439 69.7948 123.125 69.2337 122.721C68.6874 122.333 68.237 121.869 67.8826 121.331C67.5283 120.807 67.292 120.232 67.1739 119.604H71.6922C71.9728 120.366 72.6077 120.748 73.597 120.748C74.4387 120.748 75.081 120.508 75.5239 120.03C75.9817 119.551 76.2106 118.886 76.2106 118.034V116.935C75.9152 117.219 75.6273 117.458 75.3468 117.652C75.081 117.832 74.8078 117.981 74.5273 118.101C74.2467 118.221 73.9514 118.303 73.6413 118.348C73.3312 118.407 72.9916 118.437 72.6225 118.437C71.8103 118.437 71.0647 118.295 70.3854 118.011C69.7062 117.727 69.1156 117.331 68.6135 116.822C68.1263 116.314 67.7424 115.708 67.4618 115.006C67.196 114.288 67.0631 113.495 67.0631 112.628C67.0631 111.746 67.2108 110.931 67.5061 110.183C67.8014 109.421 68.2001 108.763 68.7021 108.209C69.2189 107.641 69.8243 107.2 70.5183 106.886C71.2271 106.557 71.9949 106.393 72.8218 106.393C74.1655 106.393 75.2951 106.901 76.2106 107.918V106.707H78.2195C79.324 106.707 80.2195 107.602 80.2195 108.707ZM85.5455 106.707H82.9496V118.213H86.9586V112.538C86.9586 111.925 87.0029 111.432 87.0914 111.058C87.1948 110.669 87.3277 110.37 87.4901 110.161C87.6673 109.936 87.8667 109.787 88.0881 109.712C88.3096 109.637 88.5459 109.6 88.7969 109.6C89.0922 109.6 89.3506 109.645 89.5721 109.735C89.7936 109.809 89.9708 109.959 90.1037 110.183C90.2513 110.407 90.3621 110.714 90.4359 111.103C90.5097 111.477 90.5467 111.955 90.5467 112.538V118.213H94.5556V112.538C94.5556 110.639 95.1979 109.69 96.4825 109.69C96.7188 109.69 96.9402 109.727 97.147 109.802C97.3537 109.877 97.5309 110.019 97.6785 110.228C97.841 110.437 97.9591 110.729 98.0329 111.103C98.1215 111.477 98.1658 111.955 98.1658 112.538V118.213H102.175V110.744C102.175 109.981 102.071 109.331 101.865 108.793C101.673 108.254 101.407 107.821 101.067 107.492C100.728 107.148 100.322 106.901 99.8491 106.751C99.3766 106.587 98.8746 106.505 98.343 106.505C96.6745 106.505 95.3898 107.23 94.4891 108.68C93.6032 107.245 92.3186 106.527 90.6353 106.527C89.2768 106.527 88.0512 107.058 86.9586 108.12C86.9586 107.339 86.3259 106.707 85.5455 106.707ZM108.646 112.426C108.646 112.8 108.713 113.151 108.846 113.48C108.979 113.794 109.156 114.071 109.377 114.31C109.613 114.55 109.887 114.736 110.197 114.871C110.522 115.006 110.869 115.073 111.238 115.073C111.592 115.073 111.924 115.006 112.234 114.871C112.559 114.736 112.832 114.55 113.054 114.31C113.29 114.071 113.475 113.794 113.608 113.48C113.755 113.166 113.829 112.83 113.829 112.471C113.829 112.112 113.755 111.776 113.608 111.462C113.475 111.133 113.29 110.849 113.054 110.609C112.832 110.37 112.559 110.183 112.234 110.049C111.924 109.914 111.592 109.847 111.238 109.847C110.869 109.847 110.522 109.914 110.197 110.049C109.887 110.183 109.613 110.37 109.377 110.609C109.156 110.849 108.979 111.125 108.846 111.439C108.713 111.738 108.646 112.067 108.646 112.426ZM113.696 106.707H117.727V118.213H113.696V116.935C112.84 118.026 111.681 118.572 110.219 118.572C109.392 118.572 108.632 118.422 107.938 118.123C107.244 117.809 106.638 117.376 106.121 116.822C105.605 116.269 105.198 115.619 104.903 114.871C104.623 114.123 104.482 113.308 104.482 112.426C104.482 111.604 104.623 110.826 104.903 110.093C105.184 109.346 105.575 108.695 106.077 108.142C106.579 107.589 107.177 107.155 107.871 106.841C108.565 106.512 109.333 106.348 110.175 106.348C111.592 106.348 112.766 106.849 113.696 107.85V106.707ZM175.546 118.937V100.809H173.105V118.937H175.546ZM147.517 109.782C146.425 110.841 145.879 112.126 145.879 113.635C145.879 115.238 146.414 116.569 147.484 117.628C148.554 118.701 149.881 119.238 151.465 119.238C153.063 119.238 154.412 118.712 155.511 117.66C156.603 116.601 157.149 115.288 157.149 113.721C157.149 112.168 156.607 110.859 155.522 109.793C154.423 108.727 153.085 108.194 151.508 108.194C149.939 108.194 148.609 108.723 147.517 109.782ZM149.22 116.158C148.656 115.549 148.374 114.723 148.374 113.678C148.374 112.705 148.663 111.911 149.241 111.296C149.82 110.68 150.576 110.372 151.508 110.372C152.456 110.372 153.219 110.68 153.797 111.296C154.368 111.904 154.654 112.716 154.654 113.732C154.654 114.748 154.368 115.56 153.797 116.168C153.226 116.777 152.463 117.081 151.508 117.081C150.561 117.081 149.798 116.773 149.22 116.158ZM159.242 113.635C159.242 112.126 159.788 110.841 160.88 109.782C161.972 108.723 163.303 108.194 164.872 108.194C166.449 108.194 167.786 108.727 168.885 109.793C169.97 110.859 170.513 112.168 170.513 113.721C170.513 115.288 169.967 116.601 168.875 117.66C167.775 118.712 166.427 119.238 164.829 119.238C163.245 119.238 161.918 118.701 160.848 117.628C159.778 116.569 159.242 115.238 159.242 113.635ZM161.737 113.678C161.737 114.723 162.019 115.549 162.583 116.158C163.162 116.773 163.925 117.081 164.872 117.081C165.827 117.081 166.59 116.777 167.161 116.168C167.732 115.56 168.018 114.748 168.018 113.732C168.018 112.716 167.732 111.904 167.161 111.296C166.582 110.68 165.819 110.372 164.872 110.372C163.939 110.372 163.184 110.68 162.605 111.296C162.026 111.911 161.737 112.705 161.737 113.678ZM134.917 105.282C135.986 104.763 137.187 104.569 138.368 104.725C139.549 104.881 140.656 105.379 141.55 106.158L143.396 104.083C142.087 102.943 140.466 102.213 138.738 101.985C137.009 101.757 135.251 102.041 133.686 102.801C132.121 103.561 130.819 104.764 129.944 106.257C129.07 107.749 128.662 109.465 128.773 111.187C128.884 112.908 129.509 114.559 130.568 115.93C131.627 117.3 133.073 118.329 134.723 118.887C136.373 119.444 138.153 119.505 139.838 119.061C141.523 118.618 143.037 117.69 144.189 116.395L142.092 114.569C141.305 115.453 140.271 116.087 139.12 116.39C137.969 116.693 136.753 116.652 135.625 116.271C134.498 115.89 133.51 115.187 132.787 114.251C132.063 113.315 131.637 112.187 131.561 111.011C131.485 109.835 131.764 108.662 132.361 107.643C132.958 106.623 133.848 105.802 134.917 105.282ZM122.091 115.097H125.717V118.685H122.091V115.097Z" fill="url(#paint0_linear)"/>
<path fill-rule="evenodd" clip-rule="evenodd" d="M64.7666 108.707C64.7666 107.602 63.8712 106.707 62.7666 106.707H60.7577V118.213H64.7666V108.707ZM60.6691 101.413C60.551 101.682 60.4919 101.974 60.4919 102.288C60.4919 102.602 60.551 102.901 60.6691 103.185C60.7872 103.454 60.9496 103.693 61.1564 103.903C61.3631 104.112 61.5993 104.277 61.8651 104.396C62.1457 104.516 62.441 104.576 62.7511 104.576C63.0611 104.576 63.3491 104.516 63.6149 104.396C63.8954 104.277 64.139 104.112 64.3458 103.903C64.5525 103.693 64.7149 103.454 64.833 103.185C64.9512 102.901 65.0102 102.602 65.0102 102.288C65.0102 101.974 64.9512 101.682 64.833 101.413C64.7149 101.129 64.5525 100.882 64.3458 100.673C64.139 100.464 63.8954 100.299 63.6149 100.179C63.3491 100.06 63.0611 100 62.7511 100C62.441 100 62.1457 100.06 61.8651 100.179C61.5993 100.299 61.3631 100.464 61.1564 100.673C60.9496 100.882 60.7872 101.129 60.6691 101.413ZM53.3411 105.024H58.5682V101.301H51C49.8954 101.301 49 102.196 49 103.301V118.213H53.3411V111.574H58.1031V107.85H53.3411V105.024ZM71.2271 112.404C71.2271 112.778 71.2935 113.129 71.4264 113.458C71.5593 113.772 71.7365 114.049 71.958 114.288C72.1943 114.527 72.4674 114.714 72.7775 114.849C73.1024 114.983 73.4493 115.05 73.8185 115.05C74.1729 115.05 74.5051 114.983 74.8152 114.849C75.14 114.714 75.4132 114.527 75.6347 114.288C75.8709 114.049 76.0555 113.772 76.1884 113.458C76.3361 113.129 76.4099 112.785 76.4099 112.426C76.4099 112.052 76.3361 111.708 76.1884 111.394C76.0555 111.08 75.8709 110.804 75.6347 110.564C75.3984 110.325 75.1179 110.138 74.793 110.004C74.483 109.869 74.1581 109.802 73.8185 109.802C73.4641 109.802 73.1319 109.877 72.8218 110.026C72.5117 110.161 72.2386 110.348 72.0023 110.587C71.766 110.811 71.5741 111.08 71.4264 111.394C71.2935 111.708 71.2271 112.045 71.2271 112.404ZM80.2195 108.707V117.428C80.2195 118.071 80.1826 118.647 80.1087 119.155C80.0349 119.664 79.9315 120.112 79.7986 120.501C79.6215 120.994 79.3409 121.45 78.957 121.869C78.5879 122.303 78.1375 122.677 77.6059 122.991C77.0744 123.305 76.469 123.551 75.7897 123.731C75.1253 123.91 74.4017 124 73.6192 124C72.7332 124 71.9211 123.888 71.1828 123.664C70.4445 123.439 69.7948 123.125 69.2337 122.721C68.6874 122.333 68.237 121.869 67.8826 121.331C67.5283 120.807 67.292 120.232 67.1739 119.604H71.6922C71.9728 120.366 72.6077 120.748 73.597 120.748C74.4387 120.748 75.081 120.508 75.5239 120.03C75.9817 119.551 76.2106 118.886 76.2106 118.034V116.935C75.9152 117.219 75.6273 117.458 75.3468 117.652C75.081 117.832 74.8078 117.981 74.5273 118.101C74.2467 118.221 73.9514 118.303 73.6413 118.348C73.3312 118.407 72.9916 118.437 72.6225 118.437C71.8103 118.437 71.0647 118.295 70.3854 118.011C69.7062 117.727 69.1156 117.331 68.6135 116.822C68.1263 116.314 67.7424 115.708 67.4618 115.006C67.196 114.288 67.0631 113.495 67.0631 112.628C67.0631 111.746 67.2108 110.931 67.5061 110.183C67.8014 109.421 68.2001 108.763 68.7021 108.209C69.2189 107.641 69.8243 107.2 70.5183 106.886C71.2271 106.557 71.9949 106.393 72.8218 106.393C74.1655 106.393 75.2951 106.901 76.2106 107.918V106.707H78.2195C79.324 106.707 80.2195 107.602 80.2195 108.707ZM85.5455 106.707H82.9496V118.213H86.9586V112.538C86.9586 111.925 87.0029 111.432 87.0914 111.058C87.1948 110.669 87.3277 110.37 87.4901 110.161C87.6673 109.936 87.8667 109.787 88.0881 109.712C88.3096 109.637 88.5459 109.6 88.7969 109.6C89.0922 109.6 89.3506 109.645 89.5721 109.735C89.7936 109.809 89.9708 109.959 90.1037 110.183C90.2513 110.407 90.3621 110.714 90.4359 111.103C90.5097 111.477 90.5467 111.955 90.5467 112.538V118.213H94.5556V112.538C94.5556 110.639 95.1979 109.69 96.4825 109.69C96.7188 109.69 96.9402 109.727 97.147 109.802C97.3537 109.877 97.5309 110.019 97.6785 110.228C97.841 110.437 97.9591 110.729 98.0329 111.103C98.1215 111.477 98.1658 111.955 98.1658 112.538V118.213H102.175V110.744C102.175 109.981 102.071 109.331 101.865 108.793C101.673 108.254 101.407 107.821 101.067 107.492C100.728 107.148 100.322 106.901 99.8491 106.751C99.3766 106.587 98.8746 106.505 98.343 106.505C96.6745 106.505 95.3898 107.23 94.4891 108.68C93.6032 107.245 92.3186 106.527 90.6353 106.527C89.2768 106.527 88.0512 107.058 86.9586 108.12C86.9586 107.339 86.3259 106.707 85.5455 106.707ZM108.646 112.426C108.646 112.8 108.713 113.151 108.846 113.48C108.979 113.794 109.156 114.071 109.377 114.31C109.613 114.55 109.887 114.736 110.197 114.871C110.522 115.006 110.869 115.073 111.238 115.073C111.592 115.073 111.924 115.006 112.234 114.871C112.559 114.736 112.832 114.55 113.054 114.31C113.29 114.071 113.475 113.794 113.608 113.48C113.755 113.166 113.829 112.83 113.829 112.471C113.829 112.112 113.755 111.776 113.608 111.462C113.475 111.133 113.29 110.849 113.054 110.609C112.832 110.37 112.559 110.183 112.234 110.049C111.924 109.914 111.592 109.847 111.238 109.847C110.869 109.847 110.522 109.914 110.197 110.049C109.887 110.183 109.613 110.37 109.377 110.609C109.156 110.849 108.979 111.125 108.846 111.439C108.713 111.738 108.646 112.067 108.646 112.426ZM113.696 106.707H117.727V118.213H113.696V116.935C112.84 118.026 111.681 118.572 110.219 118.572C109.392 118.572 108.632 118.422 107.938 118.123C107.244 117.809 106.638 117.376 106.121 116.822C105.605 116.269 105.198 115.619 104.903 114.871C104.623 114.123 104.482 113.308 104.482 112.426C104.482 111.604 104.623 110.826 104.903 110.093C105.184 109.346 105.575 108.695 106.077 108.142C106.579 107.589 107.177 107.155 107.871 106.841C108.565 106.512 109.333 106.348 110.175 106.348C111.592 106.348 112.766 106.849 113.696 107.85V106.707ZM175.546 118.937V100.809H173.105V118.937H175.546ZM147.517 109.782C146.425 110.841 145.879 112.126 145.879 113.635C145.879 115.238 146.414 116.569 147.484 117.628C148.554 118.701 149.881 119.238 151.465 119.238C153.063 119.238 154.412 118.712 155.511 117.66C156.603 116.601 157.149 115.288 157.149 113.721C157.149 112.168 156.607 110.859 155.522 109.793C154.423 108.727 153.085 108.194 151.508 108.194C149.939 108.194 148.609 108.723 147.517 109.782ZM149.22 116.158C148.656 115.549 148.374 114.723 148.374 113.678C148.374 112.705 148.663 111.911 149.241 111.296C149.82 110.68 150.576 110.372 151.508 110.372C152.456 110.372 153.219 110.68 153.797 111.296C154.368 111.904 154.654 112.716 154.654 113.732C154.654 114.748 154.368 115.56 153.797 116.168C153.226 116.777 152.463 117.081 151.508 117.081C150.561 117.081 149.798 116.773 149.22 116.158ZM159.242 113.635C159.242 112.126 159.788 110.841 160.88 109.782C161.972 108.723 163.303 108.194 164.872 108.194C166.449 108.194 167.786 108.727 168.885 109.793C169.97 110.859 170.513 112.168 170.513 113.721C170.513 115.288 169.967 116.601 168.875 117.66C167.775 118.712 166.427 119.238 164.829 119.238C163.245 119.238 161.918 118.701 160.848 117.628C159.778 116.569 159.242 115.238 159.242 113.635ZM161.737 113.678C161.737 114.723 162.019 115.549 162.583 116.158C163.162 116.773 163.925 117.081 164.872 117.081C165.827 117.081 166.59 116.777 167.161 116.168C167.732 115.56 168.018 114.748 168.018 113.732C168.018 112.716 167.732 111.904 167.161 111.296C166.582 110.68 165.819 110.372 164.872 110.372C163.939 110.372 163.184 110.68 162.605 111.296C162.026 111.911 161.737 112.705 161.737 113.678ZM134.917 105.282C135.986 104.763 137.187 104.569 138.368 104.725C139.549 104.881 140.656 105.379 141.55 106.158L143.396 104.083C142.087 102.943 140.466 102.213 138.738 101.985C137.009 101.757 135.251 102.041 133.686 102.801C132.121 103.561 130.819 104.764 129.944 106.257C129.07 107.749 128.662 109.465 128.773 111.187C128.884 112.908 129.509 114.559 130.568 115.93C131.627 117.3 133.073 118.329 134.723 118.887C136.373 119.444 138.153 119.505 139.838 119.061C141.523 118.618 143.037 117.69 144.189 116.395L142.092 114.569C141.305 115.453 140.271 116.087 139.12 116.39C137.969 116.693 136.753 116.652 135.625 116.271C134.498 115.89 133.51 115.187 132.787 114.251C132.063 113.315 131.637 112.187 131.561 111.011C131.485 109.835 131.764 108.662 132.361 107.643C132.958 106.623 133.848 105.802 134.917 105.282ZM122.091 115.097H125.717V118.685H122.091V115.097Z" stroke="#292929" stroke-width="8" mask="url(#path-106-outside-1)"/>
<defs>
<filter id="filter0_di" x="0.105469" y="0" width="225.789" height="225.789" filterUnits="userSpaceOnUse" color-interpolation-filters="sRGB">
<feFlood flood-opacity="0" result="BackgroundImageFix"/>
<feColorMatrix in="SourceAlpha" type="matrix" values="0 0 0 0 0 0 0 0 0 0 0 0 0 0 0 0 0 0 127 0"/>
<feOffset dy="1"/>
<feGaussianBlur stdDeviation="2"/>
<feColorMatrix type="matrix" values="0 0 0 0 0 0 0 0 0 0 0 0 0 0 0 0 0 0 0.25 0"/>
<feBlend mode="normal" in2="BackgroundImageFix" result="effect1_dropShadow"/>
<feBlend mode="normal" in="SourceGraphic" in2="effect1_dropShadow" result="shape"/>
<feColorMatrix in="SourceAlpha" type="matrix" values="0 0 0 0 0 0 0 0 0 0 0 0 0 0 0 0 0 0 127 0" result="hardAlpha"/>
<feOffset dy="1"/>
<feGaussianBlur stdDeviation="0.5"/>
<feComposite in2="hardAlpha" operator="arithmetic" k2="-1" k3="1"/>
<feColorMatrix type="matrix" values="0 0 0 0 0.3625 0 0 0 0 0.388443 0 0 0 0 0.6375 0 0 0 0.6 0"/>
<feBlend mode="normal" in2="shape" result="effect2_innerShadow"/>
</filter>
<linearGradient id="paint0_linear" x1="49" y1="112.006" x2="175.548" y2="112.029" gradientUnits="userSpaceOnUse">
<stop stop-color="#605CF7"/>
<stop offset="0.364583" stop-color="#F15C8D"/>
<stop offset="0.816877" stop-color="#EBA800"/>
<stop offset="1" stop-color="#01B5FF"/>
</linearGradient>
</defs>
</svg>
