<svg width="226" height="226" viewBox="0 0 226 226" fill="none" xmlns="http://www.w3.org/2000/svg">
<g filter="url(#filter0_di22laal)">
<rect x="113" y="4.41421" width="152" height="152" rx="15" transform="rotate(45 113 4.41421)" stroke="#3E4373" stroke-width="2"/>
</g>
<path d="M111.598 63.0902C112.197 61.2475 114.803 61.2475 115.402 63.0902L124.785 91.9676C125.32 93.6157 126.856 94.7315 128.589 94.7315H158.953C160.89 94.7315 161.696 97.2107 160.128 98.3496L135.564 116.197C134.162 117.215 133.575 119.021 134.111 120.669L143.493 149.546C144.092 151.389 141.983 152.921 140.416 151.782L115.851 133.935C114.449 132.917 112.551 132.917 111.149 133.935L86.5842 151.782C85.0168 152.921 82.9079 151.389 83.5066 149.546L92.8894 120.669C93.4249 119.021 92.8383 117.215 91.4363 116.197L66.8717 98.3495C65.3043 97.2108 66.1098 94.7315 68.0473 94.7315H98.4108C100.144 94.7315 101.68 93.6157 102.215 91.9676L111.598 63.0902Z" stroke="url(#paint0_linear4)" stroke-width="2"/>
<defs>
<filter id="filter0_di22laal" x="0.105469" y="0" width="225.789" height="225.789" filterUnits="userSpaceOnUse" color-interpolation-filters="sRGB">
<feFlood flood-opacity="0" result="BackgroundImageFix"/>
<feColorMatrix in="SourceAlpha" type="matrix" values="0 0 0 0 0 0 0 0 0 0 0 0 0 0 0 0 0 0 127 0"/>
<feOffset dy="1"/>
<feGaussianBlur stdDeviation="2"/>
<feColorMatrix type="matrix" values="0 0 0 0 0 0 0 0 0 0 0 0 0 0 0 0 0 0 0.25 0"/>
<feBlend mode="normal" in2="BackgroundImageFix" result="effect1_dropShadow"/>
<feBlend mode="normal" in="SourceGraphic" in2="effect1_dropShadow" result="shape"/>
<feColorMatrix in="SourceAlpha" type="matrix" values="0 0 0 0 0 0 0 0 0 0 0 0 0 0 0 0 0 0 127 0" result="hardAlpha"/>
<feOffset dy="1"/>
<feGaussianBlur stdDeviation="0.5"/>
<feComposite in2="hardAlpha" operator="arithmetic" k2="-1" k3="1"/>
<feColorMatrix type="matrix" values="0 0 0 0 0.3625 0 0 0 0 0.388443 0 0 0 0 0.6375 0 0 0 0.6 0"/>
<feBlend mode="normal" in2="shape" result="effect2_innerShadow"/>
</filter>
<linearGradient id="paint0_linear4" x1="56" y1="111.529" x2="171.002" y2="111.533" gradientUnits="userSpaceOnUse">
<stop stop-color="#605CF7"/>
<stop offset="0.364583" stop-color="#F15C8D"/>
<stop offset="0.816877" stop-color="#EBA800"/>
<stop offset="1" stop-color="#01B5FF"/>
</linearGradient>
</defs>
</svg>
